<svg version="1.1" xmlns="http://www.w3.org/2000/svg" xmlns:xlink="http://www.w3.org/1999/xlink" width="1036" height="672"><defs></defs><g><g transform="translate(-78,-30) scale(1,1)"><rect fill="#ffffff" stroke="none" x="772" y="115" width="332" height="293"></rect></g><g transform="translate(-78,-30) scale(1,1)"><path fill="none" stroke="#000000" d="M 772 115 L 1104 115 L 1104 408 L 772 408 L 772 115 Z Z" stroke-miterlimit="10"></path></g><g transform="translate(-78,-30) scale(1,1)"><rect fill="#ffffff" stroke="none" x="772" y="100" width="132.79999999999995" height="15"></rect></g><g transform="translate(-78,-30) scale(1,1)"><path fill="none" stroke="#000000" d="M 772 100 L 904.8 100 L 904.8 115 L 772 115 L 772 100 Z Z" stroke-miterlimit="10"></path></g><g transform="translate(-78,-30) scale(1,1)"><rect fill="#ffffff" stroke="none" x="772" y="114" width="332" height="294"></rect></g><g transform="translate(-78,-30) scale(1,1)"><path fill="none" stroke="#000000" d="M 772 114 L 1104 114 L 1104 408 L 772 408 L 772 114 Z Z" stroke-miterlimit="10"></path></g><g transform="translate(-78,-30) scale(1,1)"><g><path fill="none" stroke="none"></path><text fill="#000000" stroke="none" font-family="Arial" font-size="13px" font-style="normal" font-weight="bold" text-decoration="none" x="917.5" y="134.5">Photos</text></g></g><g transform="translate(-78,-30) scale(1,1)"><rect fill="#ffffff" stroke="none" x="532" y="55" width="228" height="257"></rect></g><g transform="translate(-78,-30) scale(1,1)"><path fill="none" stroke="#000000" d="M 532 55 L 760 55 L 760 312 L 532 312 L 532 55 Z Z" stroke-miterlimit="10"></path></g><g transform="translate(-78,-30) scale(1,1)"><rect fill="#ffffff" stroke="none" x="532" y="40" width="91.20000000000005" height="15"></rect></g><g transform="translate(-78,-30) scale(1,1)"><path fill="none" stroke="#000000" d="M 532 40 L 623.2 40 L 623.2 55 L 532 55 L 532 40 Z Z" stroke-miterlimit="10"></path></g><g transform="translate(-78,-30) scale(1,1)"><rect fill="#ffffff" stroke="none" x="532" y="54" width="228" height="258"></rect></g><g transform="translate(-78,-30) scale(1,1)"><path fill="none" stroke="#000000" d="M 532 54 L 760 54 L 760 312 L 532 312 L 532 54 Z Z" stroke-miterlimit="10"></path></g><g transform="translate(-78,-30) scale(1,1)"><g><path fill="none" stroke="none"></path><text fill="#000000" stroke="none" font-family="Arial" font-size="13px" font-style="normal" font-weight="bold" text-decoration="none" x="620.5" y="74.5">Aliments</text></g></g><g transform="translate(-78,-30) scale(1,1)"><rect fill="#ffffff" stroke="none" x="88" y="83" width="388" height="296"></rect></g><g transform="translate(-78,-30) scale(1,1)"><path fill="none" stroke="#000000" d="M 88 83 L 476 83 L 476 379 L 88 379 L 88 83 Z Z" stroke-miterlimit="10"></path></g><g transform="translate(-78,-30) scale(1,1)"><rect fill="#ffffff" stroke="none" x="88" y="68" width="155.2" height="15"></rect></g><g transform="translate(-78,-30) scale(1,1)"><path fill="none" stroke="#000000" d="M 88 68 L 243.2 68 L 243.2 83 L 88 83 L 88 68 Z Z" stroke-miterlimit="10"></path></g><g transform="translate(-78,-30) scale(1,1)"><rect fill="#ffffff" stroke="none" x="88" y="82" width="388" height="297"></rect></g><g transform="translate(-78,-30) scale(1,1)"><path fill="none" stroke="#000000" d="M 88 82 L 476 82 L 476 379 L 88 379 L 88 82 Z Z" stroke-miterlimit="10"></path></g><g transform="translate(-78,-30) scale(1,1)"><g><path fill="none" stroke="none"></path><text fill="#000000" stroke="none" font-family="Arial" font-size="13px" font-style="normal" font-weight="bold" text-decoration="none" x="256" y="102.5">Recettes</text></g></g><g transform="translate(-78,-30) scale(1,1)"><rect fill="#ffffff" stroke="none" x="648" y="475" width="232" height="137"></rect></g><g transform="translate(-78,-30) scale(1,1)"><path fill="none" stroke="#000000" d="M 648 475 L 880 475 L 880 612 L 648 612 L 648 475 Z Z" stroke-miterlimit="10"></path></g><g transform="translate(-78,-30) scale(1,1)"><rect fill="#ffffff" stroke="none" x="648" y="460" width="92.79999999999995" height="15"></rect></g><g transform="translate(-78,-30) scale(1,1)"><path fill="none" stroke="#000000" d="M 648 460 L 740.8 460 L 740.8 475 L 648 475 L 648 460 Z Z" stroke-miterlimit="10"></path></g><g transform="translate(-78,-30) scale(1,1)"><rect fill="#ffffff" stroke="none" x="648" y="474" width="232" height="138"></rect></g><g transform="translate(-78,-30) scale(1,1)"><path fill="none" stroke="#000000" d="M 648 474 L 880 474 L 880 612 L 648 612 L 648 474 Z Z" stroke-miterlimit="10"></path></g><g transform="translate(-78,-30) scale(1,1)"><g><path fill="none" stroke="none"></path><text fill="#000000" stroke="none" font-family="Arial" font-size="13px" font-style="normal" font-weight="bold" text-decoration="none" x="719" y="494.5">Authentification</text></g></g><g transform="translate(-78,-30) scale(1,1)"><rect fill="#ffffff" stroke="none" x="196" y="447" width="420" height="245"></rect></g><g transform="translate(-78,-30) scale(1,1)"><path fill="none" stroke="#000000" d="M 196 447 L 616 447 L 616 692 L 196 692 L 196 447 Z Z" stroke-miterlimit="10"></path></g><g transform="translate(-78,-30) scale(1,1)"><rect fill="#ffffff" stroke="none" x="196" y="432" width="168" height="15"></rect></g><g transform="translate(-78,-30) scale(1,1)"><path fill="none" stroke="#000000" d="M 196 432 L 364 432 L 364 447 L 196 447 L 196 432 Z Z" stroke-miterlimit="10"></path></g><g transform="translate(-78,-30) scale(1,1)"><rect fill="#ffffff" stroke="none" x="196" y="446" width="420" height="246"></rect></g><g transform="translate(-78,-30) scale(1,1)"><path fill="none" stroke="#000000" d="M 196 446 L 616 446 L 616 692 L 196 692 L 196 446 Z Z" stroke-miterlimit="10"></path></g><g transform="translate(-78,-30) scale(1,1)"><g><path fill="none" stroke="none"></path><text fill="#000000" stroke="none" font-family="Arial" font-size="13px" font-style="normal" font-weight="bold" text-decoration="none" x="359.5" y="466.5">Synchronisation</text></g></g><g transform="translate(-78,-30) scale(1,1)"><rect fill="#ffffff" stroke="none" x="588" y="356" width="100" height="57"></rect></g><g transform="translate(-78,-30) scale(1,1)"><path fill="none" stroke="#000000" d="M 588 356 L 688 356 L 688 413 L 588 413 L 588 356 Z Z" stroke-miterlimit="10"></path></g><g transform="translate(-78,-30) scale(1,1)"><path fill="none" stroke="#000000" d="M 588 381 L 688 381" stroke-miterlimit="10"></path></g><g transform="translate(-78,-30) scale(1,1)"><path fill="none" stroke="#000000" d="M 588 391 L 688 391" stroke-miterlimit="10"></path></g><g transform="translate(-78,-30) scale(1,1)"><g><path fill="none" stroke="none"></path><text fill="#000000" stroke="none" font-family="Arial" font-size="13px" font-style="normal" font-weight="bold" text-decoration="none" x="608.5" y="375.5">Controleur</text></g></g><g transform="translate(-78,-30) scale(1,1)"><g><path fill="none" stroke="none"></path><text fill="#000000" stroke="none" font-family="Arial" font-size="13px" font-style="normal" font-weight="normal" text-decoration="none" x="593" y="408.5">+PrésenteGUI()</text></g></g><g transform="translate(-78,-30) scale(1,1)"><rect fill="#ffffff" stroke="none" x="716" y="512" width="136" height="72"></rect></g><g transform="translate(-78,-30) scale(1,1)"><path fill="none" stroke="#000000" d="M 716 512 L 852 512 L 852 584 L 716 584 L 716 512 Z Z" stroke-miterlimit="10"></path></g><g transform="translate(-78,-30) scale(1,1)"><path fill="none" stroke="#000000" d="M 716 537 L 852 537" stroke-miterlimit="10"></path></g><g transform="translate(-78,-30) scale(1,1)"><path fill="none" stroke="#000000" d="M 716 547 L 852 547" stroke-miterlimit="10"></path></g><g transform="translate(-78,-30) scale(1,1)"><g><path fill="none" stroke="none"></path><text fill="#000000" stroke="none" font-family="Arial" font-size="13px" font-style="normal" font-weight="bold" text-decoration="none" x="738.5" y="531.5">Authentificateur</text></g></g><g transform="translate(-78,-30) scale(1,1)"><g><path fill="none" stroke="none"></path><text fill="#000000" stroke="none" font-family="Arial" font-size="13px" font-style="normal" font-weight="normal" text-decoration="none" x="721" y="564.5">+ValideLogin()</text></g></g><g transform="translate(-78,-30) scale(1,1)"><g><path fill="none" stroke="none"></path><text fill="#000000" stroke="none" font-family="Arial" font-size="13px" font-style="normal" font-weight="normal" text-decoration="none" x="721" y="579.5">+ValideMotDePasse()</text></g></g><g transform="translate(-78,-30) scale(1,1)"><rect fill="#ffffff" stroke="none" x="988" y="332" width="101" height="57"></rect></g><g transform="translate(-78,-30) scale(1,1)"><path fill="none" stroke="#000000" d="M 988 332 L 1089 332 L 1089 389 L 988 389 L 988 332 Z Z" stroke-miterlimit="10"></path></g><g transform="translate(-78,-30) scale(1,1)"><path fill="none" stroke="#000000" d="M 988 357 L 1089 357" stroke-miterlimit="10"></path></g><g transform="translate(-78,-30) scale(1,1)"><path fill="none" stroke="#000000" d="M 988 367 L 1089 367" stroke-miterlimit="10"></path></g><g transform="translate(-78,-30) scale(1,1)"><g><path fill="none" stroke="none"></path><text fill="#000000" stroke="none" font-family="Arial" font-size="13px" font-style="normal" font-weight="bold" text-decoration="none" x="1011" y="351.5">Scanneur</text></g></g><g transform="translate(-78,-30) scale(1,1)"><g><path fill="none" stroke="none"></path><text fill="#000000" stroke="none" font-family="Arial" font-size="13px" font-style="normal" font-weight="normal" text-decoration="none" x="993" y="384.5">+IdentifieCode()</text></g></g><g transform="translate(-78,-30) scale(1,1)"><rect fill="#ffffff" stroke="none" x="972" y="232" width="125" height="57"></rect></g><g transform="translate(-78,-30) scale(1,1)"><path fill="none" stroke="#000000" d="M 972 232 L 1097 232 L 1097 289 L 972 289 L 972 232 Z Z" stroke-miterlimit="10"></path></g><g transform="translate(-78,-30) scale(1,1)"><path fill="none" stroke="#000000" d="M 972 257 L 1097 257" stroke-miterlimit="10"></path></g><g transform="translate(-78,-30) scale(1,1)"><path fill="none" stroke="#000000" d="M 972 267 L 1097 267" stroke-miterlimit="10"></path></g><g transform="translate(-78,-30) scale(1,1)"><g><path fill="none" stroke="none"></path><text fill="#000000" stroke="none" font-family="Arial" font-size="13px" font-style="normal" font-weight="bold" text-decoration="none" x="1006" y="251.5">Identifieur</text></g></g><g transform="translate(-78,-30) scale(1,1)"><g><path fill="none" stroke="none"></path><text fill="#000000" stroke="none" font-family="Arial" font-size="13px" font-style="normal" font-weight="normal" text-decoration="none" x="977" y="284.5">+AlgoIdentification()</text></g></g><g transform="translate(-78,-30) scale(1,1)"><rect fill="#ffffff" stroke="none" x="784" y="136" width="151" height="57"></rect></g><g transform="translate(-78,-30) scale(1,1)"><path fill="none" stroke="#000000" d="M 784 136 L 935 136 L 935 193 L 784 193 L 784 136 Z Z" stroke-miterlimit="10"></path></g><g transform="translate(-78,-30) scale(1,1)"><path fill="none" stroke="#000000" d="M 784 161 L 935 161" stroke-miterlimit="10"></path></g><g transform="translate(-78,-30) scale(1,1)"><path fill="none" stroke="#000000" d="M 784 171 L 935 171" stroke-miterlimit="10"></path></g><g transform="translate(-78,-30) scale(1,1)"><g><path fill="none" stroke="none"></path><text fill="#000000" stroke="none" font-family="Arial" font-size="13px" font-style="normal" font-weight="bold" text-decoration="none" x="798.5" y="155.5">Gestionnaire appareil</text></g></g><g transform="translate(-78,-30) scale(1,1)"><g><path fill="none" stroke="none"></path><text fill="#000000" stroke="none" font-family="Arial" font-size="13px" font-style="normal" font-weight="normal" text-decoration="none" x="789" y="188.5">+DétecteAppareilPhoto()</text></g></g><g transform="translate(-78,-30) scale(1,1)"><rect fill="#ffffff" stroke="none" x="636" y="84" width="117" height="72"></rect></g><g transform="translate(-78,-30) scale(1,1)"><path fill="none" stroke="#000000" d="M 636 84 L 753 84 L 753 156 L 636 156 L 636 84 Z Z" stroke-miterlimit="10"></path></g><g transform="translate(-78,-30) scale(1,1)"><path fill="none" stroke="#000000" d="M 636 109 L 753 109" stroke-miterlimit="10"></path></g><g transform="translate(-78,-30) scale(1,1)"><path fill="none" stroke="#000000" d="M 636 119 L 753 119" stroke-miterlimit="10"></path></g><g transform="translate(-78,-30) scale(1,1)"><g><path fill="none" stroke="none"></path><text fill="#000000" stroke="none" font-family="Arial" font-size="13px" font-style="normal" font-weight="bold" text-decoration="none" x="674.5" y="103.5">Épicier</text></g></g><g transform="translate(-78,-30) scale(1,1)"><g><path fill="none" stroke="none"></path><text fill="#000000" stroke="none" font-family="Arial" font-size="13px" font-style="normal" font-weight="normal" text-decoration="none" x="641" y="136.5">+VérifieAliments()</text></g></g><g transform="translate(-78,-30) scale(1,1)"><g><path fill="none" stroke="none"></path><text fill="#000000" stroke="none" font-family="Arial" font-size="13px" font-style="normal" font-weight="normal" text-decoration="none" x="641" y="151.5">+StockeAliments()</text></g></g><g transform="translate(-78,-30) scale(1,1)"><rect fill="#ffffff" stroke="none" x="288" y="220" width="159" height="87"></rect></g><g transform="translate(-78,-30) scale(1,1)"><path fill="none" stroke="#000000" d="M 288 220 L 447 220 L 447 307 L 288 307 L 288 220 Z Z" stroke-miterlimit="10"></path></g><g transform="translate(-78,-30) scale(1,1)"><path fill="none" stroke="#000000" d="M 288 245 L 447 245" stroke-miterlimit="10"></path></g><g transform="translate(-78,-30) scale(1,1)"><path fill="none" stroke="#000000" d="M 288 255 L 447 255" stroke-miterlimit="10"></path></g><g transform="translate(-78,-30) scale(1,1)"><g><path fill="none" stroke="none"></path><text fill="#000000" stroke="none" font-family="Arial" font-size="13px" font-style="normal" font-weight="bold" text-decoration="none" x="296.5" y="239.5">Gestionnaire de recettes</text></g></g><g transform="translate(-78,-30) scale(1,1)"><g><path fill="none" stroke="none"></path><text fill="#000000" stroke="none" font-family="Arial" font-size="13px" font-style="normal" font-weight="normal" text-decoration="none" x="293" y="272.5">+AjouteRecette()</text></g></g><g transform="translate(-78,-30) scale(1,1)"><g><path fill="none" stroke="none"></path><text fill="#000000" stroke="none" font-family="Arial" font-size="13px" font-style="normal" font-weight="normal" text-decoration="none" x="293" y="287.5">+SupprimeRecette()</text></g></g><g transform="translate(-78,-30) scale(1,1)"><g><path fill="none" stroke="none"></path><text fill="#000000" stroke="none" font-family="Arial" font-size="13px" font-style="normal" font-weight="normal" text-decoration="none" x="293" y="302.5">+GérerHistorique()</text></g></g><g transform="translate(-78,-30) scale(1,1)"><rect fill="#ffffff" stroke="none" x="540" y="220" width="113" height="72"></rect></g><g transform="translate(-78,-30) scale(1,1)"><path fill="none" stroke="#000000" d="M 540 220 L 653 220 L 653 292 L 540 292 L 540 220 Z Z" stroke-miterlimit="10"></path></g><g transform="translate(-78,-30) scale(1,1)"><path fill="none" stroke="#000000" d="M 540 245 L 653 245" stroke-miterlimit="10"></path></g><g transform="translate(-78,-30) scale(1,1)"><path fill="none" stroke="#000000" d="M 540 255 L 653 255" stroke-miterlimit="10"></path></g><g transform="translate(-78,-30) scale(1,1)"><g><path fill="none" stroke="none"></path><text fill="#000000" stroke="none" font-family="Arial" font-size="13px" font-style="normal" font-weight="bold" text-decoration="none" x="558.5" y="239.5">Nutritionniste</text></g></g><g transform="translate(-78,-30) scale(1,1)"><g><path fill="none" stroke="none"></path><text fill="#000000" stroke="none" font-family="Arial" font-size="13px" font-style="normal" font-weight="normal" text-decoration="none" x="545" y="272.5">+RepèreCalories()</text></g></g><g transform="translate(-78,-30) scale(1,1)"><g><path fill="none" stroke="none"></path><text fill="#000000" stroke="none" font-family="Arial" font-size="13px" font-style="normal" font-weight="normal" text-decoration="none" x="545" y="287.5">+PrépareMenu()</text></g></g><g transform="translate(-78,-30) scale(1,1)"><rect fill="#ffffff" stroke="none" x="148" y="116" width="184" height="57"></rect></g><g transform="translate(-78,-30) scale(1,1)"><path fill="none" stroke="#000000" d="M 148 116 L 332 116 L 332 173 L 148 173 L 148 116 Z Z" stroke-miterlimit="10"></path></g><g transform="translate(-78,-30) scale(1,1)"><path fill="none" stroke="#000000" d="M 148 141 L 332 141" stroke-miterlimit="10"></path></g><g transform="translate(-78,-30) scale(1,1)"><path fill="none" stroke="#000000" d="M 148 151 L 332 151" stroke-miterlimit="10"></path></g><g transform="translate(-78,-30) scale(1,1)"><g><path fill="none" stroke="none"></path><text fill="#000000" stroke="none" font-family="Arial" font-size="13px" font-style="normal" font-weight="bold" text-decoration="none" x="215" y="135.5">Cuisinier</text></g></g><g transform="translate(-78,-30) scale(1,1)"><g><path fill="none" stroke="none"></path><text fill="#000000" stroke="none" font-family="Arial" font-size="13px" font-style="normal" font-weight="normal" text-decoration="none" x="153" y="168.5">+GérerRecettesPersonnelles()</text></g></g><g transform="translate(-78,-30) scale(1,1)"><rect fill="#ffffff" stroke="none" x="384" y="480" width="157" height="57"></rect></g><g transform="translate(-78,-30) scale(1,1)"><path fill="none" stroke="#000000" d="M 384 480 L 541 480 L 541 537 L 384 537 L 384 480 Z Z" stroke-miterlimit="10"></path></g><g transform="translate(-78,-30) scale(1,1)"><path fill="none" stroke="#000000" d="M 384 505 L 541 505" stroke-miterlimit="10"></path></g><g transform="translate(-78,-30) scale(1,1)"><path fill="none" stroke="#000000" d="M 384 515 L 541 515" stroke-miterlimit="10"></path></g><g transform="translate(-78,-30) scale(1,1)"><g><path fill="none" stroke="none"></path><text fill="#000000" stroke="none" font-family="Arial" font-size="13px" font-style="normal" font-weight="bold" text-decoration="none" x="393.5" y="499.5">Gestionnaire de compte</text></g></g><g transform="translate(-78,-30) scale(1,1)"><g><path fill="none" stroke="none"></path><text fill="#000000" stroke="none" font-family="Arial" font-size="13px" font-style="normal" font-weight="normal" text-decoration="none" x="389" y="532.5">+ValideIdentifiantCloud()</text></g></g><g transform="translate(-78,-30) scale(1,1)"><rect fill="#ffffff" stroke="none" x="204" y="600" width="200" height="85"></rect></g><g transform="translate(-78,-30) scale(1,1)"><path fill="none" stroke="#000000" d="M 204 600 L 404 600 L 404 685 L 204 685 L 204 600 Z Z" stroke-miterlimit="10"></path></g><g transform="translate(-78,-30) scale(1,1)"><path fill="none" stroke="#000000" d="M 204 625 L 404 625" stroke-miterlimit="10"></path></g><g transform="translate(-78,-30) scale(1,1)"><path fill="none" stroke="#000000" d="M 204 648 L 404 648" stroke-miterlimit="10"></path></g><g transform="translate(-78,-30) scale(1,1)"><g><path fill="none" stroke="none"></path><text fill="#000000" stroke="none" font-family="Arial" font-size="13px" font-style="normal" font-weight="bold" text-decoration="none" x="215.5" y="619.5">Correspondant des partenaires</text></g></g><g transform="translate(-78,-30) scale(1,1)"><g><path fill="none" stroke="none"></path><text fill="#000000" stroke="none" font-family="Arial" font-size="13px" font-style="normal" font-weight="normal" text-decoration="none" x="209" y="642.5">-BDDPartenaires</text></g></g><g transform="translate(-78,-30) scale(1,1)"><g><path fill="none" stroke="none"></path><text fill="#000000" stroke="none" font-family="Arial" font-size="13px" font-style="normal" font-weight="normal" text-decoration="none" x="209" y="665.5">+RechercheCorrespondances()</text></g></g><g transform="translate(-78,-30) scale(1,1)"><g><path fill="none" stroke="none"></path><text fill="#000000" stroke="none" font-family="Arial" font-size="13px" font-style="normal" font-weight="normal" text-decoration="none" x="209" y="680.5">+RechercheRecettes()</text></g></g><g transform="translate(-78,-30) scale(1,1)"><path fill="none" stroke="#000000" d="M 539 258 L 448 261" stroke-miterlimit="10"></path></g><g transform="translate(-78,-30) scale(1,1)"><path fill="none" stroke="#000000" d="M 458.0184568693854 256.45791656216386 L 448 261 L 458.2958567889764 264.87238078975827" stroke-miterlimit="10"></path></g><g transform="translate(-78,-30) scale(1,1)"><g><path fill="none" stroke="none"></path><text fill="#000000" stroke="none" font-family="Arial" font-size="13px" font-style="normal" font-weight="normal" text-decoration="none" x="420" y="259">+ConseillerAliments</text></g></g><g transform="translate(-78,-30) scale(1,1)"><path fill="none" stroke="#000000" d="M 272 174 L 320 219" stroke-miterlimit="10"></path></g><g transform="translate(-78,-30) scale(1,1)"><path fill="#FFFFFF" stroke="none" d="M 309.70688827168857 215.12032849992457 L 320 219 L 315.4650129238797 208.97832887092068 L 303.95018150891815 203.95329516461075"></path></g><g transform="translate(-78,-30) scale(1,1)"><path fill="none" stroke="#000000" d="M 309.70688827168857 215.12032849992457 L 320 219 L 315.4650129238797 208.97832887092068 L 303.95018150891815 203.95329516461075 L 309.70688827168857 215.12032849992457" stroke-miterlimit="10"></path></g><g transform="translate(-78,-30) scale(1,1)"><g><path fill="none" stroke="none"></path><text fill="#000000" stroke="none" font-family="Arial" font-size="13px" font-style="normal" font-weight="normal" text-decoration="none" x="257" y="203">+CréeRecettes</text></g></g><g transform="translate(-78,-30) scale(1,1)"><path fill="none" stroke="#000000" d="M 448 299 L 587 361" stroke-miterlimit="10"></path></g><g transform="translate(-78,-30) scale(1,1)"><path fill="#000000" stroke="none" d="M 576.0039676326396 360.70458135474667 L 587 361 L 579.4335234742404 353.01573841954513 L 566.9080851562287 352.03813870277827"></path></g><g transform="translate(-78,-30) scale(1,1)"><path fill="none" stroke="#000000" d="M 576.0039676326396 360.70458135474667 L 587 361 L 579.4335234742404 353.01573841954513 L 566.9080851562287 352.03813870277827 L 576.0039676326396 360.70458135474667" stroke-miterlimit="10"></path></g><g transform="translate(-78,-30) scale(1,1)"><path fill="none" stroke="#000000" d="M 667 157 L 623 219" stroke-miterlimit="10"></path></g><g transform="translate(-78,-30) scale(1,1)"><path fill="#FFFFFF" stroke="none" d="M 625.4487258402823 208.2760202462363 L 623 219 L 632.3145094521238 213.1485118417368 L 635.7324341307046 201.05884281582522"></path></g><g transform="translate(-78,-30) scale(1,1)"><path fill="none" stroke="#000000" d="M 625.4487258402823 208.2760202462363 L 623 219 L 632.3145094521238 213.1485118417368 L 635.7324341307046 201.05884281582522 L 625.4487258402823 208.2760202462363" stroke-miterlimit="10"></path></g><g transform="translate(-78,-30) scale(1,1)"><g><path fill="none" stroke="none"></path><text fill="#000000" stroke="none" font-family="Arial" font-size="13px" font-style="normal" font-weight="normal" text-decoration="none" x="574" y="188">+VérifieAliments</text></g></g><g transform="translate(-78,-30) scale(1,1)"><path fill="none" stroke="#000000" d="M 686 157 L 644 355" stroke-miterlimit="10"></path></g><g transform="translate(-78,-30) scale(1,1)"><path fill="#000000" stroke="none" d="M 641.9909038819417 344.18503200243276 L 644 355 L 650.2266917202606 345.9320173014701 L 648.5650925838114 333.4788492477463"></path></g><g transform="translate(-78,-30) scale(1,1)"><path fill="none" stroke="#000000" d="M 641.9909038819417 344.18503200243276 L 644 355 L 650.2266917202606 345.9320173014701 L 648.5650925838114 333.4788492477463 L 641.9909038819417 344.18503200243276" stroke-miterlimit="10"></path></g><g transform="translate(-78,-30) scale(1,1)"><path fill="none" stroke="#000000" d="M 751 511 L 665 414" stroke-miterlimit="10"></path></g><g transform="translate(-78,-30) scale(1,1)"><path fill="#000000" stroke="none" d="M 674.8917897036205 418.81170411178283 L 665 414 L 668.5921629709965 424.39694018400616 L 679.5949252041172 430.4617179627834"></path></g><g transform="translate(-78,-30) scale(1,1)"><path fill="none" stroke="#000000" d="M 674.8917897036205 418.81170411178283 L 665 414 L 668.5921629709965 424.39694018400616 L 679.5949252041172 430.4617179627834 L 674.8917897036205 418.81170411178283" stroke-miterlimit="10"></path></g><g transform="translate(-78,-30) scale(1,1)"><path fill="none" stroke="#000000" d="M 715 539 L 542 518" stroke-miterlimit="10"></path></g><g transform="translate(-78,-30) scale(1,1)"><path fill="none" stroke="#000000" d="M 552.5958777955489 515.0457871197568 L 542 518 L 551.5813610025452 523.4034730811679" stroke-miterlimit="10"></path></g><g transform="translate(-78,-30) scale(1,1)"><g><path fill="none" stroke="none"></path><text fill="#000000" stroke="none" font-family="Arial" font-size="13px" font-style="normal" font-weight="normal" text-decoration="none" x="561" y="545">+FournitInfoUtilisateur</text></g></g><g transform="translate(-78,-30) scale(1,1)"><path fill="none" stroke="#000000" d="M 503 479 L 595 414" stroke-miterlimit="10"></path></g><g transform="translate(-78,-30) scale(1,1)"><path fill="none" stroke="#000000" d="M 589.1289473729004 423.3021901211396 L 595 414 L 584.2708971601305 416.4261805892191" stroke-miterlimit="10"></path></g><g transform="translate(-78,-30) scale(1,1)"><g><path fill="none" stroke="none"></path><text fill="#000000" stroke="none" font-family="Arial" font-size="13px" font-style="normal" font-weight="normal" text-decoration="none" x="470" y="440">+DébloqueOptionsCloud</text></g></g><g transform="translate(-78,-30) scale(1,1)"><path fill="none" stroke="#000000" d="M 1038 390 L 1040 644 L 405 642" stroke-miterlimit="10"></path></g><g transform="translate(-78,-30) scale(1,1)"><path fill="none" stroke="#000000" d="M 415.17588270891116 637.822511389066 L 405 642 L 415.149366193151 646.241505142909" stroke-miterlimit="10"></path></g><g transform="translate(-78,-30) scale(1,1)"><g><path fill="none" stroke="none"></path><text fill="#000000" stroke="none" font-family="Arial" font-size="13px" font-style="normal" font-weight="normal" text-decoration="none" x="1012" y="665">+MàJ BD</text></g></g><g transform="translate(-78,-30) scale(1,1)"><rect fill="#ffffff" stroke="none" x="808" y="284" width="71" height="57"></rect></g><g transform="translate(-78,-30) scale(1,1)"><path fill="none" stroke="#000000" d="M 808 284 L 879 284 L 879 341 L 808 341 L 808 284 Z Z" stroke-miterlimit="10"></path></g><g transform="translate(-78,-30) scale(1,1)"><path fill="none" stroke="#000000" d="M 808 309 L 879 309" stroke-miterlimit="10"></path></g><g transform="translate(-78,-30) scale(1,1)"><path fill="none" stroke="#000000" d="M 808 319 L 879 319" stroke-miterlimit="10"></path></g><g transform="translate(-78,-30) scale(1,1)"><g><path fill="none" stroke="none"></path><text fill="#000000" stroke="none" font-family="Arial" font-size="13px" font-style="normal" font-weight="bold" text-decoration="none" x="814.5" y="303.5">Analyseur</text></g></g><g transform="translate(-78,-30) scale(1,1)"><g><path fill="none" stroke="none"></path><text fill="#000000" stroke="none" font-family="Arial" font-size="13px" font-style="normal" font-weight="normal" text-decoration="none" x="813" y="336.5">+Identifie()</text></g></g><g transform="translate(-78,-30) scale(1,1)"><path fill="none" stroke="#000000" d="M 971 277 L 880 302" stroke-miterlimit="10"></path></g><g transform="translate(-78,-30) scale(1,1)"><path fill="#FFFFFF" stroke="none" d="M 897.3688994763639 288.4973583703053 L 880 302 L 901.8294760617733 304.7338571411955"></path></g><g transform="translate(-78,-30) scale(1,1)"><path fill="none" stroke="#000000" d="M 897.3688994763639 288.4973583703053 L 880 302 L 901.8294760617733 304.7338571411955 L 897.3688994763639 288.4973583703053" stroke-miterlimit="10"></path></g><g transform="translate(-78,-30) scale(1,1)"><path fill="none" stroke="#000000" d="M 987 347 L 880 321" stroke-miterlimit="10"></path></g><g transform="translate(-78,-30) scale(1,1)"><path fill="#FFFFFF" stroke="none" d="M 901.7385302724722 317.61823986764165 L 880 321 L 897.7627276906311 333.9801966467573"></path></g><g transform="translate(-78,-30) scale(1,1)"><path fill="none" stroke="#000000" d="M 901.7385302724722 317.61823986764165 L 880 321 L 897.7627276906311 333.9801966467573 L 901.7385302724722 317.61823986764165" stroke-miterlimit="10"></path></g><g transform="translate(-78,-30) scale(1,1)"><path fill="none" stroke="#000000" d="M 820 283 L 723 157" stroke-miterlimit="10"></path></g><g transform="translate(-78,-30) scale(1,1)"><path fill="none" stroke="#000000" d="M 732.5349607960851 162.48493597201642 L 723 157 L 725.8638000170729 167.6206708574465" stroke-miterlimit="10"></path></g><g transform="translate(-78,-30) scale(1,1)"><g><path fill="none" stroke="none"></path><text fill="#000000" stroke="none" font-family="Arial" font-size="13px" font-style="normal" font-weight="normal" text-decoration="none" x="779" y="257">+FournitListeAliments</text></g></g><g transform="translate(-78,-30) scale(1,1)"><path fill="none" stroke="#000000" d="M 914 194 L 981 231" stroke-miterlimit="10"></path></g><g transform="translate(-78,-30) scale(1,1)"><path fill="none" stroke="#000000" d="M 970.0687495643683 229.7720896150364 L 981 231 L 974.1387024500136 222.40217493021925" stroke-miterlimit="10"></path></g><g transform="translate(-78,-30) scale(1,1)"><g><path fill="none" stroke="none"></path><text fill="#000000" stroke="none" font-family="Arial" font-size="13px" font-style="normal" font-weight="normal" text-decoration="none" x="908" y="214">+FournitPhoto</text></g></g><g transform="translate(-78,-30) scale(1,1)"><path fill="none" stroke="#000000" d="M 245 174 L 268 316 L 433 479" stroke-miterlimit="10"></path></g><g transform="translate(-78,-30) scale(1,1)"><path fill="none" stroke="#000000" d="M 422.8118467484619 474.85252687493056 L 433 479 L 428.7285941195952 468.86318137654405" stroke-miterlimit="10"></path></g><g transform="translate(-78,-30) scale(1,1)"><g><path fill="none" stroke="none"></path><text fill="#000000" stroke="none" font-family="Arial" font-size="13px" font-style="normal" font-weight="normal" text-decoration="none" x="251" y="344">+MàJ recettes</text></g></g></g></svg>