<svg version="1.1" xmlns="http://www.w3.org/2000/svg" xmlns:xlink="http://www.w3.org/1999/xlink" width="844" height="536"><defs></defs><g><g transform="translate(-134,-54) scale(1,1)"><rect fill="#C0C0C0" stroke="none" x="175" y="171" width="64" height="15" opacity="0.2"></rect></g><g transform="translate(-134,-54) scale(1,1)"><rect fill="#C0C0C0" stroke="none" x="175" y="185" width="160" height="74" opacity="0.2"></rect></g><g transform="translate(-134,-54) scale(1,1)"><rect fill="#ffffff" stroke="none" x="168" y="179" width="160" height="73"></rect></g><g transform="translate(-134,-54) scale(1,1)"><path fill="none" stroke="#000000" d="M 168 179 L 328 179 L 328 252 L 168 252 L 168 179 Z Z" stroke-miterlimit="10"></path></g><g transform="translate(-134,-54) scale(1,1)"><rect fill="#ffffff" stroke="none" x="168" y="164" width="64" height="15"></rect></g><g transform="translate(-134,-54) scale(1,1)"><path fill="none" stroke="#000000" d="M 168 164 L 232 164 L 232 179 L 168 179 L 168 164 Z Z" stroke-miterlimit="10"></path></g><g transform="translate(-134,-54) scale(1,1)"><rect fill="#ffffff" stroke="none" x="168" y="178" width="160" height="74"></rect></g><g transform="translate(-134,-54) scale(1,1)"><path fill="none" stroke="#000000" d="M 168 178 L 328 178 L 328 252 L 168 252 L 168 178 Z Z" stroke-miterlimit="10"></path></g><g transform="translate(-134,-54) scale(1,1)"><g><path fill="none" stroke="none"></path><text fill="#000000" stroke="none" font-family="Arial" font-size="13px" font-style="normal" font-weight="bold" text-decoration="none" x="226" y="198.5">Aliment</text></g></g><g transform="translate(-134,-54) scale(1,1)"><rect fill="#C0C0C0" stroke="none" x="799" y="195" width="70.39999999999998" height="15" opacity="0.2"></rect></g><g transform="translate(-134,-54) scale(1,1)"><rect fill="#C0C0C0" stroke="none" x="799" y="209" width="176" height="74" opacity="0.2"></rect></g><g transform="translate(-134,-54) scale(1,1)"><rect fill="#ffffff" stroke="none" x="792" y="203" width="176" height="73"></rect></g><g transform="translate(-134,-54) scale(1,1)"><path fill="none" stroke="#000000" d="M 792 203 L 968 203 L 968 276 L 792 276 L 792 203 Z Z" stroke-miterlimit="10"></path></g><g transform="translate(-134,-54) scale(1,1)"><rect fill="#ffffff" stroke="none" x="792" y="188" width="70.39999999999998" height="15"></rect></g><g transform="translate(-134,-54) scale(1,1)"><path fill="none" stroke="#000000" d="M 792 188 L 862.4 188 L 862.4 203 L 792 203 L 792 188 Z Z" stroke-miterlimit="10"></path></g><g transform="translate(-134,-54) scale(1,1)"><rect fill="#ffffff" stroke="none" x="792" y="202" width="176" height="74"></rect></g><g transform="translate(-134,-54) scale(1,1)"><path fill="none" stroke="#000000" d="M 792 202 L 968 202 L 968 276 L 792 276 L 792 202 Z Z" stroke-miterlimit="10"></path></g><g transform="translate(-134,-54) scale(1,1)"><g><path fill="none" stroke="none"></path><text fill="#000000" stroke="none" font-family="Arial" font-size="13px" font-style="normal" font-weight="bold" text-decoration="none" x="857.5" y="222.5">Recette</text></g></g><g transform="translate(-134,-54) scale(1,1)"><rect fill="#C0C0C0" stroke="none" x="435" y="187" width="213" height="102" opacity="0.2"></rect></g><g transform="translate(-134,-54) scale(1,1)"><rect fill="#ffffff" stroke="none" x="428" y="180" width="213" height="102"></rect></g><g transform="translate(-134,-54) scale(1,1)"><path fill="none" stroke="#000000" d="M 428 180 L 641 180 L 641 282 L 428 282 L 428 180 Z Z" stroke-miterlimit="10"></path></g><g transform="translate(-134,-54) scale(1,1)"><path fill="none" stroke="#000000" d="M 428 205 L 641 205" stroke-miterlimit="10"></path></g><g transform="translate(-134,-54) scale(1,1)"><path fill="none" stroke="#000000" d="M 428 215 L 641 215" stroke-miterlimit="10"></path></g><g transform="translate(-134,-54) scale(1,1)"><g><path fill="none" stroke="none"></path><text fill="#000000" stroke="none" font-family="Arial" font-size="13px" font-style="normal" font-weight="bold" text-decoration="none" x="461.5" y="199.5">Moteur de Recherche BD</text></g></g><g transform="translate(-134,-54) scale(1,1)"><g><path fill="none" stroke="none"></path><text fill="#000000" stroke="none" font-family="Arial" font-size="13px" font-style="normal" font-weight="normal" text-decoration="none" x="433" y="232.5">+EnvoyerInfoUtilisateur()</text></g></g><g transform="translate(-134,-54) scale(1,1)"><g><path fill="none" stroke="none"></path><text fill="#000000" stroke="none" font-family="Arial" font-size="13px" font-style="normal" font-weight="normal" text-decoration="none" x="433" y="247.5">+ObtenirChamp()</text></g></g><g transform="translate(-134,-54) scale(1,1)"><g><path fill="none" stroke="none"></path><text fill="#000000" stroke="none" font-family="Arial" font-size="13px" font-style="normal" font-weight="normal" text-decoration="none" x="433" y="262.5">+ConsulterBD(Recette)</text></g></g><g transform="translate(-134,-54) scale(1,1)"><rect fill="#C0C0C0" stroke="none" x="151" y="311" width="221" height="87" opacity="0.2"></rect></g><g transform="translate(-134,-54) scale(1,1)"><rect fill="#ffffff" stroke="none" x="144" y="304" width="221" height="87"></rect></g><g transform="translate(-134,-54) scale(1,1)"><path fill="none" stroke="#000000" d="M 144 304 L 365 304 L 365 391 L 144 391 L 144 304 Z Z" stroke-miterlimit="10"></path></g><g transform="translate(-134,-54) scale(1,1)"><path fill="none" stroke="#000000" d="M 144 329 L 365 329" stroke-miterlimit="10"></path></g><g transform="translate(-134,-54) scale(1,1)"><path fill="none" stroke="#000000" d="M 144 339 L 365 339" stroke-miterlimit="10"></path></g><g transform="translate(-134,-54) scale(1,1)"><g><path fill="none" stroke="none"></path><text fill="#000000" stroke="none" font-family="Arial" font-size="13px" font-style="normal" font-weight="bold" text-decoration="none" x="217.5" y="323.5">GP Aliments</text></g></g><g transform="translate(-134,-54) scale(1,1)"><g><path fill="none" stroke="none"></path><text fill="#000000" stroke="none" font-family="Arial" font-size="13px" font-style="normal" font-weight="normal" text-decoration="none" x="149" y="356.5">+ObtenirChamp(CodeBarre, Aliment)</text></g></g><g transform="translate(-134,-54) scale(1,1)"><g><path fill="none" stroke="none"></path><text fill="#000000" stroke="none" font-family="Arial" font-size="13px" font-style="normal" font-weight="normal" text-decoration="none" x="149" y="371.5">+ObtenirChamp(Nom, Aliment)</text></g></g><g transform="translate(-134,-54) scale(1,1)"><g><path fill="none" stroke="none"></path><text fill="#000000" stroke="none" font-family="Arial" font-size="13px" font-style="normal" font-weight="normal" text-decoration="none" x="149" y="386.5">+EnvoyerInfoUtilisateur(Aliment)</text></g></g><g transform="translate(-134,-54) scale(1,1)"><rect fill="#C0C0C0" stroke="none" x="619" y="311" width="346" height="102" opacity="0.2"></rect></g><g transform="translate(-134,-54) scale(1,1)"><rect fill="#ffffff" stroke="none" x="612" y="304" width="346" height="102"></rect></g><g transform="translate(-134,-54) scale(1,1)"><path fill="none" stroke="#000000" d="M 612 304 L 958 304 L 958 406 L 612 406 L 612 304 Z Z" stroke-miterlimit="10"></path></g><g transform="translate(-134,-54) scale(1,1)"><path fill="none" stroke="#000000" d="M 612 329 L 958 329" stroke-miterlimit="10"></path></g><g transform="translate(-134,-54) scale(1,1)"><path fill="none" stroke="#000000" d="M 612 339 L 958 339" stroke-miterlimit="10"></path></g><g transform="translate(-134,-54) scale(1,1)"><g><path fill="none" stroke="none"></path><text fill="#000000" stroke="none" font-family="Arial" font-size="13px" font-style="normal" font-weight="bold" text-decoration="none" x="747.5" y="323.5">GP Recettes</text></g></g><g transform="translate(-134,-54) scale(1,1)"><g><path fill="none" stroke="none"></path><text fill="#000000" stroke="none" font-family="Arial" font-size="13px" font-style="normal" font-weight="normal" text-decoration="none" x="617" y="356.5">+RechercheCorrespondance(liste&lt;Aliment&gt;)</text></g></g><g transform="translate(-134,-54) scale(1,1)"><g><path fill="none" stroke="none"></path><text fill="#000000" stroke="none" font-family="Arial" font-size="13px" font-style="normal" font-weight="normal" text-decoration="none" x="617" y="371.5">+ObtenirChamp(liste&lt;Aliment&gt;, Recette)</text></g></g><g transform="translate(-134,-54) scale(1,1)"><g><path fill="none" stroke="none"></path><text fill="#000000" stroke="none" font-family="Arial" font-size="13px" font-style="normal" font-weight="normal" text-decoration="none" x="617" y="386.5">+TrouverProximiteRecette(liste&lt;Recette&gt;, liste&lt;Aliment&gt;)</text></g></g><g transform="translate(-134,-54) scale(1,1)"><g><path fill="none" stroke="none"></path><text fill="#000000" stroke="none" font-family="Arial" font-size="13px" font-style="normal" font-weight="normal" text-decoration="none" x="617" y="401.5">+EnvoyerInfoUtilisateur(liste&lt;Aliment&gt;)</text></g></g><g transform="translate(-134,-54) scale(1,1)"><rect fill="#C0C0C0" stroke="none" x="187" y="211" width="136" height="44" opacity="0.2"></rect></g><g transform="translate(-134,-54) scale(1,1)"><rect fill="#ffffff" stroke="none" x="180" y="204" width="136" height="44"></rect></g><g transform="translate(-134,-54) scale(1,1)"><path fill="none" stroke="#000000" d="M 180 204 L 316 204 L 316 248 L 180 248 L 180 204 Z Z" stroke-miterlimit="10"></path></g><g transform="translate(-134,-54) scale(1,1)"><path fill="none" stroke="#000000" d="M 180 229 L 316 229" stroke-miterlimit="10"></path></g><g transform="translate(-134,-54) scale(1,1)"><path fill="none" stroke="#000000" d="M 180 239 L 316 239" stroke-miterlimit="10"></path></g><g transform="translate(-134,-54) scale(1,1)"><g><path fill="none" stroke="none"></path><text fill="#000000" stroke="none" font-family="Arial" font-size="13px" font-style="normal" font-weight="bold" text-decoration="none" x="189.5" y="223.5">Superviseur Aliment</text></g></g><g transform="translate(-134,-54) scale(1,1)"><rect fill="#C0C0C0" stroke="none" x="811" y="231" width="153" height="44" opacity="0.2"></rect></g><g transform="translate(-134,-54) scale(1,1)"><rect fill="#ffffff" stroke="none" x="804" y="224" width="153" height="44"></rect></g><g transform="translate(-134,-54) scale(1,1)"><path fill="none" stroke="#000000" d="M 804 224 L 957 224 L 957 268 L 804 268 L 804 224 Z Z" stroke-miterlimit="10"></path></g><g transform="translate(-134,-54) scale(1,1)"><path fill="none" stroke="#000000" d="M 804 249 L 957 249" stroke-miterlimit="10"></path></g><g transform="translate(-134,-54) scale(1,1)"><path fill="none" stroke="#000000" d="M 804 259 L 957 259" stroke-miterlimit="10"></path></g><g transform="translate(-134,-54) scale(1,1)"><g><path fill="none" stroke="none"></path><text fill="#000000" stroke="none" font-family="Arial" font-size="13px" font-style="normal" font-weight="bold" text-decoration="none" x="813" y="243.5">Superviseur Recherche</text></g></g><g transform="translate(-134,-54) scale(1,1)"><path fill="none" stroke="#000000" d="M 360 303 L 427 275" stroke-miterlimit="10"></path></g><g transform="translate(-134,-54) scale(1,1)"><path fill="#FFFFFF" stroke="none" d="M 411.49275162921714 290.60529551039815 L 427 275 L 405.00010924165286 275.06932979729794"></path></g><g transform="translate(-134,-54) scale(1,1)"><path fill="none" stroke="#000000" d="M 411.49275162921714 290.60529551039815 L 427 275 L 405.00010924165286 275.06932979729794 L 411.49275162921714 290.60529551039815" stroke-miterlimit="10"></path></g><g transform="translate(-134,-54) scale(1,1)"><path fill="none" stroke="#000000" d="M 680 303 L 639 283" stroke-miterlimit="10"></path></g><g transform="translate(-134,-54) scale(1,1)"><path fill="#FFFFFF" stroke="none" d="M 660.9588870980447 284.3443501832948 L 639 283 L 653.57667884344 299.47787710523437"></path></g><g transform="translate(-134,-54) scale(1,1)"><path fill="none" stroke="#000000" d="M 660.9588870980447 284.3443501832948 L 639 283 L 653.57667884344 299.47787710523437 L 660.9588870980447 284.3443501832948" stroke-miterlimit="10"></path></g><g transform="translate(-134,-54) scale(1,1)"><rect fill="#C0C0C0" stroke="none" x="191" y="459" width="143" height="57" opacity="0.2"></rect></g><g transform="translate(-134,-54) scale(1,1)"><rect fill="#ffffff" stroke="none" x="184" y="452" width="143" height="57"></rect></g><g transform="translate(-134,-54) scale(1,1)"><path fill="none" stroke="#000000" d="M 184 452 L 327 452 L 327 509 L 184 509 L 184 452 Z Z" stroke-miterlimit="10"></path></g><g transform="translate(-134,-54) scale(1,1)"><path fill="none" stroke="#000000" d="M 184 477 L 327 477" stroke-miterlimit="10"></path></g><g transform="translate(-134,-54) scale(1,1)"><path fill="none" stroke="#000000" d="M 184 487 L 327 487" stroke-miterlimit="10"></path></g><g transform="translate(-134,-54) scale(1,1)"><g><path fill="none" stroke="none"></path><text fill="#000000" stroke="none" font-family="Arial" font-size="13px" font-style="normal" font-weight="bold" text-decoration="none" x="227" y="471.5">Mediateur</text></g></g><g transform="translate(-134,-54) scale(1,1)"><g><path fill="none" stroke="none"></path><text fill="#000000" stroke="none" font-family="Arial" font-size="13px" font-style="normal" font-weight="normal" text-decoration="none" x="189" y="504.5">+ChercherCompromis()</text></g></g><g transform="translate(-134,-54) scale(1,1)"><path fill="none" stroke="#000000" d="M 254 392 L 255 451" stroke-miterlimit="10"></path></g><g transform="translate(-134,-54) scale(1,1)"><path fill="none" stroke="#000000" d="M 250.61886276530458 440.9101220755271 L 255 451 L 259.03668925377724 440.76744705029876" stroke-miterlimit="10"></path></g><g transform="translate(-134,-54) scale(1,1)"><path fill="none" stroke="#000000" d="M 252 303 L 249 249" stroke-miterlimit="10"></path></g><g transform="translate(-134,-54) scale(1,1)"><path fill="none" stroke="#000000" d="M 253.7667603592659 258.9135258953276 L 249 249 L 245.36068718827354 259.3805299603827" stroke-miterlimit="10"></path></g><g transform="translate(-134,-54) scale(1,1)"><path fill="none" stroke="#000000" d="M 830 303 L 860 269" stroke-miterlimit="10"></path></g><g transform="translate(-134,-54) scale(1,1)"><path fill="none" stroke="#000000" d="M 856.4326101898097 279.4054663490951 L 860 269 L 850.1196986572251 273.8352502909322" stroke-miterlimit="10"></path></g><g transform="translate(-134,-54) scale(1,1)"><rect fill="#C0C0C0" stroke="none" x="447" y="459" width="167" height="72" opacity="0.2"></rect></g><g transform="translate(-134,-54) scale(1,1)"><rect fill="#ffffff" stroke="none" x="440" y="452" width="167" height="72"></rect></g><g transform="translate(-134,-54) scale(1,1)"><path fill="none" stroke="#000000" d="M 440 452 L 607 452 L 607 524 L 440 524 L 440 452 Z Z" stroke-miterlimit="10"></path></g><g transform="translate(-134,-54) scale(1,1)"><path fill="none" stroke="#000000" d="M 440 477 L 607 477" stroke-miterlimit="10"></path></g><g transform="translate(-134,-54) scale(1,1)"><path fill="none" stroke="#000000" d="M 440 487 L 607 487" stroke-miterlimit="10"></path></g><g transform="translate(-134,-54) scale(1,1)"><g><path fill="none" stroke="none"></path><text fill="#000000" stroke="none" font-family="Arial" font-size="13px" font-style="normal" font-weight="bold" text-decoration="none" x="470" y="471.5">Espace Partenaire</text></g></g><g transform="translate(-134,-54) scale(1,1)"><g><path fill="none" stroke="none"></path><text fill="#000000" stroke="none" font-family="Arial" font-size="13px" font-style="normal" font-weight="normal" text-decoration="none" x="445" y="504.5">+AfficheInfos()</text></g></g><g transform="translate(-134,-54) scale(1,1)"><g><path fill="none" stroke="none"></path><text fill="#000000" stroke="none" font-family="Arial" font-size="13px" font-style="normal" font-weight="normal" text-decoration="none" x="445" y="519.5">+GerePaiementPartenaire()</text></g></g><g transform="translate(-134,-54) scale(1,1)"><rect fill="#C0C0C0" stroke="none" x="711" y="439" width="67" height="44" opacity="0.2"></rect></g><g transform="translate(-134,-54) scale(1,1)"><rect fill="#ffffff" stroke="none" x="704" y="432" width="67" height="44"></rect></g><g transform="translate(-134,-54) scale(1,1)"><path fill="none" stroke="#000000" d="M 704 432 L 771 432 L 771 476 L 704 476 L 704 432 Z Z" stroke-miterlimit="10"></path></g><g transform="translate(-134,-54) scale(1,1)"><path fill="none" stroke="#000000" d="M 704 457 L 771 457" stroke-miterlimit="10"></path></g><g transform="translate(-134,-54) scale(1,1)"><path fill="none" stroke="#000000" d="M 704 467 L 771 467" stroke-miterlimit="10"></path></g><g transform="translate(-134,-54) scale(1,1)"><g><path fill="none" stroke="none"></path><text fill="#000000" stroke="none" font-family="Arial" font-size="13px" font-style="normal" font-weight="bold" text-decoration="none" x="710" y="451.5">Paiement</text></g></g><g transform="translate(-134,-54) scale(1,1)"><rect fill="#C0C0C0" stroke="none" x="703" y="543" width="82" height="44" opacity="0.2"></rect></g><g transform="translate(-134,-54) scale(1,1)"><rect fill="#ffffff" stroke="none" x="696" y="536" width="82" height="44"></rect></g><g transform="translate(-134,-54) scale(1,1)"><path fill="none" stroke="#000000" d="M 696 536 L 778 536 L 778 580 L 696 580 L 696 536 Z Z" stroke-miterlimit="10"></path></g><g transform="translate(-134,-54) scale(1,1)"><path fill="none" stroke="#000000" d="M 696 561 L 778 561" stroke-miterlimit="10"></path></g><g transform="translate(-134,-54) scale(1,1)"><path fill="none" stroke="#000000" d="M 696 571 L 778 571" stroke-miterlimit="10"></path></g><g transform="translate(-134,-54) scale(1,1)"><g><path fill="none" stroke="none"></path><text fill="#000000" stroke="none" font-family="Arial" font-size="13px" font-style="normal" font-weight="bold" text-decoration="none" x="702.5" y="555.5">Statistiques</text></g></g><g transform="translate(-134,-54) scale(1,1)"><path fill="none" stroke="#000000" d="M 737 536 L 737 516 L 808 516 L 808 558 L 778 558" stroke-miterlimit="10"></path></g><g transform="translate(-134,-54) scale(1,1)"><path fill="#000000" stroke="none" d="M 788.1626748576241 553.790482243984 L 778 558 L 788.1626748576241 562.209517756016 L 800 558"></path></g><g transform="translate(-134,-54) scale(1,1)"><path fill="none" stroke="#000000" d="M 788.1626748576241 553.790482243984 L 778 558 L 788.1626748576241 562.209517756016 L 800 558 L 788.1626748576241 553.790482243984" stroke-miterlimit="10"></path></g><g transform="translate(-134,-54) scale(1,1)"><path fill="none" stroke="#000000" d="M 608 474 L 703 459" stroke-miterlimit="10"></path></g><g transform="translate(-134,-54) scale(1,1)"><path fill="none" stroke="#000000" d="M 693.6182133692665 464.74300266545225 L 703 459 L 692.3051589246494 456.4269911828768" stroke-miterlimit="10"></path></g><g transform="translate(-134,-54) scale(1,1)"><path fill="none" stroke="#000000" d="M 608 516 L 695 544" stroke-miterlimit="10"></path></g><g transform="translate(-134,-54) scale(1,1)"><path fill="none" stroke="#000000" d="M 684.0363589874821 544.8936306556046 L 695 544 L 686.6156427970994 536.8794273900079" stroke-miterlimit="10"></path></g><g transform="translate(-134,-54) scale(1,1)"><g><path fill="none" stroke="none"></path><text fill="#000000" stroke="none" font-family="Arial" font-size="13px" font-style="normal" font-weight="normal" text-decoration="none" x="604" y="545">+calcul stats</text></g></g><g transform="translate(-134,-54) scale(1,1)"><path fill="none" stroke="#000000" d="M 532 283 L 525 451" stroke-miterlimit="10"></path></g><g transform="translate(-134,-54) scale(1,1)"><path fill="none" stroke="#000000" d="M 521.2172092782506 440.6708909215051 L 525 451 L 529.6289461018607 441.02137995582217" stroke-miterlimit="10"></path></g><g transform="translate(-134,-54) scale(1,1)"><g><path fill="none" stroke="none"></path><text fill="#000000" stroke="none" font-family="Arial" font-size="13px" font-style="normal" font-weight="normal" text-decoration="none" x="448" y="377">+envoyerinfoutilisateur</text></g></g><g transform="translate(-134,-54) scale(1,1)"><rect fill="#C0C0C0" stroke="none" x="463" y="71" width="145" height="72" opacity="0.2"></rect></g><g transform="translate(-134,-54) scale(1,1)"><rect fill="#ffffff" stroke="none" x="456" y="64" width="145" height="72"></rect></g><g transform="translate(-134,-54) scale(1,1)"><path fill="none" stroke="#000000" d="M 456 64 L 601 64 L 601 136 L 456 136 L 456 64 Z Z" stroke-miterlimit="10"></path></g><g transform="translate(-134,-54) scale(1,1)"><path fill="none" stroke="#000000" d="M 456 89 L 601 89" stroke-miterlimit="10"></path></g><g transform="translate(-134,-54) scale(1,1)"><path fill="none" stroke="#000000" d="M 456 99 L 601 99" stroke-miterlimit="10"></path></g><g transform="translate(-134,-54) scale(1,1)"><g><path fill="none" stroke="none"></path><text fill="#000000" stroke="none" font-family="Arial" font-size="13px" font-style="normal" font-weight="bold" text-decoration="none" x="472" y="83.5">Gestionnaire de BD</text></g></g><g transform="translate(-134,-54) scale(1,1)"><g><path fill="none" stroke="none"></path><text fill="#000000" stroke="none" font-family="Arial" font-size="13px" font-style="normal" font-weight="normal" text-decoration="none" x="461" y="116.5">+ConsulterBD(Recette)</text></g></g><g transform="translate(-134,-54) scale(1,1)"><g><path fill="none" stroke="none"></path><text fill="#000000" stroke="none" font-family="Arial" font-size="13px" font-style="normal" font-weight="normal" text-decoration="none" x="461" y="131.5">+MajComNote(Recette)</text></g></g><g transform="translate(-134,-54) scale(1,1)"><path fill="none" stroke="#000000" d="M 532 179 L 530 137" stroke-miterlimit="10"></path></g><g transform="translate(-134,-54) scale(1,1)"><path fill="none" stroke="#000000" d="M 534.6881423097332 146.95094576830212 L 530 137 L 526.2786359863939 147.35139845036588" stroke-miterlimit="10"></path></g><g transform="translate(-134,-54) scale(1,1)"><path fill="none" stroke="#000000" d="M 530 137 L 532 179" stroke-miterlimit="10"></path></g><g transform="translate(-134,-54) scale(1,1)"><path fill="none" stroke="#000000" d="M 527.3118576902668 169.04905423169788 L 532 179 L 535.7213640136061 168.64860154963412" stroke-miterlimit="10"></path></g><g transform="translate(-134,-54) scale(1,1)"><g><path fill="none" stroke="none"></path><text fill="#000000" stroke="none" font-family="Arial" font-size="13px" font-style="normal" font-weight="normal" text-decoration="none" x="532" y="165">+recherche</text></g></g></g></svg>