<svg version="1.1" xmlns="http://www.w3.org/2000/svg" xmlns:xlink="http://www.w3.org/1999/xlink" width="753" height="644"><defs></defs><g><g transform="translate(-398,-18) scale(1,1)"><rect fill="#C0C0C0" stroke="none" x="851" y="527" width="67.20000000000005" height="15" opacity="0.2"></rect></g><g transform="translate(-398,-18) scale(1,1)"><rect fill="#C0C0C0" stroke="none" x="851" y="541" width="168" height="118" opacity="0.2"></rect></g><g transform="translate(-398,-18) scale(1,1)"><rect fill="#ffffff" stroke="none" x="844" y="535" width="168" height="117"></rect></g><g transform="translate(-398,-18) scale(1,1)"><path fill="none" stroke="#000000" d="M 844 535 L 1012 535 L 1012 652 L 844 652 L 844 535 Z Z" stroke-miterlimit="10"></path></g><g transform="translate(-398,-18) scale(1,1)"><rect fill="#ffffff" stroke="none" x="844" y="520" width="67.20000000000005" height="15"></rect></g><g transform="translate(-398,-18) scale(1,1)"><path fill="none" stroke="#000000" d="M 844 520 L 911.2 520 L 911.2 535 L 844 535 L 844 520 Z Z" stroke-miterlimit="10"></path></g><g transform="translate(-398,-18) scale(1,1)"><rect fill="#ffffff" stroke="none" x="844" y="534" width="168" height="118"></rect></g><g transform="translate(-398,-18) scale(1,1)"><path fill="none" stroke="#000000" d="M 844 534 L 1012 534 L 1012 652 L 844 652 L 844 534 Z Z" stroke-miterlimit="10"></path></g><g transform="translate(-398,-18) scale(1,1)"><g><path fill="none" stroke="none"></path><text fill="#000000" stroke="none" font-family="Arial" font-size="13px" font-style="normal" font-weight="bold" text-decoration="none" x="881.5" y="554.5">Synchronisation</text></g></g><g transform="translate(-398,-18) scale(1,1)"><rect fill="#C0C0C0" stroke="none" x="611" y="519" width="68.39999999999998" height="15" opacity="0.2"></rect></g><g transform="translate(-398,-18) scale(1,1)"><rect fill="#C0C0C0" stroke="none" x="611" y="533" width="171" height="109" opacity="0.2"></rect></g><g transform="translate(-398,-18) scale(1,1)"><rect fill="#ffffff" stroke="none" x="604" y="527" width="171" height="108"></rect></g><g transform="translate(-398,-18) scale(1,1)"><path fill="none" stroke="#000000" d="M 604 527 L 775 527 L 775 635 L 604 635 L 604 527 Z Z" stroke-miterlimit="10"></path></g><g transform="translate(-398,-18) scale(1,1)"><rect fill="#ffffff" stroke="none" x="604" y="512" width="68.39999999999998" height="15"></rect></g><g transform="translate(-398,-18) scale(1,1)"><path fill="none" stroke="#000000" d="M 604 512 L 672.4 512 L 672.4 527 L 604 527 L 604 512 Z Z" stroke-miterlimit="10"></path></g><g transform="translate(-398,-18) scale(1,1)"><rect fill="#ffffff" stroke="none" x="604" y="526" width="171" height="109"></rect></g><g transform="translate(-398,-18) scale(1,1)"><path fill="none" stroke="#000000" d="M 604 526 L 775 526 L 775 635 L 604 635 L 604 526 Z Z" stroke-miterlimit="10"></path></g><g transform="translate(-398,-18) scale(1,1)"><g><path fill="none" stroke="none"></path><text fill="#000000" stroke="none" font-family="Arial" font-size="13px" font-style="normal" font-weight="bold" text-decoration="none" x="663.5" y="546.5">Recettes</text></g></g><g transform="translate(-398,-18) scale(1,1)"><rect fill="#C0C0C0" stroke="none" x="415" y="419" width="74.80000000000001" height="15" opacity="0.2"></rect></g><g transform="translate(-398,-18) scale(1,1)"><rect fill="#C0C0C0" stroke="none" x="415" y="433" width="187" height="89" opacity="0.2"></rect></g><g transform="translate(-398,-18) scale(1,1)"><rect fill="#ffffff" stroke="none" x="408" y="427" width="187" height="88"></rect></g><g transform="translate(-398,-18) scale(1,1)"><path fill="none" stroke="#000000" d="M 408 427 L 595 427 L 595 515 L 408 515 L 408 427 Z Z" stroke-miterlimit="10"></path></g><g transform="translate(-398,-18) scale(1,1)"><rect fill="#ffffff" stroke="none" x="408" y="412" width="74.80000000000001" height="15"></rect></g><g transform="translate(-398,-18) scale(1,1)"><path fill="none" stroke="#000000" d="M 408 412 L 482.8 412 L 482.8 427 L 408 427 L 408 412 Z Z" stroke-miterlimit="10"></path></g><g transform="translate(-398,-18) scale(1,1)"><rect fill="#ffffff" stroke="none" x="408" y="426" width="187" height="89"></rect></g><g transform="translate(-398,-18) scale(1,1)"><path fill="none" stroke="#000000" d="M 408 426 L 595 426 L 595 515 L 408 515 L 408 426 Z Z" stroke-miterlimit="10"></path></g><g transform="translate(-398,-18) scale(1,1)"><g><path fill="none" stroke="none"></path><text fill="#000000" stroke="none" font-family="Arial" font-size="13px" font-style="normal" font-weight="bold" text-decoration="none" x="484.5" y="446.5">Photo</text></g></g><g transform="translate(-398,-18) scale(1,1)"><rect fill="#C0C0C0" stroke="none" x="495" y="239" width="184" height="115" opacity="0.2"></rect></g><g transform="translate(-398,-18) scale(1,1)"><rect fill="#ffffff" stroke="none" x="488" y="232" width="184" height="115"></rect></g><g transform="translate(-398,-18) scale(1,1)"><path fill="none" stroke="#000000" d="M 488 232 L 672 232 L 672 347 L 488 347 L 488 232 Z Z" stroke-miterlimit="10"></path></g><g transform="translate(-398,-18) scale(1,1)"><path fill="none" stroke="#000000" d="M 488 257 L 672 257" stroke-miterlimit="10"></path></g><g transform="translate(-398,-18) scale(1,1)"><path fill="none" stroke="#000000" d="M 488 280 L 672 280" stroke-miterlimit="10"></path></g><g transform="translate(-398,-18) scale(1,1)"><g><path fill="none" stroke="none"></path><text fill="#000000" stroke="none" font-family="Arial" font-size="13px" font-style="normal" font-weight="bold" text-decoration="none" x="560" y="251.5">Epicier</text></g></g><g transform="translate(-398,-18) scale(1,1)"><g><path fill="none" stroke="none"></path><text fill="#000000" stroke="none" font-family="Arial" font-size="13px" font-style="normal" font-weight="normal" text-decoration="none" x="493" y="274.5">+Liste&lt;Aliments&gt;</text></g></g><g transform="translate(-398,-18) scale(1,1)"><g><path fill="none" stroke="none"></path><text fill="#000000" stroke="none" font-family="Arial" font-size="13px" font-style="normal" font-weight="normal" text-decoration="none" x="493" y="297.5">+AjouteAliments(Liste&lt;Nom&gt;)</text></g></g><g transform="translate(-398,-18) scale(1,1)"><g><path fill="none" stroke="none"></path><text fill="#000000" stroke="none" font-family="Arial" font-size="13px" font-style="normal" font-weight="normal" text-decoration="none" x="493" y="312.5">+LanceAlerte()</text></g></g><g transform="translate(-398,-18) scale(1,1)"><g><path fill="none" stroke="none"></path><text fill="#000000" stroke="none" font-family="Arial" font-size="13px" font-style="normal" font-weight="normal" text-decoration="none" x="493" y="327.5">+ValiderListeAliments()</text></g></g><g transform="translate(-398,-18) scale(1,1)"><g><path fill="none" stroke="none"></path><text fill="#000000" stroke="none" font-family="Arial" font-size="13px" font-style="normal" font-weight="normal" text-decoration="none" x="493" y="342.5">+AfficherAliments()</text></g></g><g transform="translate(-398,-18) scale(1,1)"><rect fill="#C0C0C0" stroke="none" x="451" y="111" width="66" height="87" opacity="0.2"></rect></g><g transform="translate(-398,-18) scale(1,1)"><rect fill="#ffffff" stroke="none" x="444" y="104" width="66" height="87"></rect></g><g transform="translate(-398,-18) scale(1,1)"><path fill="none" stroke="#000000" d="M 444 104 L 510 104 L 510 191 L 444 191 L 444 104 Z Z" stroke-miterlimit="10"></path></g><g transform="translate(-398,-18) scale(1,1)"><path fill="none" stroke="#000000" d="M 444 129 L 510 129" stroke-miterlimit="10"></path></g><g transform="translate(-398,-18) scale(1,1)"><path fill="none" stroke="#000000" d="M 444 182 L 510 182" stroke-miterlimit="10"></path></g><g transform="translate(-398,-18) scale(1,1)"><g><path fill="none" stroke="none"></path><text fill="#000000" stroke="none" font-family="Arial" font-size="13px" font-style="normal" font-weight="bold" text-decoration="none" x="451.5" y="123.5">Aliments</text></g></g><g transform="translate(-398,-18) scale(1,1)"><g><path fill="none" stroke="none"></path><text fill="#000000" stroke="none" font-family="Arial" font-size="13px" font-style="normal" font-weight="normal" text-decoration="none" x="449" y="146.5">+Nom</text></g></g><g transform="translate(-398,-18) scale(1,1)"><g><path fill="none" stroke="none"></path><text fill="#000000" stroke="none" font-family="Arial" font-size="13px" font-style="normal" font-weight="normal" text-decoration="none" x="449" y="161.5">+Quantité</text></g></g><g transform="translate(-398,-18) scale(1,1)"><g><path fill="none" stroke="none"></path><text fill="#000000" stroke="none" font-family="Arial" font-size="13px" font-style="normal" font-weight="normal" text-decoration="none" x="449" y="176.5">+Calories</text></g></g><g transform="translate(-398,-18) scale(1,1)"><rect fill="#C0C0C0" stroke="none" x="435" y="455" width="152" height="57" opacity="0.2"></rect></g><g transform="translate(-398,-18) scale(1,1)"><rect fill="#ffffff" stroke="none" x="428" y="448" width="152" height="57"></rect></g><g transform="translate(-398,-18) scale(1,1)"><path fill="none" stroke="#000000" d="M 428 448 L 580 448 L 580 505 L 428 505 L 428 448 Z Z" stroke-miterlimit="10"></path></g><g transform="translate(-398,-18) scale(1,1)"><path fill="none" stroke="#000000" d="M 428 473 L 580 473" stroke-miterlimit="10"></path></g><g transform="translate(-398,-18) scale(1,1)"><path fill="none" stroke="#000000" d="M 428 483 L 580 483" stroke-miterlimit="10"></path></g><g transform="translate(-398,-18) scale(1,1)"><g><path fill="none" stroke="none"></path><text fill="#000000" stroke="none" font-family="Arial" font-size="13px" font-style="normal" font-weight="bold" text-decoration="none" x="475" y="467.5">Analyseur</text></g></g><g transform="translate(-398,-18) scale(1,1)"><g><path fill="none" stroke="none"></path><text fill="#000000" stroke="none" font-family="Arial" font-size="13px" font-style="normal" font-weight="normal" text-decoration="none" x="433" y="500.5">+EnvoyerListeAliments()</text></g></g><g transform="translate(-398,-18) scale(1,1)"><rect fill="#C0C0C0" stroke="none" x="739" y="235" width="129" height="130" opacity="0.2"></rect></g><g transform="translate(-398,-18) scale(1,1)"><rect fill="#ffffff" stroke="none" x="732" y="228" width="129" height="130"></rect></g><g transform="translate(-398,-18) scale(1,1)"><path fill="none" stroke="#000000" d="M 732 228 L 861 228 L 861 358 L 732 358 L 732 228 Z Z" stroke-miterlimit="10"></path></g><g transform="translate(-398,-18) scale(1,1)"><path fill="none" stroke="#000000" d="M 732 253 L 861 253" stroke-miterlimit="10"></path></g><g transform="translate(-398,-18) scale(1,1)"><path fill="none" stroke="#000000" d="M 732 276 L 861 276" stroke-miterlimit="10"></path></g><g transform="translate(-398,-18) scale(1,1)"><g><path fill="none" stroke="none"></path><text fill="#000000" stroke="none" font-family="Arial" font-size="13px" font-style="normal" font-weight="bold" text-decoration="none" x="758.5" y="247.5">Nutritionniste</text></g></g><g transform="translate(-398,-18) scale(1,1)"><g><path fill="none" stroke="none"></path><text fill="#000000" stroke="none" font-family="Arial" font-size="13px" font-style="normal" font-weight="normal" text-decoration="none" x="737" y="270.5">+InfoNutrition</text></g></g><g transform="translate(-398,-18) scale(1,1)"><g><path fill="none" stroke="none"></path><text fill="#000000" stroke="none" font-family="Arial" font-size="13px" font-style="normal" font-weight="normal" text-decoration="none" x="737" y="293.5">+VérifieInfo()</text></g></g><g transform="translate(-398,-18) scale(1,1)"><g><path fill="none" stroke="none"></path><text fill="#000000" stroke="none" font-family="Arial" font-size="13px" font-style="normal" font-weight="normal" text-decoration="none" x="737" y="308.5">+CalculInfo()</text></g></g><g transform="translate(-398,-18) scale(1,1)"><g><path fill="none" stroke="none"></path><text fill="#000000" stroke="none" font-family="Arial" font-size="13px" font-style="normal" font-weight="normal" text-decoration="none" x="737" y="323.5">+ConseilleAliments()</text></g></g><g transform="translate(-398,-18) scale(1,1)"><g><path fill="none" stroke="none"></path><text fill="#000000" stroke="none" font-family="Arial" font-size="13px" font-style="normal" font-weight="normal" text-decoration="none" x="737" y="338.5">+MàJInfo()</text></g></g><g transform="translate(-398,-18) scale(1,1)"><g><path fill="none" stroke="none"></path><text fill="#000000" stroke="none" font-family="Arial" font-size="13px" font-style="normal" font-weight="normal" text-decoration="none" x="737" y="353.5">+LanceAlerte()</text></g></g><g transform="translate(-398,-18) scale(1,1)"><rect fill="#C0C0C0" stroke="none" x="919" y="267" width="200" height="70" opacity="0.2"></rect></g><g transform="translate(-398,-18) scale(1,1)"><rect fill="#ffffff" stroke="none" x="912" y="260" width="200" height="70"></rect></g><g transform="translate(-398,-18) scale(1,1)"><path fill="none" stroke="#000000" d="M 912 260 L 1112 260 L 1112 330 L 912 330 L 912 260 Z Z" stroke-miterlimit="10"></path></g><g transform="translate(-398,-18) scale(1,1)"><path fill="none" stroke="#000000" d="M 912 285 L 1112 285" stroke-miterlimit="10"></path></g><g transform="translate(-398,-18) scale(1,1)"><path fill="none" stroke="#000000" d="M 912 308 L 1112 308" stroke-miterlimit="10"></path></g><g transform="translate(-398,-18) scale(1,1)"><g><path fill="none" stroke="none"></path><text fill="#000000" stroke="none" font-family="Arial" font-size="13px" font-style="normal" font-weight="bold" text-decoration="none" x="977" y="279.5">InfoNutrition</text></g></g><g transform="translate(-398,-18) scale(1,1)"><g><path fill="none" stroke="none"></path><text fill="#000000" stroke="none" font-family="Arial" font-size="13px" font-style="normal" font-weight="normal" text-decoration="none" x="917" y="302.5">+Liste&lt;RègleNutrition&gt;</text></g></g><g transform="translate(-398,-18) scale(1,1)"><g><path fill="none" stroke="none"></path><text fill="#000000" stroke="none" font-family="Arial" font-size="13px" font-style="normal" font-weight="normal" text-decoration="none" x="917" y="325.5">+AppliqueRègleNutrition(Aliment)</text></g></g><g transform="translate(-398,-18) scale(1,1)"><rect fill="#C0C0C0" stroke="none" x="971" y="131" width="98" height="87" opacity="0.2"></rect></g><g transform="translate(-398,-18) scale(1,1)"><rect fill="#ffffff" stroke="none" x="964" y="124" width="98" height="87"></rect></g><g transform="translate(-398,-18) scale(1,1)"><path fill="none" stroke="#000000" d="M 964 124 L 1062 124 L 1062 211 L 964 211 L 964 124 Z Z" stroke-miterlimit="10"></path></g><g transform="translate(-398,-18) scale(1,1)"><path fill="none" stroke="#000000" d="M 964 149 L 1062 149" stroke-miterlimit="10"></path></g><g transform="translate(-398,-18) scale(1,1)"><path fill="none" stroke="#000000" d="M 964 202 L 1062 202" stroke-miterlimit="10"></path></g><g transform="translate(-398,-18) scale(1,1)"><g><path fill="none" stroke="none"></path><text fill="#000000" stroke="none" font-family="Arial" font-size="13px" font-style="normal" font-weight="bold" text-decoration="none" x="972.5" y="143.5">RègleNutrition</text></g></g><g transform="translate(-398,-18) scale(1,1)"><g><path fill="none" stroke="none"></path><text fill="#000000" stroke="none" font-family="Arial" font-size="13px" font-style="normal" font-weight="normal" text-decoration="none" x="969" y="166.5">+Calorie</text></g></g><g transform="translate(-398,-18) scale(1,1)"><g><path fill="none" stroke="none"></path><text fill="#000000" stroke="none" font-family="Arial" font-size="13px" font-style="normal" font-weight="normal" text-decoration="none" x="969" y="181.5">+Poids</text></g></g><g transform="translate(-398,-18) scale(1,1)"><g><path fill="none" stroke="none"></path><text fill="#000000" stroke="none" font-family="Arial" font-size="13px" font-style="normal" font-weight="normal" text-decoration="none" x="969" y="196.5">+Santé</text></g></g><g transform="translate(-398,-18) scale(1,1)"><rect fill="#C0C0C0" stroke="none" x="867" y="575" width="137" height="70" opacity="0.2"></rect></g><g transform="translate(-398,-18) scale(1,1)"><rect fill="#ffffff" stroke="none" x="860" y="568" width="137" height="70"></rect></g><g transform="translate(-398,-18) scale(1,1)"><path fill="none" stroke="#000000" d="M 860 568 L 997 568 L 997 638 L 860 638 L 860 568 Z Z" stroke-miterlimit="10"></path></g><g transform="translate(-398,-18) scale(1,1)"><path fill="none" stroke="#000000" d="M 860 593 L 997 593" stroke-miterlimit="10"></path></g><g transform="translate(-398,-18) scale(1,1)"><path fill="none" stroke="#000000" d="M 860 616 L 997 616" stroke-miterlimit="10"></path></g><g transform="translate(-398,-18) scale(1,1)"><g><path fill="none" stroke="none"></path><text fill="#000000" stroke="none" font-family="Arial" font-size="13px" font-style="normal" font-weight="bold" text-decoration="none" x="877" y="587.5">CompteUtilisateur</text></g></g><g transform="translate(-398,-18) scale(1,1)"><g><path fill="none" stroke="none"></path><text fill="#000000" stroke="none" font-family="Arial" font-size="13px" font-style="normal" font-weight="normal" text-decoration="none" x="865" y="610.5">+InfoNutrition</text></g></g><g transform="translate(-398,-18) scale(1,1)"><g><path fill="none" stroke="none"></path><text fill="#000000" stroke="none" font-family="Arial" font-size="13px" font-style="normal" font-weight="normal" text-decoration="none" x="865" y="633.5">+ObtenirInfoNutrition()</text></g></g><g transform="translate(-398,-18) scale(1,1)"><rect fill="#C0C0C0" stroke="none" x="631" y="559" width="140" height="70" opacity="0.2"></rect></g><g transform="translate(-398,-18) scale(1,1)"><rect fill="#ffffff" stroke="none" x="624" y="552" width="140" height="70"></rect></g><g transform="translate(-398,-18) scale(1,1)"><path fill="none" stroke="#000000" d="M 624 552 L 764 552 L 764 622 L 624 622 L 624 552 Z Z" stroke-miterlimit="10"></path></g><g transform="translate(-398,-18) scale(1,1)"><path fill="none" stroke="#000000" d="M 624 577 L 764 577" stroke-miterlimit="10"></path></g><g transform="translate(-398,-18) scale(1,1)"><path fill="none" stroke="#000000" d="M 624 600 L 764 600" stroke-miterlimit="10"></path></g><g transform="translate(-398,-18) scale(1,1)"><g><path fill="none" stroke="none"></path><text fill="#000000" stroke="none" font-family="Arial" font-size="13px" font-style="normal" font-weight="bold" text-decoration="none" x="631.5" y="571.5">GestionnaireRecettes</text></g></g><g transform="translate(-398,-18) scale(1,1)"><g><path fill="none" stroke="none"></path><text fill="#000000" stroke="none" font-family="Arial" font-size="13px" font-style="normal" font-weight="normal" text-decoration="none" x="629" y="594.5">+Liste&lt;Recette&gt;</text></g></g><g transform="translate(-398,-18) scale(1,1)"><g><path fill="none" stroke="none"></path><text fill="#000000" stroke="none" font-family="Arial" font-size="13px" font-style="normal" font-weight="normal" text-decoration="none" x="629" y="617.5">+GèreRecettes()</text></g></g><g transform="translate(-398,-18) scale(1,1)"><rect fill="#C0C0C0" stroke="none" x="983" y="399" width="136" height="85" opacity="0.2"></rect></g><g transform="translate(-398,-18) scale(1,1)"><rect fill="#ffffff" stroke="none" x="976" y="392" width="136" height="85"></rect></g><g transform="translate(-398,-18) scale(1,1)"><path fill="none" stroke="#000000" d="M 976 392 L 1112 392 L 1112 477 L 976 477 L 976 392 Z Z" stroke-miterlimit="10"></path></g><g transform="translate(-398,-18) scale(1,1)"><path fill="none" stroke="#000000" d="M 976 417 L 1112 417" stroke-miterlimit="10"></path></g><g transform="translate(-398,-18) scale(1,1)"><path fill="none" stroke="#000000" d="M 976 440 L 1112 440" stroke-miterlimit="10"></path></g><g transform="translate(-398,-18) scale(1,1)"><g><path fill="none" stroke="none"></path><text fill="#000000" stroke="none" font-family="Arial" font-size="13px" font-style="normal" font-weight="bold" text-decoration="none" x="1009.5" y="411.5">Statistiques</text></g></g><g transform="translate(-398,-18) scale(1,1)"><g><path fill="none" stroke="none"></path><text fill="#000000" stroke="none" font-family="Arial" font-size="13px" font-style="normal" font-weight="normal" text-decoration="none" x="981" y="434.5">+Statistiques</text></g></g><g transform="translate(-398,-18) scale(1,1)"><g><path fill="none" stroke="none"></path><text fill="#000000" stroke="none" font-family="Arial" font-size="13px" font-style="normal" font-weight="normal" text-decoration="none" x="981" y="457.5">+CalculStatistiques()</text></g></g><g transform="translate(-398,-18) scale(1,1)"><g><path fill="none" stroke="none"></path><text fill="#000000" stroke="none" font-family="Arial" font-size="13px" font-style="normal" font-weight="normal" text-decoration="none" x="981" y="472.5">+ObtenirStatistiques()</text></g></g><g transform="translate(-398,-18) scale(1,1)"><path fill="none" stroke="#000000" d="M 580 232 L 580 212 L 702 212 L 702 289 L 672 289" stroke-miterlimit="10"></path></g><g transform="translate(-398,-18) scale(1,1)"><path fill="none" stroke="#000000" d="M 682.1626748576241 284.790482243984 L 672 289 L 682.1626748576241 293.209517756016" stroke-miterlimit="10"></path></g><g transform="translate(-398,-18) scale(1,1)"><g><path fill="none" stroke="none"></path><text fill="#000000" stroke="none" font-family="Arial" font-size="13px" font-style="normal" font-weight="normal" text-decoration="none" x="622" y="208">+CréeAliments</text></g></g><g transform="translate(-398,-18) scale(1,1)"><rect fill="#C0C0C0" stroke="none" x="683" y="35" width="119" height="72" opacity="0.2"></rect></g><g transform="translate(-398,-18) scale(1,1)"><rect fill="#ffffff" stroke="none" x="676" y="28" width="119" height="72"></rect></g><g transform="translate(-398,-18) scale(1,1)"><path fill="none" stroke="#000000" d="M 676 28 L 795 28 L 795 100 L 676 100 L 676 28 Z Z" stroke-miterlimit="10"></path></g><g transform="translate(-398,-18) scale(1,1)"><path fill="none" stroke="#000000" d="M 676 53 L 795 53" stroke-miterlimit="10"></path></g><g transform="translate(-398,-18) scale(1,1)"><path fill="none" stroke="#000000" d="M 676 63 L 795 63" stroke-miterlimit="10"></path></g><g transform="translate(-398,-18) scale(1,1)"><g><path fill="none" stroke="none"></path><text fill="#000000" stroke="none" font-family="Arial" font-size="13px" font-style="normal" font-weight="bold" text-decoration="none" x="704.5" y="47.5">Controlleur</text></g></g><g transform="translate(-398,-18) scale(1,1)"><g><path fill="none" stroke="none"></path><text fill="#000000" stroke="none" font-family="Arial" font-size="13px" font-style="normal" font-weight="normal" text-decoration="none" x="681" y="80.5">+AfficheMenu()</text></g></g><g transform="translate(-398,-18) scale(1,1)"><g><path fill="none" stroke="none"></path><text fill="#000000" stroke="none" font-family="Arial" font-size="13px" font-style="normal" font-weight="normal" text-decoration="none" x="681" y="95.5">+AfficheAlerte()</text></g></g><g transform="translate(-398,-18) scale(1,1)"><path fill="none" stroke="#000000" d="M 1013 212 L 1012 259" stroke-miterlimit="10"></path></g><g transform="translate(-398,-18) scale(1,1)"><path fill="#FFFFFF" stroke="none" d="M 1008.0076129302576 248.7500807083493 L 1012 259 L 1016.4247434676047 248.9291685921226 L 1012.4679791927927 237.00497793874456"></path></g><g transform="translate(-398,-18) scale(1,1)"><path fill="none" stroke="#000000" d="M 1008.0076129302576 248.7500807083493 L 1012 259 L 1016.4247434676047 248.9291685921226 L 1012.4679791927927 237.00497793874456 L 1008.0076129302576 248.7500807083493" stroke-miterlimit="10"></path></g><g transform="translate(-398,-18) scale(1,1)"><g><path fill="none" stroke="none"></path><text fill="#000000" stroke="none" font-family="Arial" font-size="13px" font-style="normal" font-weight="normal" text-decoration="none" x="990" y="240">0..*</text></g></g><g transform="translate(-398,-18) scale(1,1)"><path fill="none" stroke="#000000" d="M 911 294 L 862 294" stroke-miterlimit="10"></path></g><g transform="translate(-398,-18) scale(1,1)"><path fill="#FFFFFF" stroke="none" d="M 872.1626748576241 289.790482243984 L 862 294 L 872.1626748576241 298.209517756016 L 884 294"></path></g><g transform="translate(-398,-18) scale(1,1)"><path fill="none" stroke="#000000" d="M 872.1626748576241 289.790482243984 L 862 294 L 872.1626748576241 298.209517756016 L 884 294 L 872.1626748576241 289.790482243984" stroke-miterlimit="10"></path></g><g transform="translate(-398,-18) scale(1,1)"><g><path fill="none" stroke="none"></path><text fill="#000000" stroke="none" font-family="Arial" font-size="13px" font-style="normal" font-weight="normal" text-decoration="none" x="878" y="288">0..1</text></g></g><g transform="translate(-398,-18) scale(1,1)"><path fill="none" stroke="#000000" d="M 673 291 L 731 292" stroke-miterlimit="10"></path></g><g transform="translate(-398,-18) scale(1,1)"><path fill="#FFFFFF" stroke="none" d="M 720.7662682029703 296.03369972933814 L 731 292 L 720.9114024175906 287.6159152813612 L 709.003269187922 291.6207460204814"></path></g><g transform="translate(-398,-18) scale(1,1)"><path fill="none" stroke="#000000" d="M 720.7662682029703 296.03369972933814 L 731 292 L 720.9114024175906 287.6159152813612 L 709.003269187922 291.6207460204814 L 720.7662682029703 296.03369972933814" stroke-miterlimit="10"></path></g><g transform="translate(-398,-18) scale(1,1)"><path fill="none" stroke="#000000" d="M 510 192 L 538 231" stroke-miterlimit="10"></path></g><g transform="translate(-398,-18) scale(1,1)"><path fill="#FFFFFF" stroke="none" d="M 528.6535679084942 225.19963732522956 L 538 231 L 535.4925502688682 220.28959870752516 L 525.1694507719892 213.128877860985"></path></g><g transform="translate(-398,-18) scale(1,1)"><path fill="none" stroke="#000000" d="M 528.6535679084942 225.19963732522956 L 538 231 L 535.4925502688682 220.28959870752516 L 525.1694507719892 213.128877860985 L 528.6535679084942 225.19963732522956" stroke-miterlimit="10"></path></g><g transform="translate(-398,-18) scale(1,1)"><g><path fill="none" stroke="none"></path><text fill="#000000" stroke="none" font-family="Arial" font-size="13px" font-style="normal" font-weight="normal" text-decoration="none" x="502" y="223">1..*</text></g></g><g transform="translate(-398,-18) scale(1,1)"><path fill="none" stroke="#000000" d="M 620 231 L 710 101" stroke-miterlimit="10"></path></g><g transform="translate(-398,-18) scale(1,1)"><path fill="none" stroke="#000000" d="M 707.6763366890146 111.75177142694079 L 710 101 L 700.7542714298503 106.95957240136546" stroke-miterlimit="10"></path></g><g transform="translate(-398,-18) scale(1,1)"><g><path fill="none" stroke="none"></path><text fill="#000000" stroke="none" font-family="Arial" font-size="13px" font-style="normal" font-weight="normal" text-decoration="none" x="586" y="178">+LanceAlerteGUI</text></g></g><g transform="translate(-398,-18) scale(1,1)"><path fill="none" stroke="#000000" d="M 778 227 L 745 101" stroke-miterlimit="10"></path></g><g transform="translate(-398,-18) scale(1,1)"><path fill="none" stroke="#000000" d="M 751.6469796723676 109.76456851391626 L 745 101 L 743.502638570376 111.89761023110454" stroke-miterlimit="10"></path></g><g transform="translate(-398,-18) scale(1,1)"><g><path fill="none" stroke="none"></path><text fill="#000000" stroke="none" font-family="Arial" font-size="13px" font-style="normal" font-weight="normal" text-decoration="none" x="719" y="173">+LanceAlerteInfo</text></g></g><g transform="translate(-398,-18) scale(1,1)"><path fill="none" stroke="#000000" d="M 1044 477 L 1044 496 L 1140 496 L 1140 434 L 1112 434" stroke-miterlimit="10"></path></g><g transform="translate(-398,-18) scale(1,1)"><path fill="#000000" stroke="none" d="M 1122.162674857624 429.790482243984 L 1112 434 L 1122.162674857624 438.209517756016 L 1134 434"></path></g><g transform="translate(-398,-18) scale(1,1)"><path fill="none" stroke="#000000" d="M 1122.162674857624 429.790482243984 L 1112 434 L 1122.162674857624 438.209517756016 L 1134 434 L 1122.162674857624 429.790482243984" stroke-miterlimit="10"></path></g><g transform="translate(-398,-18) scale(1,1)"><path fill="none" stroke="#000000" d="M 862 331 L 975 395" stroke-miterlimit="10"></path></g><g transform="translate(-398,-18) scale(1,1)"><path fill="none" stroke="#000000" d="M 964.0826014861631 393.6544853437917 L 975 395 L 968.2316560155408 386.3288109403592" stroke-miterlimit="10"></path></g><g transform="translate(-398,-18) scale(1,1)"><g><path fill="none" stroke="none"></path><text fill="#000000" stroke="none" font-family="Arial" font-size="13px" font-style="normal" font-weight="normal" text-decoration="none" x="918" y="369">+Calcul</text></g></g><g transform="translate(-398,-18) scale(1,1)"><path fill="none" stroke="#000000" d="M 824 359 L 913 567" stroke-miterlimit="10"></path></g><g transform="translate(-398,-18) scale(1,1)"><path fill="none" stroke="#000000" d="M 905.1320291940734 559.312670463868 L 913 567 L 912.8722673331662 556.000741644737" stroke-miterlimit="10"></path></g><g transform="translate(-398,-18) scale(1,1)"><g><path fill="none" stroke="none"></path><text fill="#000000" stroke="none" font-family="Arial" font-size="13px" font-style="normal" font-weight="normal" text-decoration="none" x="798" y="477">+ObtenirInfo et MàJInfo</text></g></g><g transform="translate(-398,-18) scale(1,1)"><path fill="none" stroke="#000000" d="M 773 359 L 706 551" stroke-miterlimit="10"></path></g><g transform="translate(-398,-18) scale(1,1)"><path fill="none" stroke="#000000" d="M 705.3738605500171 540.0178349407244 L 706 551 L 713.3228159344725 542.791689163425" stroke-miterlimit="10"></path></g><g transform="translate(-398,-18) scale(1,1)"><g><path fill="none" stroke="none"></path><text fill="#000000" stroke="none" font-family="Arial" font-size="13px" font-style="normal" font-weight="normal" text-decoration="none" x="687" y="493">+EnvoieAliments</text></g></g><g transform="translate(-398,-18) scale(1,1)"><path fill="none" stroke="#000000" d="M 516 447 L 556 348" stroke-miterlimit="10"></path></g><g transform="translate(-398,-18) scale(1,1)"><path fill="none" stroke="#000000" d="M 556.0958578219012 358.99958232288753 L 556 348 L 548.2899024651626 355.84566096662957" stroke-miterlimit="10"></path></g><g transform="translate(-398,-18) scale(1,1)"><g><path fill="none" stroke="none"></path><text fill="#000000" stroke="none" font-family="Arial" font-size="13px" font-style="normal" font-weight="normal" text-decoration="none" x="484" y="402">+EnvoieAliments</text></g></g></g></svg>