<svg version="1.1" xmlns="http://www.w3.org/2000/svg" xmlns:xlink="http://www.w3.org/1999/xlink" width="884" height="896"><defs></defs><g><g transform="translate(-10,-22) scale(1,1)"><rect fill="#C0C0C0" stroke="none" x="343" y="175" width="211" height="117" opacity="0.2"></rect></g><g transform="translate(-10,-22) scale(1,1)"><rect fill="#ffffff" stroke="none" x="336" y="168" width="211" height="117"></rect></g><g transform="translate(-10,-22) scale(1,1)"><path fill="none" stroke="#000000" d="M 336 168 L 547 168 L 547 285 L 336 285 L 336 168 Z Z" stroke-miterlimit="10"></path></g><g transform="translate(-10,-22) scale(1,1)"><path fill="none" stroke="#000000" d="M 336 193 L 547 193" stroke-miterlimit="10"></path></g><g transform="translate(-10,-22) scale(1,1)"><path fill="none" stroke="#000000" d="M 336 203 L 547 203" stroke-miterlimit="10"></path></g><g transform="translate(-10,-22) scale(1,1)"><g><path fill="none" stroke="none"></path><text fill="#000000" stroke="none" font-family="Arial" font-size="13px" font-style="normal" font-weight="bold" text-decoration="none" x="382.5" y="187.5">GestionnaireRecette</text></g></g><g transform="translate(-10,-22) scale(1,1)"><g><path fill="none" stroke="none"></path><text fill="#000000" stroke="none" font-family="Arial" font-size="13px" font-style="normal" font-weight="normal" text-decoration="none" x="341" y="220.5">+rechercheRecette(liste&lt;Aliment&gt;)</text></g></g><g transform="translate(-10,-22) scale(1,1)"><g><path fill="none" stroke="none"></path><text fill="#000000" stroke="none" font-family="Arial" font-size="13px" font-style="normal" font-weight="normal" text-decoration="none" x="341" y="235.5">+consulterRech(Recherche)</text></g></g><g transform="translate(-10,-22) scale(1,1)"><g><path fill="none" stroke="none"></path><text fill="#000000" stroke="none" font-family="Arial" font-size="13px" font-style="normal" font-weight="normal" text-decoration="none" x="341" y="250.5">+consulterEspPerso()</text></g></g><g transform="translate(-10,-22) scale(1,1)"><g><path fill="none" stroke="none"></path><text fill="#000000" stroke="none" font-family="Arial" font-size="13px" font-style="normal" font-weight="normal" text-decoration="none" x="341" y="265.5">+consulterHistorique()</text></g></g><g transform="translate(-10,-22) scale(1,1)"><g><path fill="none" stroke="none"></path><text fill="#000000" stroke="none" font-family="Arial" font-size="13px" font-style="normal" font-weight="normal" text-decoration="none" x="341" y="280.5">+alerteAffichage(objet)</text></g></g><g transform="translate(-10,-22) scale(1,1)"><rect fill="#C0C0C0" stroke="none" x="343" y="59" width="208" height="57" opacity="0.2"></rect></g><g transform="translate(-10,-22) scale(1,1)"><rect fill="#ffffff" stroke="none" x="336" y="52" width="208" height="57"></rect></g><g transform="translate(-10,-22) scale(1,1)"><path fill="none" stroke="#000000" d="M 336 52 L 544 52 L 544 109 L 336 109 L 336 52 Z Z" stroke-miterlimit="10"></path></g><g transform="translate(-10,-22) scale(1,1)"><path fill="none" stroke="#000000" d="M 336 77 L 544 77" stroke-miterlimit="10"></path></g><g transform="translate(-10,-22) scale(1,1)"><path fill="none" stroke="#000000" d="M 336 87 L 544 87" stroke-miterlimit="10"></path></g><g transform="translate(-10,-22) scale(1,1)"><g><path fill="none" stroke="none"></path><text fill="#000000" stroke="none" font-family="Arial" font-size="13px" font-style="normal" font-weight="bold" text-decoration="none" x="374.5" y="71.5">SuperviseurRecherche</text></g></g><g transform="translate(-10,-22) scale(1,1)"><g><path fill="none" stroke="none"></path><text fill="#000000" stroke="none" font-family="Arial" font-size="13px" font-style="normal" font-weight="normal" text-decoration="none" x="341" y="104.5">+rechercheBDPart(liste&lt;Aliment&gt;)</text></g></g><g transform="translate(-10,-22) scale(1,1)"><rect fill="#C0C0C0" stroke="none" x="631" y="59" width="260" height="57" opacity="0.2"></rect></g><g transform="translate(-10,-22) scale(1,1)"><rect fill="#ffffff" stroke="none" x="624" y="52" width="260" height="57"></rect></g><g transform="translate(-10,-22) scale(1,1)"><path fill="none" stroke="#000000" d="M 624 52 L 884 52 L 884 109 L 624 109 L 624 52 Z Z" stroke-miterlimit="10"></path></g><g transform="translate(-10,-22) scale(1,1)"><path fill="none" stroke="#000000" d="M 624 77 L 884 77" stroke-miterlimit="10"></path></g><g transform="translate(-10,-22) scale(1,1)"><path fill="none" stroke="#000000" d="M 624 87 L 884 87" stroke-miterlimit="10"></path></g><g transform="translate(-10,-22) scale(1,1)"><g><path fill="none" stroke="none"></path><text fill="#000000" stroke="none" font-family="Arial" font-size="13px" font-style="normal" font-weight="bold" text-decoration="none" x="697.5" y="71.5">Gestionnaire de BD</text></g></g><g transform="translate(-10,-22) scale(1,1)"><g><path fill="none" stroke="none"></path><text fill="#000000" stroke="none" font-family="Arial" font-size="13px" font-style="normal" font-weight="normal" text-decoration="none" x="629" y="104.5">+rechercheCorrespondance(liste&lt;Aliment&gt;)</text></g></g><g transform="translate(-10,-22) scale(1,1)"><rect fill="#C0C0C0" stroke="none" x="83" y="59" width="188" height="70" opacity="0.2"></rect></g><g transform="translate(-10,-22) scale(1,1)"><rect fill="#ffffff" stroke="none" x="76" y="52" width="188" height="70"></rect></g><g transform="translate(-10,-22) scale(1,1)"><path fill="none" stroke="#000000" d="M 76 52 L 264 52 L 264 122 L 76 122 L 76 52 Z Z" stroke-miterlimit="10"></path></g><g transform="translate(-10,-22) scale(1,1)"><path fill="none" stroke="#000000" d="M 76 77 L 264 77" stroke-miterlimit="10"></path></g><g transform="translate(-10,-22) scale(1,1)"><path fill="none" stroke="#000000" d="M 76 100 L 264 100" stroke-miterlimit="10"></path></g><g transform="translate(-10,-22) scale(1,1)"><g><path fill="none" stroke="none"></path><text fill="#000000" stroke="none" font-family="Arial" font-size="13px" font-style="normal" font-weight="bold" text-decoration="none" x="139" y="71.5">Recherche</text></g></g><g transform="translate(-10,-22) scale(1,1)"><g><path fill="none" stroke="none"></path><text fill="#000000" stroke="none" font-family="Arial" font-size="13px" font-style="normal" font-weight="normal" text-decoration="none" x="81" y="94.5">+liste&lt;Recette&gt;</text></g></g><g transform="translate(-10,-22) scale(1,1)"><g><path fill="none" stroke="none"></path><text fill="#000000" stroke="none" font-family="Arial" font-size="13px" font-style="normal" font-weight="normal" text-decoration="none" x="81" y="117.5">+remplirRecherche(Recette)</text></g></g><g transform="translate(-10,-22) scale(1,1)"><rect fill="#C0C0C0" stroke="none" x="79" y="183" width="188" height="100" opacity="0.2"></rect></g><g transform="translate(-10,-22) scale(1,1)"><rect fill="#ffffff" stroke="none" x="72" y="176" width="188" height="100"></rect></g><g transform="translate(-10,-22) scale(1,1)"><path fill="none" stroke="#000000" d="M 72 176 L 260 176 L 260 276 L 72 276 L 72 176 Z Z" stroke-miterlimit="10"></path></g><g transform="translate(-10,-22) scale(1,1)"><path fill="none" stroke="#000000" d="M 72 201 L 260 201" stroke-miterlimit="10"></path></g><g transform="translate(-10,-22) scale(1,1)"><path fill="none" stroke="#000000" d="M 72 224 L 260 224" stroke-miterlimit="10"></path></g><g transform="translate(-10,-22) scale(1,1)"><g><path fill="none" stroke="none"></path><text fill="#000000" stroke="none" font-family="Arial" font-size="13px" font-style="normal" font-weight="bold" text-decoration="none" x="106" y="195.5">HistoriqueRecherche</text></g></g><g transform="translate(-10,-22) scale(1,1)"><g><path fill="none" stroke="none"></path><text fill="#000000" stroke="none" font-family="Arial" font-size="13px" font-style="normal" font-weight="normal" text-decoration="none" x="77" y="218.5">+liste&lt;Recherche&gt;</text></g></g><g transform="translate(-10,-22) scale(1,1)"><g><path fill="none" stroke="none"></path><text fill="#000000" stroke="none" font-family="Arial" font-size="13px" font-style="normal" font-weight="normal" text-decoration="none" x="77" y="241.5">+ajouterRecherche(Recherche)</text></g></g><g transform="translate(-10,-22) scale(1,1)"><g><path fill="none" stroke="none"></path><text fill="#000000" stroke="none" font-family="Arial" font-size="13px" font-style="normal" font-weight="normal" text-decoration="none" x="77" y="256.5">+récupérerRecherches()</text></g></g><g transform="translate(-10,-22) scale(1,1)"><rect fill="#C0C0C0" stroke="none" x="79" y="367" width="192" height="102" opacity="0.2"></rect></g><g transform="translate(-10,-22) scale(1,1)"><rect fill="#ffffff" stroke="none" x="72" y="360" width="192" height="102"></rect></g><g transform="translate(-10,-22) scale(1,1)"><path fill="none" stroke="#000000" d="M 72 360 L 264 360 L 264 462 L 72 462 L 72 360 Z Z" stroke-miterlimit="10"></path></g><g transform="translate(-10,-22) scale(1,1)"><path fill="none" stroke="#000000" d="M 72 385 L 264 385" stroke-miterlimit="10"></path></g><g transform="translate(-10,-22) scale(1,1)"><path fill="none" stroke="#000000" d="M 72 395 L 264 395" stroke-miterlimit="10"></path></g><g transform="translate(-10,-22) scale(1,1)"><g><path fill="none" stroke="none"></path><text fill="#000000" stroke="none" font-family="Arial" font-size="13px" font-style="normal" font-weight="bold" text-decoration="none" x="106" y="379.5">ConsultantRecherche</text></g></g><g transform="translate(-10,-22) scale(1,1)"><g><path fill="none" stroke="none"></path><text fill="#000000" stroke="none" font-family="Arial" font-size="13px" font-style="normal" font-weight="normal" text-decoration="none" x="77" y="412.5">+trierRecherche(Recherche)</text></g></g><g transform="translate(-10,-22) scale(1,1)"><rect fill="#C0C0C0" stroke="none" x="83" y="523" width="180" height="117" opacity="0.2"></rect></g><g transform="translate(-10,-22) scale(1,1)"><rect fill="#ffffff" stroke="none" x="76" y="516" width="180" height="117"></rect></g><g transform="translate(-10,-22) scale(1,1)"><path fill="none" stroke="#000000" d="M 76 516 L 256 516 L 256 633 L 76 633 L 76 516 Z Z" stroke-miterlimit="10"></path></g><g transform="translate(-10,-22) scale(1,1)"><path fill="none" stroke="#000000" d="M 76 541 L 256 541" stroke-miterlimit="10"></path></g><g transform="translate(-10,-22) scale(1,1)"><path fill="none" stroke="#000000" d="M 76 551 L 256 551" stroke-miterlimit="10"></path></g><g transform="translate(-10,-22) scale(1,1)"><g><path fill="none" stroke="none"></path><text fill="#000000" stroke="none" font-family="Arial" font-size="13px" font-style="normal" font-weight="bold" text-decoration="none" x="112.5" y="535.5">ConsultantRecette</text></g></g><g transform="translate(-10,-22) scale(1,1)"><g><path fill="none" stroke="none"></path><text fill="#000000" stroke="none" font-family="Arial" font-size="13px" font-style="normal" font-weight="normal" text-decoration="none" x="81" y="568.5">+consulterRecette(Recette)</text></g></g><g transform="translate(-10,-22) scale(1,1)"><g><path fill="none" stroke="none"></path><text fill="#000000" stroke="none" font-family="Arial" font-size="13px" font-style="normal" font-weight="normal" text-decoration="none" x="81" y="583.5">+commenterRecette(Recette)</text></g></g><g transform="translate(-10,-22) scale(1,1)"><g><path fill="none" stroke="none"></path><text fill="#000000" stroke="none" font-family="Arial" font-size="13px" font-style="normal" font-weight="normal" text-decoration="none" x="81" y="598.5">+virtual noter()</text></g></g><g transform="translate(-10,-22) scale(1,1)"><g><path fill="none" stroke="none"></path><text fill="#000000" stroke="none" font-family="Arial" font-size="13px" font-style="normal" font-weight="normal" text-decoration="none" x="81" y="613.5">+virtual signaler()</text></g></g><g transform="translate(-10,-22) scale(1,1)"><rect fill="#C0C0C0" stroke="none" x="27" y="699" width="115" height="72" opacity="0.2"></rect></g><g transform="translate(-10,-22) scale(1,1)"><rect fill="#ffffff" stroke="none" x="20" y="692" width="115" height="72"></rect></g><g transform="translate(-10,-22) scale(1,1)"><path fill="none" stroke="#000000" d="M 20 692 L 135 692 L 135 764 L 20 764 L 20 692 Z Z" stroke-miterlimit="10"></path></g><g transform="translate(-10,-22) scale(1,1)"><path fill="none" stroke="#000000" d="M 20 717 L 135 717" stroke-miterlimit="10"></path></g><g transform="translate(-10,-22) scale(1,1)"><path fill="none" stroke="#000000" d="M 20 727 L 135 727" stroke-miterlimit="10"></path></g><g transform="translate(-10,-22) scale(1,1)"><g><path fill="none" stroke="none"></path><text fill="#000000" stroke="none" font-family="Arial" font-size="13px" font-style="normal" font-weight="bold" text-decoration="none" x="36.5" y="711.5">ActionRecette</text></g></g><g transform="translate(-10,-22) scale(1,1)"><g><path fill="none" stroke="none"></path><text fill="#000000" stroke="none" font-family="Arial" font-size="13px" font-style="normal" font-weight="normal" text-decoration="none" x="25" y="744.5">+noter(Recette)</text></g></g><g transform="translate(-10,-22) scale(1,1)"><g><path fill="none" stroke="none"></path><text fill="#000000" stroke="none" font-family="Arial" font-size="13px" font-style="normal" font-weight="normal" text-decoration="none" x="25" y="759.5">+signaler(Recette)</text></g></g><g transform="translate(-10,-22) scale(1,1)"><rect fill="#C0C0C0" stroke="none" x="235" y="699" width="147" height="72" opacity="0.2"></rect></g><g transform="translate(-10,-22) scale(1,1)"><rect fill="#ffffff" stroke="none" x="228" y="692" width="147" height="72"></rect></g><g transform="translate(-10,-22) scale(1,1)"><path fill="none" stroke="#000000" d="M 228 692 L 375 692 L 375 764 L 228 764 L 228 692 Z Z" stroke-miterlimit="10"></path></g><g transform="translate(-10,-22) scale(1,1)"><path fill="none" stroke="#000000" d="M 228 717 L 375 717" stroke-miterlimit="10"></path></g><g transform="translate(-10,-22) scale(1,1)"><path fill="none" stroke="#000000" d="M 228 727 L 375 727" stroke-miterlimit="10"></path></g><g transform="translate(-10,-22) scale(1,1)"><g><path fill="none" stroke="none"></path><text fill="#000000" stroke="none" font-family="Arial" font-size="13px" font-style="normal" font-weight="bold" text-decoration="none" x="244.5" y="711.5">ActionCommentaire</text></g></g><g transform="translate(-10,-22) scale(1,1)"><g><path fill="none" stroke="none"></path><text fill="#000000" stroke="none" font-family="Arial" font-size="13px" font-style="normal" font-weight="normal" text-decoration="none" x="233" y="744.5">+noter(Commentaire)</text></g></g><g transform="translate(-10,-22) scale(1,1)"><g><path fill="none" stroke="none"></path><text fill="#000000" stroke="none" font-family="Arial" font-size="13px" font-style="normal" font-weight="normal" text-decoration="none" x="233" y="759.5">+signaler(Commentaire)</text></g></g><g transform="translate(-10,-22) scale(1,1)"><rect fill="#C0C0C0" stroke="none" x="191" y="839" width="151" height="72" opacity="0.2"></rect></g><g transform="translate(-10,-22) scale(1,1)"><rect fill="#ffffff" stroke="none" x="184" y="832" width="151" height="72"></rect></g><g transform="translate(-10,-22) scale(1,1)"><path fill="none" stroke="#000000" d="M 184 832 L 335 832 L 335 904 L 184 904 L 184 832 Z Z" stroke-miterlimit="10"></path></g><g transform="translate(-10,-22) scale(1,1)"><path fill="none" stroke="#000000" d="M 184 857 L 335 857" stroke-miterlimit="10"></path></g><g transform="translate(-10,-22) scale(1,1)"><path fill="none" stroke="#000000" d="M 184 867 L 335 867" stroke-miterlimit="10"></path></g><g transform="translate(-10,-22) scale(1,1)"><g><path fill="none" stroke="none"></path><text fill="#000000" stroke="none" font-family="Arial" font-size="13px" font-style="normal" font-weight="bold" text-decoration="none" x="203" y="851.5">Gestionnaire de BD</text></g></g><g transform="translate(-10,-22) scale(1,1)"><g><path fill="none" stroke="none"></path><text fill="#000000" stroke="none" font-family="Arial" font-size="13px" font-style="normal" font-weight="normal" text-decoration="none" x="189" y="884.5">+MajComNote(Recette)</text></g></g><g transform="translate(-10,-22) scale(1,1)"><g><path fill="none" stroke="none"></path><text fill="#000000" stroke="none" font-family="Arial" font-size="13px" font-style="normal" font-weight="normal" text-decoration="none" x="189" y="899.5">+ConsulterBD(Recette)</text></g></g><g transform="translate(-10,-22) scale(1,1)"><rect fill="#C0C0C0" stroke="none" x="379" y="371" width="134" height="175" opacity="0.2"></rect></g><g transform="translate(-10,-22) scale(1,1)"><rect fill="#ffffff" stroke="none" x="372" y="364" width="134" height="175"></rect></g><g transform="translate(-10,-22) scale(1,1)"><path fill="none" stroke="#000000" d="M 372 364 L 506 364 L 506 539 L 372 539 L 372 364 Z Z" stroke-miterlimit="10"></path></g><g transform="translate(-10,-22) scale(1,1)"><path fill="none" stroke="#000000" d="M 372 389 L 506 389" stroke-miterlimit="10"></path></g><g transform="translate(-10,-22) scale(1,1)"><path fill="none" stroke="#000000" d="M 372 487 L 506 487" stroke-miterlimit="10"></path></g><g transform="translate(-10,-22) scale(1,1)"><g><path fill="none" stroke="none"></path><text fill="#000000" stroke="none" font-family="Arial" font-size="13px" font-style="normal" font-weight="bold" text-decoration="none" x="416.5" y="383.5">Recette</text></g></g><g transform="translate(-10,-22) scale(1,1)"><g><path fill="none" stroke="none"></path><text fill="#000000" stroke="none" font-family="Arial" font-size="13px" font-style="normal" font-weight="normal" text-decoration="none" x="377" y="406.5">+nom</text></g></g><g transform="translate(-10,-22) scale(1,1)"><g><path fill="none" stroke="none"></path><text fill="#000000" stroke="none" font-family="Arial" font-size="13px" font-style="normal" font-weight="normal" text-decoration="none" x="377" y="421.5">+description</text></g></g><g transform="translate(-10,-22) scale(1,1)"><g><path fill="none" stroke="none"></path><text fill="#000000" stroke="none" font-family="Arial" font-size="13px" font-style="normal" font-weight="normal" text-decoration="none" x="377" y="436.5">+preparation</text></g></g><g transform="translate(-10,-22) scale(1,1)"><g><path fill="none" stroke="none"></path><text fill="#000000" stroke="none" font-family="Arial" font-size="13px" font-style="normal" font-weight="normal" text-decoration="none" x="377" y="451.5">+liste&lt;Aliment&gt;</text></g></g><g transform="translate(-10,-22) scale(1,1)"><g><path fill="none" stroke="none"></path><text fill="#000000" stroke="none" font-family="Arial" font-size="13px" font-style="normal" font-weight="normal" text-decoration="none" x="377" y="466.5">+note</text></g></g><g transform="translate(-10,-22) scale(1,1)"><g><path fill="none" stroke="none"></path><text fill="#000000" stroke="none" font-family="Arial" font-size="13px" font-style="normal" font-weight="normal" text-decoration="none" x="377" y="481.5">+liste&lt;Commentaire&gt;</text></g></g><g transform="translate(-10,-22) scale(1,1)"><g><path fill="none" stroke="none"></path><text fill="#000000" stroke="none" font-family="Arial" font-size="13px" font-style="normal" font-weight="normal" text-decoration="none" x="377" y="504.5">+modifierRecette()</text></g></g><g transform="translate(-10,-22) scale(1,1)"><g><path fill="none" stroke="none"></path><text fill="#000000" stroke="none" font-family="Arial" font-size="13px" font-style="normal" font-weight="normal" text-decoration="none" x="377" y="519.5">+supprimerRecette()</text></g></g><g transform="translate(-10,-22) scale(1,1)"><g><path fill="none" stroke="none"></path><text fill="#000000" stroke="none" font-family="Arial" font-size="13px" font-style="normal" font-weight="normal" text-decoration="none" x="377" y="534.5">+alerteAffichage()</text></g></g><g transform="translate(-10,-22) scale(1,1)"><rect fill="#C0C0C0" stroke="none" x="399" y="587" width="84" height="72" opacity="0.2"></rect></g><g transform="translate(-10,-22) scale(1,1)"><rect fill="#ffffff" stroke="none" x="392" y="580" width="84" height="72"></rect></g><g transform="translate(-10,-22) scale(1,1)"><path fill="none" stroke="#000000" d="M 392 580 L 476 580 L 476 652 L 392 652 L 392 580 Z Z" stroke-miterlimit="10"></path></g><g transform="translate(-10,-22) scale(1,1)"><path fill="none" stroke="#000000" d="M 392 605 L 476 605" stroke-miterlimit="10"></path></g><g transform="translate(-10,-22) scale(1,1)"><path fill="none" stroke="#000000" d="M 392 643 L 476 643" stroke-miterlimit="10"></path></g><g transform="translate(-10,-22) scale(1,1)"><g><path fill="none" stroke="none"></path><text fill="#000000" stroke="none" font-family="Arial" font-size="13px" font-style="normal" font-weight="bold" text-decoration="none" x="420.5" y="599.5">Note</text></g></g><g transform="translate(-10,-22) scale(1,1)"><g><path fill="none" stroke="none"></path><text fill="#000000" stroke="none" font-family="Arial" font-size="13px" font-style="normal" font-weight="normal" text-decoration="none" x="397" y="622.5">+valeur</text></g></g><g transform="translate(-10,-22) scale(1,1)"><g><path fill="none" stroke="none"></path><text fill="#000000" stroke="none" font-family="Arial" font-size="13px" font-style="normal" font-weight="normal" text-decoration="none" x="397" y="637.5">+listenoteurs</text></g></g><g transform="translate(-10,-22) scale(1,1)"><rect fill="#C0C0C0" stroke="none" x="579" y="527" width="134" height="117" opacity="0.2"></rect></g><g transform="translate(-10,-22) scale(1,1)"><rect fill="#ffffff" stroke="none" x="572" y="520" width="134" height="117"></rect></g><g transform="translate(-10,-22) scale(1,1)"><path fill="none" stroke="#000000" d="M 572 520 L 706 520 L 706 637 L 572 637 L 572 520 Z Z" stroke-miterlimit="10"></path></g><g transform="translate(-10,-22) scale(1,1)"><path fill="none" stroke="#000000" d="M 572 545 L 706 545" stroke-miterlimit="10"></path></g><g transform="translate(-10,-22) scale(1,1)"><path fill="none" stroke="#000000" d="M 572 613 L 706 613" stroke-miterlimit="10"></path></g><g transform="translate(-10,-22) scale(1,1)"><g><path fill="none" stroke="none"></path><text fill="#000000" stroke="none" font-family="Arial" font-size="13px" font-style="normal" font-weight="bold" text-decoration="none" x="600.5" y="539.5">Commentaire</text></g></g><g transform="translate(-10,-22) scale(1,1)"><g><path fill="none" stroke="none"></path><text fill="#000000" stroke="none" font-family="Arial" font-size="13px" font-style="normal" font-weight="normal" text-decoration="none" x="577" y="562.5">+auteur</text></g></g><g transform="translate(-10,-22) scale(1,1)"><g><path fill="none" stroke="none"></path><text fill="#000000" stroke="none" font-family="Arial" font-size="13px" font-style="normal" font-weight="normal" text-decoration="none" x="577" y="577.5">+date</text></g></g><g transform="translate(-10,-22) scale(1,1)"><g><path fill="none" stroke="none"></path><text fill="#000000" stroke="none" font-family="Arial" font-size="13px" font-style="normal" font-weight="normal" text-decoration="none" x="577" y="592.5">+texte</text></g></g><g transform="translate(-10,-22) scale(1,1)"><g><path fill="none" stroke="none"></path><text fill="#000000" stroke="none" font-family="Arial" font-size="13px" font-style="normal" font-weight="normal" text-decoration="none" x="577" y="607.5">+note</text></g></g><g transform="translate(-10,-22) scale(1,1)"><rect fill="#C0C0C0" stroke="none" x="707" y="675" width="175" height="132" opacity="0.2"></rect></g><g transform="translate(-10,-22) scale(1,1)"><rect fill="#ffffff" stroke="none" x="700" y="668" width="175" height="132"></rect></g><g transform="translate(-10,-22) scale(1,1)"><path fill="none" stroke="#000000" d="M 700 668 L 875 668 L 875 800 L 700 800 L 700 668 Z Z" stroke-miterlimit="10"></path></g><g transform="translate(-10,-22) scale(1,1)"><path fill="none" stroke="#000000" d="M 700 693 L 875 693" stroke-miterlimit="10"></path></g><g transform="translate(-10,-22) scale(1,1)"><path fill="none" stroke="#000000" d="M 700 703 L 875 703" stroke-miterlimit="10"></path></g><g transform="translate(-10,-22) scale(1,1)"><g><path fill="none" stroke="none"></path><text fill="#000000" stroke="none" font-family="Arial" font-size="13px" font-style="normal" font-weight="bold" text-decoration="none" x="728" y="687.5">ConsultantEspPerso</text></g></g><g transform="translate(-10,-22) scale(1,1)"><g><path fill="none" stroke="none"></path><text fill="#000000" stroke="none" font-family="Arial" font-size="13px" font-style="normal" font-weight="normal" text-decoration="none" x="705" y="720.5">+afficherListeRecettePerso()</text></g></g><g transform="translate(-10,-22) scale(1,1)"><g><path fill="none" stroke="none"></path><text fill="#000000" stroke="none" font-family="Arial" font-size="13px" font-style="normal" font-weight="normal" text-decoration="none" x="705" y="735.5">+créerRecette()</text></g></g><g transform="translate(-10,-22) scale(1,1)"><g><path fill="none" stroke="none"></path><text fill="#000000" stroke="none" font-family="Arial" font-size="13px" font-style="normal" font-weight="normal" text-decoration="none" x="705" y="750.5">+ajouterAuxFavoris(Recette)</text></g></g><g transform="translate(-10,-22) scale(1,1)"><rect fill="#C0C0C0" stroke="none" x="439" y="847" width="151" height="57" opacity="0.2"></rect></g><g transform="translate(-10,-22) scale(1,1)"><rect fill="#ffffff" stroke="none" x="432" y="840" width="151" height="57"></rect></g><g transform="translate(-10,-22) scale(1,1)"><path fill="none" stroke="#000000" d="M 432 840 L 583 840 L 583 897 L 432 897 L 432 840 Z Z" stroke-miterlimit="10"></path></g><g transform="translate(-10,-22) scale(1,1)"><path fill="none" stroke="#000000" d="M 432 865 L 583 865" stroke-miterlimit="10"></path></g><g transform="translate(-10,-22) scale(1,1)"><path fill="none" stroke="#000000" d="M 432 875 L 583 875" stroke-miterlimit="10"></path></g><g transform="translate(-10,-22) scale(1,1)"><g><path fill="none" stroke="none"></path><text fill="#000000" stroke="none" font-family="Arial" font-size="13px" font-style="normal" font-weight="bold" text-decoration="none" x="441.5" y="859.5">GestionnairedeCompte</text></g></g><g transform="translate(-10,-22) scale(1,1)"><g><path fill="none" stroke="none"></path><text fill="#000000" stroke="none" font-family="Arial" font-size="13px" font-style="normal" font-weight="normal" text-decoration="none" x="437" y="892.5">+MajEspPerso()</text></g></g><g transform="translate(-10,-22) scale(1,1)"><path fill="none" stroke="#000000" d="M 169 123 L 167 175" stroke-miterlimit="10"></path></g><g transform="translate(-10,-22) scale(1,1)"><path fill="#FFFFFF" stroke="none" d="M 163.18417566617 164.6830486744702 L 167 175 L 171.59699098118583 165.0066184942785 L 167.8455286862265 153.01625415811108"></path></g><g transform="translate(-10,-22) scale(1,1)"><path fill="none" stroke="#000000" d="M 163.18417566617 164.6830486744702 L 167 175 L 171.59699098118583 165.0066184942785 L 167.8455286862265 153.01625415811108 L 163.18417566617 164.6830486744702" stroke-miterlimit="10"></path></g><g transform="translate(-10,-22) scale(1,1)"><path fill="none" stroke="#000000" d="M 167 359 L 167 277" stroke-miterlimit="10"></path></g><g transform="translate(-10,-22) scale(1,1)"><path fill="#000000" stroke="none" d="M 171.209517756016 287.16267485762415 L 167 277 L 162.790482243984 287.16267485762415 L 167 299"></path></g><g transform="translate(-10,-22) scale(1,1)"><path fill="none" stroke="#000000" d="M 171.209517756016 287.16267485762415 L 167 277 L 162.790482243984 287.16267485762415 L 167 299 L 171.209517756016 287.16267485762415" stroke-miterlimit="10"></path></g><g transform="translate(-10,-22) scale(1,1)"><path fill="none" stroke="#000000" d="M 335 83 L 265 85" stroke-miterlimit="10"></path></g><g transform="translate(-10,-22) scale(1,1)"><path fill="none" stroke="#000000" d="M 275.03830648961906 80.5019556671291 L 265 85 L 275.2787522402893 88.91755694058782" stroke-miterlimit="10"></path></g><g transform="translate(-10,-22) scale(1,1)"><g><path fill="none" stroke="none"></path><text fill="#000000" stroke="none" font-family="Arial" font-size="13px" font-style="normal" font-weight="normal" text-decoration="none" x="240" y="46">+fournit liste Recette</text></g></g><g transform="translate(-10,-22) scale(1,1)"><path fill="none" stroke="#000000" d="M 545 80 L 623 80" stroke-miterlimit="10"></path></g><g transform="translate(-10,-22) scale(1,1)"><path fill="none" stroke="#000000" d="M 612.8373251423759 84.20951775601598 L 623 80 L 612.8373251423758 75.79048224398402" stroke-miterlimit="10"></path></g><g transform="translate(-10,-22) scale(1,1)"><g><path fill="none" stroke="none"></path><text fill="#000000" stroke="none" font-family="Arial" font-size="13px" font-style="normal" font-weight="normal" text-decoration="none" x="497" y="45">+Recherche Correspondances</text></g></g><g transform="translate(-10,-22) scale(1,1)"><path fill="none" stroke="#000000" d="M 435 579 L 436 540" stroke-miterlimit="10"></path></g><g transform="translate(-10,-22) scale(1,1)"><path fill="#000000" stroke="none" d="M 439.9476388509854 550.267236604958 L 436 540 L 431.5313695737947 550.0514348286198 L 435.43608278256386 561.9927714800086"></path></g><g transform="translate(-10,-22) scale(1,1)"><path fill="none" stroke="#000000" d="M 439.9476388509854 550.267236604958 L 436 540 L 431.5313695737947 550.0514348286198 L 435.43608278256386 561.9927714800086 L 439.9476388509854 550.267236604958" stroke-miterlimit="10"></path></g><g transform="translate(-10,-22) scale(1,1)"><path fill="none" stroke="#000000" d="M 477 608 L 571 591" stroke-miterlimit="10"></path></g><g transform="translate(-10,-22) scale(1,1)"><path fill="#000000" stroke="none" d="M 561.748695361248 596.9509127435215 L 571 591 L 560.2504089999225 588.6662705103093 L 549.3511865616688 594.9152109409748"></path></g><g transform="translate(-10,-22) scale(1,1)"><path fill="none" stroke="#000000" d="M 561.748695361248 596.9509127435215 L 571 591 L 560.2504089999225 588.6662705103093 L 549.3511865616688 594.9152109409748 L 561.748695361248 596.9509127435215" stroke-miterlimit="10"></path></g><g transform="translate(-10,-22) scale(1,1)"><path fill="none" stroke="#000000" d="M 571 535 L 507 494" stroke-miterlimit="10"></path></g><g transform="translate(-10,-22) scale(1,1)"><path fill="#000000" stroke="none" d="M 517.8280287491633 495.93747087908264 L 507 494 L 513.2865737584655 503.02657135236706 L 525.524712265362 505.86739379499755"></path></g><g transform="translate(-10,-22) scale(1,1)"><path fill="none" stroke="#000000" d="M 517.8280287491633 495.93747087908264 L 507 494 L 513.2865737584655 503.02657135236706 L 525.524712265362 505.86739379499755 L 517.8280287491633 495.93747087908264" stroke-miterlimit="10"></path></g><g transform="translate(-10,-22) scale(1,1)"><path fill="none" stroke="#000000" d="M 257 533 L 371 482" stroke-miterlimit="10"></path></g><g transform="translate(-10,-22) scale(1,1)"><path fill="#000000" stroke="none" d="M 363.44234908265656 489.9926161306282 L 371 482 L 360.00430072111754 482.3075668518939 L 350.91799845831173 490.9840533212816"></path></g><g transform="translate(-10,-22) scale(1,1)"><path fill="none" stroke="#000000" d="M 363.44234908265656 489.9926161306282 L 371 482 L 360.00430072111754 482.3075668518939 L 350.91799845831173 490.9840533212816 L 363.44234908265656 489.9926161306282" stroke-miterlimit="10"></path></g><g transform="translate(-10,-22) scale(1,1)"><path fill="none" stroke="#000000" d="M 98 691 L 131 634" stroke-miterlimit="10"></path></g><g transform="translate(-10,-22) scale(1,1)"><path fill="#FFFFFF" stroke="none" d="M 128.1023172117276 655.8083340596788 L 131 634 L 113.53020795070456 647.3718497506655"></path></g><g transform="translate(-10,-22) scale(1,1)"><path fill="none" stroke="#000000" d="M 128.1023172117276 655.8083340596788 L 131 634 L 113.53020795070456 647.3718497506655 L 128.1023172117276 655.8083340596788" stroke-miterlimit="10"></path></g><g transform="translate(-10,-22) scale(1,1)"><path fill="none" stroke="#000000" d="M 269 691 L 219 634" stroke-miterlimit="10"></path></g><g transform="translate(-10,-22) scale(1,1)"><path fill="#FFFFFF" stroke="none" d="M 238.73239094033016 643.7279364604204 L 219 634 L 226.0742176048163 654.8315972810466"></path></g><g transform="translate(-10,-22) scale(1,1)"><path fill="none" stroke="#000000" d="M 238.73239094033016 643.7279364604204 L 219 634 L 226.0742176048163 654.8315972810466 L 238.73239094033016 643.7279364604204" stroke-miterlimit="10"></path></g><g transform="translate(-10,-22) scale(1,1)"><path fill="none" stroke="#000000" d="M 179 634 L 208 772 L 239 831" stroke-miterlimit="10"></path></g><g transform="translate(-10,-22) scale(1,1)"><path fill="none" stroke="#000000" d="M 230.5466079745918 823.961522660066 L 239 831 L 237.99950423110081 820.0455941185104" stroke-miterlimit="10"></path></g><g transform="translate(-10,-22) scale(1,1)"><g><path fill="none" stroke="none"></path><text fill="#000000" stroke="none" font-family="Arial" font-size="13px" font-style="normal" font-weight="normal" text-decoration="none" x="182" y="803">+envoyer infos</text></g></g><g transform="translate(-10,-22) scale(1,1)"><path fill="none" stroke="#000000" d="M 699 776 L 568 839" stroke-miterlimit="10"></path></g><g transform="translate(-10,-22) scale(1,1)"><path fill="none" stroke="#000000" d="M 575.3341973078917 830.8018569267844 L 568 839 L 578.9830232111786 838.389098090762" stroke-miterlimit="10"></path></g><g transform="translate(-10,-22) scale(1,1)"><g><path fill="none" stroke="none"></path><text fill="#000000" stroke="none" font-family="Arial" font-size="13px" font-style="normal" font-weight="normal" text-decoration="none" x="613" y="836">+envoyermodifs</text></g></g><g transform="translate(-10,-22) scale(1,1)"><path fill="none" stroke="#000000" d="M 384 110 L 261 175" stroke-miterlimit="10"></path></g><g transform="translate(-10,-22) scale(1,1)"><path fill="none" stroke="#000000" d="M 268.01839992350347 166.52993137490807 L 261 175 L 271.95200114090636 173.9735152170705" stroke-miterlimit="10"></path></g><g transform="translate(-10,-22) scale(1,1)"><g><path fill="none" stroke="none"></path><text fill="#000000" stroke="none" font-family="Arial" font-size="13px" font-style="normal" font-weight="normal" text-decoration="none" x="272" y="145">+fournit recherche</text></g></g><g transform="translate(-10,-22) scale(1,1)"><path fill="none" stroke="#000000" d="M 167 463 L 167 515" stroke-miterlimit="10"></path></g><g transform="translate(-10,-22) scale(1,1)"><path fill="none" stroke="#000000" d="M 162.790482243984 504.83732514237585 L 167 515 L 171.209517756016 504.83732514237585" stroke-miterlimit="10"></path></g><g transform="translate(-10,-22) scale(1,1)"><g><path fill="none" stroke="none"></path><text fill="#000000" stroke="none" font-family="Arial" font-size="13px" font-style="normal" font-weight="normal" text-decoration="none" x="118" y="495">+Fournit choix recette</text></g></g><g transform="translate(-10,-22) scale(1,1)"><path fill="none" stroke="#000000" d="M 699 756 L 336 848" stroke-miterlimit="10"></path></g><g transform="translate(-10,-22) scale(1,1)"><path fill="none" stroke="#000000" d="M 344.8170317983704 841.4227703197679 L 336 848 L 346.8853866828786 849.5837792662516" stroke-miterlimit="10"></path></g><g transform="translate(-10,-22) scale(1,1)"><g><path fill="none" stroke="none"></path><text fill="#000000" stroke="none" font-family="Arial" font-size="13px" font-style="normal" font-weight="normal" text-decoration="none" x="426" y="796">+envoyer infos</text></g></g><g transform="translate(-10,-22) scale(1,1)"><path fill="none" stroke="#000000" d="M 231 515 L 304 448 L 404 286" stroke-miterlimit="10"></path></g><g transform="translate(-10,-22) scale(1,1)"><path fill="#000000" stroke="none" d="M 402.24389053401904 296.85891705205876 L 404 286 L 395.079829204246 292.43665697195195 L 392.4440775165624 304.7205944231689"></path></g><g transform="translate(-10,-22) scale(1,1)"><path fill="none" stroke="#000000" d="M 402.24389053401904 296.85891705205876 L 404 286 L 395.079829204246 292.43665697195195 L 392.4440775165624 304.7205944231689 L 402.24389053401904 296.85891705205876" stroke-miterlimit="10"></path></g><g transform="translate(-10,-22) scale(1,1)"><path fill="none" stroke="#000000" d="M 245 359 L 352 286" stroke-miterlimit="10"></path></g><g transform="translate(-10,-22) scale(1,1)"><path fill="#000000" stroke="none" d="M 345.9773650933327 295.2047742384587 L 352 286 L 341.2325957335794 288.2501123001901 L 333.82659255644586 298.39867984466775"></path></g><g transform="translate(-10,-22) scale(1,1)"><path fill="none" stroke="#000000" d="M 345.9773650933327 295.2047742384587 L 352 286 L 341.2325957335794 288.2501123001901 L 333.82659255644586 298.39867984466775 L 345.9773650933327 295.2047742384587" stroke-miterlimit="10"></path></g><g transform="translate(-10,-22) scale(1,1)"><path fill="none" stroke="#000000" d="M 787 667 L 788 228 L 548 227" stroke-miterlimit="10"></path></g><g transform="translate(-10,-22) scale(1,1)"><path fill="#000000" stroke="none" d="M 558.1801261461738 222.83286289546558 L 548 227 L 558.1450471360444 231.25182532654367 L 569.9998090302644 227.09166587095945"></path></g><g transform="translate(-10,-22) scale(1,1)"><path fill="none" stroke="#000000" d="M 558.1801261461738 222.83286289546558 L 548 227 L 558.1450471360444 231.25182532654367 L 569.9998090302644 227.09166587095945 L 558.1801261461738 222.83286289546558" stroke-miterlimit="10"></path></g><g transform="translate(-10,-22) scale(1,1)"><path fill="none" stroke="#000000" d="M 440 110 L 441 167" stroke-miterlimit="10"></path></g><g transform="translate(-10,-22) scale(1,1)"><path fill="#000000" stroke="none" d="M 436.612864802295 156.9127285772089 L 441 167 L 445.03060497844547 156.76504892499574 L 440.6140944715049 145.00338487577972"></path></g><g transform="translate(-10,-22) scale(1,1)"><path fill="none" stroke="#000000" d="M 436.612864802295 156.9127285772089 L 441 167 L 445.03060497844547 156.76504892499574 L 440.6140944715049 145.00338487577972 L 436.612864802295 156.9127285772089" stroke-miterlimit="10"></path></g><g transform="translate(-10,-22) scale(1,1)"><path fill="#ffffff" stroke="none" d="M 672 372 L 854 372 L 864 382 L 864 395 L 672 395 L 672 372"></path></g><g transform="translate(-10,-22) scale(1,1)"><path fill="none" stroke="#000000" d="M 672 372 L 854 372 L 864 382 L 864 395 L 672 395 L 672 372 L 672 372" stroke-miterlimit="10"></path></g><g transform="translate(-10,-22) scale(1,1)"><path fill="none" stroke="#000000" d="M 854 372 L 854 382 L 864 382 L 854 372" stroke-miterlimit="10"></path></g><g transform="translate(-10,-22) scale(1,1)"><g><path fill="none" stroke="none"></path><text fill="#000000" stroke="none" font-family="Arial" font-size="13px" font-style="normal" font-weight="normal" text-decoration="none" x="677" y="390">Lier avec historique recherche</text></g></g><g transform="translate(-10,-22) scale(1,1)"><path fill="none" stroke="#000000" d="M 257 614 L 408 680 L 699 721" stroke-miterlimit="10"></path></g><g transform="translate(-10,-22) scale(1,1)"><path fill="none" stroke="#000000" d="M 688.3494242273653 723.7504973570913 L 699 721 L 689.5240103147939 715.4138009804637" stroke-miterlimit="10"></path></g><g transform="translate(-10,-22) scale(1,1)"><g><path fill="none" stroke="none"></path><text fill="#000000" stroke="none" font-family="Arial" font-size="13px" font-style="normal" font-weight="normal" text-decoration="none" x="384" y="688">+ajouter la recette aux favoris</text></g></g><g transform="translate(-10,-22) scale(1,1)"><rect fill="#C0C0C0" stroke="none" x="595" y="407" width="137" height="87" opacity="0.2"></rect></g><g transform="translate(-10,-22) scale(1,1)"><rect fill="#ffffff" stroke="none" x="588" y="400" width="137" height="87"></rect></g><g transform="translate(-10,-22) scale(1,1)"><path fill="none" stroke="#000000" d="M 588 400 L 725 400 L 725 487 L 588 487 L 588 400 Z Z" stroke-miterlimit="10"></path></g><g transform="translate(-10,-22) scale(1,1)"><path fill="none" stroke="#000000" d="M 588 425 L 725 425" stroke-miterlimit="10"></path></g><g transform="translate(-10,-22) scale(1,1)"><path fill="none" stroke="#000000" d="M 588 478 L 725 478" stroke-miterlimit="10"></path></g><g transform="translate(-10,-22) scale(1,1)"><g><path fill="none" stroke="none"></path><text fill="#000000" stroke="none" font-family="Arial" font-size="13px" font-style="normal" font-weight="bold" text-decoration="none" x="628" y="419.5">EspPerso</text></g></g><g transform="translate(-10,-22) scale(1,1)"><g><path fill="none" stroke="none"></path><text fill="#000000" stroke="none" font-family="Arial" font-size="13px" font-style="normal" font-weight="normal" text-decoration="none" x="593" y="442.5">+liste&lt;Recette&gt;</text></g></g><g transform="translate(-10,-22) scale(1,1)"><g><path fill="none" stroke="none"></path><text fill="#000000" stroke="none" font-family="Arial" font-size="13px" font-style="normal" font-weight="normal" text-decoration="none" x="593" y="457.5">+listefavoris</text></g></g><g transform="translate(-10,-22) scale(1,1)"><g><path fill="none" stroke="none"></path><text fill="#000000" stroke="none" font-family="Arial" font-size="13px" font-style="normal" font-weight="normal" text-decoration="none" x="593" y="472.5">+HistoriqueRecherche</text></g></g><g transform="translate(-10,-22) scale(1,1)"><path fill="none" stroke="#000000" d="M 507 448 L 587 446" stroke-miterlimit="10"></path></g><g transform="translate(-10,-22) scale(1,1)"><path fill="#FFFFFF" stroke="none" d="M 576.9457045628213 450.4621904107656 L 587 446 L 576.73529441792 442.0457846147159 L 565.0068717790213 446.5498282055245"></path></g><g transform="translate(-10,-22) scale(1,1)"><path fill="none" stroke="#000000" d="M 576.9457045628213 450.4621904107656 L 587 446 L 576.73529441792 442.0457846147159 L 565.0068717790213 446.5498282055245 L 576.9457045628213 450.4621904107656" stroke-miterlimit="10"></path></g><g transform="translate(-10,-22) scale(1,1)"><path fill="none" stroke="#000000" d="M 769 667 L 736 544 L 692 488" stroke-miterlimit="10"></path></g><g transform="translate(-10,-22) scale(1,1)"><path fill="#000000" stroke="none" d="M 701.5887405614707 493.39036681913274 L 692 488 L 694.9686985431628 498.5918284049461 L 705.5920741425019 505.2990034540933"></path></g><g transform="translate(-10,-22) scale(1,1)"><path fill="none" stroke="#000000" d="M 701.5887405614707 493.39036681913274 L 692 488 L 694.9686985431628 498.5918284049461 L 705.5920741425019 505.2990034540933 L 701.5887405614707 493.39036681913274" stroke-miterlimit="10"></path></g><g transform="translate(-10,-22) scale(1,1)"><rect fill="#C0C0C0" stroke="none" x="47" y="871" width="94" height="44" opacity="0.2"></rect></g><g transform="translate(-10,-22) scale(1,1)"><rect fill="#ffffff" stroke="none" x="40" y="864" width="94" height="44"></rect></g><g transform="translate(-10,-22) scale(1,1)"><path fill="none" stroke="#000000" d="M 40 864 L 134 864 L 134 908 L 40 908 L 40 864 Z Z" stroke-miterlimit="10"></path></g><g transform="translate(-10,-22) scale(1,1)"><path fill="none" stroke="#000000" d="M 40 889 L 134 889" stroke-miterlimit="10"></path></g><g transform="translate(-10,-22) scale(1,1)"><path fill="none" stroke="#000000" d="M 40 899 L 134 899" stroke-miterlimit="10"></path></g><g transform="translate(-10,-22) scale(1,1)"><g><path fill="none" stroke="none"></path><text fill="#000000" stroke="none" font-family="Arial" font-size="13px" font-style="normal" font-weight="bold" text-decoration="none" x="48" y="883.5">Arbitre Social</text></g></g><g transform="translate(-10,-22) scale(1,1)"><path fill="none" stroke="#000000" d="M 161 634 L 148 792 L 102 863" stroke-miterlimit="10"></path></g><g transform="translate(-10,-22) scale(1,1)"><path fill="none" stroke="#000000" d="M 103.9930161635102 852.1820571931635 L 102 863 L 111.05871596143484 856.7598345270301" stroke-miterlimit="10"></path></g><g transform="translate(-10,-22) scale(1,1)"><g><path fill="none" stroke="none"></path><text fill="#000000" stroke="none" font-family="Arial" font-size="13px" font-style="normal" font-weight="normal" text-decoration="none" x="79" y="827">+signale</text></g></g></g></svg>