<svg version="1.1" xmlns="http://www.w3.org/2000/svg" xmlns:xlink="http://www.w3.org/1999/xlink" width="1014" height="596"><defs></defs><g><g transform="translate(-86,-66) scale(1,1)"><rect fill="#C0C0C0" stroke="none" x="131" y="395" width="157" height="57" opacity="0.2"></rect></g><g transform="translate(-86,-66) scale(1,1)"><rect fill="#ffffff" stroke="none" x="124" y="388" width="157" height="57"></rect></g><g transform="translate(-86,-66) scale(1,1)"><path fill="none" stroke="#000000" d="M 124 388 L 281 388 L 281 445 L 124 445 L 124 388 Z Z" stroke-miterlimit="10"></path></g><g transform="translate(-86,-66) scale(1,1)"><path fill="none" stroke="#000000" d="M 124 413 L 281 413" stroke-miterlimit="10"></path></g><g transform="translate(-86,-66) scale(1,1)"><path fill="none" stroke="#000000" d="M 124 423 L 281 423" stroke-miterlimit="10"></path></g><g transform="translate(-86,-66) scale(1,1)"><g><path fill="none" stroke="none"></path><text fill="#000000" stroke="none" font-family="Arial" font-size="13px" font-style="normal" font-weight="bold" text-decoration="none" x="133.5" y="407.5">Gestionnaire de compte</text></g></g><g transform="translate(-86,-66) scale(1,1)"><g><path fill="none" stroke="none"></path><text fill="#000000" stroke="none" font-family="Arial" font-size="13px" font-style="normal" font-weight="normal" text-decoration="none" x="129" y="440.5">+MajEspPerso()</text></g></g><g transform="translate(-86,-66) scale(1,1)"><path fill="#ffffff" stroke="none" d="M 96 628 L 304 628 L 314 638 L 314 651 L 96 651 L 96 628"></path></g><g transform="translate(-86,-66) scale(1,1)"><path fill="none" stroke="#000000" d="M 96 628 L 304 628 L 314 638 L 314 651 L 96 651 L 96 628 L 96 628" stroke-miterlimit="10"></path></g><g transform="translate(-86,-66) scale(1,1)"><path fill="none" stroke="#000000" d="M 304 628 L 304 638 L 314 638 L 304 628" stroke-miterlimit="10"></path></g><g transform="translate(-86,-66) scale(1,1)"><g><path fill="none" stroke="none"></path><text fill="#000000" stroke="none" font-family="Arial" font-size="13px" font-style="normal" font-weight="normal" text-decoration="none" x="101" y="646">Structure Identique à un EspPerso</text></g></g><g transform="translate(-86,-66) scale(1,1)"><rect fill="#C0C0C0" stroke="none" x="427" y="495" width="172" height="100" opacity="0.2"></rect></g><g transform="translate(-86,-66) scale(1,1)"><rect fill="#ffffff" stroke="none" x="420" y="488" width="172" height="100"></rect></g><g transform="translate(-86,-66) scale(1,1)"><path fill="none" stroke="#000000" d="M 420 488 L 592 488 L 592 588 L 420 588 L 420 488 Z Z" stroke-miterlimit="10"></path></g><g transform="translate(-86,-66) scale(1,1)"><path fill="none" stroke="#000000" d="M 420 513 L 592 513" stroke-miterlimit="10"></path></g><g transform="translate(-86,-66) scale(1,1)"><path fill="none" stroke="#000000" d="M 420 536 L 592 536" stroke-miterlimit="10"></path></g><g transform="translate(-86,-66) scale(1,1)"><g><path fill="none" stroke="none"></path><text fill="#000000" stroke="none" font-family="Arial" font-size="13px" font-style="normal" font-weight="bold" text-decoration="none" x="451" y="507.5">Gestionnaire Cloud</text></g></g><g transform="translate(-86,-66) scale(1,1)"><g><path fill="none" stroke="none"></path><text fill="#000000" stroke="none" font-family="Arial" font-size="13px" font-style="normal" font-weight="normal" text-decoration="none" x="425" y="530.5">+liste&lt;compte&gt;</text></g></g><g transform="translate(-86,-66) scale(1,1)"><g><path fill="none" stroke="none"></path><text fill="#000000" stroke="none" font-family="Arial" font-size="13px" font-style="normal" font-weight="normal" text-decoration="none" x="425" y="553.5">+AjouterCompte()</text></g></g><g transform="translate(-86,-66) scale(1,1)"><g><path fill="none" stroke="none"></path><text fill="#000000" stroke="none" font-family="Arial" font-size="13px" font-style="normal" font-weight="normal" text-decoration="none" x="425" y="568.5">+SupprimerCompte(compte)</text></g></g><g transform="translate(-86,-66) scale(1,1)"><g><path fill="none" stroke="none"></path><text fill="#000000" stroke="none" font-family="Arial" font-size="13px" font-style="normal" font-weight="normal" text-decoration="none" x="425" y="583.5">+ModifierCompte(compte)</text></g></g><g transform="translate(-86,-66) scale(1,1)"><path fill="none" stroke="#000000" d="M 277 446 L 419 503" stroke-miterlimit="10"></path></g><g transform="translate(-86,-66) scale(1,1)"><path fill="#000000" stroke="none" d="M 408.00066296840674 503.1207678161625 L 419 503 L 411.1368984546465 495.3076899381617 L 398.58344360581845 494.80462172909614"></path></g><g transform="translate(-86,-66) scale(1,1)"><path fill="none" stroke="#000000" d="M 408.00066296840674 503.1207678161625 L 419 503 L 411.1368984546465 495.3076899381617 L 398.58344360581845 494.80462172909614 L 408.00066296840674 503.1207678161625" stroke-miterlimit="10"></path></g><g transform="translate(-86,-66) scale(1,1)"><rect fill="#C0C0C0" stroke="none" x="135" y="511" width="137" height="100" opacity="0.2"></rect></g><g transform="translate(-86,-66) scale(1,1)"><rect fill="#ffffff" stroke="none" x="128" y="504" width="137" height="100"></rect></g><g transform="translate(-86,-66) scale(1,1)"><path fill="none" stroke="#000000" d="M 128 504 L 265 504 L 265 604 L 128 604 L 128 504 Z Z" stroke-miterlimit="10"></path></g><g transform="translate(-86,-66) scale(1,1)"><path fill="none" stroke="#000000" d="M 128 529 L 265 529" stroke-miterlimit="10"></path></g><g transform="translate(-86,-66) scale(1,1)"><path fill="none" stroke="#000000" d="M 128 582 L 265 582" stroke-miterlimit="10"></path></g><g transform="translate(-86,-66) scale(1,1)"><g><path fill="none" stroke="none"></path><text fill="#000000" stroke="none" font-family="Arial" font-size="13px" font-style="normal" font-weight="bold" text-decoration="none" x="151.5" y="523.5">EspPersoCloud</text></g></g><g transform="translate(-86,-66) scale(1,1)"><g><path fill="none" stroke="none"></path><text fill="#000000" stroke="none" font-family="Arial" font-size="13px" font-style="normal" font-weight="normal" text-decoration="none" x="133" y="546.5">+liste&lt;Recette&gt;</text></g></g><g transform="translate(-86,-66) scale(1,1)"><g><path fill="none" stroke="none"></path><text fill="#000000" stroke="none" font-family="Arial" font-size="13px" font-style="normal" font-weight="normal" text-decoration="none" x="133" y="561.5">+listefavoris</text></g></g><g transform="translate(-86,-66) scale(1,1)"><g><path fill="none" stroke="none"></path><text fill="#000000" stroke="none" font-family="Arial" font-size="13px" font-style="normal" font-weight="normal" text-decoration="none" x="133" y="576.5">+HistoriqueRecherche</text></g></g><g transform="translate(-86,-66) scale(1,1)"><path fill="none" stroke="#000000" d="M 198 503 L 201 446" stroke-miterlimit="10"></path></g><g transform="translate(-86,-66) scale(1,1)"><path fill="#FFFFFF" stroke="none" d="M 204.66956115212656 456.36987564779844 L 201 446 L 196.2621621840279 455.92738096526693 L 199.8437056712992 467.9695922453152"></path></g><g transform="translate(-86,-66) scale(1,1)"><path fill="none" stroke="#000000" d="M 204.66956115212656 456.36987564779844 L 201 446 L 196.2621621840279 455.92738096526693 L 199.8437056712992 467.9695922453152 L 204.66956115212656 456.36987564779844" stroke-miterlimit="10"></path></g><g transform="translate(-86,-66) scale(1,1)"><rect fill="#C0C0C0" stroke="none" x="631" y="247" width="145" height="72" opacity="0.2"></rect></g><g transform="translate(-86,-66) scale(1,1)"><rect fill="#ffffff" stroke="none" x="624" y="240" width="145" height="72"></rect></g><g transform="translate(-86,-66) scale(1,1)"><path fill="none" stroke="#000000" d="M 624 240 L 769 240 L 769 312 L 624 312 L 624 240 Z Z" stroke-miterlimit="10"></path></g><g transform="translate(-86,-66) scale(1,1)"><path fill="none" stroke="#000000" d="M 624 265 L 769 265" stroke-miterlimit="10"></path></g><g transform="translate(-86,-66) scale(1,1)"><path fill="none" stroke="#000000" d="M 624 275 L 769 275" stroke-miterlimit="10"></path></g><g transform="translate(-86,-66) scale(1,1)"><g><path fill="none" stroke="none"></path><text fill="#000000" stroke="none" font-family="Arial" font-size="13px" font-style="normal" font-weight="bold" text-decoration="none" x="640" y="259.5">Gestionnaire de BD</text></g></g><g transform="translate(-86,-66) scale(1,1)"><g><path fill="none" stroke="none"></path><text fill="#000000" stroke="none" font-family="Arial" font-size="13px" font-style="italic" font-weight="normal" text-decoration="none" x="629" y="292.5">+ConsulterBD(Recette)</text></g></g><g transform="translate(-86,-66) scale(1,1)"><g><path fill="none" stroke="none"></path><text fill="#000000" stroke="none" font-family="Arial" font-size="13px" font-style="italic" font-weight="normal" text-decoration="none" x="629" y="307.5">+MajComNote(Recette)</text></g></g><g transform="translate(-86,-66) scale(1,1)"><rect fill="#C0C0C0" stroke="none" x="491" y="379" width="157" height="87" opacity="0.2"></rect></g><g transform="translate(-86,-66) scale(1,1)"><rect fill="#ffffff" stroke="none" x="484" y="372" width="157" height="87"></rect></g><g transform="translate(-86,-66) scale(1,1)"><path fill="none" stroke="#000000" d="M 484 372 L 641 372 L 641 459 L 484 459 L 484 372 Z Z" stroke-miterlimit="10"></path></g><g transform="translate(-86,-66) scale(1,1)"><path fill="none" stroke="#000000" d="M 484 397 L 641 397" stroke-miterlimit="10"></path></g><g transform="translate(-86,-66) scale(1,1)"><path fill="none" stroke="#000000" d="M 484 407 L 641 407" stroke-miterlimit="10"></path></g><g transform="translate(-86,-66) scale(1,1)"><g><path fill="none" stroke="none"></path><text fill="#000000" stroke="none" font-family="Arial" font-size="13px" font-style="normal" font-weight="bold" text-decoration="none" x="493.5" y="391.5">Gestionnaire BD interne</text></g></g><g transform="translate(-86,-66) scale(1,1)"><g><path fill="none" stroke="none"></path><text fill="#000000" stroke="none" font-family="Arial" font-size="13px" font-style="normal" font-weight="normal" text-decoration="none" x="489" y="424.5">+MajBD(EspPero)</text></g></g><g transform="translate(-86,-66) scale(1,1)"><g><path fill="none" stroke="none"></path><text fill="#000000" stroke="none" font-family="Arial" font-size="13px" font-style="normal" font-weight="normal" text-decoration="none" x="489" y="439.5">+ConsulterBD(Recette)</text></g></g><g transform="translate(-86,-66) scale(1,1)"><g><path fill="none" stroke="none"></path><text fill="#000000" stroke="none" font-family="Arial" font-size="13px" font-style="normal" font-weight="normal" text-decoration="none" x="489" y="454.5">+MajComNote(Recette)</text></g></g><g transform="translate(-86,-66) scale(1,1)"><path fill="none" stroke="#000000" d="M 282 416 L 483 415" stroke-miterlimit="10"></path></g><g transform="translate(-86,-66) scale(1,1)"><path fill="none" stroke="#000000" d="M 472.8583935278321 419.26002560598903 L 483 415 L 472.8165082973815 410.84109428542786" stroke-miterlimit="10"></path></g><g transform="translate(-86,-66) scale(1,1)"><g><path fill="none" stroke="none"></path><text fill="#000000" stroke="none" font-family="Arial" font-size="13px" font-style="normal" font-weight="normal" text-decoration="none" x="342" y="407">+informe chgt</text></g></g><g transform="translate(-86,-66) scale(1,1)"><path fill="none" stroke="#000000" d="M 604 371 L 660 313" stroke-miterlimit="10"></path></g><g transform="translate(-86,-66) scale(1,1)"><path fill="#FFFFFF" stroke="none" d="M 651.9387900431091 333.4699021500085 L 660 313 L 639.8254571544178 321.77427039541004"></path></g><g transform="translate(-86,-66) scale(1,1)"><path fill="none" stroke="#000000" d="M 651.9387900431091 333.4699021500085 L 660 313 L 639.8254571544178 321.77427039541004 L 651.9387900431091 333.4699021500085" stroke-miterlimit="10"></path></g><g transform="translate(-86,-66) scale(1,1)"><rect fill="#C0C0C0" stroke="none" x="123" y="163" width="150.39999999999998" height="15" opacity="0.2"></rect></g><g transform="translate(-86,-66) scale(1,1)"><rect fill="#C0C0C0" stroke="none" x="123" y="177" width="376" height="102" opacity="0.2"></rect></g><g transform="translate(-86,-66) scale(1,1)"><rect fill="#ffffff" stroke="none" x="116" y="171" width="376" height="101"></rect></g><g transform="translate(-86,-66) scale(1,1)"><path fill="none" stroke="#000000" d="M 116 171 L 492 171 L 492 272 L 116 272 L 116 171 Z Z" stroke-miterlimit="10"></path></g><g transform="translate(-86,-66) scale(1,1)"><rect fill="#ffffff" stroke="none" x="116" y="156" width="150.39999999999998" height="15"></rect></g><g transform="translate(-86,-66) scale(1,1)"><path fill="none" stroke="#000000" d="M 116 156 L 266.4 156 L 266.4 171 L 116 171 L 116 156 Z Z" stroke-miterlimit="10"></path></g><g transform="translate(-86,-66) scale(1,1)"><rect fill="#ffffff" stroke="none" x="116" y="170" width="376" height="102"></rect></g><g transform="translate(-86,-66) scale(1,1)"><path fill="none" stroke="#000000" d="M 116 170 L 492 170 L 492 272 L 116 272 L 116 170 Z Z" stroke-miterlimit="10"></path></g><g transform="translate(-86,-66) scale(1,1)"><g><path fill="none" stroke="none"></path><text fill="#000000" stroke="none" font-family="Arial" font-size="13px" font-style="normal" font-weight="bold" text-decoration="none" x="281.5" y="190.5">Recette</text></g></g><g transform="translate(-86,-66) scale(1,1)"><rect fill="#C0C0C0" stroke="none" x="147" y="211" width="165" height="44" opacity="0.2"></rect></g><g transform="translate(-86,-66) scale(1,1)"><rect fill="#ffffff" stroke="none" x="140" y="204" width="165" height="44"></rect></g><g transform="translate(-86,-66) scale(1,1)"><path fill="none" stroke="#000000" d="M 140 204 L 305 204 L 305 248 L 140 248 L 140 204 Z Z" stroke-miterlimit="10"></path></g><g transform="translate(-86,-66) scale(1,1)"><path fill="none" stroke="#000000" d="M 140 229 L 305 229" stroke-miterlimit="10"></path></g><g transform="translate(-86,-66) scale(1,1)"><path fill="none" stroke="#000000" d="M 140 239 L 305 239" stroke-miterlimit="10"></path></g><g transform="translate(-86,-66) scale(1,1)"><g><path fill="none" stroke="none"></path><text fill="#000000" stroke="none" font-family="Arial" font-size="13px" font-style="normal" font-weight="bold" text-decoration="none" x="148.5" y="223.5">Consultant Espace Perso</text></g></g><g transform="translate(-86,-66) scale(1,1)"><path fill="none" stroke="#000000" d="M 220 249 L 205 387" stroke-miterlimit="10"></path></g><g transform="translate(-86,-66) scale(1,1)"><path fill="none" stroke="#000000" d="M 201.91330155019483 376.44195602017254 L 205 387 L 210.28303908886653 377.351710100463" stroke-miterlimit="10"></path></g><g transform="translate(-86,-66) scale(1,1)"><g><path fill="none" stroke="none"></path><text fill="#000000" stroke="none" font-family="Arial" font-size="13px" font-style="normal" font-weight="normal" text-decoration="none" x="171" y="326">+modifie esp perso</text></g></g><g transform="translate(-86,-66) scale(1,1)"><rect fill="#C0C0C0" stroke="none" x="347" y="207" width="125" height="44" opacity="0.2"></rect></g><g transform="translate(-86,-66) scale(1,1)"><rect fill="#ffffff" stroke="none" x="340" y="200" width="125" height="44"></rect></g><g transform="translate(-86,-66) scale(1,1)"><path fill="none" stroke="#000000" d="M 340 200 L 465 200 L 465 244 L 340 244 L 340 200 Z Z" stroke-miterlimit="10"></path></g><g transform="translate(-86,-66) scale(1,1)"><path fill="none" stroke="#000000" d="M 340 225 L 465 225" stroke-miterlimit="10"></path></g><g transform="translate(-86,-66) scale(1,1)"><path fill="none" stroke="#000000" d="M 340 235 L 465 235" stroke-miterlimit="10"></path></g><g transform="translate(-86,-66) scale(1,1)"><g><path fill="none" stroke="none"></path><text fill="#000000" stroke="none" font-family="Arial" font-size="13px" font-style="normal" font-weight="bold" text-decoration="none" x="347" y="219.5">Consultant Recette</text></g></g><g transform="translate(-86,-66) scale(1,1)"><rect fill="#C0C0C0" stroke="none" x="635" y="83" width="142" height="85" opacity="0.2"></rect></g><g transform="translate(-86,-66) scale(1,1)"><rect fill="#ffffff" stroke="none" x="628" y="76" width="142" height="85"></rect></g><g transform="translate(-86,-66) scale(1,1)"><path fill="none" stroke="#000000" d="M 628 76 L 770 76 L 770 161 L 628 161 L 628 76 Z Z" stroke-miterlimit="10"></path></g><g transform="translate(-86,-66) scale(1,1)"><path fill="none" stroke="#000000" d="M 628 101 L 770 101" stroke-miterlimit="10"></path></g><g transform="translate(-86,-66) scale(1,1)"><path fill="none" stroke="#000000" d="M 628 124 L 770 124" stroke-miterlimit="10"></path></g><g transform="translate(-86,-66) scale(1,1)"><g><path fill="none" stroke="none"></path><text fill="#000000" stroke="none" font-family="Arial" font-size="13px" font-style="normal" font-weight="bold" text-decoration="none" x="660" y="95.5">Arbitre Social</text></g></g><g transform="translate(-86,-66) scale(1,1)"><g><path fill="none" stroke="none"></path><text fill="#000000" stroke="none" font-family="Arial" font-size="13px" font-style="normal" font-weight="normal" text-decoration="none" x="633" y="118.5">+liste&lt;Signalement&gt;</text></g></g><g transform="translate(-86,-66) scale(1,1)"><g><path fill="none" stroke="none"></path><text fill="#000000" stroke="none" font-family="Arial" font-size="13px" font-style="normal" font-weight="normal" text-decoration="none" x="633" y="141.5">+ModifBD()</text></g></g><g transform="translate(-86,-66) scale(1,1)"><g><path fill="none" stroke="none"></path><text fill="#000000" stroke="none" font-family="Arial" font-size="13px" font-style="normal" font-weight="normal" text-decoration="none" x="633" y="156.5">+GestionSignalement()</text></g></g><g transform="translate(-86,-66) scale(1,1)"><rect fill="#C0C0C0" stroke="none" x="955" y="127" width="142" height="72" opacity="0.2"></rect></g><g transform="translate(-86,-66) scale(1,1)"><rect fill="#ffffff" stroke="none" x="948" y="120" width="142" height="72"></rect></g><g transform="translate(-86,-66) scale(1,1)"><path fill="none" stroke="#000000" d="M 948 120 L 1090 120 L 1090 192 L 948 192 L 948 120 Z Z" stroke-miterlimit="10"></path></g><g transform="translate(-86,-66) scale(1,1)"><path fill="none" stroke="#000000" d="M 948 145 L 1090 145" stroke-miterlimit="10"></path></g><g transform="translate(-86,-66) scale(1,1)"><path fill="none" stroke="#000000" d="M 948 155 L 1090 155" stroke-miterlimit="10"></path></g><g transform="translate(-86,-66) scale(1,1)"><g><path fill="none" stroke="none"></path><text fill="#000000" stroke="none" font-family="Arial" font-size="13px" font-style="normal" font-weight="bold" text-decoration="none" x="976.5" y="139.5">Espace Admin</text></g></g><g transform="translate(-86,-66) scale(1,1)"><g><path fill="none" stroke="none"></path><text fill="#000000" stroke="none" font-family="Arial" font-size="13px" font-style="normal" font-weight="normal" text-decoration="none" x="953" y="172.5">+AfficherSignalement()</text></g></g><g transform="translate(-86,-66) scale(1,1)"><g><path fill="none" stroke="none"></path><text fill="#000000" stroke="none" font-family="Arial" font-size="13px" font-style="normal" font-weight="normal" text-decoration="none" x="953" y="187.5">+GererBD()</text></g></g><g transform="translate(-86,-66) scale(1,1)"><path fill="none" stroke="#000000" d="M 947 147 L 771 127" stroke-miterlimit="10"></path></g><g transform="translate(-86,-66) scale(1,1)"><path fill="none" stroke="#000000" d="M 781.5729824779033 123.96486548536174 L 771 127 L 780.6223918046061 132.33006341037796" stroke-miterlimit="10"></path></g><g transform="translate(-86,-66) scale(1,1)"><g><path fill="none" stroke="none"></path><text fill="#000000" stroke="none" font-family="Arial" font-size="13px" font-style="normal" font-weight="normal" text-decoration="none" x="795" y="125">+lecture signalement</text></g></g><g transform="translate(-86,-66) scale(1,1)"><path fill="none" stroke="#000000" d="M 466 200 L 627 143" stroke-miterlimit="10"></path></g><g transform="translate(-86,-66) scale(1,1)"><path fill="none" stroke="#000000" d="M 618.8248751666529 150.35984605540028 L 627 143 L 616.0151167390311 142.42351084755632" stroke-miterlimit="10"></path></g><g transform="translate(-86,-66) scale(1,1)"><g><path fill="none" stroke="none"></path><text fill="#000000" stroke="none" font-family="Arial" font-size="13px" font-style="normal" font-weight="normal" text-decoration="none" x="494" y="151">+Emet Signalement</text></g></g><g transform="translate(-86,-66) scale(1,1)"><path fill="none" stroke="#000000" d="M 483 415 L 282 416" stroke-miterlimit="10"></path></g><g transform="translate(-86,-66) scale(1,1)"><path fill="none" stroke="#000000" d="M 292.1416064721679 411.73997439401097 L 282 416 L 292.1834917026185 420.15890571457214" stroke-miterlimit="10"></path></g><g transform="translate(-86,-66) scale(1,1)"><g><path fill="none" stroke="none"></path><text fill="#000000" stroke="none" font-family="Arial" font-size="13px" font-style="normal" font-weight="normal" text-decoration="none" x="306" y="436">+maj commentaire et note</text></g></g><g transform="translate(-86,-66) scale(1,1)"><path fill="none" stroke="#000000" d="M 698 162 L 697 239" stroke-miterlimit="10"></path></g><g transform="translate(-86,-66) scale(1,1)"><path fill="none" stroke="#000000" d="M 692.9228088544846 228.78351761304648 L 697 239 L 701.3411344685002 228.8928465171246" stroke-miterlimit="10"></path></g><g transform="translate(-86,-66) scale(1,1)"><g><path fill="none" stroke="none"></path><text fill="#000000" stroke="none" font-family="Arial" font-size="13px" font-style="normal" font-weight="normal" text-decoration="none" x="680" y="206">+modif BD</text></g></g><g transform="translate(-86,-66) scale(1,1)"><path fill="none" stroke="#000000" d="M 466 234 L 623 263" stroke-miterlimit="10"></path></g><g transform="translate(-86,-66) scale(1,1)"><path fill="none" stroke="#000000" d="M 612.2417619182127 265.29353730634176 L 623 263 L 613.7710011165302 257.0145526809674" stroke-miterlimit="10"></path></g><g transform="translate(-86,-66) scale(1,1)"><g><path fill="none" stroke="none"></path><text fill="#000000" stroke="none" font-family="Arial" font-size="13px" font-style="normal" font-weight="normal" text-decoration="none" x="496" y="240">+consulte recette</text></g></g><g transform="translate(-86,-66) scale(1,1)"><rect fill="#C0C0C0" stroke="none" x="703" y="407" width="176" height="57" opacity="0.2"></rect></g><g transform="translate(-86,-66) scale(1,1)"><rect fill="#ffffff" stroke="none" x="696" y="400" width="176" height="57"></rect></g><g transform="translate(-86,-66) scale(1,1)"><path fill="none" stroke="#000000" d="M 696 400 L 872 400 L 872 457 L 696 457 L 696 400 Z Z" stroke-miterlimit="10"></path></g><g transform="translate(-86,-66) scale(1,1)"><path fill="none" stroke="#000000" d="M 696 425 L 872 425" stroke-miterlimit="10"></path></g><g transform="translate(-86,-66) scale(1,1)"><path fill="none" stroke="#000000" d="M 696 435 L 872 435" stroke-miterlimit="10"></path></g><g transform="translate(-86,-66) scale(1,1)"><g><path fill="none" stroke="none"></path><text fill="#000000" stroke="none" font-family="Arial" font-size="13px" font-style="normal" font-weight="bold" text-decoration="none" x="706" y="419.5">Gestionnaire BD partenaire</text></g></g><g transform="translate(-86,-66) scale(1,1)"><g><path fill="none" stroke="none"></path><text fill="#000000" stroke="none" font-family="Arial" font-size="13px" font-style="normal" font-weight="normal" text-decoration="none" x="701" y="452.5">+MajComNote(Recette)</text></g></g><g transform="translate(-86,-66) scale(1,1)"><path fill="none" stroke="#000000" d="M 767 399 L 717 313" stroke-miterlimit="10"></path></g><g transform="translate(-86,-66) scale(1,1)"><path fill="#FFFFFF" stroke="none" d="M 734.4942532752765 326.33983142099174 L 717 313 L 719.9376198650743 334.8029903804116"></path></g><g transform="translate(-86,-66) scale(1,1)"><path fill="none" stroke="#000000" d="M 734.4942532752765 326.33983142099174 L 717 313 L 719.9376198650743 334.8029903804116 L 734.4942532752765 326.33983142099174" stroke-miterlimit="10"></path></g></g></svg>