<svg version="1.1" xmlns="http://www.w3.org/2000/svg" xmlns:xlink="http://www.w3.org/1999/xlink" width="1128" height="766"><defs></defs><g><g transform="translate(-106,-6) scale(1,1)"><rect fill="#C0C0C0" stroke="none" x="935" y="231" width="118.40000000000009" height="15" opacity="0.2"></rect></g><g transform="translate(-106,-6) scale(1,1)"><rect fill="#C0C0C0" stroke="none" x="935" y="245" width="296" height="389" opacity="0.2"></rect></g><g transform="translate(-106,-6) scale(1,1)"><rect fill="#ffffff" stroke="none" x="928" y="239" width="296" height="388"></rect></g><g transform="translate(-106,-6) scale(1,1)"><path fill="none" stroke="#000000" d="M 928 239 L 1224 239 L 1224 627 L 928 627 L 928 239 Z Z" stroke-miterlimit="10"></path></g><g transform="translate(-106,-6) scale(1,1)"><rect fill="#ffffff" stroke="none" x="928" y="224" width="118.40000000000009" height="15"></rect></g><g transform="translate(-106,-6) scale(1,1)"><path fill="none" stroke="#000000" d="M 928 224 L 1046.4 224 L 1046.4 239 L 928 239 L 928 224 Z Z" stroke-miterlimit="10"></path></g><g transform="translate(-106,-6) scale(1,1)"><rect fill="#ffffff" stroke="none" x="928" y="238" width="296" height="389"></rect></g><g transform="translate(-106,-6) scale(1,1)"><path fill="none" stroke="#000000" d="M 928 238 L 1224 238 L 1224 627 L 928 627 L 928 238 Z Z" stroke-miterlimit="10"></path></g><g transform="translate(-106,-6) scale(1,1)"><g><path fill="none" stroke="none"></path><text fill="#000000" stroke="none" font-family="Arial" font-size="13px" font-style="normal" font-weight="bold" text-decoration="none" x="1029.5" y="258.5">Synchronisation</text></g></g><g transform="translate(-106,-6) scale(1,1)"><rect fill="#C0C0C0" stroke="none" x="955" y="23" width="100.40000000000009" height="15" opacity="0.2"></rect></g><g transform="translate(-106,-6) scale(1,1)"><rect fill="#C0C0C0" stroke="none" x="955" y="37" width="251" height="149" opacity="0.2"></rect></g><g transform="translate(-106,-6) scale(1,1)"><rect fill="#ffffff" stroke="none" x="948" y="31" width="251" height="148"></rect></g><g transform="translate(-106,-6) scale(1,1)"><path fill="none" stroke="#000000" d="M 948 31 L 1199 31 L 1199 179 L 948 179 L 948 31 Z Z" stroke-miterlimit="10"></path></g><g transform="translate(-106,-6) scale(1,1)"><rect fill="#ffffff" stroke="none" x="948" y="16" width="100.40000000000009" height="15"></rect></g><g transform="translate(-106,-6) scale(1,1)"><path fill="none" stroke="#000000" d="M 948 16 L 1048.4 16 L 1048.4 31 L 948 31 L 948 16 Z Z" stroke-miterlimit="10"></path></g><g transform="translate(-106,-6) scale(1,1)"><rect fill="#ffffff" stroke="none" x="948" y="30" width="251" height="149"></rect></g><g transform="translate(-106,-6) scale(1,1)"><path fill="none" stroke="#000000" d="M 948 30 L 1199 30 L 1199 179 L 948 179 L 948 30 Z Z" stroke-miterlimit="10"></path></g><g transform="translate(-106,-6) scale(1,1)"><g><path fill="none" stroke="none"></path><text fill="#000000" stroke="none" font-family="Arial" font-size="13px" font-style="normal" font-weight="bold" text-decoration="none" x="1048" y="50.5">Aliments</text></g></g><g transform="translate(-106,-6) scale(1,1)"><rect fill="#C0C0C0" stroke="none" x="327" y="99" width="197" height="70" opacity="0.2"></rect></g><g transform="translate(-106,-6) scale(1,1)"><rect fill="#ffffff" stroke="none" x="320" y="92" width="197" height="70"></rect></g><g transform="translate(-106,-6) scale(1,1)"><path fill="none" stroke="#000000" d="M 320 92 L 517 92 L 517 162 L 320 162 L 320 92 Z Z" stroke-miterlimit="10"></path></g><g transform="translate(-106,-6) scale(1,1)"><path fill="none" stroke="#000000" d="M 320 130 L 517 130" stroke-miterlimit="10"></path></g><g transform="translate(-106,-6) scale(1,1)"><path fill="none" stroke="#000000" d="M 320 140 L 517 140" stroke-miterlimit="10"></path></g><g transform="translate(-106,-6) scale(1,1)"><g><path fill="none" stroke="none"></path><text fill="#000000" stroke="none" font-family="Arial" font-size="13px" font-style="normal" font-weight="normal" text-decoration="none" x="386" y="109.5">«Interface»</text></g></g><g transform="translate(-106,-6) scale(1,1)"><g><path fill="none" stroke="none"></path><text fill="#000000" stroke="none" font-family="Arial" font-size="13px" font-style="italic" font-weight="bold" text-decoration="none" x="381" y="124.5">Identificateur</text></g></g><g transform="translate(-106,-6) scale(1,1)"><g><path fill="none" stroke="none"></path><text fill="#000000" stroke="none" font-family="Arial" font-size="13px" font-style="italic" font-weight="normal" text-decoration="none" x="325" y="157.5">+AlgorithmeIdentification(Image)</text></g></g><g transform="translate(-106,-6) scale(1,1)"><rect fill="#C0C0C0" stroke="none" x="211" y="291" width="197" height="57" opacity="0.2"></rect></g><g transform="translate(-106,-6) scale(1,1)"><rect fill="#ffffff" stroke="none" x="204" y="284" width="197" height="57"></rect></g><g transform="translate(-106,-6) scale(1,1)"><path fill="none" stroke="#000000" d="M 204 284 L 401 284 L 401 341 L 204 341 L 204 284 Z Z" stroke-miterlimit="10"></path></g><g transform="translate(-106,-6) scale(1,1)"><path fill="none" stroke="#000000" d="M 204 309 L 401 309" stroke-miterlimit="10"></path></g><g transform="translate(-106,-6) scale(1,1)"><path fill="none" stroke="#000000" d="M 204 319 L 401 319" stroke-miterlimit="10"></path></g><g transform="translate(-106,-6) scale(1,1)"><g><path fill="none" stroke="none"></path><text fill="#000000" stroke="none" font-family="Arial" font-size="13px" font-style="normal" font-weight="bold" text-decoration="none" x="247" y="303.5">IdentificateurZones</text></g></g><g transform="translate(-106,-6) scale(1,1)"><g><path fill="none" stroke="none"></path><text fill="#000000" stroke="none" font-family="Arial" font-size="13px" font-style="normal" font-weight="normal" text-decoration="none" x="209" y="336.5">+AlgorithmeIdentification(Image)</text></g></g><g transform="translate(-106,-6) scale(1,1)"><rect fill="#C0C0C0" stroke="none" x="431" y="287" width="197" height="87" opacity="0.2"></rect></g><g transform="translate(-106,-6) scale(1,1)"><rect fill="#ffffff" stroke="none" x="424" y="280" width="197" height="87"></rect></g><g transform="translate(-106,-6) scale(1,1)"><path fill="none" stroke="#000000" d="M 424 280 L 621 280 L 621 367 L 424 367 L 424 280 Z Z" stroke-miterlimit="10"></path></g><g transform="translate(-106,-6) scale(1,1)"><path fill="none" stroke="#000000" d="M 424 305 L 621 305" stroke-miterlimit="10"></path></g><g transform="translate(-106,-6) scale(1,1)"><path fill="none" stroke="#000000" d="M 424 315 L 621 315" stroke-miterlimit="10"></path></g><g transform="translate(-106,-6) scale(1,1)"><g><path fill="none" stroke="none"></path><text fill="#000000" stroke="none" font-family="Arial" font-size="13px" font-style="normal" font-weight="bold" text-decoration="none" x="459.5" y="299.5">IdentificateurAliments</text></g></g><g transform="translate(-106,-6) scale(1,1)"><g><path fill="none" stroke="none"></path><text fill="#000000" stroke="none" font-family="Arial" font-size="13px" font-style="normal" font-weight="normal" text-decoration="none" x="429" y="332.5">+AlgorithmeIdentification(Image)</text></g></g><g transform="translate(-106,-6) scale(1,1)"><g><path fill="none" stroke="none"></path><text fill="#000000" stroke="none" font-family="Arial" font-size="13px" font-style="normal" font-weight="normal" text-decoration="none" x="429" y="347.5">+EnvoyerListeAliments()</text></g></g><g transform="translate(-106,-6) scale(1,1)"><g><path fill="none" stroke="none"></path><text fill="#000000" stroke="none" font-family="Arial" font-size="13px" font-style="normal" font-weight="normal" text-decoration="none" x="429" y="362.5">+TrouverAliments()</text></g></g><g transform="translate(-106,-6) scale(1,1)"><path fill="none" stroke="#000000" d="M 320 283 L 395 163" stroke-miterlimit="10" stroke-dasharray="3"></path></g><g transform="translate(-106,-6) scale(1,1)"><path fill="none" stroke="#000000" d="M 393.1834570156431 173.84897099203346 L 395 163 L 386.04412918008137 169.3868910948074" stroke-miterlimit="10"></path></g><g transform="translate(-106,-6) scale(1,1)"><path fill="none" stroke="#000000" d="M 499 279 L 437 163" stroke-miterlimit="10" stroke-dasharray="3"></path></g><g transform="translate(-106,-6) scale(1,1)"><path fill="none" stroke="#000000" d="M 445.50296096122105 169.97851380251922 L 437 163 L 438.07794692347863 173.94705578820913" stroke-miterlimit="10"></path></g><g transform="translate(-106,-6) scale(1,1)"><rect fill="#C0C0C0" stroke="none" x="223" y="471" width="143" height="115" opacity="0.2"></rect></g><g transform="translate(-106,-6) scale(1,1)"><rect fill="#ffffff" stroke="none" x="216" y="464" width="143" height="115"></rect></g><g transform="translate(-106,-6) scale(1,1)"><path fill="none" stroke="#000000" d="M 216 464 L 359 464 L 359 579 L 216 579 L 216 464 Z Z" stroke-miterlimit="10"></path></g><g transform="translate(-106,-6) scale(1,1)"><path fill="none" stroke="#000000" d="M 216 489 L 359 489" stroke-miterlimit="10"></path></g><g transform="translate(-106,-6) scale(1,1)"><path fill="none" stroke="#000000" d="M 216 512 L 359 512" stroke-miterlimit="10"></path></g><g transform="translate(-106,-6) scale(1,1)"><g><path fill="none" stroke="none"></path><text fill="#000000" stroke="none" font-family="Arial" font-size="13px" font-style="normal" font-weight="bold" text-decoration="none" x="264" y="483.5">Zonneur</text></g></g><g transform="translate(-106,-6) scale(1,1)"><g><path fill="none" stroke="none"></path><text fill="#000000" stroke="none" font-family="Arial" font-size="13px" font-style="normal" font-weight="normal" text-decoration="none" x="221" y="506.5">+Liste&lt;Coord&gt;</text></g></g><g transform="translate(-106,-6) scale(1,1)"><g><path fill="none" stroke="none"></path><text fill="#000000" stroke="none" font-family="Arial" font-size="13px" font-style="normal" font-weight="normal" text-decoration="none" x="221" y="529.5">+ChercherZone()</text></g></g><g transform="translate(-106,-6) scale(1,1)"><g><path fill="none" stroke="none"></path><text fill="#000000" stroke="none" font-family="Arial" font-size="13px" font-style="normal" font-weight="normal" text-decoration="none" x="221" y="544.5">+AjouterZone()</text></g></g><g transform="translate(-106,-6) scale(1,1)"><g><path fill="none" stroke="none"></path><text fill="#000000" stroke="none" font-family="Arial" font-size="13px" font-style="normal" font-weight="normal" text-decoration="none" x="221" y="559.5">+SupprimerZone()</text></g></g><g transform="translate(-106,-6) scale(1,1)"><g><path fill="none" stroke="none"></path><text fill="#000000" stroke="none" font-family="Arial" font-size="13px" font-style="normal" font-weight="normal" text-decoration="none" x="221" y="574.5">+EnvoyerZone()</text></g></g><g transform="translate(-106,-6) scale(1,1)"><path fill="none" stroke="#000000" d="M 291 463 L 300 342" stroke-miterlimit="10"></path></g><g transform="translate(-106,-6) scale(1,1)"><path fill="none" stroke="#000000" d="M 303.4441023694889 352.4469210233676 L 300 342 L 295.0482594424227 351.82243683870985" stroke-miterlimit="10"></path></g><g transform="translate(-106,-6) scale(1,1)"><g><path fill="none" stroke="none"></path><text fill="#000000" stroke="none" font-family="Arial" font-size="13px" font-style="normal" font-weight="normal" text-decoration="none" x="246" y="407">+ChercherZone</text></g></g><g transform="translate(-106,-6) scale(1,1)"><rect fill="#C0C0C0" stroke="none" x="123" y="491" width="47" height="72" opacity="0.2"></rect></g><g transform="translate(-106,-6) scale(1,1)"><rect fill="#ffffff" stroke="none" x="116" y="484" width="47" height="72"></rect></g><g transform="translate(-106,-6) scale(1,1)"><path fill="none" stroke="#000000" d="M 116 484 L 163 484 L 163 556 L 116 556 L 116 484 Z Z" stroke-miterlimit="10"></path></g><g transform="translate(-106,-6) scale(1,1)"><path fill="none" stroke="#000000" d="M 116 509 L 163 509" stroke-miterlimit="10"></path></g><g transform="translate(-106,-6) scale(1,1)"><path fill="none" stroke="#000000" d="M 116 547 L 163 547" stroke-miterlimit="10"></path></g><g transform="translate(-106,-6) scale(1,1)"><g><path fill="none" stroke="none"></path><text fill="#000000" stroke="none" font-family="Arial" font-size="13px" font-style="normal" font-weight="bold" text-decoration="none" x="122.5" y="503.5">Coord</text></g></g><g transform="translate(-106,-6) scale(1,1)"><g><path fill="none" stroke="none"></path><text fill="#000000" stroke="none" font-family="Arial" font-size="13px" font-style="normal" font-weight="normal" text-decoration="none" x="121" y="526.5">+X</text></g></g><g transform="translate(-106,-6) scale(1,1)"><g><path fill="none" stroke="none"></path><text fill="#000000" stroke="none" font-family="Arial" font-size="13px" font-style="normal" font-weight="normal" text-decoration="none" x="121" y="541.5">+Y</text></g></g><g transform="translate(-106,-6) scale(1,1)"><path fill="none" stroke="#000000" d="M 164 520 L 215 521" stroke-miterlimit="10"></path></g><g transform="translate(-106,-6) scale(1,1)"><path fill="#FFFFFF" stroke="none" d="M 204.7567544868664 525.0094789384244 L 215 521 L 204.92180188992006 516.592061382689 L 193.00422792355207 520.5687103514422"></path></g><g transform="translate(-106,-6) scale(1,1)"><path fill="none" stroke="#000000" d="M 204.7567544868664 525.0094789384244 L 215 521 L 204.92180188992006 516.592061382689 L 193.00422792355207 520.5687103514422 L 204.7567544868664 525.0094789384244" stroke-miterlimit="10"></path></g><g transform="translate(-106,-6) scale(1,1)"><g><path fill="none" stroke="none"></path><text fill="#000000" stroke="none" font-family="Arial" font-size="13px" font-style="normal" font-weight="normal" text-decoration="none" x="183" y="540">0..*</text></g></g><g transform="translate(-106,-6) scale(1,1)"><rect fill="#C0C0C0" stroke="none" x="419" y="639" width="140" height="130" opacity="0.2"></rect></g><g transform="translate(-106,-6) scale(1,1)"><rect fill="#ffffff" stroke="none" x="412" y="632" width="140" height="130"></rect></g><g transform="translate(-106,-6) scale(1,1)"><path fill="none" stroke="#000000" d="M 412 632 L 552 632 L 552 762 L 412 762 L 412 632 Z Z" stroke-miterlimit="10"></path></g><g transform="translate(-106,-6) scale(1,1)"><path fill="none" stroke="#000000" d="M 412 657 L 552 657" stroke-miterlimit="10"></path></g><g transform="translate(-106,-6) scale(1,1)"><path fill="none" stroke="#000000" d="M 412 680 L 552 680" stroke-miterlimit="10"></path></g><g transform="translate(-106,-6) scale(1,1)"><g><path fill="none" stroke="none"></path><text fill="#000000" stroke="none" font-family="Arial" font-size="13px" font-style="normal" font-weight="bold" text-decoration="none" x="422" y="651.5">GestionnaireAppareil</text></g></g><g transform="translate(-106,-6) scale(1,1)"><g><path fill="none" stroke="none"></path><text fill="#000000" stroke="none" font-family="Arial" font-size="13px" font-style="normal" font-weight="normal" text-decoration="none" x="417" y="674.5">+Image</text></g></g><g transform="translate(-106,-6) scale(1,1)"><g><path fill="none" stroke="none"></path><text fill="#000000" stroke="none" font-family="Arial" font-size="13px" font-style="normal" font-weight="normal" text-decoration="none" x="417" y="697.5">+DetecterAppareil()</text></g></g><g transform="translate(-106,-6) scale(1,1)"><g><path fill="none" stroke="none"></path><text fill="#000000" stroke="none" font-family="Arial" font-size="13px" font-style="normal" font-weight="normal" text-decoration="none" x="417" y="712.5">+PasserVuePhoto()</text></g></g><g transform="translate(-106,-6) scale(1,1)"><g><path fill="none" stroke="none"></path><text fill="#000000" stroke="none" font-family="Arial" font-size="13px" font-style="normal" font-weight="normal" text-decoration="none" x="417" y="727.5">+AfficherZones()</text></g></g><g transform="translate(-106,-6) scale(1,1)"><g><path fill="none" stroke="none"></path><text fill="#000000" stroke="none" font-family="Arial" font-size="13px" font-style="normal" font-weight="normal" text-decoration="none" x="417" y="742.5">+ForcerZone()</text></g></g><g transform="translate(-106,-6) scale(1,1)"><g><path fill="none" stroke="none"></path><text fill="#000000" stroke="none" font-family="Arial" font-size="13px" font-style="normal" font-weight="normal" text-decoration="none" x="417" y="757.5">+ValiderImage()</text></g></g><g transform="translate(-106,-6) scale(1,1)"><path fill="none" stroke="#000000" d="M 352 580 L 411 633" stroke-miterlimit="10"></path></g><g transform="translate(-106,-6) scale(1,1)"><path fill="#FFFFFF" stroke="none" d="M 400.62668976908714 629.3401591765162 L 411 633 L 406.25286025671846 623.077063728021 L 394.63374288302066 618.2981080135609"></path></g><g transform="translate(-106,-6) scale(1,1)"><path fill="none" stroke="#000000" d="M 400.62668976908714 629.3401591765162 L 411 633 L 406.25286025671846 623.077063728021 L 394.63374288302066 618.2981080135609 L 400.62668976908714 629.3401591765162" stroke-miterlimit="10"></path></g><g transform="translate(-106,-6) scale(1,1)"><g><path fill="none" stroke="none"></path><text fill="#000000" stroke="none" font-family="Arial" font-size="13px" font-style="normal" font-weight="normal" text-decoration="none" x="375" y="638">0..1</text></g></g><g transform="translate(-106,-6) scale(1,1)"><path fill="none" stroke="#000000" d="M 356 463 L 469 368" stroke-miterlimit="10"></path></g><g transform="translate(-106,-6) scale(1,1)"><path fill="none" stroke="#000000" d="M 463.9299690766873 377.76190485697606 L 469 368 L 458.51223763163443 371.3176558749658" stroke-miterlimit="10"></path></g><g transform="translate(-106,-6) scale(1,1)"><g><path fill="none" stroke="none"></path><text fill="#000000" stroke="none" font-family="Arial" font-size="13px" font-style="normal" font-weight="normal" text-decoration="none" x="380" y="419">+EnvoyerZones</text></g></g><g transform="translate(-106,-6) scale(1,1)"><rect fill="#C0C0C0" stroke="none" x="583" y="63" width="152" height="100" opacity="0.2"></rect></g><g transform="translate(-106,-6) scale(1,1)"><rect fill="#ffffff" stroke="none" x="576" y="56" width="152" height="100"></rect></g><g transform="translate(-106,-6) scale(1,1)"><path fill="none" stroke="#000000" d="M 576 56 L 728 56 L 728 156 L 576 156 L 576 56 Z Z" stroke-miterlimit="10"></path></g><g transform="translate(-106,-6) scale(1,1)"><path fill="none" stroke="#000000" d="M 576 81 L 728 81" stroke-miterlimit="10"></path></g><g transform="translate(-106,-6) scale(1,1)"><path fill="none" stroke="#000000" d="M 576 104 L 728 104" stroke-miterlimit="10"></path></g><g transform="translate(-106,-6) scale(1,1)"><g><path fill="none" stroke="none"></path><text fill="#000000" stroke="none" font-family="Arial" font-size="13px" font-style="normal" font-weight="bold" text-decoration="none" x="590" y="75.5">Superviseur Aliments</text></g></g><g transform="translate(-106,-6) scale(1,1)"><g><path fill="none" stroke="none"></path><text fill="#000000" stroke="none" font-family="Arial" font-size="13px" font-style="normal" font-weight="normal" text-decoration="none" x="581" y="98.5">+BD Aliments</text></g></g><g transform="translate(-106,-6) scale(1,1)"><g><path fill="none" stroke="none"></path><text fill="#000000" stroke="none" font-family="Arial" font-size="13px" font-style="italic" font-weight="normal" text-decoration="none" x="581" y="121.5">+TrouverAliments()</text></g></g><g transform="translate(-106,-6) scale(1,1)"><g><path fill="none" stroke="none"></path><text fill="#000000" stroke="none" font-family="Arial" font-size="13px" font-style="italic" font-weight="normal" text-decoration="none" x="581" y="136.5">+EnvoyerListeAliments()</text></g></g><g transform="translate(-106,-6) scale(1,1)"><g><path fill="none" stroke="none"></path><text fill="#000000" stroke="none" font-family="Arial" font-size="13px" font-style="normal" font-weight="normal" text-decoration="none" x="581" y="151.5">+AfficherErreurs()</text></g></g><g transform="translate(-106,-6) scale(1,1)"><path fill="none" stroke="#000000" d="M 548 279 L 621 157" stroke-miterlimit="10"></path></g><g transform="translate(-106,-6) scale(1,1)"><path fill="#FFFFFF" stroke="none" d="M 617.7882085501761 178.76429175697749 L 621 157 L 603.3392421969913 170.1185987751538"></path></g><g transform="translate(-106,-6) scale(1,1)"><path fill="none" stroke="#000000" d="M 617.7882085501761 178.76429175697749 L 621 157 L 603.3392421969913 170.1185987751538 L 617.7882085501761 178.76429175697749" stroke-miterlimit="10"></path></g><g transform="translate(-106,-6) scale(1,1)"><rect fill="#C0C0C0" stroke="none" x="571" y="467" width="182" height="72" opacity="0.2"></rect></g><g transform="translate(-106,-6) scale(1,1)"><rect fill="#ffffff" stroke="none" x="564" y="460" width="182" height="72"></rect></g><g transform="translate(-106,-6) scale(1,1)"><path fill="none" stroke="#000000" d="M 564 460 L 746 460 L 746 532 L 564 532 L 564 460 Z Z" stroke-miterlimit="10"></path></g><g transform="translate(-106,-6) scale(1,1)"><path fill="none" stroke="#000000" d="M 564 485 L 746 485" stroke-miterlimit="10"></path></g><g transform="translate(-106,-6) scale(1,1)"><path fill="none" stroke="#000000" d="M 564 495 L 746 495" stroke-miterlimit="10"></path></g><g transform="translate(-106,-6) scale(1,1)"><g><path fill="none" stroke="none"></path><text fill="#000000" stroke="none" font-family="Arial" font-size="13px" font-style="normal" font-weight="bold" text-decoration="none" x="627.5" y="479.5">Scanneur</text></g></g><g transform="translate(-106,-6) scale(1,1)"><g><path fill="none" stroke="none"></path><text fill="#000000" stroke="none" font-family="Arial" font-size="13px" font-style="normal" font-weight="normal" text-decoration="none" x="569" y="512.5">+EnvoyerListeAlimentsScan()</text></g></g><g transform="translate(-106,-6) scale(1,1)"><g><path fill="none" stroke="none"></path><text fill="#000000" stroke="none" font-family="Arial" font-size="13px" font-style="normal" font-weight="normal" text-decoration="none" x="569" y="527.5">+TrouverAlimentsScan()</text></g></g><g transform="translate(-106,-6) scale(1,1)"><path fill="none" stroke="#000000" d="M 655 459 L 652 157" stroke-miterlimit="10"></path></g><g transform="translate(-106,-6) scale(1,1)"><path fill="#FFFFFF" stroke="none" d="M 660.6205176341934 177.2407182609353 L 652 157 L 643.7832773380827 177.40797561487017"></path></g><g transform="translate(-106,-6) scale(1,1)"><path fill="none" stroke="#000000" d="M 660.6205176341934 177.2407182609353 L 652 157 L 643.7832773380827 177.40797561487017 L 660.6205176341934 177.2407182609353" stroke-miterlimit="10"></path></g><g transform="translate(-106,-6) scale(1,1)"><rect fill="#C0C0C0" stroke="none" x="695" y="279" width="215" height="115" opacity="0.2"></rect></g><g transform="translate(-106,-6) scale(1,1)"><rect fill="#ffffff" stroke="none" x="688" y="272" width="215" height="115"></rect></g><g transform="translate(-106,-6) scale(1,1)"><path fill="none" stroke="#000000" d="M 688 272 L 903 272 L 903 387 L 688 387 L 688 272 Z Z" stroke-miterlimit="10"></path></g><g transform="translate(-106,-6) scale(1,1)"><path fill="none" stroke="#000000" d="M 688 297 L 903 297" stroke-miterlimit="10"></path></g><g transform="translate(-106,-6) scale(1,1)"><path fill="none" stroke="#000000" d="M 688 320 L 903 320" stroke-miterlimit="10"></path></g><g transform="translate(-106,-6) scale(1,1)"><g><path fill="none" stroke="none"></path><text fill="#000000" stroke="none" font-family="Arial" font-size="13px" font-style="normal" font-weight="bold" text-decoration="none" x="751.5" y="291.5">SaisieManuelle</text></g></g><g transform="translate(-106,-6) scale(1,1)"><g><path fill="none" stroke="none"></path><text fill="#000000" stroke="none" font-family="Arial" font-size="13px" font-style="normal" font-weight="normal" text-decoration="none" x="693" y="314.5">-ChaineSaisie</text></g></g><g transform="translate(-106,-6) scale(1,1)"><g><path fill="none" stroke="none"></path><text fill="#000000" stroke="none" font-family="Arial" font-size="13px" font-style="normal" font-weight="normal" text-decoration="none" x="693" y="337.5">+TrouverAliment()</text></g></g><g transform="translate(-106,-6) scale(1,1)"><g><path fill="none" stroke="none"></path><text fill="#000000" stroke="none" font-family="Arial" font-size="13px" font-style="normal" font-weight="normal" text-decoration="none" x="693" y="352.5">+EnvoyerListeAliments()</text></g></g><g transform="translate(-106,-6) scale(1,1)"><g><path fill="none" stroke="none"></path><text fill="#000000" stroke="none" font-family="Arial" font-size="13px" font-style="normal" font-weight="normal" text-decoration="none" x="693" y="367.5">+AjouterNomAliment()</text></g></g><g transform="translate(-106,-6) scale(1,1)"><g><path fill="none" stroke="none"></path><text fill="#000000" stroke="none" font-family="Arial" font-size="13px" font-style="normal" font-weight="normal" text-decoration="none" x="693" y="382.5">+AutoCompletion()</text></g></g><g transform="translate(-106,-6) scale(1,1)"><path fill="none" stroke="#000000" d="M 758 271 L 685 157" stroke-miterlimit="10"></path></g><g transform="translate(-106,-6) scale(1,1)"><path fill="#FFFFFF" stroke="none" d="M 703.0506983657535 169.57665649163494 L 685 157 L 688.8707321296883 178.65681030946612"></path></g><g transform="translate(-106,-6) scale(1,1)"><path fill="none" stroke="#000000" d="M 703.0506983657535 169.57665649163494 L 685 157 L 688.8707321296883 178.65681030946612 L 703.0506983657535 169.57665649163494" stroke-miterlimit="10"></path></g><g transform="translate(-106,-6) scale(1,1)"><path fill="none" stroke="#000000" d="M 623 533 L 539 631" stroke-miterlimit="10"></path></g><g transform="translate(-106,-6) scale(1,1)"><path fill="#FFFFFF" stroke="none" d="M 542.4176769795506 620.5444041746322 L 539 631 L 548.8098852776087 626.023439858682 L 553.3174102160314 614.2963547479635"></path></g><g transform="translate(-106,-6) scale(1,1)"><path fill="none" stroke="#000000" d="M 542.4176769795506 620.5444041746322 L 539 631 L 548.8098852776087 626.023439858682 L 553.3174102160314 614.2963547479635 L 542.4176769795506 620.5444041746322" stroke-miterlimit="10"></path></g><g transform="translate(-106,-6) scale(1,1)"><g><path fill="none" stroke="none"></path><text fill="#000000" stroke="none" font-family="Arial" font-size="13px" font-style="normal" font-weight="normal" text-decoration="none" x="535" y="604">0..1</text></g></g><g transform="translate(-106,-6) scale(1,1)"><rect fill="#C0C0C0" stroke="none" x="731" y="627" width="147" height="100" opacity="0.2"></rect></g><g transform="translate(-106,-6) scale(1,1)"><rect fill="#ffffff" stroke="none" x="724" y="620" width="147" height="100"></rect></g><g transform="translate(-106,-6) scale(1,1)"><path fill="none" stroke="#000000" d="M 724 620 L 871 620 L 871 720 L 724 720 L 724 620 Z Z" stroke-miterlimit="10"></path></g><g transform="translate(-106,-6) scale(1,1)"><path fill="none" stroke="#000000" d="M 724 645 L 871 645" stroke-miterlimit="10"></path></g><g transform="translate(-106,-6) scale(1,1)"><path fill="none" stroke="#000000" d="M 724 668 L 871 668" stroke-miterlimit="10"></path></g><g transform="translate(-106,-6) scale(1,1)"><g><path fill="none" stroke="none"></path><text fill="#000000" stroke="none" font-family="Arial" font-size="13px" font-style="normal" font-weight="bold" text-decoration="none" x="738" y="639.5">DictionnaireAliments</text></g></g><g transform="translate(-106,-6) scale(1,1)"><g><path fill="none" stroke="none"></path><text fill="#000000" stroke="none" font-family="Arial" font-size="13px" font-style="normal" font-weight="normal" text-decoration="none" x="729" y="662.5">-DictionnaireAliments</text></g></g><g transform="translate(-106,-6) scale(1,1)"><g><path fill="none" stroke="none"></path><text fill="#000000" stroke="none" font-family="Arial" font-size="13px" font-style="normal" font-weight="normal" text-decoration="none" x="729" y="685.5">+VerifierOrthographe()</text></g></g><g transform="translate(-106,-6) scale(1,1)"><g><path fill="none" stroke="none"></path><text fill="#000000" stroke="none" font-family="Arial" font-size="13px" font-style="normal" font-weight="normal" text-decoration="none" x="729" y="700.5">+EmmettreSuggestion()</text></g></g><g transform="translate(-106,-6) scale(1,1)"><g><path fill="none" stroke="none"></path><text fill="#000000" stroke="none" font-family="Arial" font-size="13px" font-style="normal" font-weight="normal" text-decoration="none" x="729" y="715.5">+ObtenirInstance()</text></g></g><g transform="translate(-106,-6) scale(1,1)"><path fill="none" stroke="#000000" d="M 795 388 L 797 619" stroke-miterlimit="10"></path></g><g transform="translate(-106,-6) scale(1,1)"><path fill="none" stroke="#000000" d="M 792.7026547809521 608.8741506989129 L 797 619 L 801.1213747605834 608.8012613484399" stroke-miterlimit="10"></path></g><g transform="translate(-106,-6) scale(1,1)"><g><path fill="none" stroke="none"></path><text fill="#000000" stroke="none" font-family="Arial" font-size="13px" font-style="normal" font-weight="normal" text-decoration="none" x="768" y="509">+VerifierSaisie</text></g></g><g transform="translate(-106,-6) scale(1,1)"><rect fill="#C0C0C0" stroke="none" x="947" y="291" width="264" height="100" opacity="0.2"></rect></g><g transform="translate(-106,-6) scale(1,1)"><rect fill="#ffffff" stroke="none" x="940" y="284" width="264" height="100"></rect></g><g transform="translate(-106,-6) scale(1,1)"><path fill="none" stroke="#000000" d="M 940 284 L 1204 284 L 1204 384 L 940 384 L 940 284 Z Z" stroke-miterlimit="10"></path></g><g transform="translate(-106,-6) scale(1,1)"><path fill="none" stroke="#000000" d="M 940 309 L 1204 309" stroke-miterlimit="10"></path></g><g transform="translate(-106,-6) scale(1,1)"><path fill="none" stroke="#000000" d="M 940 362 L 1204 362" stroke-miterlimit="10"></path></g><g transform="translate(-106,-6) scale(1,1)"><g><path fill="none" stroke="none"></path><text fill="#000000" stroke="none" font-family="Arial" font-size="13px" font-style="normal" font-weight="bold" text-decoration="none" x="989" y="303.5">Gestionnaire des partenaires</text></g></g><g transform="translate(-106,-6) scale(1,1)"><g><path fill="none" stroke="none"></path><text fill="#000000" stroke="none" font-family="Arial" font-size="13px" font-style="normal" font-weight="normal" text-decoration="none" x="945" y="326.5">+BD PartenaireA</text></g></g><g transform="translate(-106,-6) scale(1,1)"><g><path fill="none" stroke="none"></path><text fill="#000000" stroke="none" font-family="Arial" font-size="13px" font-style="normal" font-weight="normal" text-decoration="none" x="945" y="341.5">+BD PartenaireB</text></g></g><g transform="translate(-106,-6) scale(1,1)"><g><path fill="none" stroke="none"></path><text fill="#000000" stroke="none" font-family="Arial" font-size="13px" font-style="normal" font-weight="normal" text-decoration="none" x="945" y="356.5">+BD PartenaireC</text></g></g><g transform="translate(-106,-6) scale(1,1)"><g><path fill="none" stroke="none"></path><text fill="#000000" stroke="none" font-family="Arial" font-size="13px" font-style="normal" font-weight="normal" text-decoration="none" x="945" y="379.5">+ObtenirChamps(NomAliment, TypeChamp)</text></g></g><g transform="translate(-106,-6) scale(1,1)"><path fill="none" stroke="#000000" d="M 729 148 L 978 283" stroke-miterlimit="10"></path></g><g transform="translate(-106,-6) scale(1,1)"><path fill="none" stroke="#000000" d="M 967.0595620462731 281.8568388649662 L 978 283 L 971.0722791243403 274.4556051431977" stroke-miterlimit="10"></path></g><g transform="translate(-106,-6) scale(1,1)"><g><path fill="none" stroke="none"></path><text fill="#000000" stroke="none" font-family="Arial" font-size="13px" font-style="normal" font-weight="normal" text-decoration="none" x="809" y="208">+TrouverAliments</text></g></g><g transform="translate(-106,-6) scale(1,1)"><path fill="none" stroke="#000000" d="M 839 619 L 1030 385" stroke-miterlimit="10"></path></g><g transform="translate(-106,-6) scale(1,1)"><path fill="none" stroke="#000000" d="M 1026.8348648047472 395.5347956409117 L 1030 385 L 1020.3126860039614 390.2111368761677" stroke-miterlimit="10"></path></g><g transform="translate(-106,-6) scale(1,1)"><g><path fill="none" stroke="none"></path><text fill="#000000" stroke="none" font-family="Arial" font-size="13px" font-style="normal" font-weight="normal" text-decoration="none" x="876" y="499">+VérifierAliment</text></g></g><g transform="translate(-106,-6) scale(1,1)"><rect fill="#C0C0C0" stroke="none" x="979" y="543" width="207" height="72" opacity="0.2"></rect></g><g transform="translate(-106,-6) scale(1,1)"><rect fill="#ffffff" stroke="none" x="972" y="536" width="207" height="72"></rect></g><g transform="translate(-106,-6) scale(1,1)"><path fill="none" stroke="#000000" d="M 972 536 L 1179 536 L 1179 608 L 972 608 L 972 536 Z Z" stroke-miterlimit="10"></path></g><g transform="translate(-106,-6) scale(1,1)"><path fill="none" stroke="#000000" d="M 972 561 L 1179 561" stroke-miterlimit="10"></path></g><g transform="translate(-106,-6) scale(1,1)"><path fill="none" stroke="#000000" d="M 972 571 L 1179 571" stroke-miterlimit="10"></path></g><g transform="translate(-106,-6) scale(1,1)"><g><path fill="none" stroke="none"></path><text fill="#000000" stroke="none" font-family="Arial" font-size="13px" font-style="normal" font-weight="bold" text-decoration="none" x="1047" y="555.5">Médiateur</text></g></g><g transform="translate(-106,-6) scale(1,1)"><g><path fill="none" stroke="none"></path><text fill="#000000" stroke="none" font-family="Arial" font-size="13px" font-style="normal" font-weight="normal" text-decoration="none" x="977" y="588.5">+ChercherCompromis()</text></g></g><g transform="translate(-106,-6) scale(1,1)"><g><path fill="none" stroke="none"></path><text fill="#000000" stroke="none" font-family="Arial" font-size="13px" font-style="normal" font-weight="normal" text-decoration="none" x="977" y="603.5">+MàJCompteurAjout(NomAliment)</text></g></g><g transform="translate(-106,-6) scale(1,1)"><path fill="none" stroke="#000000" d="M 1073 385 L 1075 535" stroke-miterlimit="10"></path></g><g transform="translate(-106,-6) scale(1,1)"><path fill="none" stroke="#000000" d="M 1070.655366085068 524.894350285844 L 1075 535 L 1079.0736533381541 524.7821064558028" stroke-miterlimit="10"></path></g><g transform="translate(-106,-6) scale(1,1)"><g><path fill="none" stroke="none"></path><text fill="#000000" stroke="none" font-family="Arial" font-size="13px" font-style="normal" font-weight="normal" text-decoration="none" x="1023" y="466">+GérerAlimentInconnu</text></g></g><g transform="translate(-106,-6) scale(1,1)"><rect fill="#C0C0C0" stroke="none" x="987" y="71" width="163" height="87" opacity="0.2"></rect></g><g transform="translate(-106,-6) scale(1,1)"><rect fill="#ffffff" stroke="none" x="980" y="64" width="163" height="87"></rect></g><g transform="translate(-106,-6) scale(1,1)"><path fill="none" stroke="#000000" d="M 980 64 L 1143 64 L 1143 151 L 980 151 L 980 64 Z Z" stroke-miterlimit="10"></path></g><g transform="translate(-106,-6) scale(1,1)"><path fill="none" stroke="#000000" d="M 980 89 L 1143 89" stroke-miterlimit="10"></path></g><g transform="translate(-106,-6) scale(1,1)"><path fill="none" stroke="#000000" d="M 980 99 L 1143 99" stroke-miterlimit="10"></path></g><g transform="translate(-106,-6) scale(1,1)"><g><path fill="none" stroke="none"></path><text fill="#000000" stroke="none" font-family="Arial" font-size="13px" font-style="normal" font-weight="bold" text-decoration="none" x="1041.5" y="83.5">Épicier</text></g></g><g transform="translate(-106,-6) scale(1,1)"><g><path fill="none" stroke="none"></path><text fill="#000000" stroke="none" font-family="Arial" font-size="13px" font-style="normal" font-weight="normal" text-decoration="none" x="985" y="116.5">+GestionAliments()</text></g></g><g transform="translate(-106,-6) scale(1,1)"><path fill="none" stroke="#000000" d="M 729 106 L 979 107" stroke-miterlimit="10"></path></g><g transform="translate(-106,-6) scale(1,1)"><path fill="none" stroke="#000000" d="M 968.820568506478 111.16883370604924 L 979 107 L 968.8542443791202 102.74986554549315" stroke-miterlimit="10"></path></g><g transform="translate(-106,-6) scale(1,1)"><g><path fill="none" stroke="none"></path><text fill="#000000" stroke="none" font-family="Arial" font-size="13px" font-style="normal" font-weight="normal" text-decoration="none" x="787" y="98">+EnvoyerListeAliments</text></g></g><g transform="translate(-106,-6) scale(1,1)"><path fill="#ffffff" stroke="none" d="M 136 188 L 202 188 L 212 198 L 212 295 L 136 295 L 136 188"></path></g><g transform="translate(-106,-6) scale(1,1)"><path fill="none" stroke="#000000" d="M 136 188 L 202 188 L 212 198 L 212 295 L 136 295 L 136 188 L 136 188" stroke-miterlimit="10"></path></g><g transform="translate(-106,-6) scale(1,1)"><path fill="none" stroke="#000000" d="M 202 188 L 202 198 L 212 198 L 202 188" stroke-miterlimit="10"></path></g><g transform="translate(-106,-6) scale(1,1)"><g><path fill="none" stroke="none"></path><text fill="#000000" stroke="none" font-family="Arial" font-size="13px" font-style="normal" font-weight="normal" text-decoration="none" x="141" y="206">Découpe</text><text fill="#000000" stroke="none" font-family="Arial" font-size="13px" font-style="normal" font-weight="normal" text-decoration="none" x="141" y="219">l'image </text></g></g><g transform="translate(-106,-6) scale(1,1)"><g><path fill="none" stroke="none"></path><text fill="#000000" stroke="none" font-family="Arial" font-size="13px" font-style="normal" font-weight="normal" text-decoration="none" x="141" y="234">en zone</text><text fill="#000000" stroke="none" font-family="Arial" font-size="13px" font-style="normal" font-weight="normal" text-decoration="none" x="141" y="247">pour </text></g></g><g transform="translate(-106,-6) scale(1,1)"><g><path fill="none" stroke="none"></path><text fill="#000000" stroke="none" font-family="Arial" font-size="13px" font-style="normal" font-weight="normal" text-decoration="none" x="141" y="249">facilité le</text><text fill="#000000" stroke="none" font-family="Arial" font-size="13px" font-style="normal" font-weight="normal" text-decoration="none" x="141" y="262">repérage </text></g></g><g transform="translate(-106,-6) scale(1,1)"><g><path fill="none" stroke="none"></path><text fill="#000000" stroke="none" font-family="Arial" font-size="13px" font-style="normal" font-weight="normal" text-decoration="none" x="141" y="277">d'aliments</text></g></g><g transform="translate(-106,-6) scale(1,1)"><path fill="none" stroke="#000000" d="M 249 283 L 214 264" stroke-miterlimit="10" stroke-dasharray="3"></path></g><g transform="translate(-106,-6) scale(1,1)"><path fill="#ffffff" stroke="none" d="M 512 392 L 569 392 L 579 402 L 579 484 L 512 484 L 512 392"></path></g><g transform="translate(-106,-6) scale(1,1)"><path fill="none" stroke="#000000" d="M 512 392 L 569 392 L 579 402 L 579 484 L 512 484 L 512 392 L 512 392" stroke-miterlimit="10"></path></g><g transform="translate(-106,-6) scale(1,1)"><path fill="none" stroke="#000000" d="M 569 392 L 569 402 L 579 402 L 569 392" stroke-miterlimit="10"></path></g><g transform="translate(-106,-6) scale(1,1)"><g><path fill="none" stroke="none"></path><text fill="#000000" stroke="none" font-family="Arial" font-size="13px" font-style="normal" font-weight="normal" text-decoration="none" x="517" y="410">Identifie </text></g></g><g transform="translate(-106,-6) scale(1,1)"><g><path fill="none" stroke="none"></path><text fill="#000000" stroke="none" font-family="Arial" font-size="13px" font-style="normal" font-weight="normal" text-decoration="none" x="517" y="425">les</text><text fill="#000000" stroke="none" font-family="Arial" font-size="13px" font-style="normal" font-weight="normal" text-decoration="none" x="517" y="438">aliments </text></g></g><g transform="translate(-106,-6) scale(1,1)"><g><path fill="none" stroke="none"></path><text fill="#000000" stroke="none" font-family="Arial" font-size="13px" font-style="normal" font-weight="normal" text-decoration="none" x="517" y="453">dans une</text><text fill="#000000" stroke="none" font-family="Arial" font-size="13px" font-style="normal" font-weight="normal" text-decoration="none" x="517" y="466">zone</text></g></g><g transform="translate(-106,-6) scale(1,1)"><path fill="none" stroke="#000000" d="M 536 391 L 531 368" stroke-miterlimit="10" stroke-dasharray="3"></path></g></g></svg>