<svg version="1.1" xmlns="http://www.w3.org/2000/svg" xmlns:xlink="http://www.w3.org/1999/xlink" width="1196" height="692"><defs></defs><g><g transform="translate(-2,-6) scale(1,1)"><path fill="none" stroke="#000000" d="M 12 16 L 1188 16 L 1188 688 L 12 688 L 12 16" stroke-miterlimit="10"></path></g><g transform="translate(-2,-6) scale(1,1)"><path fill="#ffffff" stroke="none" d="M 12 16 L 12 38 L 228 38 L 239 27 L 239 16 L 12 16"></path></g><g transform="translate(-2,-6) scale(1,1)"><path fill="none" stroke="#000000" d="M 12 16 L 12 38 L 228 38 L 239 27 L 239 16 L 12 16 L 12 16" stroke-miterlimit="10"></path></g><g transform="translate(-2,-6) scale(1,1)"><g><path fill="none" stroke="none"></path><text fill="#000000" stroke="none" font-family="Arial" font-size="13px" font-style="normal" font-weight="normal" text-decoration="none" x="83" y="33.5">AjoutAlimentsSaisieSeq</text></g></g><g transform="translate(-2,-6) scale(1,1)"><g><path fill="none" stroke="none"></path><text fill="#000000" stroke="none" font-family="Arial" font-size="13px" font-style="normal" font-weight="bold" text-decoration="none" x="17" y="33.5">interaction</text></g></g><g transform="translate(-2,-6) scale(1,1)"><rect fill="#C0C0C0" stroke="none" x="799" y="47" width="135" height="39" opacity="0.2"></rect></g><g transform="translate(-2,-6) scale(1,1)"><rect fill="#ffffff" stroke="none" x="792" y="40" width="135" height="39"></rect></g><g transform="translate(-2,-6) scale(1,1)"><path fill="none" stroke="#000000" d="M 792 40 L 927 40 L 927 79 L 792 79 L 792 40 Z Z" stroke-miterlimit="10"></path></g><g transform="translate(-2,-6) scale(1,1)"><g><path fill="none" stroke="none"></path><text fill="#000000" stroke="none" font-family="Arial" font-size="13px" font-style="normal" font-weight="bold" text-decoration="none" x="817.5" y="59.5">BDPartenaires</text></g></g><g transform="translate(-2,-6) scale(1,1)"><path fill="none" stroke="#000000" d="M 860.5 80 L 860.5 664" stroke-miterlimit="10" stroke-dasharray="3"></path></g><g transform="translate(-2,-6) scale(1,1)"><rect fill="#C0C0C0" stroke="none" x="407" y="47" width="155" height="39" opacity="0.2"></rect></g><g transform="translate(-2,-6) scale(1,1)"><rect fill="#ffffff" stroke="none" x="400" y="40" width="155" height="39"></rect></g><g transform="translate(-2,-6) scale(1,1)"><path fill="none" stroke="#000000" d="M 400 40 L 555 40 L 555 79 L 400 79 L 400 40 Z Z" stroke-miterlimit="10"></path></g><g transform="translate(-2,-6) scale(1,1)"><g><path fill="none" stroke="none"></path><text fill="#000000" stroke="none" font-family="Arial" font-size="13px" font-style="normal" font-weight="bold" text-decoration="none" x="418" y="59.5">DictionnaireAliments</text></g></g><g transform="translate(-2,-6) scale(1,1)"><path fill="none" stroke="#000000" d="M 478.5 80 L 478.5 660" stroke-miterlimit="10" stroke-dasharray="3"></path></g><g transform="translate(-2,-6) scale(1,1)"><rect fill="#C0C0C0" stroke="none" x="223" y="47" width="113" height="39" opacity="0.2"></rect></g><g transform="translate(-2,-6) scale(1,1)"><rect fill="#ffffff" stroke="none" x="216" y="40" width="113" height="39"></rect></g><g transform="translate(-2,-6) scale(1,1)"><path fill="none" stroke="#000000" d="M 216 40 L 329 40 L 329 79 L 216 79 L 216 40 Z Z" stroke-miterlimit="10"></path></g><g transform="translate(-2,-6) scale(1,1)"><g><path fill="none" stroke="none"></path><text fill="#000000" stroke="none" font-family="Arial" font-size="13px" font-style="normal" font-weight="bold" text-decoration="none" x="228.5" y="59.5">SaisieManuelle</text></g></g><g transform="translate(-2,-6) scale(1,1)"><path fill="none" stroke="#000000" d="M 273.5 80 L 273.5 660" stroke-miterlimit="10" stroke-dasharray="3"></path></g><g transform="translate(-2,-6) scale(1,1)"><rect fill="#C0C0C0" stroke="none" x="51" y="47" width="89" height="39" opacity="0.2"></rect></g><g transform="translate(-2,-6) scale(1,1)"><rect fill="#ffffff" stroke="none" x="44" y="40" width="89" height="39"></rect></g><g transform="translate(-2,-6) scale(1,1)"><path fill="none" stroke="#000000" d="M 44 40 L 133 40 L 133 79 L 44 79 L 44 40 Z Z" stroke-miterlimit="10"></path></g><g transform="translate(-2,-6) scale(1,1)"><g><path fill="none" stroke="none"></path><text fill="#000000" stroke="none" font-family="Arial" font-size="13px" font-style="normal" font-weight="bold" text-decoration="none" x="57.5" y="59.5">Controlleur</text></g></g><g transform="translate(-2,-6) scale(1,1)"><path fill="none" stroke="#000000" d="M 89.5 80 L 89.5 656" stroke-miterlimit="10" stroke-dasharray="3"></path></g><g transform="translate(-2,-6) scale(1,1)"><rect fill="#C0C0C0" stroke="none" x="651" y="47" width="108" height="39" opacity="0.2"></rect></g><g transform="translate(-2,-6) scale(1,1)"><rect fill="#ffffff" stroke="none" x="644" y="40" width="108" height="39"></rect></g><g transform="translate(-2,-6) scale(1,1)"><path fill="none" stroke="#000000" d="M 644 40 L 752 40 L 752 79 L 644 79 L 644 40 Z Z" stroke-miterlimit="10"></path></g><g transform="translate(-2,-6) scale(1,1)"><g><path fill="none" stroke="none"></path><text fill="#000000" stroke="none" font-family="Arial" font-size="13px" font-style="normal" font-weight="bold" text-decoration="none" x="656" y="59.5">GestionaireBD</text></g></g><g transform="translate(-2,-6) scale(1,1)"><path fill="none" stroke="#000000" d="M 699.5 80 L 699.5 664" stroke-miterlimit="10" stroke-dasharray="3"></path></g><g transform="translate(-2,-6) scale(1,1)"><rect fill="#C0C0C0" stroke="none" x="1071" y="47" width="70" height="39" opacity="0.2"></rect></g><g transform="translate(-2,-6) scale(1,1)"><rect fill="#ffffff" stroke="none" x="1064" y="40" width="70" height="39"></rect></g><g transform="translate(-2,-6) scale(1,1)"><path fill="none" stroke="#000000" d="M 1064 40 L 1134 40 L 1134 79 L 1064 79 L 1064 40 Z Z" stroke-miterlimit="10"></path></g><g transform="translate(-2,-6) scale(1,1)"><g><path fill="none" stroke="none"></path><text fill="#000000" stroke="none" font-family="Arial" font-size="13px" font-style="normal" font-weight="bold" text-decoration="none" x="1075.5" y="59.5">Épicerie</text></g></g><g transform="translate(-2,-6) scale(1,1)"><path fill="none" stroke="#000000" d="M 1100.5 80 L 1100.5 668" stroke-miterlimit="10" stroke-dasharray="3"></path></g><g transform="translate(-2,-6) scale(1,1)"><path fill="#ffffff" stroke="none" d="M 24 128 L 80 128 L 90 138 L 90 218 L 24 218 L 24 128"></path></g><g transform="translate(-2,-6) scale(1,1)"><path fill="none" stroke="#000000" d="M 24 128 L 80 128 L 90 138 L 90 218 L 24 218 L 24 128 L 24 128" stroke-miterlimit="10"></path></g><g transform="translate(-2,-6) scale(1,1)"><path fill="none" stroke="#000000" d="M 80 128 L 80 138 L 90 138 L 80 128" stroke-miterlimit="10"></path></g><g transform="translate(-2,-6) scale(1,1)"><g><path fill="none" stroke="none"></path><text fill="#000000" stroke="none" font-family="Arial" font-size="13px" font-style="normal" font-weight="normal" text-decoration="none" x="29" y="146">Tant que</text><text fill="#000000" stroke="none" font-family="Arial" font-size="13px" font-style="normal" font-weight="normal" text-decoration="none" x="29" y="159">les</text><text fill="#000000" stroke="none" font-family="Arial" font-size="13px" font-style="normal" font-weight="normal" text-decoration="none" x="29" y="172">saisies </text></g></g><g transform="translate(-2,-6) scale(1,1)"><g><path fill="none" stroke="none"></path><text fill="#000000" stroke="none" font-family="Arial" font-size="13px" font-style="normal" font-weight="normal" text-decoration="none" x="29" y="174">ne sont</text><text fill="#000000" stroke="none" font-family="Arial" font-size="13px" font-style="normal" font-weight="normal" text-decoration="none" x="29" y="187">pas</text><text fill="#000000" stroke="none" font-family="Arial" font-size="13px" font-style="normal" font-weight="normal" text-decoration="none" x="29" y="200">validées</text></g></g><g transform="translate(-2,-6) scale(1,1)"><rect fill="#C0C0C0" stroke="none" x="963" y="47" width="83" height="39" opacity="0.2"></rect></g><g transform="translate(-2,-6) scale(1,1)"><rect fill="#ffffff" stroke="none" x="956" y="40" width="83" height="39"></rect></g><g transform="translate(-2,-6) scale(1,1)"><path fill="none" stroke="#000000" d="M 956 40 L 1039 40 L 1039 79 L 956 79 L 956 40 Z Z" stroke-miterlimit="10"></path></g><g transform="translate(-2,-6) scale(1,1)"><g><path fill="none" stroke="none"></path><text fill="#000000" stroke="none" font-family="Arial" font-size="13px" font-style="normal" font-weight="bold" text-decoration="none" x="969" y="59.5">Médiateur</text></g></g><g transform="translate(-2,-6) scale(1,1)"><path fill="none" stroke="#000000" d="M 998.5 80 L 998.5 668" stroke-miterlimit="10" stroke-dasharray="3"></path></g><g transform="translate(-2,-6) scale(1,1)"><rect fill="#ffffff" stroke="none" x="24" y="128" width="1152" height="468"></rect></g><g transform="translate(-2,-6) scale(1,1)"><path fill="none" stroke="#000000" d="M 24 128 L 1176 128 L 1176 596 L 24 596 L 24 128 Z Z" stroke-miterlimit="10"></path></g><g transform="translate(-2,-6) scale(1,1)"><path fill="none" stroke="#000000" d="M 24 128 L 24 150 L 49 150 L 60 139 L 60 128 L 24 128 L 24 128" stroke-miterlimit="10"></path></g><g transform="translate(-2,-6) scale(1,1)"><g><path fill="none" stroke="none"></path><text fill="#000000" stroke="none" font-family="Arial" font-size="13px" font-style="normal" font-weight="normal" text-decoration="none" x="600" y="368.5"></text></g></g><g transform="translate(-2,-6) scale(1,1)"><g><path fill="none" stroke="none"></path><text fill="#000000" stroke="none" font-family="Arial" font-size="13px" font-style="normal" font-weight="normal" text-decoration="none" x="29" y="145.5">ref</text></g></g><g transform="translate(-2,-6) scale(1,1)"><path fill="none" stroke="#000000" d="M 56 420 L 1072 420 L 1072 588 L 56 588 L 56 420" stroke-miterlimit="10"></path></g><g transform="translate(-2,-6) scale(1,1)"><path fill="#ffffff" stroke="none" d="M 56 420 L 56 442 L 200 442 L 211 431 L 211 420 L 56 420"></path></g><g transform="translate(-2,-6) scale(1,1)"><path fill="none" stroke="#000000" d="M 56 420 L 56 442 L 200 442 L 211 431 L 211 420 L 56 420 L 56 420" stroke-miterlimit="10"></path></g><g transform="translate(-2,-6) scale(1,1)"><g><path fill="none" stroke="none"></path><text fill="#000000" stroke="none" font-family="Arial" font-size="13px" font-style="normal" font-weight="normal" text-decoration="none" x="88" y="437.5">Si aliment inconnu</text></g></g><g transform="translate(-2,-6) scale(1,1)"><g><path fill="none" stroke="none"></path><text fill="#000000" stroke="none" font-family="Arial" font-size="13px" font-style="normal" font-weight="bold" text-decoration="none" x="61" y="437.5">seq</text></g></g><g transform="translate(-2,-6) scale(1,1)"><path fill="none" stroke="#000000" d="M 89 120 L 273 120" stroke-miterlimit="10"></path></g><g transform="translate(-2,-6) scale(1,1)"><path fill="#000000" stroke="none" d="M 262.83732514237585 124.20951775601598 L 273 120 L 262.83732514237585 115.79048224398402"></path></g><g transform="translate(-2,-6) scale(1,1)"><path fill="none" stroke="#000000" d="M 262.83732514237585 124.20951775601598 L 273 120 L 262.83732514237585 115.79048224398402 L 262.83732514237585 124.20951775601598" stroke-miterlimit="10"></path></g><g transform="translate(-2,-6) scale(1,1)"><g><path fill="none" stroke="none"></path><text fill="#000000" stroke="none" font-family="Arial" font-size="13px" font-style="normal" font-weight="normal" text-decoration="none" x="170" y="117">new</text></g></g><g transform="translate(-2,-6) scale(1,1)"><path fill="none" stroke="#000000" d="M 273 177 L 89 177" stroke-miterlimit="10"></path></g><g transform="translate(-2,-6) scale(1,1)"><path fill="#000000" stroke="none" d="M 99.16267485762415 172.790482243984 L 89 177 L 99.16267485762415 181.209517756016"></path></g><g transform="translate(-2,-6) scale(1,1)"><path fill="none" stroke="#000000" d="M 99.16267485762415 172.790482243984 L 89 177 L 99.16267485762415 181.209517756016 L 99.16267485762415 172.790482243984" stroke-miterlimit="10"></path></g><g transform="translate(-2,-6) scale(1,1)"><g><path fill="none" stroke="none"></path><text fill="#000000" stroke="none" font-family="Arial" font-size="13px" font-style="normal" font-weight="normal" text-decoration="none" x="121" y="194">AlerteDemandeInfos</text></g></g><g transform="translate(-2,-6) scale(1,1)"><path fill="none" stroke="#000000" d="M 89 208 L 119 208 L 119 228 L 89 228" stroke-miterlimit="10"></path></g><g transform="translate(-2,-6) scale(1,1)"><path fill="#000000" stroke="none" d="M 99.16267485762415 223.790482243984 L 89 228 L 99.16267485762415 232.209517756016"></path></g><g transform="translate(-2,-6) scale(1,1)"><path fill="none" stroke="#000000" d="M 99.16267485762415 223.790482243984 L 89 228 L 99.16267485762415 232.209517756016 L 99.16267485762415 223.790482243984" stroke-miterlimit="10"></path></g><g transform="translate(-2,-6) scale(1,1)"><g><path fill="none" stroke="none"></path><text fill="#000000" stroke="none" font-family="Arial" font-size="13px" font-style="normal" font-weight="normal" text-decoration="none" x="127" y="224">DemandeInfos</text></g></g><g transform="translate(-2,-6) scale(1,1)"><path fill="none" stroke="#000000" d="M 89 240 L 273 240" stroke-miterlimit="10"></path></g><g transform="translate(-2,-6) scale(1,1)"><path fill="#000000" stroke="none" d="M 262.83732514237585 244.209517756016 L 273 240 L 262.83732514237585 235.790482243984"></path></g><g transform="translate(-2,-6) scale(1,1)"><path fill="none" stroke="#000000" d="M 262.83732514237585 244.209517756016 L 273 240 L 262.83732514237585 235.790482243984 L 262.83732514237585 244.209517756016" stroke-miterlimit="10"></path></g><g transform="translate(-2,-6) scale(1,1)"><g><path fill="none" stroke="none"></path><text fill="#000000" stroke="none" font-family="Arial" font-size="13px" font-style="normal" font-weight="normal" text-decoration="none" x="148" y="256">EnvoieInfos</text></g></g><g transform="translate(-2,-6) scale(1,1)"><path fill="none" stroke="#000000" d="M 273 248 L 303 248 L 303 268 L 273 268" stroke-miterlimit="10"></path></g><g transform="translate(-2,-6) scale(1,1)"><path fill="#000000" stroke="none" d="M 283.16267485762415 263.790482243984 L 273 268 L 283.16267485762415 272.209517756016"></path></g><g transform="translate(-2,-6) scale(1,1)"><path fill="none" stroke="#000000" d="M 283.16267485762415 263.790482243984 L 273 268 L 283.16267485762415 272.209517756016 L 283.16267485762415 263.790482243984" stroke-miterlimit="10"></path></g><g transform="translate(-2,-6) scale(1,1)"><g><path fill="none" stroke="none"></path><text fill="#000000" stroke="none" font-family="Arial" font-size="13px" font-style="normal" font-weight="normal" text-decoration="none" x="315" y="264">AjoutAliment</text></g></g><g transform="translate(-2,-6) scale(1,1)"><path fill="none" stroke="#000000" d="M 273 296 L 478 296" stroke-miterlimit="10"></path></g><g transform="translate(-2,-6) scale(1,1)"><path fill="#000000" stroke="none" d="M 467.83732514237585 300.209517756016 L 478 296 L 467.83732514237585 291.790482243984"></path></g><g transform="translate(-2,-6) scale(1,1)"><path fill="none" stroke="#000000" d="M 467.83732514237585 300.209517756016 L 478 296 L 467.83732514237585 291.790482243984 L 467.83732514237585 300.209517756016" stroke-miterlimit="10"></path></g><g transform="translate(-2,-6) scale(1,1)"><g><path fill="none" stroke="none"></path><text fill="#000000" stroke="none" font-family="Arial" font-size="13px" font-style="normal" font-weight="normal" text-decoration="none" x="339" y="293">VérifieSaisie</text></g></g><g transform="translate(-2,-6) scale(1,1)"><path fill="none" stroke="#000000" d="M 478 316 L 699 316" stroke-miterlimit="10"></path></g><g transform="translate(-2,-6) scale(1,1)"><path fill="#000000" stroke="none" d="M 688.8373251423759 320.209517756016 L 699 316 L 688.8373251423758 311.790482243984"></path></g><g transform="translate(-2,-6) scale(1,1)"><path fill="none" stroke="#000000" d="M 688.8373251423759 320.209517756016 L 699 316 L 688.8373251423758 311.790482243984 L 688.8373251423759 320.209517756016" stroke-miterlimit="10"></path></g><g transform="translate(-2,-6) scale(1,1)"><g><path fill="none" stroke="none"></path><text fill="#000000" stroke="none" font-family="Arial" font-size="13px" font-style="normal" font-weight="normal" text-decoration="none" x="548" y="313">VérifieAliment</text></g></g><g transform="translate(-2,-6) scale(1,1)"><path fill="none" stroke="#000000" d="M 699 340 L 860 340" stroke-miterlimit="10"></path></g><g transform="translate(-2,-6) scale(1,1)"><path fill="#000000" stroke="none" d="M 849.8373251423759 344.209517756016 L 860 340 L 849.8373251423758 335.790482243984"></path></g><g transform="translate(-2,-6) scale(1,1)"><path fill="none" stroke="#000000" d="M 849.8373251423759 344.209517756016 L 860 340 L 849.8373251423758 335.790482243984 L 849.8373251423759 344.209517756016" stroke-miterlimit="10"></path></g><g transform="translate(-2,-6) scale(1,1)"><g><path fill="none" stroke="none"></path><text fill="#000000" stroke="none" font-family="Arial" font-size="13px" font-style="normal" font-weight="normal" text-decoration="none" x="740" y="337">TrouveAliments</text></g></g><g transform="translate(-2,-6) scale(1,1)"><path fill="none" stroke="#000000" d="M 860 356 L 890 356 L 890 376 L 860 376" stroke-miterlimit="10"></path></g><g transform="translate(-2,-6) scale(1,1)"><path fill="#000000" stroke="none" d="M 870.1626748576241 371.790482243984 L 860 376 L 870.1626748576241 380.209517756016"></path></g><g transform="translate(-2,-6) scale(1,1)"><path fill="none" stroke="#000000" d="M 870.1626748576241 371.790482243984 L 860 376 L 870.1626748576241 380.209517756016 L 870.1626748576241 371.790482243984" stroke-miterlimit="10"></path></g><g transform="translate(-2,-6) scale(1,1)"><g><path fill="none" stroke="none"></path><text fill="#000000" stroke="none" font-family="Arial" font-size="13px" font-style="normal" font-weight="normal" text-decoration="none" x="903" y="369">RechercheBD</text></g></g><g transform="translate(-2,-6) scale(1,1)"><path fill="none" stroke="#000000" d="M 860 448 L 998 448" stroke-miterlimit="10"></path></g><g transform="translate(-2,-6) scale(1,1)"><path fill="#000000" stroke="none" d="M 987.8373251423759 452.209517756016 L 998 448 L 987.8373251423758 443.790482243984"></path></g><g transform="translate(-2,-6) scale(1,1)"><path fill="none" stroke="#000000" d="M 987.8373251423759 452.209517756016 L 998 448 L 987.8373251423758 443.790482243984 L 987.8373251423759 452.209517756016" stroke-miterlimit="10"></path></g><g transform="translate(-2,-6) scale(1,1)"><g><path fill="none" stroke="none"></path><text fill="#000000" stroke="none" font-family="Arial" font-size="13px" font-style="normal" font-weight="normal" text-decoration="none" x="918" y="445">new</text></g></g><g transform="translate(-2,-6) scale(1,1)"><path fill="none" stroke="#000000" d="M 998 476 L 1028 476 L 1028 496 L 998 496" stroke-miterlimit="10"></path></g><g transform="translate(-2,-6) scale(1,1)"><path fill="#000000" stroke="none" d="M 1008.1626748576241 491.790482243984 L 998 496 L 1008.1626748576241 500.209517756016"></path></g><g transform="translate(-2,-6) scale(1,1)"><path fill="none" stroke="#000000" d="M 1008.1626748576241 491.790482243984 L 998 496 L 1008.1626748576241 500.209517756016 L 1008.1626748576241 491.790482243984" stroke-miterlimit="10"></path></g><g transform="translate(-2,-6) scale(1,1)"><g><path fill="none" stroke="none"></path><text fill="#000000" stroke="none" font-family="Arial" font-size="13px" font-style="normal" font-weight="normal" text-decoration="none" x="1038" y="493">RechercheCompromis</text></g></g><g transform="translate(-2,-6) scale(1,1)"><path fill="none" stroke="#000000" d="M 998 516 L 860 516" stroke-miterlimit="10"></path></g><g transform="translate(-2,-6) scale(1,1)"><path fill="#000000" stroke="none" d="M 870.1626748576241 511.790482243984 L 860 516 L 870.1626748576241 520.209517756016"></path></g><g transform="translate(-2,-6) scale(1,1)"><path fill="none" stroke="#000000" d="M 870.1626748576241 511.790482243984 L 860 516 L 870.1626748576241 520.209517756016 L 870.1626748576241 511.790482243984" stroke-miterlimit="10"></path></g><g transform="translate(-2,-6) scale(1,1)"><g><path fill="none" stroke="none"></path><text fill="#000000" stroke="none" font-family="Arial" font-size="13px" font-style="normal" font-weight="normal" text-decoration="none" x="887" y="533">EnvoyerErreur</text></g></g><g transform="translate(-2,-6) scale(1,1)"><path fill="none" stroke="#000000" d="M 860 556 L 89 556" stroke-miterlimit="10"></path></g><g transform="translate(-2,-6) scale(1,1)"><path fill="#000000" stroke="none" d="M 99.16267485762415 551.790482243984 L 89 556 L 99.16267485762415 560.209517756016"></path></g><g transform="translate(-2,-6) scale(1,1)"><path fill="none" stroke="#000000" d="M 99.16267485762415 551.790482243984 L 89 556 L 99.16267485762415 560.209517756016 L 99.16267485762415 551.790482243984" stroke-miterlimit="10"></path></g><g transform="translate(-2,-6) scale(1,1)"><g><path fill="none" stroke="none"></path><text fill="#000000" stroke="none" font-family="Arial" font-size="13px" font-style="normal" font-weight="normal" text-decoration="none" x="433" y="573">GestionErreur</text></g></g><g transform="translate(-2,-6) scale(1,1)"><path fill="none" stroke="#000000" d="M 273 616 L 1100 616" stroke-miterlimit="10"></path></g><g transform="translate(-2,-6) scale(1,1)"><path fill="#000000" stroke="none" d="M 1089.837325142376 620.209517756016 L 1100 616 L 1089.837325142376 611.790482243984"></path></g><g transform="translate(-2,-6) scale(1,1)"><path fill="none" stroke="#000000" d="M 1089.837325142376 620.209517756016 L 1100 616 L 1089.837325142376 611.790482243984 L 1089.837325142376 620.209517756016" stroke-miterlimit="10"></path></g><g transform="translate(-2,-6) scale(1,1)"><g><path fill="none" stroke="none"></path><text fill="#000000" stroke="none" font-family="Arial" font-size="13px" font-style="normal" font-weight="normal" text-decoration="none" x="609" y="613">EnvoieListeAlimentsSaisis</text></g></g></g></svg>