<svg version="1.1" xmlns="http://www.w3.org/2000/svg" xmlns:xlink="http://www.w3.org/1999/xlink" width="1072" height="696"><defs></defs><g><g transform="translate(-26,-114) scale(1,1)"><path fill="none" stroke="#000000" d="M 36 124 L 1088 124 L 1088 796 L 36 796 L 36 124" stroke-miterlimit="10"></path></g><g transform="translate(-26,-114) scale(1,1)"><path fill="#ffffff" stroke="none" d="M 36 124 L 36 146 L 208 146 L 219 135 L 219 124 L 36 124"></path></g><g transform="translate(-26,-114) scale(1,1)"><path fill="none" stroke="#000000" d="M 36 124 L 36 146 L 208 146 L 219 135 L 219 124 L 36 124 L 36 124" stroke-miterlimit="10"></path></g><g transform="translate(-26,-114) scale(1,1)"><g><path fill="none" stroke="none"></path><text fill="#000000" stroke="none" font-family="Arial" font-size="13px" font-style="normal" font-weight="normal" text-decoration="none" x="107" y="141.5">GestionAliments</text></g></g><g transform="translate(-26,-114) scale(1,1)"><g><path fill="none" stroke="none"></path><text fill="#000000" stroke="none" font-family="Arial" font-size="13px" font-style="normal" font-weight="bold" text-decoration="none" x="41" y="141.5">interaction</text></g></g><g transform="translate(-26,-114) scale(1,1)"><rect fill="#C0C0C0" stroke="none" x="131" y="47" width="89" height="39" opacity="0.2"></rect></g><g transform="translate(-26,-114) scale(1,1)"><rect fill="#ffffff" stroke="none" x="124" y="40" width="89" height="39"></rect></g><g transform="translate(-26,-114) scale(1,1)"><path fill="none" stroke="#000000" d="M 124 40 L 213 40 L 213 79 L 124 79 L 124 40 Z Z" stroke-miterlimit="10"></path></g><g transform="translate(-26,-114) scale(1,1)"><g><path fill="none" stroke="none"></path><text fill="#000000" stroke="none" font-family="Arial" font-size="13px" font-style="normal" font-weight="bold" text-decoration="none" x="137.5" y="59.5">Controlleur</text></g></g><g transform="translate(-26,-114) scale(1,1)"><path fill="none" stroke="#000000" d="M 169.5 80 L 169.5 680" stroke-miterlimit="10" stroke-dasharray="3"></path></g><g transform="translate(-26,-114) scale(1,1)"><rect fill="#C0C0C0" stroke="none" x="347" y="47" width="63" height="39" opacity="0.2"></rect></g><g transform="translate(-26,-114) scale(1,1)"><rect fill="#ffffff" stroke="none" x="340" y="40" width="63" height="39"></rect></g><g transform="translate(-26,-114) scale(1,1)"><path fill="none" stroke="#000000" d="M 340 40 L 403 40 L 403 79 L 340 79 L 340 40 Z Z" stroke-miterlimit="10"></path></g><g transform="translate(-26,-114) scale(1,1)"><g><path fill="none" stroke="none"></path><text fill="#000000" stroke="none" font-family="Arial" font-size="13px" font-style="normal" font-weight="bold" text-decoration="none" x="351.5" y="59.5">Épicier</text></g></g><g transform="translate(-26,-114) scale(1,1)"><path fill="none" stroke="#000000" d="M 372.5 80 L 372.5 668" stroke-miterlimit="10" stroke-dasharray="3"></path></g><g transform="translate(-26,-114) scale(1,1)"><rect fill="#C0C0C0" stroke="none" x="491" y="47" width="103" height="39" opacity="0.2"></rect></g><g transform="translate(-26,-114) scale(1,1)"><rect fill="#ffffff" stroke="none" x="484" y="40" width="103" height="39"></rect></g><g transform="translate(-26,-114) scale(1,1)"><path fill="none" stroke="#000000" d="M 484 40 L 587 40 L 587 79 L 484 79 L 484 40 Z Z" stroke-miterlimit="10"></path></g><g transform="translate(-26,-114) scale(1,1)"><g><path fill="none" stroke="none"></path><text fill="#000000" stroke="none" font-family="Arial" font-size="13px" font-style="normal" font-weight="bold" text-decoration="none" x="497.5" y="59.5">Nutritionniste</text></g></g><g transform="translate(-26,-114) scale(1,1)"><path fill="none" stroke="#000000" d="M 536.5 80 L 536.5 659" stroke-miterlimit="10" stroke-dasharray="3"></path></g><g transform="translate(-26,-114) scale(1,1)"><rect fill="#C0C0C0" stroke="none" x="699" y="47" width="130" height="39" opacity="0.2"></rect></g><g transform="translate(-26,-114) scale(1,1)"><rect fill="#ffffff" stroke="none" x="692" y="40" width="130" height="39"></rect></g><g transform="translate(-26,-114) scale(1,1)"><path fill="none" stroke="#000000" d="M 692 40 L 822 40 L 822 79 L 692 79 L 692 40 Z Z" stroke-miterlimit="10"></path></g><g transform="translate(-26,-114) scale(1,1)"><g><path fill="none" stroke="none"></path><text fill="#000000" stroke="none" font-family="Arial" font-size="13px" font-style="normal" font-weight="bold" text-decoration="none" x="705.5" y="59.5">CompteUtilisateur</text></g></g><g transform="translate(-26,-114) scale(1,1)"><path fill="none" stroke="#000000" d="M 758.5 80 L 758.5 676" stroke-miterlimit="10" stroke-dasharray="3"></path></g><g transform="translate(-26,-114) scale(1,1)"><rect fill="#C0C0C0" stroke="none" x="835" y="47" width="92" height="39" opacity="0.2"></rect></g><g transform="translate(-26,-114) scale(1,1)"><rect fill="#ffffff" stroke="none" x="828" y="40" width="92" height="39"></rect></g><g transform="translate(-26,-114) scale(1,1)"><path fill="none" stroke="#000000" d="M 828 40 L 920 40 L 920 79 L 828 79 L 828 40 Z Z" stroke-miterlimit="10"></path></g><g transform="translate(-26,-114) scale(1,1)"><g><path fill="none" stroke="none"></path><text fill="#000000" stroke="none" font-family="Arial" font-size="13px" font-style="normal" font-weight="bold" text-decoration="none" x="839.5" y="59.5">Statistiques</text></g></g><g transform="translate(-26,-114) scale(1,1)"><path fill="none" stroke="#000000" d="M 875.5 80 L 875.5 672" stroke-miterlimit="10" stroke-dasharray="3"></path></g><g transform="translate(-26,-114) scale(1,1)"><rect fill="#C0C0C0" stroke="none" x="255" y="47" width="81" height="39" opacity="0.2"></rect></g><g transform="translate(-26,-114) scale(1,1)"><rect fill="#ffffff" stroke="none" x="248" y="40" width="81" height="39"></rect></g><g transform="translate(-26,-114) scale(1,1)"><path fill="none" stroke="#000000" d="M 248 40 L 329 40 L 329 79 L 248 79 L 248 40 Z Z" stroke-miterlimit="10"></path></g><g transform="translate(-26,-114) scale(1,1)"><g><path fill="none" stroke="none"></path><text fill="#000000" stroke="none" font-family="Arial" font-size="13px" font-style="normal" font-weight="bold" text-decoration="none" x="259.5" y="59.5">Analyseur</text></g></g><g transform="translate(-26,-114) scale(1,1)"><path fill="none" stroke="#000000" d="M 289.5 80 L 289.5 664" stroke-miterlimit="10" stroke-dasharray="3"></path></g><g transform="translate(-26,-114) scale(1,1)"><rect fill="#C0C0C0" stroke="none" x="419" y="47" width="67" height="39" opacity="0.2"></rect></g><g transform="translate(-26,-114) scale(1,1)"><rect fill="#ffffff" stroke="none" x="412" y="40" width="67" height="39"></rect></g><g transform="translate(-26,-114) scale(1,1)"><path fill="none" stroke="#000000" d="M 412 40 L 479 40 L 479 79 L 412 79 L 412 40 Z Z" stroke-miterlimit="10"></path></g><g transform="translate(-26,-114) scale(1,1)"><g><path fill="none" stroke="none"></path><text fill="#000000" stroke="none" font-family="Arial" font-size="13px" font-style="normal" font-weight="bold" text-decoration="none" x="423.5" y="59.5">Aliment</text></g></g><g transform="translate(-26,-114) scale(1,1)"><path fill="none" stroke="#000000" d="M 446.5 80 L 446.5 664" stroke-miterlimit="10" stroke-dasharray="3"></path></g><g transform="translate(-26,-114) scale(1,1)"><rect fill="#C0C0C0" stroke="none" x="599" y="47" width="97" height="39" opacity="0.2"></rect></g><g transform="translate(-26,-114) scale(1,1)"><rect fill="#ffffff" stroke="none" x="592" y="40" width="97" height="39"></rect></g><g transform="translate(-26,-114) scale(1,1)"><path fill="none" stroke="#000000" d="M 592 40 L 689 40 L 689 79 L 592 79 L 592 40 Z Z" stroke-miterlimit="10"></path></g><g transform="translate(-26,-114) scale(1,1)"><g><path fill="none" stroke="none"></path><text fill="#000000" stroke="none" font-family="Arial" font-size="13px" font-style="normal" font-weight="bold" text-decoration="none" x="605.5" y="59.5">InfoNutrition</text></g></g><g transform="translate(-26,-114) scale(1,1)"><path fill="none" stroke="#000000" d="M 641.5 80 L 641.5 676" stroke-miterlimit="10" stroke-dasharray="3"></path></g><g transform="translate(-26,-114) scale(1,1)"><rect fill="#C0C0C0" stroke="none" x="935" y="47" width="150" height="39" opacity="0.2"></rect></g><g transform="translate(-26,-114) scale(1,1)"><rect fill="#ffffff" stroke="none" x="928" y="40" width="150" height="39"></rect></g><g transform="translate(-26,-114) scale(1,1)"><path fill="none" stroke="#000000" d="M 928 40 L 1078 40 L 1078 79 L 928 79 L 928 40 Z Z" stroke-miterlimit="10"></path></g><g transform="translate(-26,-114) scale(1,1)"><g><path fill="none" stroke="none"></path><text fill="#000000" stroke="none" font-family="Arial" font-size="13px" font-style="normal" font-weight="bold" text-decoration="none" x="940.5" y="59.5">GestionnaireRecettes</text></g></g><g transform="translate(-26,-114) scale(1,1)"><path fill="none" stroke="#000000" d="M 1004.5 80 L 1004.5 672" stroke-miterlimit="10" stroke-dasharray="3"></path></g><g transform="translate(-26,-114) scale(1,1)"><path fill="none" stroke="#000000" d="M 44 300 L 488 300 L 488 392 L 44 392 L 44 300" stroke-miterlimit="10"></path></g><g transform="translate(-26,-114) scale(1,1)"><path fill="#ffffff" stroke="none" d="M 44 300 L 44 322 L 245 322 L 256 311 L 256 300 L 44 300"></path></g><g transform="translate(-26,-114) scale(1,1)"><path fill="none" stroke="#000000" d="M 44 300 L 44 322 L 245 322 L 256 311 L 256 300 L 44 300 L 44 300" stroke-miterlimit="10"></path></g><g transform="translate(-26,-114) scale(1,1)"><g><path fill="none" stroke="none"></path><text fill="#000000" stroke="none" font-family="Arial" font-size="13px" font-style="normal" font-weight="normal" text-decoration="none" x="76" y="317.5">Si infos aliment incomplètes</text></g></g><g transform="translate(-26,-114) scale(1,1)"><g><path fill="none" stroke="none"></path><text fill="#000000" stroke="none" font-family="Arial" font-size="13px" font-style="normal" font-weight="bold" text-decoration="none" x="49" y="317.5">seq</text></g></g><g transform="translate(-26,-114) scale(1,1)"><path fill="none" stroke="#000000" d="M 132 464 L 799 464 L 799 596 L 132 596 L 132 464" stroke-miterlimit="10"></path></g><g transform="translate(-26,-114) scale(1,1)"><path fill="#ffffff" stroke="none" d="M 132 464 L 132 486 L 298 486 L 309 475 L 309 464 L 132 464"></path></g><g transform="translate(-26,-114) scale(1,1)"><path fill="none" stroke="#000000" d="M 132 464 L 132 486 L 298 486 L 309 475 L 309 464 L 132 464 L 132 464" stroke-miterlimit="10"></path></g><g transform="translate(-26,-114) scale(1,1)"><g><path fill="none" stroke="none"></path><text fill="#000000" stroke="none" font-family="Arial" font-size="13px" font-style="normal" font-weight="normal" text-decoration="none" x="164" y="481.5">Si les infos sont vides</text></g></g><g transform="translate(-26,-114) scale(1,1)"><g><path fill="none" stroke="none"></path><text fill="#000000" stroke="none" font-family="Arial" font-size="13px" font-style="normal" font-weight="bold" text-decoration="none" x="137" y="481.5">seq</text></g></g><g transform="translate(-26,-114) scale(1,1)"><path fill="none" stroke="#000000" d="M 169 217 L 289 217" stroke-miterlimit="10"></path></g><g transform="translate(-26,-114) scale(1,1)"><path fill="#000000" stroke="none" d="M 278.83732514237585 221.209517756016 L 289 217 L 278.83732514237585 212.790482243984"></path></g><g transform="translate(-26,-114) scale(1,1)"><path fill="none" stroke="#000000" d="M 278.83732514237585 221.209517756016 L 289 217 L 278.83732514237585 212.790482243984 L 278.83732514237585 221.209517756016" stroke-miterlimit="10"></path></g><g transform="translate(-26,-114) scale(1,1)"><g><path fill="none" stroke="none"></path><text fill="#000000" stroke="none" font-family="Arial" font-size="13px" font-style="normal" font-weight="normal" text-decoration="none" x="218" y="214">new</text></g></g><g transform="translate(-26,-114) scale(1,1)"><path fill="none" stroke="#000000" d="M 169 236 L 372 236" stroke-miterlimit="10"></path></g><g transform="translate(-26,-114) scale(1,1)"><path fill="#000000" stroke="none" d="M 361.83732514237585 240.209517756016 L 372 236 L 361.83732514237585 231.790482243984"></path></g><g transform="translate(-26,-114) scale(1,1)"><path fill="none" stroke="#000000" d="M 361.83732514237585 240.209517756016 L 372 236 L 361.83732514237585 231.790482243984 L 361.83732514237585 240.209517756016" stroke-miterlimit="10"></path></g><g transform="translate(-26,-114) scale(1,1)"><g><path fill="none" stroke="none"></path><text fill="#000000" stroke="none" font-family="Arial" font-size="13px" font-style="normal" font-weight="normal" text-decoration="none" x="212" y="232">new</text></g></g><g transform="translate(-26,-114) scale(1,1)"><path fill="none" stroke="#000000" d="M 289 244 L 319 244 L 319 264 L 289 264" stroke-miterlimit="10"></path></g><g transform="translate(-26,-114) scale(1,1)"><path fill="#000000" stroke="none" d="M 299.16267485762415 259.790482243984 L 289 264 L 299.16267485762415 268.209517756016"></path></g><g transform="translate(-26,-114) scale(1,1)"><path fill="none" stroke="#000000" d="M 299.16267485762415 259.790482243984 L 289 264 L 299.16267485762415 268.209517756016 L 299.16267485762415 259.790482243984" stroke-miterlimit="10"></path></g><g transform="translate(-26,-114) scale(1,1)"><g><path fill="none" stroke="none"></path><text fill="#000000" stroke="none" font-family="Arial" font-size="13px" font-style="normal" font-weight="normal" text-decoration="none" x="198" y="260">AnalyseAliments</text></g></g><g transform="translate(-26,-114) scale(1,1)"><path fill="none" stroke="#000000" d="M 289 276 L 372 276" stroke-miterlimit="10"></path></g><g transform="translate(-26,-114) scale(1,1)"><path fill="#000000" stroke="none" d="M 361.83732514237585 280.209517756016 L 372 276 L 361.83732514237585 271.790482243984"></path></g><g transform="translate(-26,-114) scale(1,1)"><path fill="none" stroke="#000000" d="M 361.83732514237585 280.209517756016 L 372 276 L 361.83732514237585 271.790482243984 L 361.83732514237585 280.209517756016" stroke-miterlimit="10"></path></g><g transform="translate(-26,-114) scale(1,1)"><g><path fill="none" stroke="none"></path><text fill="#000000" stroke="none" font-family="Arial" font-size="13px" font-style="normal" font-weight="normal" text-decoration="none" x="342" y="261">EnvoieAliments</text></g></g><g transform="translate(-26,-114) scale(1,1)"><path fill="none" stroke="#000000" d="M 372 292 L 446 292" stroke-miterlimit="10"></path></g><g transform="translate(-26,-114) scale(1,1)"><path fill="#000000" stroke="none" d="M 435.83732514237585 296.209517756016 L 446 292 L 435.83732514237585 287.790482243984"></path></g><g transform="translate(-26,-114) scale(1,1)"><path fill="none" stroke="#000000" d="M 435.83732514237585 296.209517756016 L 446 292 L 435.83732514237585 287.790482243984 L 435.83732514237585 296.209517756016" stroke-miterlimit="10"></path></g><g transform="translate(-26,-114) scale(1,1)"><g><path fill="none" stroke="none"></path><text fill="#000000" stroke="none" font-family="Arial" font-size="13px" font-style="normal" font-weight="normal" text-decoration="none" x="398" y="289">crée</text></g></g><g transform="translate(-26,-114) scale(1,1)"><path fill="none" stroke="#000000" d="M 372 332 L 169 332" stroke-miterlimit="10"></path></g><g transform="translate(-26,-114) scale(1,1)"><path fill="#000000" stroke="none" d="M 179.16267485762415 327.790482243984 L 169 332 L 179.16267485762415 336.209517756016"></path></g><g transform="translate(-26,-114) scale(1,1)"><path fill="none" stroke="#000000" d="M 179.16267485762415 327.790482243984 L 169 332 L 179.16267485762415 336.209517756016 L 179.16267485762415 327.790482243984" stroke-miterlimit="10"></path></g><g transform="translate(-26,-114) scale(1,1)"><g><path fill="none" stroke="none"></path><text fill="#000000" stroke="none" font-family="Arial" font-size="13px" font-style="normal" font-weight="normal" text-decoration="none" x="233" y="345">LanceAlerte</text></g></g><g transform="translate(-26,-114) scale(1,1)"><path fill="none" stroke="#000000" d="M 169 344 L 199 344 L 199 364 L 169 364" stroke-miterlimit="10"></path></g><g transform="translate(-26,-114) scale(1,1)"><path fill="#000000" stroke="none" d="M 179.16267485762415 359.790482243984 L 169 364 L 179.16267485762415 368.209517756016"></path></g><g transform="translate(-26,-114) scale(1,1)"><path fill="none" stroke="#000000" d="M 179.16267485762415 359.790482243984 L 169 364 L 179.16267485762415 368.209517756016 L 179.16267485762415 359.790482243984" stroke-miterlimit="10"></path></g><g transform="translate(-26,-114) scale(1,1)"><g><path fill="none" stroke="none"></path><text fill="#000000" stroke="none" font-family="Arial" font-size="13px" font-style="normal" font-weight="normal" text-decoration="none" x="59" y="359">DemandeInfos</text></g></g><g transform="translate(-26,-114) scale(1,1)"><path fill="none" stroke="#000000" d="M 536 368 L 566 368 L 566 388 L 536 388" stroke-miterlimit="10"></path></g><g transform="translate(-26,-114) scale(1,1)"><path fill="#000000" stroke="none" d="M 546.1626748576241 383.790482243984 L 536 388 L 546.1626748576241 392.209517756016"></path></g><g transform="translate(-26,-114) scale(1,1)"><path fill="none" stroke="#000000" d="M 546.1626748576241 383.790482243984 L 536 388 L 546.1626748576241 392.209517756016 L 546.1626748576241 383.790482243984" stroke-miterlimit="10"></path></g><g transform="translate(-26,-114) scale(1,1)"><g><path fill="none" stroke="none"></path><text fill="#000000" stroke="none" font-family="Arial" font-size="13px" font-style="normal" font-weight="normal" text-decoration="none" x="586" y="385">SélectionneAliments</text></g></g><g transform="translate(-26,-114) scale(1,1)"><path fill="none" stroke="#000000" d="M 372 408 L 536 408" stroke-miterlimit="10"></path></g><g transform="translate(-26,-114) scale(1,1)"><path fill="#000000" stroke="none" d="M 525.8373251423759 412.209517756016 L 536 408 L 525.8373251423758 403.790482243984"></path></g><g transform="translate(-26,-114) scale(1,1)"><path fill="none" stroke="#000000" d="M 525.8373251423759 412.209517756016 L 536 408 L 525.8373251423758 403.790482243984 L 525.8373251423759 412.209517756016" stroke-miterlimit="10"></path></g><g transform="translate(-26,-114) scale(1,1)"><g><path fill="none" stroke="none"></path><text fill="#000000" stroke="none" font-family="Arial" font-size="13px" font-style="normal" font-weight="normal" text-decoration="none" x="396" y="404">new</text></g></g><g transform="translate(-26,-114) scale(1,1)"><path fill="none" stroke="#000000" d="M 169 380 L 372 380" stroke-miterlimit="10"></path></g><g transform="translate(-26,-114) scale(1,1)"><path fill="#000000" stroke="none" d="M 361.83732514237585 384.209517756016 L 372 380 L 361.83732514237585 375.790482243984"></path></g><g transform="translate(-26,-114) scale(1,1)"><path fill="none" stroke="#000000" d="M 361.83732514237585 384.209517756016 L 372 380 L 361.83732514237585 375.790482243984 L 361.83732514237585 384.209517756016" stroke-miterlimit="10"></path></g><g transform="translate(-26,-114) scale(1,1)"><g><path fill="none" stroke="none"></path><text fill="#000000" stroke="none" font-family="Arial" font-size="13px" font-style="normal" font-weight="normal" text-decoration="none" x="236" y="377">EnvoieInfos</text></g></g><g transform="translate(-26,-114) scale(1,1)"><path fill="none" stroke="#000000" d="M 536 432 L 758 432" stroke-miterlimit="10"></path></g><g transform="translate(-26,-114) scale(1,1)"><path fill="#000000" stroke="none" d="M 747.8373251423759 436.209517756016 L 758 432 L 747.8373251423758 427.790482243984"></path></g><g transform="translate(-26,-114) scale(1,1)"><path fill="none" stroke="#000000" d="M 747.8373251423759 436.209517756016 L 758 432 L 747.8373251423758 427.790482243984 L 747.8373251423759 436.209517756016" stroke-miterlimit="10"></path></g><g transform="translate(-26,-114) scale(1,1)"><g><path fill="none" stroke="none"></path><text fill="#000000" stroke="none" font-family="Arial" font-size="13px" font-style="normal" font-weight="normal" text-decoration="none" x="597" y="428">ConsulteCompte</text></g></g><g transform="translate(-26,-114) scale(1,1)"><path fill="none" stroke="#000000" d="M 372 424 L 536 424" stroke-miterlimit="10"></path></g><g transform="translate(-26,-114) scale(1,1)"><path fill="#000000" stroke="none" d="M 525.8373251423759 428.209517756016 L 536 424 L 525.8373251423758 419.790482243984"></path></g><g transform="translate(-26,-114) scale(1,1)"><path fill="none" stroke="#000000" d="M 525.8373251423759 428.209517756016 L 536 424 L 525.8373251423758 419.790482243984 L 525.8373251423759 428.209517756016" stroke-miterlimit="10"></path></g><g transform="translate(-26,-114) scale(1,1)"><g><path fill="none" stroke="none"></path><text fill="#000000" stroke="none" font-family="Arial" font-size="13px" font-style="normal" font-weight="normal" text-decoration="none" x="409" y="421">EnvoieAliments</text></g></g><g transform="translate(-26,-114) scale(1,1)"><path fill="none" stroke="#000000" d="M 758 472 L 536 472" stroke-miterlimit="10"></path></g><g transform="translate(-26,-114) scale(1,1)"><path fill="#000000" stroke="none" d="M 546.1626748576241 467.790482243984 L 536 472 L 546.1626748576241 476.209517756016"></path></g><g transform="translate(-26,-114) scale(1,1)"><path fill="none" stroke="#000000" d="M 546.1626748576241 467.790482243984 L 536 472 L 546.1626748576241 476.209517756016 L 546.1626748576241 467.790482243984" stroke-miterlimit="10"></path></g><g transform="translate(-26,-114) scale(1,1)"><g><path fill="none" stroke="none"></path><text fill="#000000" stroke="none" font-family="Arial" font-size="13px" font-style="normal" font-weight="normal" text-decoration="none" x="609" y="489">EnvoieErreur</text></g></g><g transform="translate(-26,-114) scale(1,1)"><path fill="none" stroke="#000000" d="M 758 440 L 788 440 L 788 460 L 758 460" stroke-miterlimit="10"></path></g><g transform="translate(-26,-114) scale(1,1)"><path fill="#000000" stroke="none" d="M 768.1626748576241 455.790482243984 L 758 460 L 768.1626748576241 464.209517756016"></path></g><g transform="translate(-26,-114) scale(1,1)"><path fill="none" stroke="#000000" d="M 768.1626748576241 455.790482243984 L 758 460 L 768.1626748576241 464.209517756016 L 768.1626748576241 455.790482243984" stroke-miterlimit="10"></path></g><g transform="translate(-26,-114) scale(1,1)"><g><path fill="none" stroke="none"></path><text fill="#000000" stroke="none" font-family="Arial" font-size="13px" font-style="normal" font-weight="normal" text-decoration="none" x="773" y="435">RechercheInfoNutrition</text></g></g><g transform="translate(-26,-114) scale(1,1)"><path fill="none" stroke="#000000" d="M 169 500 L 199 500 L 199 520 L 169 520" stroke-miterlimit="10"></path></g><g transform="translate(-26,-114) scale(1,1)"><path fill="#000000" stroke="none" d="M 179.16267485762415 515.790482243984 L 169 520 L 179.16267485762415 524.209517756016"></path></g><g transform="translate(-26,-114) scale(1,1)"><path fill="none" stroke="#000000" d="M 179.16267485762415 515.790482243984 L 169 520 L 179.16267485762415 524.209517756016 L 179.16267485762415 515.790482243984" stroke-miterlimit="10"></path></g><g transform="translate(-26,-114) scale(1,1)"><g><path fill="none" stroke="none"></path><text fill="#000000" stroke="none" font-family="Arial" font-size="13px" font-style="normal" font-weight="normal" text-decoration="none" x="185" y="537">DemandeInfos</text></g></g><g transform="translate(-26,-114) scale(1,1)"><path fill="none" stroke="#000000" d="M 536 492 L 169 492" stroke-miterlimit="10"></path></g><g transform="translate(-26,-114) scale(1,1)"><path fill="#000000" stroke="none" d="M 179.16267485762415 487.790482243984 L 169 492 L 179.16267485762415 496.209517756016"></path></g><g transform="translate(-26,-114) scale(1,1)"><path fill="none" stroke="#000000" d="M 179.16267485762415 487.790482243984 L 169 492 L 179.16267485762415 496.209517756016 L 179.16267485762415 487.790482243984" stroke-miterlimit="10"></path></g><g transform="translate(-26,-114) scale(1,1)"><g><path fill="none" stroke="none"></path><text fill="#000000" stroke="none" font-family="Arial" font-size="13px" font-style="normal" font-weight="normal" text-decoration="none" x="413" y="508">EnvoieAlerte</text></g></g><g transform="translate(-26,-114) scale(1,1)"><path fill="none" stroke="#000000" d="M 536 561 L 758 561" stroke-miterlimit="10"></path></g><g transform="translate(-26,-114) scale(1,1)"><path fill="#000000" stroke="none" d="M 747.8373251423759 565.209517756016 L 758 561 L 747.8373251423758 556.790482243984"></path></g><g transform="translate(-26,-114) scale(1,1)"><path fill="none" stroke="#000000" d="M 747.8373251423759 565.209517756016 L 758 561 L 747.8373251423758 556.790482243984 L 747.8373251423759 565.209517756016" stroke-miterlimit="10"></path></g><g transform="translate(-26,-114) scale(1,1)"><g><path fill="none" stroke="none"></path><text fill="#000000" stroke="none" font-family="Arial" font-size="13px" font-style="normal" font-weight="normal" text-decoration="none" x="624" y="558">MàJInfo</text></g></g><g transform="translate(-26,-114) scale(1,1)"><path fill="none" stroke="#000000" d="M 169 544 L 536 544" stroke-miterlimit="10"></path></g><g transform="translate(-26,-114) scale(1,1)"><path fill="#000000" stroke="none" d="M 525.8373251423759 548.209517756016 L 536 544 L 525.8373251423758 539.790482243984"></path></g><g transform="translate(-26,-114) scale(1,1)"><path fill="none" stroke="#000000" d="M 525.8373251423759 548.209517756016 L 536 544 L 525.8373251423758 539.790482243984 L 525.8373251423759 548.209517756016" stroke-miterlimit="10"></path></g><g transform="translate(-26,-114) scale(1,1)"><g><path fill="none" stroke="none"></path><text fill="#000000" stroke="none" font-family="Arial" font-size="13px" font-style="normal" font-weight="normal" text-decoration="none" x="266" y="561">EnvoieInfos</text></g></g><g transform="translate(-26,-114) scale(1,1)"><path fill="none" stroke="#000000" d="M 758 620 L 536 620" stroke-miterlimit="10"></path></g><g transform="translate(-26,-114) scale(1,1)"><path fill="#000000" stroke="none" d="M 546.1626748576241 615.790482243984 L 536 620 L 546.1626748576241 624.209517756016"></path></g><g transform="translate(-26,-114) scale(1,1)"><path fill="none" stroke="#000000" d="M 546.1626748576241 615.790482243984 L 536 620 L 546.1626748576241 624.209517756016 L 546.1626748576241 615.790482243984" stroke-miterlimit="10"></path></g><g transform="translate(-26,-114) scale(1,1)"><g><path fill="none" stroke="none"></path><text fill="#000000" stroke="none" font-family="Arial" font-size="13px" font-style="normal" font-weight="normal" text-decoration="none" x="588" y="637">EnvoieInfosNutrition</text></g></g><g transform="translate(-26,-114) scale(1,1)"><path fill="none" stroke="#000000" d="M 536 656 L 1004 656" stroke-miterlimit="10"></path></g><g transform="translate(-26,-114) scale(1,1)"><path fill="#000000" stroke="none" d="M 993.8373251423759 660.209517756016 L 1004 656 L 993.8373251423758 651.790482243984"></path></g><g transform="translate(-26,-114) scale(1,1)"><path fill="none" stroke="#000000" d="M 993.8373251423759 660.209517756016 L 1004 656 L 993.8373251423758 651.790482243984 L 993.8373251423759 660.209517756016" stroke-miterlimit="10"></path></g><g transform="translate(-26,-114) scale(1,1)"><g><path fill="none" stroke="none"></path><text fill="#000000" stroke="none" font-family="Arial" font-size="13px" font-style="normal" font-weight="normal" text-decoration="none" x="725" y="653">EnvoieAliments</text></g></g><g transform="translate(-26,-114) scale(1,1)"><path fill="none" stroke="#000000" d="M 536 656 L 641 656" stroke-miterlimit="10"></path></g><g transform="translate(-26,-114) scale(1,1)"><path fill="#000000" stroke="none" d="M 630.8373251423759 660.209517756016 L 641 656 L 630.8373251423758 651.790482243984"></path></g><g transform="translate(-26,-114) scale(1,1)"><path fill="none" stroke="#000000" d="M 630.8373251423759 660.209517756016 L 641 656 L 630.8373251423758 651.790482243984 L 630.8373251423759 660.209517756016" stroke-miterlimit="10"></path></g><g transform="translate(-26,-114) scale(1,1)"><g><path fill="none" stroke="none"></path><text fill="#000000" stroke="none" font-family="Arial" font-size="13px" font-style="normal" font-weight="normal" text-decoration="none" x="521" y="649">AppliqueRèglesNutrition</text></g></g><g transform="translate(-26,-114) scale(1,1)"><path fill="none" stroke="#000000" d="M 536 656 L 875 656" stroke-miterlimit="10"></path></g><g transform="translate(-26,-114) scale(1,1)"><path fill="#000000" stroke="none" d="M 864.8373251423759 660.209517756016 L 875 656 L 864.8373251423758 651.790482243984"></path></g><g transform="translate(-26,-114) scale(1,1)"><path fill="none" stroke="#000000" d="M 864.8373251423759 660.209517756016 L 875 656 L 864.8373251423758 651.790482243984 L 864.8373251423759 660.209517756016" stroke-miterlimit="10"></path></g><g transform="translate(-26,-114) scale(1,1)"><g><path fill="none" stroke="none"></path><text fill="#000000" stroke="none" font-family="Arial" font-size="13px" font-style="normal" font-weight="normal" text-decoration="none" x="674" y="653">CalculeStatistiquesAliments</text></g></g><g transform="translate(-26,-114) scale(1,1)"><path fill="none" stroke="#000000" d="M 641 676 L 446 676" stroke-miterlimit="10"></path></g><g transform="translate(-26,-114) scale(1,1)"><path fill="#000000" stroke="none" d="M 456.16267485762415 671.790482243984 L 446 676 L 456.16267485762415 680.209517756016"></path></g><g transform="translate(-26,-114) scale(1,1)"><path fill="none" stroke="#000000" d="M 456.16267485762415 671.790482243984 L 446 676 L 456.16267485762415 680.209517756016 L 456.16267485762415 671.790482243984" stroke-miterlimit="10"></path></g><g transform="translate(-26,-114) scale(1,1)"><g><path fill="none" stroke="none"></path><text fill="#000000" stroke="none" font-family="Arial" font-size="13px" font-style="normal" font-weight="normal" text-decoration="none" x="418" y="668">VérifieAliments</text></g></g></g></svg>