<svg version="1.1" xmlns="http://www.w3.org/2000/svg" xmlns:xlink="http://www.w3.org/1999/xlink" width="1691" height="157"><defs></defs><g><g transform="translate(-150,-194) scale(1,1)"><path fill="none" stroke="#000000" d="M 160 204 L 350.5 204 L 350.5 256 L 160 256 L 160 204" stroke-miterlimit="10"></path></g><g transform="translate(-150,-194) scale(1,1)"><path fill="#ffffff" stroke="none" d="M 160 204 L 160 226 L 333 226 L 344 215 L 344 204 L 160 204"></path></g><g transform="translate(-150,-194) scale(1,1)"><path fill="none" stroke="#000000" d="M 160 204 L 160 226 L 333 226 L 344 215 L 344 204 L 160 204 L 160 204" stroke-miterlimit="10"></path></g><g transform="translate(-150,-194) scale(1,1)"><g><path fill="none" stroke="none"></path><text fill="#000000" stroke="none" font-family="Arial" font-size="13px" font-style="normal" font-weight="normal" text-decoration="none" x="231" y="221.5">GestionRecettes</text></g></g><g transform="translate(-150,-194) scale(1,1)"><g><path fill="none" stroke="none"></path><text fill="#000000" stroke="none" font-family="Arial" font-size="13px" font-style="normal" font-weight="bold" text-decoration="none" x="165" y="221.5">interaction</text></g></g><g transform="translate(-150,-194) scale(1,1)"><rect fill="#C0C0C0" stroke="none" x="191" y="47" width="98" height="39" opacity="0.2"></rect></g><g transform="translate(-150,-194) scale(1,1)"><rect fill="#ffffff" stroke="none" x="184" y="40" width="98" height="39"></rect></g><g transform="translate(-150,-194) scale(1,1)"><path fill="none" stroke="#000000" d="M 184 40 L 282 40 L 282 79 L 184 79 L 184 40 Z Z" stroke-miterlimit="10"></path></g><g transform="translate(-150,-194) scale(1,1)"><g><path fill="none" stroke="none"></path><text fill="#000000" stroke="none" font-family="Arial" font-size="13px" font-style="normal" font-weight="bold" text-decoration="none" x="196.5" y="59.5">Gestionnaire</text></g></g><g transform="translate(-150,-194) scale(1,1)"><path fill="none" stroke="#000000" d="M 234.5 80 L 234.5 129" stroke-miterlimit="10" stroke-dasharray="3"></path></g><g transform="translate(-150,-194) scale(1,1)"><rect fill="#C0C0C0" stroke="none" x="295" y="47" width="159" height="39" opacity="0.2"></rect></g><g transform="translate(-150,-194) scale(1,1)"><rect fill="#ffffff" stroke="none" x="288" y="40" width="159" height="39"></rect></g><g transform="translate(-150,-194) scale(1,1)"><path fill="none" stroke="#000000" d="M 288 40 L 447 40 L 447 79 L 288 79 L 288 40 Z Z" stroke-miterlimit="10"></path></g><g transform="translate(-150,-194) scale(1,1)"><g><path fill="none" stroke="none"></path><text fill="#000000" stroke="none" font-family="Arial" font-size="13px" font-style="normal" font-weight="bold" text-decoration="none" x="302" y="59.5">SuperviseurRecherche</text></g></g><g transform="translate(-150,-194) scale(1,1)"><path fill="none" stroke="#000000" d="M 368.5 80 L 368.5 129" stroke-miterlimit="10" stroke-dasharray="3"></path></g><g transform="translate(-150,-194) scale(1,1)"><rect fill="#C0C0C0" stroke="none" x="463" y="47" width="84" height="39" opacity="0.2"></rect></g><g transform="translate(-150,-194) scale(1,1)"><rect fill="#ffffff" stroke="none" x="456" y="40" width="84" height="39"></rect></g><g transform="translate(-150,-194) scale(1,1)"><path fill="none" stroke="#000000" d="M 456 40 L 540 40 L 540 79 L 456 79 L 456 40 Z Z" stroke-miterlimit="10"></path></g><g transform="translate(-150,-194) scale(1,1)"><g><path fill="none" stroke="none"></path><text fill="#000000" stroke="none" font-family="Arial" font-size="13px" font-style="normal" font-weight="bold" text-decoration="none" x="467" y="59.5">Recherche</text></g></g><g transform="translate(-150,-194) scale(1,1)"><path fill="none" stroke="#000000" d="M 499.5 80 L 499.5 129" stroke-miterlimit="10" stroke-dasharray="3"></path></g><g transform="translate(-150,-194) scale(1,1)"><rect fill="#C0C0C0" stroke="none" x="555" y="47" width="83" height="39" opacity="0.2"></rect></g><g transform="translate(-150,-194) scale(1,1)"><rect fill="#ffffff" stroke="none" x="548" y="40" width="83" height="39"></rect></g><g transform="translate(-150,-194) scale(1,1)"><path fill="none" stroke="#000000" d="M 548 40 L 631 40 L 631 79 L 548 79 L 548 40 Z Z" stroke-miterlimit="10"></path></g><g transform="translate(-150,-194) scale(1,1)"><g><path fill="none" stroke="none"></path><text fill="#000000" stroke="none" font-family="Arial" font-size="13px" font-style="normal" font-weight="bold" text-decoration="none" x="560.5" y="59.5">Historique</text></g></g><g transform="translate(-150,-194) scale(1,1)"><path fill="none" stroke="#000000" d="M 590.5 80 L 590.5 129" stroke-miterlimit="10" stroke-dasharray="3"></path></g><g transform="translate(-150,-194) scale(1,1)"><rect fill="#C0C0C0" stroke="none" x="651" y="47" width="106" height="39" opacity="0.2"></rect></g><g transform="translate(-150,-194) scale(1,1)"><rect fill="#ffffff" stroke="none" x="644" y="40" width="106" height="39"></rect></g><g transform="translate(-150,-194) scale(1,1)"><path fill="none" stroke="#000000" d="M 644 40 L 750 40 L 750 79 L 644 79 L 644 40 Z Z" stroke-miterlimit="10"></path></g><g transform="translate(-150,-194) scale(1,1)"><g><path fill="none" stroke="none"></path><text fill="#000000" stroke="none" font-family="Arial" font-size="13px" font-style="normal" font-weight="bold" text-decoration="none" x="655.5" y="59.5">CorespBDPart</text></g></g><g transform="translate(-150,-194) scale(1,1)"><path fill="none" stroke="#000000" d="M 698.5 80 L 698.5 129" stroke-miterlimit="10" stroke-dasharray="3"></path></g><g transform="translate(-150,-194) scale(1,1)"><rect fill="#C0C0C0" stroke="none" x="771" y="47" width="128" height="39" opacity="0.2"></rect></g><g transform="translate(-150,-194) scale(1,1)"><rect fill="#ffffff" stroke="none" x="764" y="40" width="128" height="39"></rect></g><g transform="translate(-150,-194) scale(1,1)"><path fill="none" stroke="#000000" d="M 764 40 L 892 40 L 892 79 L 764 79 L 764 40 Z Z" stroke-miterlimit="10"></path></g><g transform="translate(-150,-194) scale(1,1)"><g><path fill="none" stroke="none"></path><text fill="#000000" stroke="none" font-family="Arial" font-size="13px" font-style="normal" font-weight="bold" text-decoration="none" x="777" y="59.5">ConsulRecherche</text></g></g><g transform="translate(-150,-194) scale(1,1)"><path fill="none" stroke="#000000" d="M 829.5 80 L 829.5 129" stroke-miterlimit="10" stroke-dasharray="3"></path></g><g transform="translate(-150,-194) scale(1,1)"><rect fill="#C0C0C0" stroke="none" x="915" y="47" width="111" height="39" opacity="0.2"></rect></g><g transform="translate(-150,-194) scale(1,1)"><rect fill="#ffffff" stroke="none" x="908" y="40" width="111" height="39"></rect></g><g transform="translate(-150,-194) scale(1,1)"><path fill="none" stroke="#000000" d="M 908 40 L 1019 40 L 1019 79 L 908 79 L 908 40 Z Z" stroke-miterlimit="10"></path></g><g transform="translate(-150,-194) scale(1,1)"><g><path fill="none" stroke="none"></path><text fill="#000000" stroke="none" font-family="Arial" font-size="13px" font-style="normal" font-weight="bold" text-decoration="none" x="921" y="59.5">ConsulRecette</text></g></g><g transform="translate(-150,-194) scale(1,1)"><path fill="none" stroke="#000000" d="M 964.5 80 L 964.5 129" stroke-miterlimit="10" stroke-dasharray="3"></path></g><g transform="translate(-150,-194) scale(1,1)"><rect fill="#C0C0C0" stroke="none" x="1031" y="47" width="99" height="39" opacity="0.2"></rect></g><g transform="translate(-150,-194) scale(1,1)"><rect fill="#ffffff" stroke="none" x="1024" y="40" width="99" height="39"></rect></g><g transform="translate(-150,-194) scale(1,1)"><path fill="none" stroke="#000000" d="M 1024 40 L 1123 40 L 1123 79 L 1024 79 L 1024 40 Z Z" stroke-miterlimit="10"></path></g><g transform="translate(-150,-194) scale(1,1)"><g><path fill="none" stroke="none"></path><text fill="#000000" stroke="none" font-family="Arial" font-size="13px" font-style="normal" font-weight="bold" text-decoration="none" x="1051" y="59.5">Recette</text></g></g><g transform="translate(-150,-194) scale(1,1)"><path fill="none" stroke="#000000" d="M 1074.5 80 L 1074.5 129" stroke-miterlimit="10" stroke-dasharray="3"></path></g><g transform="translate(-150,-194) scale(1,1)"><rect fill="#C0C0C0" stroke="none" x="1139" y="47" width="104" height="39" opacity="0.2"></rect></g><g transform="translate(-150,-194) scale(1,1)"><rect fill="#ffffff" stroke="none" x="1132" y="40" width="104" height="39"></rect></g><g transform="translate(-150,-194) scale(1,1)"><path fill="none" stroke="#000000" d="M 1132 40 L 1236 40 L 1236 79 L 1132 79 L 1132 40 Z Z" stroke-miterlimit="10"></path></g><g transform="translate(-150,-194) scale(1,1)"><g><path fill="none" stroke="none"></path><text fill="#000000" stroke="none" font-family="Arial" font-size="13px" font-style="normal" font-weight="bold" text-decoration="none" x="1143" y="59.5">ActionRecette</text></g></g><g transform="translate(-150,-194) scale(1,1)"><path fill="none" stroke="#000000" d="M 1185.5 80 L 1185.5 129" stroke-miterlimit="10" stroke-dasharray="3"></path></g><g transform="translate(-150,-194) scale(1,1)"><rect fill="#C0C0C0" stroke="none" x="1255" y="47" width="98" height="39" opacity="0.2"></rect></g><g transform="translate(-150,-194) scale(1,1)"><rect fill="#ffffff" stroke="none" x="1248" y="40" width="98" height="39"></rect></g><g transform="translate(-150,-194) scale(1,1)"><path fill="none" stroke="#000000" d="M 1248 40 L 1346 40 L 1346 79 L 1248 79 L 1248 40 Z Z" stroke-miterlimit="10"></path></g><g transform="translate(-150,-194) scale(1,1)"><g><path fill="none" stroke="none"></path><text fill="#000000" stroke="none" font-family="Arial" font-size="13px" font-style="normal" font-weight="bold" text-decoration="none" x="1260.5" y="59.5">ActionSocial</text></g></g><g transform="translate(-150,-194) scale(1,1)"><path fill="none" stroke="#000000" d="M 1298.5 80 L 1298.5 129" stroke-miterlimit="10" stroke-dasharray="3"></path></g><g transform="translate(-150,-194) scale(1,1)"><rect fill="#C0C0C0" stroke="none" x="1367" y="47" width="123" height="39" opacity="0.2"></rect></g><g transform="translate(-150,-194) scale(1,1)"><rect fill="#ffffff" stroke="none" x="1360" y="40" width="123" height="39"></rect></g><g transform="translate(-150,-194) scale(1,1)"><path fill="none" stroke="#000000" d="M 1360 40 L 1483 40 L 1483 79 L 1360 79 L 1360 40 Z Z" stroke-miterlimit="10"></path></g><g transform="translate(-150,-194) scale(1,1)"><g><path fill="none" stroke="none"></path><text fill="#000000" stroke="none" font-family="Arial" font-size="13px" font-style="normal" font-weight="bold" text-decoration="none" x="1373" y="59.5">ConsulEspPerso</text></g></g><g transform="translate(-150,-194) scale(1,1)"><path fill="none" stroke="#000000" d="M 1422.5 80 L 1422.5 129" stroke-miterlimit="10" stroke-dasharray="3"></path></g><g transform="translate(-150,-194) scale(1,1)"><rect fill="#C0C0C0" stroke="none" x="1507" y="47" width="119" height="39" opacity="0.2"></rect></g><g transform="translate(-150,-194) scale(1,1)"><rect fill="#ffffff" stroke="none" x="1500" y="40" width="119" height="39"></rect></g><g transform="translate(-150,-194) scale(1,1)"><path fill="none" stroke="#000000" d="M 1500 40 L 1619 40 L 1619 79 L 1500 79 L 1500 40 Z Z" stroke-miterlimit="10"></path></g><g transform="translate(-150,-194) scale(1,1)"><g><path fill="none" stroke="none"></path><text fill="#000000" stroke="none" font-family="Arial" font-size="13px" font-style="normal" font-weight="bold" text-decoration="none" x="1541.5" y="59.5">Social</text></g></g><g transform="translate(-150,-194) scale(1,1)"><path fill="none" stroke="#000000" d="M 1560.5 80 L 1560.5 129" stroke-miterlimit="10" stroke-dasharray="3"></path></g><g transform="translate(-150,-194) scale(1,1)"><rect fill="#C0C0C0" stroke="none" x="1635" y="47" width="87" height="39" opacity="0.2"></rect></g><g transform="translate(-150,-194) scale(1,1)"><rect fill="#ffffff" stroke="none" x="1628" y="40" width="87" height="39"></rect></g><g transform="translate(-150,-194) scale(1,1)"><path fill="none" stroke="#000000" d="M 1628 40 L 1715 40 L 1715 79 L 1628 79 L 1628 40 Z Z" stroke-miterlimit="10"></path></g><g transform="translate(-150,-194) scale(1,1)"><g><path fill="none" stroke="none"></path><text fill="#000000" stroke="none" font-family="Arial" font-size="13px" font-style="normal" font-weight="bold" text-decoration="none" x="1655" y="59.5">Cloud</text></g></g><g transform="translate(-150,-194) scale(1,1)"><path fill="none" stroke="#000000" d="M 1672.5 80 L 1672.5 129" stroke-miterlimit="10" stroke-dasharray="3"></path></g><g transform="translate(-150,-194) scale(1,1)"><rect fill="#C0C0C0" stroke="none" x="1743" y="47" width="95" height="39" opacity="0.2"></rect></g><g transform="translate(-150,-194) scale(1,1)"><rect fill="#ffffff" stroke="none" x="1736" y="40" width="95" height="39"></rect></g><g transform="translate(-150,-194) scale(1,1)"><path fill="none" stroke="#000000" d="M 1736 40 L 1831 40 L 1831 79 L 1736 79 L 1736 40 Z Z" stroke-miterlimit="10"></path></g><g transform="translate(-150,-194) scale(1,1)"><g><path fill="none" stroke="none"></path><text fill="#000000" stroke="none" font-family="Arial" font-size="13px" font-style="normal" font-weight="bold" text-decoration="none" x="1747.5" y="59.5">GestionCpte</text></g></g><g transform="translate(-150,-194) scale(1,1)"><path fill="none" stroke="#000000" d="M 1784.5 80 L 1784.5 129" stroke-miterlimit="10" stroke-dasharray="3"></path></g></g></svg>