<svg version="1.1" xmlns="http://www.w3.org/2000/svg" xmlns:xlink="http://www.w3.org/1999/xlink" width="920" height="656"><defs></defs><g><g transform="translate(-26,6) scale(1,1)"><path fill="none" stroke="#000000" d="M 36 4 L 936 4 L 936 640 L 36 640 L 36 4" stroke-miterlimit="10"></path></g><g transform="translate(-26,6) scale(1,1)"><path fill="#ffffff" stroke="none" d="M 36 4 L 36 26 L 246 26 L 257 15 L 257 4 L 36 4"></path></g><g transform="translate(-26,6) scale(1,1)"><path fill="none" stroke="#000000" d="M 36 4 L 36 26 L 246 26 L 257 15 L 257 4 L 36 4 L 36 4" stroke-miterlimit="10"></path></g><g transform="translate(-26,6) scale(1,1)"><g><path fill="none" stroke="none"></path><text fill="#000000" stroke="none" font-family="Arial" font-size="13px" font-style="normal" font-weight="normal" text-decoration="none" x="107" y="21.5">AjoutAlimentsScanSeq</text></g></g><g transform="translate(-26,6) scale(1,1)"><g><path fill="none" stroke="none"></path><text fill="#000000" stroke="none" font-family="Arial" font-size="13px" font-style="normal" font-weight="bold" text-decoration="none" x="41" y="21.5">interaction</text></g></g><g transform="translate(-26,6) scale(1,1)"><rect fill="#C0C0C0" stroke="none" x="51" y="47" width="89" height="39" opacity="0.2"></rect></g><g transform="translate(-26,6) scale(1,1)"><rect fill="#ffffff" stroke="none" x="44" y="40" width="89" height="39"></rect></g><g transform="translate(-26,6) scale(1,1)"><path fill="none" stroke="#000000" d="M 44 40 L 133 40 L 133 79 L 44 79 L 44 40 Z Z" stroke-miterlimit="10"></path></g><g transform="translate(-26,6) scale(1,1)"><g><path fill="none" stroke="none"></path><text fill="#000000" stroke="none" font-family="Arial" font-size="13px" font-style="normal" font-weight="bold" text-decoration="none" x="57.5" y="59.5">Controlleur</text></g></g><g transform="translate(-26,6) scale(1,1)"><path fill="none" stroke="#000000" d="M 89.5 80 L 89.5 624" stroke-miterlimit="10" stroke-dasharray="3"></path></g><g transform="translate(-26,6) scale(1,1)"><rect fill="#C0C0C0" stroke="none" x="311" y="47" width="78" height="39" opacity="0.2"></rect></g><g transform="translate(-26,6) scale(1,1)"><rect fill="#ffffff" stroke="none" x="304" y="40" width="78" height="39"></rect></g><g transform="translate(-26,6) scale(1,1)"><path fill="none" stroke="#000000" d="M 304 40 L 382 40 L 382 79 L 304 79 L 304 40 Z Z" stroke-miterlimit="10"></path></g><g transform="translate(-26,6) scale(1,1)"><g><path fill="none" stroke="none"></path><text fill="#000000" stroke="none" font-family="Arial" font-size="13px" font-style="normal" font-weight="bold" text-decoration="none" x="315.5" y="59.5">Scanneur</text></g></g><g transform="translate(-26,6) scale(1,1)"><path fill="none" stroke="#000000" d="M 344.5 80 L 344.5 632" stroke-miterlimit="10" stroke-dasharray="3"></path></g><g transform="translate(-26,6) scale(1,1)"><rect fill="#C0C0C0" stroke="none" x="423" y="47" width="108" height="39" opacity="0.2"></rect></g><g transform="translate(-26,6) scale(1,1)"><rect fill="#ffffff" stroke="none" x="416" y="40" width="108" height="39"></rect></g><g transform="translate(-26,6) scale(1,1)"><path fill="none" stroke="#000000" d="M 416 40 L 524 40 L 524 79 L 416 79 L 416 40 Z Z" stroke-miterlimit="10"></path></g><g transform="translate(-26,6) scale(1,1)"><g><path fill="none" stroke="none"></path><text fill="#000000" stroke="none" font-family="Arial" font-size="13px" font-style="normal" font-weight="bold" text-decoration="none" x="428" y="59.5">GestionaireBD</text></g></g><g transform="translate(-26,6) scale(1,1)"><path fill="none" stroke="#000000" d="M 471.5 80 L 471.5 624" stroke-miterlimit="10" stroke-dasharray="3"></path></g><g transform="translate(-26,6) scale(1,1)"><rect fill="#C0C0C0" stroke="none" x="559" y="47" width="135" height="39" opacity="0.2"></rect></g><g transform="translate(-26,6) scale(1,1)"><rect fill="#ffffff" stroke="none" x="552" y="40" width="135" height="39"></rect></g><g transform="translate(-26,6) scale(1,1)"><path fill="none" stroke="#000000" d="M 552 40 L 687 40 L 687 79 L 552 79 L 552 40 Z Z" stroke-miterlimit="10"></path></g><g transform="translate(-26,6) scale(1,1)"><g><path fill="none" stroke="none"></path><text fill="#000000" stroke="none" font-family="Arial" font-size="13px" font-style="normal" font-weight="bold" text-decoration="none" x="577.5" y="59.5">BDPartenaires</text></g></g><g transform="translate(-26,6) scale(1,1)"><path fill="none" stroke="#000000" d="M 620.5 80 L 620.5 624" stroke-miterlimit="10" stroke-dasharray="3"></path></g><g transform="translate(-26,6) scale(1,1)"><rect fill="#C0C0C0" stroke="none" x="859" y="47" width="70" height="39" opacity="0.2"></rect></g><g transform="translate(-26,6) scale(1,1)"><rect fill="#ffffff" stroke="none" x="852" y="40" width="70" height="39"></rect></g><g transform="translate(-26,6) scale(1,1)"><path fill="none" stroke="#000000" d="M 852 40 L 922 40 L 922 79 L 852 79 L 852 40 Z Z" stroke-miterlimit="10"></path></g><g transform="translate(-26,6) scale(1,1)"><g><path fill="none" stroke="none"></path><text fill="#000000" stroke="none" font-family="Arial" font-size="13px" font-style="normal" font-weight="bold" text-decoration="none" x="863.5" y="59.5">Épicerie</text></g></g><g transform="translate(-26,6) scale(1,1)"><path fill="none" stroke="#000000" d="M 888.5 80 L 888.5 624" stroke-miterlimit="10" stroke-dasharray="3"></path></g><g transform="translate(-26,6) scale(1,1)"><rect fill="#C0C0C0" stroke="none" x="191" y="47" width="71" height="39" opacity="0.2"></rect></g><g transform="translate(-26,6) scale(1,1)"><rect fill="#ffffff" stroke="none" x="184" y="40" width="71" height="39"></rect></g><g transform="translate(-26,6) scale(1,1)"><path fill="none" stroke="#000000" d="M 184 40 L 255 40 L 255 79 L 184 79 L 184 40 Z Z" stroke-miterlimit="10"></path></g><g transform="translate(-26,6) scale(1,1)"><g><path fill="none" stroke="none"></path><text fill="#000000" stroke="none" font-family="Arial" font-size="13px" font-style="normal" font-weight="bold" text-decoration="none" x="196" y="59.5">Appareil</text></g></g><g transform="translate(-26,6) scale(1,1)"><path fill="none" stroke="#000000" d="M 220.5 80 L 220.5 380" stroke-miterlimit="10" stroke-dasharray="3"></path></g><g transform="translate(-26,6) scale(1,1)"><rect fill="#C0C0C0" stroke="none" x="727" y="47" width="83" height="39" opacity="0.2"></rect></g><g transform="translate(-26,6) scale(1,1)"><rect fill="#ffffff" stroke="none" x="720" y="40" width="83" height="39"></rect></g><g transform="translate(-26,6) scale(1,1)"><path fill="none" stroke="#000000" d="M 720 40 L 803 40 L 803 79 L 720 79 L 720 40 Z Z" stroke-miterlimit="10"></path></g><g transform="translate(-26,6) scale(1,1)"><g><path fill="none" stroke="none"></path><text fill="#000000" stroke="none" font-family="Arial" font-size="13px" font-style="normal" font-weight="bold" text-decoration="none" x="733" y="59.5">Médiateur</text></g></g><g transform="translate(-26,6) scale(1,1)"><path fill="none" stroke="#000000" d="M 762.5 80 L 762.5 624" stroke-miterlimit="10" stroke-dasharray="3"></path></g><g transform="translate(-26,6) scale(1,1)"><path fill="none" stroke="#000000" d="M 620 532 L 89 532" stroke-miterlimit="10"></path></g><g transform="translate(-26,6) scale(1,1)"><path fill="#000000" stroke="none" d="M 99.16267485762415 527.790482243984 L 89 532 L 99.16267485762415 536.209517756016"></path></g><g transform="translate(-26,6) scale(1,1)"><path fill="none" stroke="#000000" d="M 99.16267485762415 527.790482243984 L 89 532 L 99.16267485762415 536.209517756016 L 99.16267485762415 527.790482243984" stroke-miterlimit="10"></path></g><g transform="translate(-26,6) scale(1,1)"><g><path fill="none" stroke="none"></path><text fill="#000000" stroke="none" font-family="Arial" font-size="13px" font-style="normal" font-weight="normal" text-decoration="none" x="201" y="528">GestionErreurs</text></g></g><g transform="translate(-26,6) scale(1,1)"><path fill="none" stroke="#000000" d="M 56 424 L 852 424 L 852 568 L 56 568 L 56 424" stroke-miterlimit="10"></path></g><g transform="translate(-26,6) scale(1,1)"><path fill="#ffffff" stroke="none" d="M 56 424 L 56 446 L 200 446 L 211 435 L 211 424 L 56 424"></path></g><g transform="translate(-26,6) scale(1,1)"><path fill="none" stroke="#000000" d="M 56 424 L 56 446 L 200 446 L 211 435 L 211 424 L 56 424 L 56 424" stroke-miterlimit="10"></path></g><g transform="translate(-26,6) scale(1,1)"><g><path fill="none" stroke="none"></path><text fill="#000000" stroke="none" font-family="Arial" font-size="13px" font-style="normal" font-weight="normal" text-decoration="none" x="88" y="441.5">Si aliment inconnu</text></g></g><g transform="translate(-26,6) scale(1,1)"><g><path fill="none" stroke="none"></path><text fill="#000000" stroke="none" font-family="Arial" font-size="13px" font-style="normal" font-weight="bold" text-decoration="none" x="61" y="441.5">seq</text></g></g><g transform="translate(-26,6) scale(1,1)"><path fill="none" stroke="#000000" d="M 89 124 L 344 124" stroke-miterlimit="10"></path></g><g transform="translate(-26,6) scale(1,1)"><path fill="#000000" stroke="none" d="M 333.83732514237585 128.209517756016 L 344 124 L 333.83732514237585 119.79048224398402"></path></g><g transform="translate(-26,6) scale(1,1)"><path fill="none" stroke="#000000" d="M 333.83732514237585 128.209517756016 L 344 124 L 333.83732514237585 119.79048224398402 L 333.83732514237585 128.209517756016" stroke-miterlimit="10"></path></g><g transform="translate(-26,6) scale(1,1)"><g><path fill="none" stroke="none"></path><text fill="#000000" stroke="none" font-family="Arial" font-size="13px" font-style="normal" font-weight="normal" text-decoration="none" x="205" y="121">new</text></g></g><g transform="translate(-26,6) scale(1,1)"><path fill="none" stroke="#000000" d="M 344 148 L 220 148" stroke-miterlimit="10"></path></g><g transform="translate(-26,6) scale(1,1)"><path fill="#000000" stroke="none" d="M 230.16267485762415 143.790482243984 L 220 148 L 230.16267485762415 152.209517756016"></path></g><g transform="translate(-26,6) scale(1,1)"><path fill="none" stroke="#000000" d="M 230.16267485762415 143.790482243984 L 220 148 L 230.16267485762415 152.209517756016 L 230.16267485762415 143.790482243984" stroke-miterlimit="10"></path></g><g transform="translate(-26,6) scale(1,1)"><g><path fill="none" stroke="none"></path><text fill="#000000" stroke="none" font-family="Arial" font-size="13px" font-style="normal" font-weight="normal" text-decoration="none" x="234" y="144">detecteAppareil</text></g></g><g transform="translate(-26,6) scale(1,1)"><path fill="none" stroke="#000000" d="M 220 192 L 344 192" stroke-miterlimit="10"></path></g><g transform="translate(-26,6) scale(1,1)"><path fill="#000000" stroke="none" d="M 333.83732514237585 196.209517756016 L 344 192 L 333.83732514237585 187.790482243984"></path></g><g transform="translate(-26,6) scale(1,1)"><path fill="none" stroke="#000000" d="M 333.83732514237585 196.209517756016 L 344 192 L 333.83732514237585 187.790482243984 L 333.83732514237585 196.209517756016" stroke-miterlimit="10"></path></g><g transform="translate(-26,6) scale(1,1)"><g><path fill="none" stroke="none"></path><text fill="#000000" stroke="none" font-family="Arial" font-size="13px" font-style="normal" font-weight="normal" text-decoration="none" x="244" y="208">EnvoieImage</text></g></g><g transform="translate(-26,6) scale(1,1)"><path fill="none" stroke="#000000" d="M 344 204 L 374 204 L 374 224 L 344 224" stroke-miterlimit="10"></path></g><g transform="translate(-26,6) scale(1,1)"><path fill="#000000" stroke="none" d="M 354.16267485762415 219.790482243984 L 344 224 L 354.16267485762415 228.209517756016"></path></g><g transform="translate(-26,6) scale(1,1)"><path fill="none" stroke="#000000" d="M 354.16267485762415 219.790482243984 L 344 224 L 354.16267485762415 228.209517756016 L 354.16267485762415 219.790482243984" stroke-miterlimit="10"></path></g><g transform="translate(-26,6) scale(1,1)"><g><path fill="none" stroke="none"></path><text fill="#000000" stroke="none" font-family="Arial" font-size="13px" font-style="normal" font-weight="normal" text-decoration="none" x="388" y="223">ScanCode</text></g></g><g transform="translate(-26,6) scale(1,1)"><path fill="none" stroke="#000000" d="M 344 258 L 471 258" stroke-miterlimit="10"></path></g><g transform="translate(-26,6) scale(1,1)"><path fill="#000000" stroke="none" d="M 460.83732514237585 262.209517756016 L 471 258 L 460.83732514237585 253.790482243984"></path></g><g transform="translate(-26,6) scale(1,1)"><path fill="none" stroke="#000000" d="M 460.83732514237585 262.209517756016 L 471 258 L 460.83732514237585 253.790482243984 L 460.83732514237585 262.209517756016" stroke-miterlimit="10"></path></g><g transform="translate(-26,6) scale(1,1)"><g><path fill="none" stroke="none"></path><text fill="#000000" stroke="none" font-family="Arial" font-size="13px" font-style="normal" font-weight="normal" text-decoration="none" x="374" y="255">TrouveAlimentScan</text></g></g><g transform="translate(-26,6) scale(1,1)"><path fill="none" stroke="#000000" d="M 471 280 L 620 280" stroke-miterlimit="10"></path></g><g transform="translate(-26,6) scale(1,1)"><path fill="#000000" stroke="none" d="M 609.8373251423759 284.209517756016 L 620 280 L 609.8373251423758 275.790482243984"></path></g><g transform="translate(-26,6) scale(1,1)"><path fill="none" stroke="#000000" d="M 609.8373251423759 284.209517756016 L 620 280 L 609.8373251423758 275.790482243984 L 609.8373251423759 284.209517756016" stroke-miterlimit="10"></path></g><g transform="translate(-26,6) scale(1,1)"><g><path fill="none" stroke="none"></path><text fill="#000000" stroke="none" font-family="Arial" font-size="13px" font-style="normal" font-weight="normal" text-decoration="none" x="506" y="277">TrouveAliments</text></g></g><g transform="translate(-26,6) scale(1,1)"><path fill="none" stroke="#000000" d="M 620 380 L 650 380 L 650 400 L 620 400" stroke-miterlimit="10"></path></g><g transform="translate(-26,6) scale(1,1)"><path fill="#000000" stroke="none" d="M 630.1626748576241 395.790482243984 L 620 400 L 630.1626748576241 404.209517756016"></path></g><g transform="translate(-26,6) scale(1,1)"><path fill="none" stroke="#000000" d="M 630.1626748576241 395.790482243984 L 620 400 L 630.1626748576241 404.209517756016 L 630.1626748576241 395.790482243984" stroke-miterlimit="10"></path></g><g transform="translate(-26,6) scale(1,1)"><g><path fill="none" stroke="none"></path><text fill="#000000" stroke="none" font-family="Arial" font-size="13px" font-style="normal" font-weight="normal" text-decoration="none" x="638" y="377">RechercheBD</text></g></g><g transform="translate(-26,6) scale(1,1)"><path fill="none" stroke="#000000" d="M 620 448 L 762 448" stroke-miterlimit="10"></path></g><g transform="translate(-26,6) scale(1,1)"><path fill="#000000" stroke="none" d="M 751.8373251423759 452.209517756016 L 762 448 L 751.8373251423758 443.790482243984"></path></g><g transform="translate(-26,6) scale(1,1)"><path fill="none" stroke="#000000" d="M 751.8373251423759 452.209517756016 L 762 448 L 751.8373251423758 443.790482243984 L 751.8373251423759 452.209517756016" stroke-miterlimit="10"></path></g><g transform="translate(-26,6) scale(1,1)"><g><path fill="none" stroke="none"></path><text fill="#000000" stroke="none" font-family="Arial" font-size="13px" font-style="normal" font-weight="normal" text-decoration="none" x="680" y="445">new</text></g></g><g transform="translate(-26,6) scale(1,1)"><path fill="none" stroke="#000000" d="M 762 468 L 792 468 L 792 488 L 762 488" stroke-miterlimit="10"></path></g><g transform="translate(-26,6) scale(1,1)"><path fill="#000000" stroke="none" d="M 772.1626748576241 483.790482243984 L 762 488 L 772.1626748576241 492.209517756016"></path></g><g transform="translate(-26,6) scale(1,1)"><path fill="none" stroke="#000000" d="M 772.1626748576241 483.790482243984 L 762 488 L 772.1626748576241 492.209517756016 L 772.1626748576241 483.790482243984" stroke-miterlimit="10"></path></g><g transform="translate(-26,6) scale(1,1)"><g><path fill="none" stroke="none"></path><text fill="#000000" stroke="none" font-family="Arial" font-size="13px" font-style="normal" font-weight="normal" text-decoration="none" x="770" y="461">RechercheCompromis</text></g></g><g transform="translate(-26,6) scale(1,1)"><path fill="none" stroke="#000000" d="M 762 512 L 620 512" stroke-miterlimit="10"></path></g><g transform="translate(-26,6) scale(1,1)"><path fill="#000000" stroke="none" d="M 630.1626748576241 507.790482243984 L 620 512 L 630.1626748576241 516.209517756016"></path></g><g transform="translate(-26,6) scale(1,1)"><path fill="none" stroke="#000000" d="M 630.1626748576241 507.790482243984 L 620 512 L 630.1626748576241 516.209517756016 L 630.1626748576241 507.790482243984" stroke-miterlimit="10"></path></g><g transform="translate(-26,6) scale(1,1)"><g><path fill="none" stroke="none"></path><text fill="#000000" stroke="none" font-family="Arial" font-size="13px" font-style="normal" font-weight="normal" text-decoration="none" x="649" y="529">EnvoyerErreur</text></g></g><g transform="translate(-26,6) scale(1,1)"><path fill="none" stroke="#000000" d="M 344 601 L 888 601" stroke-miterlimit="10"></path></g><g transform="translate(-26,6) scale(1,1)"><path fill="#000000" stroke="none" d="M 877.8373251423759 605.209517756016 L 888 601 L 877.8373251423758 596.790482243984"></path></g><g transform="translate(-26,6) scale(1,1)"><path fill="none" stroke="#000000" d="M 877.8373251423759 605.209517756016 L 888 601 L 877.8373251423758 596.790482243984 L 877.8373251423759 605.209517756016" stroke-miterlimit="10"></path></g><g transform="translate(-26,6) scale(1,1)"><g><path fill="none" stroke="none"></path><text fill="#000000" stroke="none" font-family="Arial" font-size="13px" font-style="normal" font-weight="normal" text-decoration="none" x="559" y="598">EnvoieAlimentScan</text></g></g></g></svg>