<svg version="1.1" xmlns="http://www.w3.org/2000/svg" xmlns:xlink="http://www.w3.org/1999/xlink" width="808" height="808"><defs></defs><g><g transform="translate(-14,-54) scale(1,1)"><path fill="none" stroke="#000000" d="M 24 64 L 812 64 L 812 852 L 24 852 L 24 64" stroke-miterlimit="10"></path></g><g transform="translate(-14,-54) scale(1,1)"><path fill="#ffffff" stroke="none" d="M 24 64 L 24 86 L 193 86 L 204 75 L 204 64 L 24 64"></path></g><g transform="translate(-14,-54) scale(1,1)"><path fill="none" stroke="#000000" d="M 24 64 L 24 86 L 193 86 L 204 75 L 204 64 L 24 64 L 24 64" stroke-miterlimit="10"></path></g><g transform="translate(-14,-54) scale(1,1)"><g><path fill="none" stroke="none"></path><text fill="#000000" stroke="none" font-family="Arial" font-size="13px" font-style="normal" font-weight="normal" text-decoration="none" x="95" y="81.5">NotationRecette</text></g></g><g transform="translate(-14,-54) scale(1,1)"><g><path fill="none" stroke="none"></path><text fill="#000000" stroke="none" font-family="Arial" font-size="13px" font-style="normal" font-weight="bold" text-decoration="none" x="29" y="81.5">interaction</text></g></g><g transform="translate(-14,-54) scale(1,1)"><rect fill="#C0C0C0" stroke="none" x="107" y="47" width="89" height="39" opacity="0.2"></rect></g><g transform="translate(-14,-54) scale(1,1)"><rect fill="#ffffff" stroke="none" x="100" y="40" width="89" height="39"></rect></g><g transform="translate(-14,-54) scale(1,1)"><path fill="none" stroke="#000000" d="M 100 40 L 189 40 L 189 79 L 100 79 L 100 40 Z Z" stroke-miterlimit="10"></path></g><g transform="translate(-14,-54) scale(1,1)"><g><path fill="none" stroke="none"></path><text fill="#000000" stroke="none" font-family="Arial" font-size="13px" font-style="normal" font-weight="bold" text-decoration="none" x="113.5" y="59.5">Controlleur</text></g></g><g transform="translate(-14,-54) scale(1,1)"><path fill="none" stroke="#000000" d="M 145.5 80 L 145.5 782" stroke-miterlimit="10" stroke-dasharray="3"></path></g><g transform="translate(-14,-54) scale(1,1)"><rect fill="#C0C0C0" stroke="none" x="259" y="47" width="131" height="39" opacity="0.2"></rect></g><g transform="translate(-14,-54) scale(1,1)"><rect fill="#ffffff" stroke="none" x="252" y="40" width="131" height="39"></rect></g><g transform="translate(-14,-54) scale(1,1)"><path fill="none" stroke="#000000" d="M 252 40 L 383 40 L 383 79 L 252 79 L 252 40 Z Z" stroke-miterlimit="10"></path></g><g transform="translate(-14,-54) scale(1,1)"><g><path fill="none" stroke="none"></path><text fill="#000000" stroke="none" font-family="Arial" font-size="13px" font-style="normal" font-weight="bold" text-decoration="none" x="264" y="59.5">ConsultantRecette</text></g></g><g transform="translate(-14,-54) scale(1,1)"><path fill="none" stroke="#000000" d="M 318.5 80 L 318.5 784" stroke-miterlimit="10" stroke-dasharray="3"></path></g><g transform="translate(-14,-54) scale(1,1)"><rect fill="#C0C0C0" stroke="none" x="523" y="47" width="47" height="39" opacity="0.2"></rect></g><g transform="translate(-14,-54) scale(1,1)"><rect fill="#ffffff" stroke="none" x="516" y="40" width="47" height="39"></rect></g><g transform="translate(-14,-54) scale(1,1)"><path fill="none" stroke="#000000" d="M 516 40 L 563 40 L 563 79 L 516 79 L 516 40 Z Z" stroke-miterlimit="10"></path></g><g transform="translate(-14,-54) scale(1,1)"><g><path fill="none" stroke="none"></path><text fill="#000000" stroke="none" font-family="Arial" font-size="13px" font-style="normal" font-weight="bold" text-decoration="none" x="526" y="59.5">Note</text></g></g><g transform="translate(-14,-54) scale(1,1)"><path fill="none" stroke="#000000" d="M 540.5 80 L 540.5 796" stroke-miterlimit="10" stroke-dasharray="3"></path></g><g transform="translate(-14,-54) scale(1,1)"><rect fill="#C0C0C0" stroke="none" x="583" y="47" width="116" height="39" opacity="0.2"></rect></g><g transform="translate(-14,-54) scale(1,1)"><rect fill="#ffffff" stroke="none" x="576" y="40" width="116" height="39"></rect></g><g transform="translate(-14,-54) scale(1,1)"><path fill="none" stroke="#000000" d="M 576 40 L 692 40 L 692 79 L 576 79 L 576 40 Z Z" stroke-miterlimit="10"></path></g><g transform="translate(-14,-54) scale(1,1)"><g><path fill="none" stroke="none"></path><text fill="#000000" stroke="none" font-family="Arial" font-size="13px" font-style="normal" font-weight="bold" text-decoration="none" x="588.5" y="59.5">GestionnaireBD</text></g></g><g transform="translate(-14,-54) scale(1,1)"><path fill="none" stroke="#000000" d="M 635.5 80 L 635.5 792" stroke-miterlimit="10" stroke-dasharray="3"></path></g><g transform="translate(-14,-54) scale(1,1)"><rect fill="#C0C0C0" stroke="none" x="399" y="47" width="104" height="39" opacity="0.2"></rect></g><g transform="translate(-14,-54) scale(1,1)"><rect fill="#ffffff" stroke="none" x="392" y="40" width="104" height="39"></rect></g><g transform="translate(-14,-54) scale(1,1)"><path fill="none" stroke="#000000" d="M 392 40 L 496 40 L 496 79 L 392 79 L 392 40 Z Z" stroke-miterlimit="10"></path></g><g transform="translate(-14,-54) scale(1,1)"><g><path fill="none" stroke="none"></path><text fill="#000000" stroke="none" font-family="Arial" font-size="13px" font-style="normal" font-weight="bold" text-decoration="none" x="403" y="59.5">ActionRecette</text></g></g><g transform="translate(-14,-54) scale(1,1)"><path fill="none" stroke="#000000" d="M 445.5 80 L 445.5 788" stroke-miterlimit="10" stroke-dasharray="3"></path></g><g transform="translate(-14,-54) scale(1,1)"><path fill="none" stroke="#000000" d="M 76 628 L 796 628 L 796 736 L 76 736 L 76 628" stroke-miterlimit="10"></path></g><g transform="translate(-14,-54) scale(1,1)"><path fill="#ffffff" stroke="none" d="M 76 628 L 76 650 L 233 650 L 244 639 L 244 628 L 76 628"></path></g><g transform="translate(-14,-54) scale(1,1)"><path fill="none" stroke="#000000" d="M 76 628 L 76 650 L 233 650 L 244 639 L 244 628 L 76 628 L 76 628" stroke-miterlimit="10"></path></g><g transform="translate(-14,-54) scale(1,1)"><g><path fill="none" stroke="none"></path><text fill="#000000" stroke="none" font-family="Arial" font-size="13px" font-style="normal" font-weight="normal" text-decoration="none" x="108" y="645.5">Si auteur note existe</text></g></g><g transform="translate(-14,-54) scale(1,1)"><g><path fill="none" stroke="none"></path><text fill="#000000" stroke="none" font-family="Arial" font-size="13px" font-style="normal" font-weight="bold" text-decoration="none" x="81" y="645.5">seq</text></g></g><g transform="translate(-14,-54) scale(1,1)"><path fill="none" stroke="#000000" d="M 145 168 L 318 168" stroke-miterlimit="10"></path></g><g transform="translate(-14,-54) scale(1,1)"><path fill="#000000" stroke="none" d="M 307.83732514237585 172.209517756016 L 318 168 L 307.83732514237585 163.790482243984"></path></g><g transform="translate(-14,-54) scale(1,1)"><path fill="none" stroke="#000000" d="M 307.83732514237585 172.209517756016 L 318 168 L 307.83732514237585 163.790482243984 L 307.83732514237585 172.209517756016" stroke-miterlimit="10"></path></g><g transform="translate(-14,-54) scale(1,1)"><g><path fill="none" stroke="none"></path><text fill="#000000" stroke="none" font-family="Arial" font-size="13px" font-style="normal" font-weight="normal" text-decoration="none" x="181" y="165">ConsulterRecette</text></g></g><g transform="translate(-14,-54) scale(1,1)"><path fill="none" stroke="#000000" d="M 318 200 L 145 200" stroke-miterlimit="10"></path></g><g transform="translate(-14,-54) scale(1,1)"><path fill="#000000" stroke="none" d="M 155.16267485762415 195.790482243984 L 145 200 L 155.16267485762415 204.209517756016"></path></g><g transform="translate(-14,-54) scale(1,1)"><path fill="none" stroke="#000000" d="M 155.16267485762415 195.790482243984 L 145 200 L 155.16267485762415 204.209517756016 L 155.16267485762415 195.790482243984" stroke-miterlimit="10"></path></g><g transform="translate(-14,-54) scale(1,1)"><g><path fill="none" stroke="none"></path><text fill="#000000" stroke="none" font-family="Arial" font-size="13px" font-style="normal" font-weight="normal" text-decoration="none" x="177" y="217">AlerteConsultation</text></g></g><g transform="translate(-14,-54) scale(1,1)"><path fill="none" stroke="#000000" d="M 145 240 L 175 240 L 175 260 L 145 260" stroke-miterlimit="10"></path></g><g transform="translate(-14,-54) scale(1,1)"><path fill="#000000" stroke="none" d="M 155.16267485762415 255.790482243984 L 145 260 L 155.16267485762415 264.209517756016"></path></g><g transform="translate(-14,-54) scale(1,1)"><path fill="none" stroke="#000000" d="M 155.16267485762415 255.790482243984 L 145 260 L 155.16267485762415 264.209517756016 L 155.16267485762415 255.790482243984" stroke-miterlimit="10"></path></g><g transform="translate(-14,-54) scale(1,1)"><g><path fill="none" stroke="none"></path><text fill="#000000" stroke="none" font-family="Arial" font-size="13px" font-style="normal" font-weight="normal" text-decoration="none" x="178" y="257">AffichageRecette</text></g></g><g transform="translate(-14,-54) scale(1,1)"><path fill="none" stroke="#000000" d="M 145 288 L 175 288 L 175 308 L 145 308" stroke-miterlimit="10"></path></g><g transform="translate(-14,-54) scale(1,1)"><path fill="#000000" stroke="none" d="M 155.16267485762415 303.790482243984 L 145 308 L 155.16267485762415 312.209517756016"></path></g><g transform="translate(-14,-54) scale(1,1)"><path fill="none" stroke="#000000" d="M 155.16267485762415 303.790482243984 L 145 308 L 155.16267485762415 312.209517756016 L 155.16267485762415 303.790482243984" stroke-miterlimit="10"></path></g><g transform="translate(-14,-54) scale(1,1)"><g><path fill="none" stroke="none"></path><text fill="#000000" stroke="none" font-family="Arial" font-size="13px" font-style="normal" font-weight="normal" text-decoration="none" x="179" y="304">DemandeChoix</text></g></g><g transform="translate(-14,-54) scale(1,1)"><path fill="none" stroke="#000000" d="M 145 336 L 318 336" stroke-miterlimit="10"></path></g><g transform="translate(-14,-54) scale(1,1)"><path fill="#000000" stroke="none" d="M 307.83732514237585 340.209517756016 L 318 336 L 307.83732514237585 331.790482243984"></path></g><g transform="translate(-14,-54) scale(1,1)"><path fill="none" stroke="#000000" d="M 307.83732514237585 340.209517756016 L 318 336 L 307.83732514237585 331.790482243984 L 307.83732514237585 340.209517756016" stroke-miterlimit="10"></path></g><g transform="translate(-14,-54) scale(1,1)"><g><path fill="none" stroke="none"></path><text fill="#000000" stroke="none" font-family="Arial" font-size="13px" font-style="normal" font-weight="normal" text-decoration="none" x="191" y="333">ChoixNotation</text></g></g><g transform="translate(-14,-54) scale(1,1)"><path fill="none" stroke="#000000" d="M 318 352 L 445 352" stroke-miterlimit="10"></path></g><g transform="translate(-14,-54) scale(1,1)"><path fill="#000000" stroke="none" d="M 434.83732514237585 356.209517756016 L 445 352 L 434.83732514237585 347.790482243984"></path></g><g transform="translate(-14,-54) scale(1,1)"><path fill="none" stroke="#000000" d="M 434.83732514237585 356.209517756016 L 445 352 L 434.83732514237585 347.790482243984 L 434.83732514237585 356.209517756016" stroke-miterlimit="10"></path></g><g transform="translate(-14,-54) scale(1,1)"><g><path fill="none" stroke="none"></path><text fill="#000000" stroke="none" font-family="Arial" font-size="13px" font-style="normal" font-weight="normal" text-decoration="none" x="370" y="349">new</text></g></g><g transform="translate(-14,-54) scale(1,1)"><path fill="none" stroke="#000000" d="M 318 388 L 445 388" stroke-miterlimit="10"></path></g><g transform="translate(-14,-54) scale(1,1)"><path fill="#000000" stroke="none" d="M 434.83732514237585 392.209517756016 L 445 388 L 434.83732514237585 383.790482243984"></path></g><g transform="translate(-14,-54) scale(1,1)"><path fill="none" stroke="#000000" d="M 434.83732514237585 392.209517756016 L 445 388 L 434.83732514237585 383.790482243984 L 434.83732514237585 392.209517756016" stroke-miterlimit="10"></path></g><g transform="translate(-14,-54) scale(1,1)"><g><path fill="none" stroke="none"></path><text fill="#000000" stroke="none" font-family="Arial" font-size="13px" font-style="normal" font-weight="normal" text-decoration="none" x="343" y="385">NoterRecette</text></g></g><g transform="translate(-14,-54) scale(1,1)"><path fill="none" stroke="#000000" d="M 445 420 L 145 420" stroke-miterlimit="10"></path></g><g transform="translate(-14,-54) scale(1,1)"><path fill="#000000" stroke="none" d="M 155.16267485762415 415.790482243984 L 145 420 L 155.16267485762415 424.209517756016"></path></g><g transform="translate(-14,-54) scale(1,1)"><path fill="none" stroke="#000000" d="M 155.16267485762415 415.790482243984 L 145 420 L 155.16267485762415 424.209517756016 L 155.16267485762415 415.790482243984" stroke-miterlimit="10"></path></g><g transform="translate(-14,-54) scale(1,1)"><g><path fill="none" stroke="none"></path><text fill="#000000" stroke="none" font-family="Arial" font-size="13px" font-style="normal" font-weight="normal" text-decoration="none" x="253" y="437">AlerteNotation</text></g></g><g transform="translate(-14,-54) scale(1,1)"><path fill="none" stroke="#000000" d="M 145 432 L 175 432 L 175 452 L 145 452" stroke-miterlimit="10"></path></g><g transform="translate(-14,-54) scale(1,1)"><path fill="#000000" stroke="none" d="M 155.16267485762415 447.790482243984 L 145 452 L 155.16267485762415 456.209517756016"></path></g><g transform="translate(-14,-54) scale(1,1)"><path fill="none" stroke="#000000" d="M 155.16267485762415 447.790482243984 L 145 452 L 155.16267485762415 456.209517756016 L 155.16267485762415 447.790482243984" stroke-miterlimit="10"></path></g><g transform="translate(-14,-54) scale(1,1)"><g><path fill="none" stroke="none"></path><text fill="#000000" stroke="none" font-family="Arial" font-size="13px" font-style="normal" font-weight="normal" text-decoration="none" x="180" y="448">DemandeNotation</text></g></g><g transform="translate(-14,-54) scale(1,1)"><path fill="none" stroke="#000000" d="M 145 500 L 445 500" stroke-miterlimit="10"></path></g><g transform="translate(-14,-54) scale(1,1)"><path fill="#000000" stroke="none" d="M 434.83732514237585 504.209517756016 L 445 500 L 434.83732514237585 495.790482243984"></path></g><g transform="translate(-14,-54) scale(1,1)"><path fill="none" stroke="#000000" d="M 434.83732514237585 504.209517756016 L 445 500 L 434.83732514237585 495.790482243984 L 434.83732514237585 504.209517756016" stroke-miterlimit="10"></path></g><g transform="translate(-14,-54) scale(1,1)"><g><path fill="none" stroke="none"></path><text fill="#000000" stroke="none" font-family="Arial" font-size="13px" font-style="normal" font-weight="normal" text-decoration="none" x="262" y="497">FournitNote</text></g></g><g transform="translate(-14,-54) scale(1,1)"><path fill="none" stroke="#000000" d="M 445 520 L 540 520" stroke-miterlimit="10"></path></g><g transform="translate(-14,-54) scale(1,1)"><path fill="#000000" stroke="none" d="M 529.8373251423759 524.209517756016 L 540 520 L 529.8373251423758 515.790482243984"></path></g><g transform="translate(-14,-54) scale(1,1)"><path fill="none" stroke="#000000" d="M 529.8373251423759 524.209517756016 L 540 520 L 529.8373251423758 515.790482243984 L 529.8373251423759 524.209517756016" stroke-miterlimit="10"></path></g><g transform="translate(-14,-54) scale(1,1)"><g><path fill="none" stroke="none"></path><text fill="#000000" stroke="none" font-family="Arial" font-size="13px" font-style="normal" font-weight="normal" text-decoration="none" x="481" y="517">new</text></g></g><g transform="translate(-14,-54) scale(1,1)"><path fill="none" stroke="#000000" d="M 445 546 L 635 546" stroke-miterlimit="10"></path></g><g transform="translate(-14,-54) scale(1,1)"><path fill="#000000" stroke="none" d="M 624.8373251423759 550.209517756016 L 635 546 L 624.8373251423758 541.790482243984"></path></g><g transform="translate(-14,-54) scale(1,1)"><path fill="none" stroke="#000000" d="M 624.8373251423759 550.209517756016 L 635 546 L 624.8373251423758 541.790482243984 L 624.8373251423759 550.209517756016" stroke-miterlimit="10"></path></g><g transform="translate(-14,-54) scale(1,1)"><g><path fill="none" stroke="none"></path><text fill="#000000" stroke="none" font-family="Arial" font-size="13px" font-style="normal" font-weight="normal" text-decoration="none" x="459" y="543">MajComNote(Note, Recette)</text></g></g><g transform="translate(-14,-54) scale(1,1)"><path fill="none" stroke="#000000" d="M 635 556 L 665 556 L 665 576 L 635 576" stroke-miterlimit="10"></path></g><g transform="translate(-14,-54) scale(1,1)"><path fill="#000000" stroke="none" d="M 645.1626748576241 571.790482243984 L 635 576 L 645.1626748576241 580.209517756016"></path></g><g transform="translate(-14,-54) scale(1,1)"><path fill="none" stroke="#000000" d="M 645.1626748576241 571.790482243984 L 635 576 L 645.1626748576241 580.209517756016 L 645.1626748576241 571.790482243984" stroke-miterlimit="10"></path></g><g transform="translate(-14,-54) scale(1,1)"><g><path fill="none" stroke="none"></path><text fill="#000000" stroke="none" font-family="Arial" font-size="13px" font-style="normal" font-weight="normal" text-decoration="none" x="673" y="572">RechercheRecette</text></g></g><g transform="translate(-14,-54) scale(1,1)"><path fill="none" stroke="#000000" d="M 635 596 L 665 596 L 665 616 L 635 616" stroke-miterlimit="10"></path></g><g transform="translate(-14,-54) scale(1,1)"><path fill="#000000" stroke="none" d="M 645.1626748576241 611.790482243984 L 635 616 L 645.1626748576241 620.209517756016"></path></g><g transform="translate(-14,-54) scale(1,1)"><path fill="none" stroke="#000000" d="M 645.1626748576241 611.790482243984 L 635 616 L 645.1626748576241 620.209517756016 L 645.1626748576241 611.790482243984" stroke-miterlimit="10"></path></g><g transform="translate(-14,-54) scale(1,1)"><g><path fill="none" stroke="none"></path><text fill="#000000" stroke="none" font-family="Arial" font-size="13px" font-style="normal" font-weight="normal" text-decoration="none" x="668" y="616">Vérifie unicité auteur</text></g></g><g transform="translate(-14,-54) scale(1,1)"><path fill="none" stroke="#000000" d="M 635 664 L 145 664" stroke-miterlimit="10"></path></g><g transform="translate(-14,-54) scale(1,1)"><path fill="#000000" stroke="none" d="M 155.16267485762415 659.790482243984 L 145 664 L 155.16267485762415 668.209517756016"></path></g><g transform="translate(-14,-54) scale(1,1)"><path fill="none" stroke="#000000" d="M 155.16267485762415 659.790482243984 L 145 664 L 155.16267485762415 668.209517756016 L 155.16267485762415 659.790482243984" stroke-miterlimit="10"></path></g><g transform="translate(-14,-54) scale(1,1)"><g><path fill="none" stroke="none"></path><text fill="#000000" stroke="none" font-family="Arial" font-size="13px" font-style="normal" font-weight="normal" text-decoration="none" x="340" y="681">AlerteNoteExiste</text></g></g><g transform="translate(-14,-54) scale(1,1)"><path fill="none" stroke="#000000" d="M 145 688 L 175 688 L 175 708 L 145 708" stroke-miterlimit="10"></path></g><g transform="translate(-14,-54) scale(1,1)"><path fill="#000000" stroke="none" d="M 155.16267485762415 703.790482243984 L 145 708 L 155.16267485762415 712.209517756016"></path></g><g transform="translate(-14,-54) scale(1,1)"><path fill="none" stroke="#000000" d="M 155.16267485762415 703.790482243984 L 145 708 L 155.16267485762415 712.209517756016 L 155.16267485762415 703.790482243984" stroke-miterlimit="10"></path></g><g transform="translate(-14,-54) scale(1,1)"><g><path fill="none" stroke="none"></path><text fill="#000000" stroke="none" font-family="Arial" font-size="13px" font-style="normal" font-weight="normal" text-decoration="none" x="180" y="704">DemandeChangementNote</text></g></g><g transform="translate(-14,-54) scale(1,1)"><path fill="none" stroke="#000000" d="M 44 460 L 804 460 L 804 751 L 44 751 L 44 460" stroke-miterlimit="10"></path></g><g transform="translate(-14,-54) scale(1,1)"><path fill="#ffffff" stroke="none" d="M 44 460 L 44 482 L 231 482 L 242 471 L 242 460 L 44 460"></path></g><g transform="translate(-14,-54) scale(1,1)"><path fill="none" stroke="#000000" d="M 44 460 L 44 482 L 231 482 L 242 471 L 242 460 L 44 460 L 44 460" stroke-miterlimit="10"></path></g><g transform="translate(-14,-54) scale(1,1)"><g><path fill="none" stroke="none"></path><text fill="#000000" stroke="none" font-family="Arial" font-size="13px" font-style="normal" font-weight="normal" text-decoration="none" x="76" y="477.5">Tant que note non validée</text></g></g><g transform="translate(-14,-54) scale(1,1)"><g><path fill="none" stroke="none"></path><text fill="#000000" stroke="none" font-family="Arial" font-size="13px" font-style="normal" font-weight="bold" text-decoration="none" x="49" y="477.5">seq</text></g></g><g transform="translate(-14,-54) scale(1,1)"><path fill="none" stroke="#000000" d="M 635 772 L 665 772 L 665 792 L 635 792" stroke-miterlimit="10"></path></g><g transform="translate(-14,-54) scale(1,1)"><path fill="#000000" stroke="none" d="M 645.1626748576241 787.790482243984 L 635 792 L 645.1626748576241 796.209517756016"></path></g><g transform="translate(-14,-54) scale(1,1)"><path fill="none" stroke="#000000" d="M 645.1626748576241 787.790482243984 L 635 792 L 645.1626748576241 796.209517756016 L 645.1626748576241 787.790482243984" stroke-miterlimit="10"></path></g><g transform="translate(-14,-54) scale(1,1)"><g><path fill="none" stroke="none"></path><text fill="#000000" stroke="none" font-family="Arial" font-size="13px" font-style="normal" font-weight="normal" text-decoration="none" x="669" y="789">MajBD</text></g></g><g transform="translate(-14,-54) scale(1,1)"><path fill="none" stroke="#000000" d="M 635 792 L 145 792" stroke-miterlimit="10"></path></g><g transform="translate(-14,-54) scale(1,1)"><path fill="#000000" stroke="none" d="M 155.16267485762415 787.790482243984 L 145 792 L 155.16267485762415 796.209517756016"></path></g><g transform="translate(-14,-54) scale(1,1)"><path fill="none" stroke="#000000" d="M 155.16267485762415 787.790482243984 L 145 792 L 155.16267485762415 796.209517756016 L 155.16267485762415 787.790482243984" stroke-miterlimit="10"></path></g><g transform="translate(-14,-54) scale(1,1)"><g><path fill="none" stroke="none"></path><text fill="#000000" stroke="none" font-family="Arial" font-size="13px" font-style="normal" font-weight="normal" text-decoration="none" x="337" y="809">AlerteNoteValidée</text></g></g></g></svg>