<svg version="1.1" xmlns="http://www.w3.org/2000/svg" xmlns:xlink="http://www.w3.org/1999/xlink" width="1304" height="1023"><defs></defs><g><g transform="translate(-70,-74) scale(1,1)"><path fill="none" stroke="#000000" d="M 80 84 L 1364 84 L 1364 1087 L 80 1087 L 80 84" stroke-miterlimit="10"></path></g><g transform="translate(-70,-74) scale(1,1)"><path fill="#ffffff" stroke="none" d="M 80 84 L 80 106 L 263 106 L 274 95 L 274 84 L 80 84"></path></g><g transform="translate(-70,-74) scale(1,1)"><path fill="none" stroke="#000000" d="M 80 84 L 80 106 L 263 106 L 274 95 L 274 84 L 80 84 L 80 84" stroke-miterlimit="10"></path></g><g transform="translate(-70,-74) scale(1,1)"><g><path fill="none" stroke="none"></path><text fill="#000000" stroke="none" font-family="Arial" font-size="13px" font-style="normal" font-weight="normal" text-decoration="none" x="151" y="101.5">RechercheRecette</text></g></g><g transform="translate(-70,-74) scale(1,1)"><g><path fill="none" stroke="none"></path><text fill="#000000" stroke="none" font-family="Arial" font-size="13px" font-style="normal" font-weight="bold" text-decoration="none" x="85" y="101.5">interaction</text></g></g><g transform="translate(-70,-74) scale(1,1)"><rect fill="#C0C0C0" stroke="none" x="135" y="47" width="89" height="39" opacity="0.2"></rect></g><g transform="translate(-70,-74) scale(1,1)"><rect fill="#ffffff" stroke="none" x="128" y="40" width="89" height="39"></rect></g><g transform="translate(-70,-74) scale(1,1)"><path fill="none" stroke="#000000" d="M 128 40 L 217 40 L 217 79 L 128 79 L 128 40 Z Z" stroke-miterlimit="10"></path></g><g transform="translate(-70,-74) scale(1,1)"><g><path fill="none" stroke="none"></path><text fill="#000000" stroke="none" font-family="Arial" font-size="13px" font-style="normal" font-weight="bold" text-decoration="none" x="141.5" y="59.5">Controlleur</text></g></g><g transform="translate(-70,-74) scale(1,1)"><path fill="none" stroke="#000000" d="M 173.5 80 L 173.5 940" stroke-miterlimit="10" stroke-dasharray="3"></path></g><g transform="translate(-70,-74) scale(1,1)"><rect fill="#C0C0C0" stroke="none" x="235" y="47" width="150" height="39" opacity="0.2"></rect></g><g transform="translate(-70,-74) scale(1,1)"><rect fill="#ffffff" stroke="none" x="228" y="40" width="150" height="39"></rect></g><g transform="translate(-70,-74) scale(1,1)"><path fill="none" stroke="#000000" d="M 228 40 L 378 40 L 378 79 L 228 79 L 228 40 Z Z" stroke-miterlimit="10"></path></g><g transform="translate(-70,-74) scale(1,1)"><g><path fill="none" stroke="none"></path><text fill="#000000" stroke="none" font-family="Arial" font-size="13px" font-style="normal" font-weight="bold" text-decoration="none" x="240.5" y="59.5">GestionnaireRecettes</text></g></g><g transform="translate(-70,-74) scale(1,1)"><path fill="none" stroke="#000000" d="M 304.5 80 L 304.5 944" stroke-miterlimit="10" stroke-dasharray="3"></path></g><g transform="translate(-70,-74) scale(1,1)"><rect fill="#C0C0C0" stroke="none" x="555" y="47" width="159" height="39" opacity="0.2"></rect></g><g transform="translate(-70,-74) scale(1,1)"><rect fill="#ffffff" stroke="none" x="548" y="40" width="159" height="39"></rect></g><g transform="translate(-70,-74) scale(1,1)"><path fill="none" stroke="#000000" d="M 548 40 L 707 40 L 707 79 L 548 79 L 548 40 Z Z" stroke-miterlimit="10"></path></g><g transform="translate(-70,-74) scale(1,1)"><g><path fill="none" stroke="none"></path><text fill="#000000" stroke="none" font-family="Arial" font-size="13px" font-style="normal" font-weight="bold" text-decoration="none" x="562" y="59.5">SuperviseurRecherche</text></g></g><g transform="translate(-70,-74) scale(1,1)"><path fill="none" stroke="#000000" d="M 628.5 80 L 628.5 952" stroke-miterlimit="10" stroke-dasharray="3"></path></g><g transform="translate(-70,-74) scale(1,1)"><rect fill="#C0C0C0" stroke="none" x="395" y="47" width="151" height="39" opacity="0.2"></rect></g><g transform="translate(-70,-74) scale(1,1)"><rect fill="#ffffff" stroke="none" x="388" y="40" width="151" height="39"></rect></g><g transform="translate(-70,-74) scale(1,1)"><path fill="none" stroke="#000000" d="M 388 40 L 539 40 L 539 79 L 388 79 L 388 40 Z Z" stroke-miterlimit="10"></path></g><g transform="translate(-70,-74) scale(1,1)"><g><path fill="none" stroke="none"></path><text fill="#000000" stroke="none" font-family="Arial" font-size="13px" font-style="normal" font-weight="bold" text-decoration="none" x="401.5" y="59.5">ConsultantRecherche</text></g></g><g transform="translate(-70,-74) scale(1,1)"><path fill="none" stroke="#000000" d="M 464.5 80 L 464.5 948" stroke-miterlimit="10" stroke-dasharray="3"></path></g><g transform="translate(-70,-74) scale(1,1)"><rect fill="#C0C0C0" stroke="none" x="727" y="47" width="84" height="39" opacity="0.2"></rect></g><g transform="translate(-70,-74) scale(1,1)"><rect fill="#ffffff" stroke="none" x="720" y="40" width="84" height="39"></rect></g><g transform="translate(-70,-74) scale(1,1)"><path fill="none" stroke="#000000" d="M 720 40 L 804 40 L 804 79 L 720 79 L 720 40 Z Z" stroke-miterlimit="10"></path></g><g transform="translate(-70,-74) scale(1,1)"><g><path fill="none" stroke="none"></path><text fill="#000000" stroke="none" font-family="Arial" font-size="13px" font-style="normal" font-weight="bold" text-decoration="none" x="731" y="59.5">Recherche</text></g></g><g transform="translate(-70,-74) scale(1,1)"><path fill="none" stroke="#000000" d="M 763.5 80 L 763.5 956" stroke-miterlimit="10" stroke-dasharray="3"></path></g><g transform="translate(-70,-74) scale(1,1)"><rect fill="#C0C0C0" stroke="none" x="819" y="47" width="83" height="39" opacity="0.2"></rect></g><g transform="translate(-70,-74) scale(1,1)"><rect fill="#ffffff" stroke="none" x="812" y="40" width="83" height="39"></rect></g><g transform="translate(-70,-74) scale(1,1)"><path fill="none" stroke="#000000" d="M 812 40 L 895 40 L 895 79 L 812 79 L 812 40 Z Z" stroke-miterlimit="10"></path></g><g transform="translate(-70,-74) scale(1,1)"><g><path fill="none" stroke="none"></path><text fill="#000000" stroke="none" font-family="Arial" font-size="13px" font-style="normal" font-weight="bold" text-decoration="none" x="824.5" y="59.5">Historique</text></g></g><g transform="translate(-70,-74) scale(1,1)"><path fill="none" stroke="#000000" d="M 854.5 80 L 854.5 888" stroke-miterlimit="10" stroke-dasharray="3"></path></g><g transform="translate(-70,-74) scale(1,1)"><rect fill="#C0C0C0" stroke="none" x="1047" y="47" width="151" height="39" opacity="0.2"></rect></g><g transform="translate(-70,-74) scale(1,1)"><rect fill="#ffffff" stroke="none" x="1040" y="40" width="151" height="39"></rect></g><g transform="translate(-70,-74) scale(1,1)"><path fill="none" stroke="#000000" d="M 1040 40 L 1191 40 L 1191 79 L 1040 79 L 1040 40 Z Z" stroke-miterlimit="10"></path></g><g transform="translate(-70,-74) scale(1,1)"><g><path fill="none" stroke="none"></path><text fill="#000000" stroke="none" font-family="Arial" font-size="13px" font-style="normal" font-weight="bold" text-decoration="none" x="1053.5" y="59.5">ConsultantRecherche</text></g></g><g transform="translate(-70,-74) scale(1,1)"><path fill="none" stroke="#000000" d="M 1116.5 80 L 1116.5 956" stroke-miterlimit="10" stroke-dasharray="3"></path></g><g transform="translate(-70,-74) scale(1,1)"><rect fill="#C0C0C0" stroke="none" x="1211" y="47" width="139" height="39" opacity="0.2"></rect></g><g transform="translate(-70,-74) scale(1,1)"><rect fill="#ffffff" stroke="none" x="1204" y="40" width="139" height="39"></rect></g><g transform="translate(-70,-74) scale(1,1)"><path fill="none" stroke="#000000" d="M 1204 40 L 1343 40 L 1343 79 L 1204 79 L 1204 40 Z Z" stroke-miterlimit="10"></path></g><g transform="translate(-70,-74) scale(1,1)"><g><path fill="none" stroke="none"></path><text fill="#000000" stroke="none" font-family="Arial" font-size="13px" font-style="normal" font-weight="bold" text-decoration="none" x="1220" y="59.5">ConsultantRecette</text></g></g><g transform="translate(-70,-74) scale(1,1)"><path fill="none" stroke="#000000" d="M 1274.5 80 L 1274.5 956" stroke-miterlimit="10" stroke-dasharray="3"></path></g><g transform="translate(-70,-74) scale(1,1)"><rect fill="#C0C0C0" stroke="none" x="911" y="47" width="129" height="39" opacity="0.2"></rect></g><g transform="translate(-70,-74) scale(1,1)"><rect fill="#ffffff" stroke="none" x="904" y="40" width="129" height="39"></rect></g><g transform="translate(-70,-74) scale(1,1)"><path fill="none" stroke="#000000" d="M 904 40 L 1033 40 L 1033 79 L 904 79 L 904 40 Z Z" stroke-miterlimit="10"></path></g><g transform="translate(-70,-74) scale(1,1)"><g><path fill="none" stroke="none"></path><text fill="#000000" stroke="none" font-family="Arial" font-size="13px" font-style="normal" font-weight="bold" text-decoration="none" x="917.5" y="59.5">CorrespondantBD</text></g></g><g transform="translate(-70,-74) scale(1,1)"><path fill="none" stroke="#000000" d="M 969.5 80 L 969.5 952" stroke-miterlimit="10" stroke-dasharray="3"></path></g><g transform="translate(-70,-74) scale(1,1)"><path fill="none" stroke="#000000" d="M 173 221 L 304 221" stroke-miterlimit="10"></path></g><g transform="translate(-70,-74) scale(1,1)"><path fill="#000000" stroke="none" d="M 293.83732514237585 225.209517756016 L 304 221 L 293.83732514237585 216.790482243984"></path></g><g transform="translate(-70,-74) scale(1,1)"><path fill="none" stroke="#000000" d="M 293.83732514237585 225.209517756016 L 304 221 L 293.83732514237585 216.790482243984 L 293.83732514237585 225.209517756016" stroke-miterlimit="10"></path></g><g transform="translate(-70,-74) scale(1,1)"><g><path fill="none" stroke="none"></path><text fill="#000000" stroke="none" font-family="Arial" font-size="13px" font-style="normal" font-weight="normal" text-decoration="none" x="185" y="218">RechercheRecette</text></g></g><g transform="translate(-70,-74) scale(1,1)"><path fill="none" stroke="#000000" d="M 304 245 L 628 245" stroke-miterlimit="10"></path></g><g transform="translate(-70,-74) scale(1,1)"><path fill="#000000" stroke="none" d="M 617.8373251423759 249.209517756016 L 628 245 L 617.8373251423758 240.790482243984"></path></g><g transform="translate(-70,-74) scale(1,1)"><path fill="none" stroke="#000000" d="M 617.8373251423759 249.209517756016 L 628 245 L 617.8373251423758 240.790482243984 L 617.8373251423759 249.209517756016" stroke-miterlimit="10"></path></g><g transform="translate(-70,-74) scale(1,1)"><g><path fill="none" stroke="none"></path><text fill="#000000" stroke="none" font-family="Arial" font-size="13px" font-style="normal" font-weight="normal" text-decoration="none" x="426" y="242">RechercheBD</text></g></g><g transform="translate(-70,-74) scale(1,1)"><path fill="none" stroke="#000000" d="M 628 270 L 763 270" stroke-miterlimit="10"></path></g><g transform="translate(-70,-74) scale(1,1)"><path fill="#000000" stroke="none" d="M 752.8373251423759 274.209517756016 L 763 270 L 752.8373251423758 265.790482243984"></path></g><g transform="translate(-70,-74) scale(1,1)"><path fill="none" stroke="#000000" d="M 752.8373251423759 274.209517756016 L 763 270 L 752.8373251423758 265.790482243984 L 752.8373251423759 274.209517756016" stroke-miterlimit="10"></path></g><g transform="translate(-70,-74) scale(1,1)"><g><path fill="none" stroke="none"></path><text fill="#000000" stroke="none" font-family="Arial" font-size="13px" font-style="normal" font-weight="normal" text-decoration="none" x="684" y="267">new</text></g></g><g transform="translate(-70,-74) scale(1,1)"><path fill="none" stroke="#000000" d="M 628 312 L 969 312" stroke-miterlimit="10"></path></g><g transform="translate(-70,-74) scale(1,1)"><path fill="#000000" stroke="none" d="M 958.8373251423759 316.209517756016 L 969 312 L 958.8373251423758 307.790482243984"></path></g><g transform="translate(-70,-74) scale(1,1)"><path fill="none" stroke="#000000" d="M 958.8373251423759 316.209517756016 L 969 312 L 958.8373251423758 307.790482243984 L 958.8373251423759 316.209517756016" stroke-miterlimit="10"></path></g><g transform="translate(-70,-74) scale(1,1)"><g><path fill="none" stroke="none"></path><text fill="#000000" stroke="none" font-family="Arial" font-size="13px" font-style="normal" font-weight="normal" text-decoration="none" x="743" y="309">LanceComparaison</text></g></g><g transform="translate(-70,-74) scale(1,1)"><path fill="none" stroke="#000000" d="M 969 332 L 999 332 L 999 352 L 969 352" stroke-miterlimit="10"></path></g><g transform="translate(-70,-74) scale(1,1)"><path fill="#000000" stroke="none" d="M 979.1626748576241 347.790482243984 L 969 352 L 979.1626748576241 356.209517756016"></path></g><g transform="translate(-70,-74) scale(1,1)"><path fill="none" stroke="#000000" d="M 979.1626748576241 347.790482243984 L 969 352 L 979.1626748576241 356.209517756016 L 979.1626748576241 347.790482243984" stroke-miterlimit="10"></path></g><g transform="translate(-70,-74) scale(1,1)"><g><path fill="none" stroke="none"></path><text fill="#000000" stroke="none" font-family="Arial" font-size="13px" font-style="normal" font-weight="normal" text-decoration="none" x="977" y="348">ExploreBD</text></g></g><g transform="translate(-70,-74) scale(1,1)"><path fill="none" stroke="#000000" d="M 969 360 L 628 360" stroke-miterlimit="10"></path></g><g transform="translate(-70,-74) scale(1,1)"><path fill="#000000" stroke="none" d="M 638.1626748576241 355.790482243984 L 628 360 L 638.1626748576241 364.209517756016"></path></g><g transform="translate(-70,-74) scale(1,1)"><path fill="none" stroke="#000000" d="M 638.1626748576241 355.790482243984 L 628 360 L 638.1626748576241 364.209517756016 L 638.1626748576241 355.790482243984" stroke-miterlimit="10"></path></g><g transform="translate(-70,-74) scale(1,1)"><g><path fill="none" stroke="none"></path><text fill="#000000" stroke="none" font-family="Arial" font-size="13px" font-style="normal" font-weight="normal" text-decoration="none" x="750" y="377">EnvoieResultats</text></g></g><g transform="translate(-70,-74) scale(1,1)"><path fill="none" stroke="#000000" d="M 628 422 L 173 422" stroke-miterlimit="10"></path></g><g transform="translate(-70,-74) scale(1,1)"><path fill="#000000" stroke="none" d="M 183.16267485762415 417.790482243984 L 173 422 L 183.16267485762415 426.209517756016"></path></g><g transform="translate(-70,-74) scale(1,1)"><path fill="none" stroke="#000000" d="M 183.16267485762415 417.790482243984 L 173 422 L 183.16267485762415 426.209517756016 L 183.16267485762415 417.790482243984" stroke-miterlimit="10"></path></g><g transform="translate(-70,-74) scale(1,1)"><g><path fill="none" stroke="none"></path><text fill="#000000" stroke="none" font-family="Arial" font-size="13px" font-style="normal" font-weight="normal" text-decoration="none" x="306" y="439">LanceAlerteMauvaiseRecherche</text></g></g><g transform="translate(-70,-74) scale(1,1)"><path fill="none" stroke="#000000" d="M 628 501 L 763 501" stroke-miterlimit="10"></path></g><g transform="translate(-70,-74) scale(1,1)"><path fill="#000000" stroke="none" d="M 752.8373251423759 505.209517756016 L 763 501 L 752.8373251423758 496.790482243984"></path></g><g transform="translate(-70,-74) scale(1,1)"><path fill="none" stroke="#000000" d="M 752.8373251423759 505.209517756016 L 763 501 L 752.8373251423758 496.790482243984 L 752.8373251423759 505.209517756016" stroke-miterlimit="10"></path></g><g transform="translate(-70,-74) scale(1,1)"><g><path fill="none" stroke="none"></path><text fill="#000000" stroke="none" font-family="Arial" font-size="13px" font-style="normal" font-weight="normal" text-decoration="none" x="678" y="498">rempli</text></g></g><g transform="translate(-70,-74) scale(1,1)"><path fill="none" stroke="#000000" d="M 628 542 L 854 542" stroke-miterlimit="10"></path></g><g transform="translate(-70,-74) scale(1,1)"><path fill="#000000" stroke="none" d="M 843.8373251423759 546.209517756016 L 854 542 L 843.8373251423758 537.790482243984"></path></g><g transform="translate(-70,-74) scale(1,1)"><path fill="none" stroke="#000000" d="M 843.8373251423759 546.209517756016 L 854 542 L 843.8373251423758 537.790482243984 L 843.8373251423759 546.209517756016" stroke-miterlimit="10"></path></g><g transform="translate(-70,-74) scale(1,1)"><g><path fill="none" stroke="none"></path><text fill="#000000" stroke="none" font-family="Arial" font-size="13px" font-style="normal" font-weight="normal" text-decoration="none" x="692" y="539">AjouteRecherche</text></g></g><g transform="translate(-70,-74) scale(1,1)"><path fill="none" stroke="#000000" d="M 628 564 L 304 564" stroke-miterlimit="10"></path></g><g transform="translate(-70,-74) scale(1,1)"><path fill="#000000" stroke="none" d="M 314.16267485762415 559.790482243984 L 304 564 L 314.16267485762415 568.209517756016"></path></g><g transform="translate(-70,-74) scale(1,1)"><path fill="none" stroke="#000000" d="M 314.16267485762415 559.790482243984 L 304 564 L 314.16267485762415 568.209517756016 L 314.16267485762415 559.790482243984" stroke-miterlimit="10"></path></g><g transform="translate(-70,-74) scale(1,1)"><g><path fill="none" stroke="none"></path><text fill="#000000" stroke="none" font-family="Arial" font-size="13px" font-style="normal" font-weight="normal" text-decoration="none" x="408" y="581">RetourneRecherche</text></g></g><g transform="translate(-70,-74) scale(1,1)"><path fill="none" stroke="#000000" d="M 304 592 L 173 592" stroke-miterlimit="10"></path></g><g transform="translate(-70,-74) scale(1,1)"><path fill="#000000" stroke="none" d="M 183.16267485762415 587.790482243984 L 173 592 L 183.16267485762415 596.209517756016"></path></g><g transform="translate(-70,-74) scale(1,1)"><path fill="none" stroke="#000000" d="M 183.16267485762415 587.790482243984 L 173 592 L 183.16267485762415 596.209517756016 L 183.16267485762415 587.790482243984" stroke-miterlimit="10"></path></g><g transform="translate(-70,-74) scale(1,1)"><g><path fill="none" stroke="none"></path><text fill="#000000" stroke="none" font-family="Arial" font-size="13px" font-style="normal" font-weight="normal" text-decoration="none" x="193" y="609">LanceAlerteOK</text></g></g><g transform="translate(-70,-74) scale(1,1)"><path fill="none" stroke="#000000" d="M 304 619 L 464 619" stroke-miterlimit="10"></path></g><g transform="translate(-70,-74) scale(1,1)"><path fill="#000000" stroke="none" d="M 453.83732514237585 623.209517756016 L 464 619 L 453.83732514237585 614.790482243984"></path></g><g transform="translate(-70,-74) scale(1,1)"><path fill="none" stroke="#000000" d="M 453.83732514237585 623.209517756016 L 464 619 L 453.83732514237585 614.790482243984 L 453.83732514237585 623.209517756016" stroke-miterlimit="10"></path></g><g transform="translate(-70,-74) scale(1,1)"><g><path fill="none" stroke="none"></path><text fill="#000000" stroke="none" font-family="Arial" font-size="13px" font-style="normal" font-weight="normal" text-decoration="none" x="373" y="616">new</text></g></g><g transform="translate(-70,-74) scale(1,1)"><path fill="none" stroke="#000000" d="M 464 652 L 173 652" stroke-miterlimit="10"></path></g><g transform="translate(-70,-74) scale(1,1)"><path fill="#000000" stroke="none" d="M 183.16267485762415 647.790482243984 L 173 652 L 183.16267485762415 656.209517756016"></path></g><g transform="translate(-70,-74) scale(1,1)"><path fill="none" stroke="#000000" d="M 183.16267485762415 647.790482243984 L 173 652 L 183.16267485762415 656.209517756016 L 183.16267485762415 647.790482243984" stroke-miterlimit="10"></path></g><g transform="translate(-70,-74) scale(1,1)"><g><path fill="none" stroke="none"></path><text fill="#000000" stroke="none" font-family="Arial" font-size="13px" font-style="normal" font-weight="normal" text-decoration="none" x="271" y="669">AfficheRecettes</text></g></g><g transform="translate(-70,-74) scale(1,1)"><path fill="none" stroke="#000000" d="M 173 672 L 203 672 L 203 692 L 173 692" stroke-miterlimit="10"></path></g><g transform="translate(-70,-74) scale(1,1)"><path fill="#000000" stroke="none" d="M 183.16267485762415 687.790482243984 L 173 692 L 183.16267485762415 696.209517756016"></path></g><g transform="translate(-70,-74) scale(1,1)"><path fill="none" stroke="#000000" d="M 183.16267485762415 687.790482243984 L 173 692 L 183.16267485762415 696.209517756016 L 183.16267485762415 687.790482243984" stroke-miterlimit="10"></path></g><g transform="translate(-70,-74) scale(1,1)"><g><path fill="none" stroke="none"></path><text fill="#000000" stroke="none" font-family="Arial" font-size="13px" font-style="normal" font-weight="normal" text-decoration="none" x="159" y="688">AfficheListeDefaut</text></g></g><g transform="translate(-70,-74) scale(1,1)"><path fill="none" stroke="#000000" d="M 173 794 L 304 794" stroke-miterlimit="10"></path></g><g transform="translate(-70,-74) scale(1,1)"><path fill="#000000" stroke="none" d="M 293.83732514237585 798.209517756016 L 304 794 L 293.83732514237585 789.790482243984"></path></g><g transform="translate(-70,-74) scale(1,1)"><path fill="none" stroke="#000000" d="M 293.83732514237585 798.209517756016 L 304 794 L 293.83732514237585 789.790482243984 L 293.83732514237585 798.209517756016" stroke-miterlimit="10"></path></g><g transform="translate(-70,-74) scale(1,1)"><g><path fill="none" stroke="none"></path><text fill="#000000" stroke="none" font-family="Arial" font-size="13px" font-style="normal" font-weight="normal" text-decoration="none" x="203" y="791">DemandeTri</text></g></g><g transform="translate(-70,-74) scale(1,1)"><path fill="none" stroke="#000000" d="M 304 808 L 1116 808" stroke-miterlimit="10"></path></g><g transform="translate(-70,-74) scale(1,1)"><path fill="#000000" stroke="none" d="M 1105.837325142376 812.209517756016 L 1116 808 L 1105.837325142376 803.790482243984"></path></g><g transform="translate(-70,-74) scale(1,1)"><path fill="none" stroke="#000000" d="M 1105.837325142376 812.209517756016 L 1116 808 L 1105.837325142376 803.790482243984 L 1105.837325142376 812.209517756016" stroke-miterlimit="10"></path></g><g transform="translate(-70,-74) scale(1,1)"><g><path fill="none" stroke="none"></path><text fill="#000000" stroke="none" font-family="Arial" font-size="13px" font-style="normal" font-weight="normal" text-decoration="none" x="677" y="805">TriRecettes</text></g></g><g transform="translate(-70,-74) scale(1,1)"><path fill="none" stroke="#000000" d="M 1116 824 L 1146 824 L 1146 844 L 1116 844" stroke-miterlimit="10"></path></g><g transform="translate(-70,-74) scale(1,1)"><path fill="#000000" stroke="none" d="M 1126.162674857624 839.790482243984 L 1116 844 L 1126.162674857624 848.209517756016"></path></g><g transform="translate(-70,-74) scale(1,1)"><path fill="none" stroke="#000000" d="M 1126.162674857624 839.790482243984 L 1116 844 L 1126.162674857624 848.209517756016 L 1126.162674857624 839.790482243984" stroke-miterlimit="10"></path></g><g transform="translate(-70,-74) scale(1,1)"><g><path fill="none" stroke="none"></path><text fill="#000000" stroke="none" font-family="Arial" font-size="13px" font-style="normal" font-weight="normal" text-decoration="none" x="1123" y="840">EffectueTri</text></g></g><g transform="translate(-70,-74) scale(1,1)"><path fill="none" stroke="#000000" d="M 1116 852 L 304 852" stroke-miterlimit="10"></path></g><g transform="translate(-70,-74) scale(1,1)"><path fill="#000000" stroke="none" d="M 314.16267485762415 847.790482243984 L 304 852 L 314.16267485762415 856.209517756016"></path></g><g transform="translate(-70,-74) scale(1,1)"><path fill="none" stroke="#000000" d="M 314.16267485762415 847.790482243984 L 304 852 L 314.16267485762415 856.209517756016 L 314.16267485762415 847.790482243984" stroke-miterlimit="10"></path></g><g transform="translate(-70,-74) scale(1,1)"><g><path fill="none" stroke="none"></path><text fill="#000000" stroke="none" font-family="Arial" font-size="13px" font-style="normal" font-weight="normal" text-decoration="none" x="661" y="869">EnvoieListeTriée</text></g></g><g transform="translate(-70,-74) scale(1,1)"><path fill="none" stroke="#000000" d="M 304 877 L 464 877" stroke-miterlimit="10"></path></g><g transform="translate(-70,-74) scale(1,1)"><path fill="#000000" stroke="none" d="M 453.83732514237585 881.209517756016 L 464 877 L 453.83732514237585 872.790482243984"></path></g><g transform="translate(-70,-74) scale(1,1)"><path fill="none" stroke="#000000" d="M 453.83732514237585 881.209517756016 L 464 877 L 453.83732514237585 872.790482243984 L 453.83732514237585 881.209517756016" stroke-miterlimit="10"></path></g><g transform="translate(-70,-74) scale(1,1)"><g><path fill="none" stroke="none"></path><text fill="#000000" stroke="none" font-family="Arial" font-size="13px" font-style="normal" font-weight="normal" text-decoration="none" x="329" y="874">DemandeAffichage</text></g></g><g transform="translate(-70,-74) scale(1,1)"><path fill="none" stroke="#000000" d="M 464 896 L 173 896" stroke-miterlimit="10"></path></g><g transform="translate(-70,-74) scale(1,1)"><path fill="#000000" stroke="none" d="M 183.16267485762415 891.790482243984 L 173 896 L 183.16267485762415 900.209517756016"></path></g><g transform="translate(-70,-74) scale(1,1)"><path fill="none" stroke="#000000" d="M 183.16267485762415 891.790482243984 L 173 896 L 183.16267485762415 900.209517756016 L 183.16267485762415 891.790482243984" stroke-miterlimit="10"></path></g><g transform="translate(-70,-74) scale(1,1)"><g><path fill="none" stroke="none"></path><text fill="#000000" stroke="none" font-family="Arial" font-size="13px" font-style="normal" font-weight="normal" text-decoration="none" x="264" y="913">AffichageRecettes</text></g></g><g transform="translate(-70,-74) scale(1,1)"><path fill="none" stroke="#000000" d="M 173 908 L 203 908 L 203 928 L 173 928" stroke-miterlimit="10"></path></g><g transform="translate(-70,-74) scale(1,1)"><path fill="#000000" stroke="none" d="M 183.16267485762415 923.790482243984 L 173 928 L 183.16267485762415 932.209517756016"></path></g><g transform="translate(-70,-74) scale(1,1)"><path fill="none" stroke="#000000" d="M 183.16267485762415 923.790482243984 L 173 928 L 183.16267485762415 932.209517756016 L 183.16267485762415 923.790482243984" stroke-miterlimit="10"></path></g><g transform="translate(-70,-74) scale(1,1)"><g><path fill="none" stroke="none"></path><text fill="#000000" stroke="none" font-family="Arial" font-size="13px" font-style="normal" font-weight="normal" text-decoration="none" x="178" y="924">AfficheListe</text></g></g><g transform="translate(-70,-74) scale(1,1)"><path fill="none" stroke="#000000" d="M 173 940 L 304 940" stroke-miterlimit="10"></path></g><g transform="translate(-70,-74) scale(1,1)"><path fill="#000000" stroke="none" d="M 293.83732514237585 944.209517756016 L 304 940 L 293.83732514237585 935.790482243984"></path></g><g transform="translate(-70,-74) scale(1,1)"><path fill="none" stroke="#000000" d="M 293.83732514237585 944.209517756016 L 304 940 L 293.83732514237585 935.790482243984 L 293.83732514237585 944.209517756016" stroke-miterlimit="10"></path></g><g transform="translate(-70,-74) scale(1,1)"><g><path fill="none" stroke="none"></path><text fill="#000000" stroke="none" font-family="Arial" font-size="13px" font-style="normal" font-weight="normal" text-decoration="none" x="182" y="937">SelectionneRecette</text></g></g><g transform="translate(-70,-74) scale(1,1)"><path fill="none" stroke="#000000" d="M 304 944 L 1274 944" stroke-miterlimit="10"></path></g><g transform="translate(-70,-74) scale(1,1)"><path fill="#000000" stroke="none" d="M 1263.837325142376 948.209517756016 L 1274 944 L 1263.837325142376 939.790482243984"></path></g><g transform="translate(-70,-74) scale(1,1)"><path fill="none" stroke="#000000" d="M 1263.837325142376 948.209517756016 L 1274 944 L 1263.837325142376 939.790482243984 L 1263.837325142376 948.209517756016" stroke-miterlimit="10"></path></g><g transform="translate(-70,-74) scale(1,1)"><g><path fill="none" stroke="none"></path><text fill="#000000" stroke="none" font-family="Arial" font-size="13px" font-style="normal" font-weight="normal" text-decoration="none" x="728" y="932">ConsulteRecette</text></g></g><g transform="translate(-70,-74) scale(1,1)"><path fill="none" stroke="#000000" d="M 120 388 L 1059 388 L 1059 460 L 120 460 L 120 388" stroke-miterlimit="10"></path></g><g transform="translate(-70,-74) scale(1,1)"><path fill="#ffffff" stroke="none" d="M 120 388 L 120 410 L 251 410 L 262 399 L 262 388 L 120 388"></path></g><g transform="translate(-70,-74) scale(1,1)"><path fill="none" stroke="#000000" d="M 120 388 L 120 410 L 251 410 L 262 399 L 262 388 L 120 388 L 120 388" stroke-miterlimit="10"></path></g><g transform="translate(-70,-74) scale(1,1)"><g><path fill="none" stroke="none"></path><text fill="#000000" stroke="none" font-family="Arial" font-size="13px" font-style="normal" font-weight="normal" text-decoration="none" x="152" y="405.5">Si résultats nuls</text></g></g><g transform="translate(-70,-74) scale(1,1)"><g><path fill="none" stroke="none"></path><text fill="#000000" stroke="none" font-family="Arial" font-size="13px" font-style="normal" font-weight="bold" text-decoration="none" x="125" y="405.5">seq</text></g></g><g transform="translate(-70,-74) scale(1,1)"><path fill="none" stroke="#000000" d="M 104 748 L 1179 748 L 1179 956 L 104 956 L 104 748" stroke-miterlimit="10"></path></g><g transform="translate(-70,-74) scale(1,1)"><path fill="#ffffff" stroke="none" d="M 104 748 L 104 770 L 306 770 L 317 759 L 317 748 L 104 748"></path></g><g transform="translate(-70,-74) scale(1,1)"><path fill="none" stroke="#000000" d="M 104 748 L 104 770 L 306 770 L 317 759 L 317 748 L 104 748 L 104 748" stroke-miterlimit="10"></path></g><g transform="translate(-70,-74) scale(1,1)"><g><path fill="none" stroke="none"></path><text fill="#000000" stroke="none" font-family="Arial" font-size="13px" font-style="normal" font-weight="normal" text-decoration="none" x="136" y="765.5">Tant que recette non choisie</text></g></g><g transform="translate(-70,-74) scale(1,1)"><g><path fill="none" stroke="none"></path><text fill="#000000" stroke="none" font-family="Arial" font-size="13px" font-style="normal" font-weight="bold" text-decoration="none" x="109" y="765.5">seq</text></g></g></g></svg>