<svg version="1.1" xmlns="http://www.w3.org/2000/svg" xmlns:xlink="http://www.w3.org/1999/xlink" width="1260" height="916"><defs></defs><g><g transform="translate(-22,6) scale(1,1)"><path fill="none" stroke="#000000" d="M 32 4 L 1272 4 L 1272 900 L 32 900 L 32 4" stroke-miterlimit="10"></path></g><g transform="translate(-22,6) scale(1,1)"><path fill="#ffffff" stroke="none" d="M 32 4 L 32 26 L 246 26 L 257 15 L 257 4 L 32 4"></path></g><g transform="translate(-22,6) scale(1,1)"><path fill="none" stroke="#000000" d="M 32 4 L 32 26 L 246 26 L 257 15 L 257 4 L 32 4 L 32 4" stroke-miterlimit="10"></path></g><g transform="translate(-22,6) scale(1,1)"><g><path fill="none" stroke="none"></path><text fill="#000000" stroke="none" font-family="Arial" font-size="13px" font-style="normal" font-weight="normal" text-decoration="none" x="103" y="21.5">AjoutAlimentsPhotoSeq</text></g></g><g transform="translate(-22,6) scale(1,1)"><g><path fill="none" stroke="none"></path><text fill="#000000" stroke="none" font-family="Arial" font-size="13px" font-style="normal" font-weight="bold" text-decoration="none" x="37" y="21.5">interaction</text></g></g><g transform="translate(-22,6) scale(1,1)"><rect fill="#C0C0C0" stroke="none" x="51" y="47" width="89" height="39" opacity="0.2"></rect></g><g transform="translate(-22,6) scale(1,1)"><rect fill="#ffffff" stroke="none" x="44" y="40" width="89" height="39"></rect></g><g transform="translate(-22,6) scale(1,1)"><path fill="none" stroke="#000000" d="M 44 40 L 133 40 L 133 79 L 44 79 L 44 40 Z Z" stroke-miterlimit="10"></path></g><g transform="translate(-22,6) scale(1,1)"><g><path fill="none" stroke="none"></path><text fill="#000000" stroke="none" font-family="Arial" font-size="13px" font-style="normal" font-weight="bold" text-decoration="none" x="57.5" y="59.5">Controlleur</text></g></g><g transform="translate(-22,6) scale(1,1)"><path fill="none" stroke="#000000" d="M 89.5 80 L 89.5 880" stroke-miterlimit="10" stroke-dasharray="3"></path></g><g transform="translate(-22,6) scale(1,1)"><rect fill="#C0C0C0" stroke="none" x="395" y="47" width="71" height="39" opacity="0.2"></rect></g><g transform="translate(-22,6) scale(1,1)"><rect fill="#ffffff" stroke="none" x="388" y="40" width="71" height="39"></rect></g><g transform="translate(-22,6) scale(1,1)"><path fill="none" stroke="#000000" d="M 388 40 L 459 40 L 459 79 L 388 79 L 388 40 Z Z" stroke-miterlimit="10"></path></g><g transform="translate(-22,6) scale(1,1)"><g><path fill="none" stroke="none"></path><text fill="#000000" stroke="none" font-family="Arial" font-size="13px" font-style="normal" font-weight="bold" text-decoration="none" x="400" y="59.5">Zonneur</text></g></g><g transform="translate(-22,6) scale(1,1)"><path fill="none" stroke="#000000" d="M 424.5 80 L 424.5 517" stroke-miterlimit="10" stroke-dasharray="3"></path></g><g transform="translate(-22,6) scale(1,1)"><rect fill="#C0C0C0" stroke="none" x="775" y="47" width="108" height="39" opacity="0.2"></rect></g><g transform="translate(-22,6) scale(1,1)"><rect fill="#ffffff" stroke="none" x="768" y="40" width="108" height="39"></rect></g><g transform="translate(-22,6) scale(1,1)"><path fill="none" stroke="#000000" d="M 768 40 L 876 40 L 876 79 L 768 79 L 768 40 Z Z" stroke-miterlimit="10"></path></g><g transform="translate(-22,6) scale(1,1)"><g><path fill="none" stroke="none"></path><text fill="#000000" stroke="none" font-family="Arial" font-size="13px" font-style="normal" font-weight="bold" text-decoration="none" x="780" y="59.5">GestionaireBD</text></g></g><g transform="translate(-22,6) scale(1,1)"><path fill="none" stroke="#000000" d="M 823.5 80 L 823.5 876" stroke-miterlimit="10" stroke-dasharray="3"></path></g><g transform="translate(-22,6) scale(1,1)"><rect fill="#C0C0C0" stroke="none" x="471" y="47" width="138" height="39" opacity="0.2"></rect></g><g transform="translate(-22,6) scale(1,1)"><rect fill="#ffffff" stroke="none" x="464" y="40" width="138" height="39"></rect></g><g transform="translate(-22,6) scale(1,1)"><path fill="none" stroke="#000000" d="M 464 40 L 602 40 L 602 79 L 464 79 L 464 40 Z Z" stroke-miterlimit="10"></path></g><g transform="translate(-22,6) scale(1,1)"><g><path fill="none" stroke="none"></path><text fill="#000000" stroke="none" font-family="Arial" font-size="13px" font-style="normal" font-weight="bold" text-decoration="none" x="477.5" y="59.5">IdentificateurZones</text></g></g><g transform="translate(-22,6) scale(1,1)"><path fill="none" stroke="#000000" d="M 534.5 80 L 534.5 456" stroke-miterlimit="10" stroke-dasharray="3"></path></g><g transform="translate(-22,6) scale(1,1)"><rect fill="#C0C0C0" stroke="none" x="615" y="47" width="155" height="39" opacity="0.2"></rect></g><g transform="translate(-22,6) scale(1,1)"><rect fill="#ffffff" stroke="none" x="608" y="40" width="155" height="39"></rect></g><g transform="translate(-22,6) scale(1,1)"><path fill="none" stroke="#000000" d="M 608 40 L 763 40 L 763 79 L 608 79 L 608 40 Z Z" stroke-miterlimit="10"></path></g><g transform="translate(-22,6) scale(1,1)"><g><path fill="none" stroke="none"></path><text fill="#000000" stroke="none" font-family="Arial" font-size="13px" font-style="normal" font-weight="bold" text-decoration="none" x="622.5" y="59.5">IdentificateurAliments</text></g></g><g transform="translate(-22,6) scale(1,1)"><path fill="none" stroke="#000000" d="M 686.5 80 L 686.5 880" stroke-miterlimit="10" stroke-dasharray="3"></path></g><g transform="translate(-22,6) scale(1,1)"><rect fill="#C0C0C0" stroke="none" x="887" y="47" width="135" height="39" opacity="0.2"></rect></g><g transform="translate(-22,6) scale(1,1)"><rect fill="#ffffff" stroke="none" x="880" y="40" width="135" height="39"></rect></g><g transform="translate(-22,6) scale(1,1)"><path fill="none" stroke="#000000" d="M 880 40 L 1015 40 L 1015 79 L 880 79 L 880 40 Z Z" stroke-miterlimit="10"></path></g><g transform="translate(-22,6) scale(1,1)"><g><path fill="none" stroke="none"></path><text fill="#000000" stroke="none" font-family="Arial" font-size="13px" font-style="normal" font-weight="bold" text-decoration="none" x="905.5" y="59.5">BDPartenaires</text></g></g><g transform="translate(-22,6) scale(1,1)"><path fill="none" stroke="#000000" d="M 948.5 80 L 948.5 876" stroke-miterlimit="10" stroke-dasharray="3"></path></g><g transform="translate(-22,6) scale(1,1)"><rect fill="#C0C0C0" stroke="none" x="1147" y="47" width="131" height="39" opacity="0.2"></rect></g><g transform="translate(-22,6) scale(1,1)"><rect fill="#ffffff" stroke="none" x="1140" y="40" width="131" height="39"></rect></g><g transform="translate(-22,6) scale(1,1)"><path fill="none" stroke="#000000" d="M 1140 40 L 1271 40 L 1271 79 L 1140 79 L 1140 40 Z Z" stroke-miterlimit="10"></path></g><g transform="translate(-22,6) scale(1,1)"><g><path fill="none" stroke="none"></path><text fill="#000000" stroke="none" font-family="Arial" font-size="13px" font-style="normal" font-weight="bold" text-decoration="none" x="1182" y="59.5">Épicerie</text></g></g><g transform="translate(-22,6) scale(1,1)"><path fill="none" stroke="#000000" d="M 1206.5 80 L 1206.5 872" stroke-miterlimit="10" stroke-dasharray="3"></path></g><g transform="translate(-22,6) scale(1,1)"><rect fill="#C0C0C0" stroke="none" x="151" y="47" width="71" height="39" opacity="0.2"></rect></g><g transform="translate(-22,6) scale(1,1)"><rect fill="#ffffff" stroke="none" x="144" y="40" width="71" height="39"></rect></g><g transform="translate(-22,6) scale(1,1)"><path fill="none" stroke="#000000" d="M 144 40 L 215 40 L 215 79 L 144 79 L 144 40 Z Z" stroke-miterlimit="10"></path></g><g transform="translate(-22,6) scale(1,1)"><g><path fill="none" stroke="none"></path><text fill="#000000" stroke="none" font-family="Arial" font-size="13px" font-style="normal" font-weight="bold" text-decoration="none" x="156" y="59.5">Appareil</text></g></g><g transform="translate(-22,6) scale(1,1)"><path fill="none" stroke="#000000" d="M 180.5 80 L 180.5 476" stroke-miterlimit="10" stroke-dasharray="3"></path></g><g transform="translate(-22,6) scale(1,1)"><rect fill="#C0C0C0" stroke="none" x="239" y="47" width="150" height="39" opacity="0.2"></rect></g><g transform="translate(-22,6) scale(1,1)"><rect fill="#ffffff" stroke="none" x="232" y="40" width="150" height="39"></rect></g><g transform="translate(-22,6) scale(1,1)"><path fill="none" stroke="#000000" d="M 232 40 L 382 40 L 382 79 L 232 79 L 232 40 Z Z" stroke-miterlimit="10"></path></g><g transform="translate(-22,6) scale(1,1)"><g><path fill="none" stroke="none"></path><text fill="#000000" stroke="none" font-family="Arial" font-size="13px" font-style="normal" font-weight="bold" text-decoration="none" x="247" y="59.5">GestionnaireAppareil</text></g></g><g transform="translate(-22,6) scale(1,1)"><path fill="none" stroke="#000000" d="M 308.5 80 L 308.5 880" stroke-miterlimit="10" stroke-dasharray="3"></path></g><g transform="translate(-22,6) scale(1,1)"><path fill="#ffffff" stroke="none" d="M 96 404 L 152 404 L 162 414 L 162 494 L 96 494 L 96 404"></path></g><g transform="translate(-22,6) scale(1,1)"><path fill="none" stroke="#000000" d="M 96 404 L 152 404 L 162 414 L 162 494 L 96 494 L 96 404 L 96 404" stroke-miterlimit="10"></path></g><g transform="translate(-22,6) scale(1,1)"><path fill="none" stroke="#000000" d="M 152 404 L 152 414 L 162 414 L 152 404" stroke-miterlimit="10"></path></g><g transform="translate(-22,6) scale(1,1)"><g><path fill="none" stroke="none"></path><text fill="#000000" stroke="none" font-family="Arial" font-size="13px" font-style="normal" font-weight="normal" text-decoration="none" x="101" y="422">Tant que</text><text fill="#000000" stroke="none" font-family="Arial" font-size="13px" font-style="normal" font-weight="normal" text-decoration="none" x="101" y="435">les zones</text></g></g><g transform="translate(-22,6) scale(1,1)"><g><path fill="none" stroke="none"></path><text fill="#000000" stroke="none" font-family="Arial" font-size="13px" font-style="normal" font-weight="normal" text-decoration="none" x="101" y="450">ne sont</text><text fill="#000000" stroke="none" font-family="Arial" font-size="13px" font-style="normal" font-weight="normal" text-decoration="none" x="101" y="463">pas</text><text fill="#000000" stroke="none" font-family="Arial" font-size="13px" font-style="normal" font-weight="normal" text-decoration="none" x="101" y="476">validées</text></g></g><g transform="translate(-22,6) scale(1,1)"><rect fill="#C0C0C0" stroke="none" x="1043" y="47" width="83" height="39" opacity="0.2"></rect></g><g transform="translate(-22,6) scale(1,1)"><rect fill="#ffffff" stroke="none" x="1036" y="40" width="83" height="39"></rect></g><g transform="translate(-22,6) scale(1,1)"><path fill="none" stroke="#000000" d="M 1036 40 L 1119 40 L 1119 79 L 1036 79 L 1036 40 Z Z" stroke-miterlimit="10"></path></g><g transform="translate(-22,6) scale(1,1)"><g><path fill="none" stroke="none"></path><text fill="#000000" stroke="none" font-family="Arial" font-size="13px" font-style="normal" font-weight="bold" text-decoration="none" x="1049" y="59.5">Médiateur</text></g></g><g transform="translate(-22,6) scale(1,1)"><path fill="none" stroke="#000000" d="M 1078.5 80 L 1078.5 756" stroke-miterlimit="10" stroke-dasharray="3"></path></g><g transform="translate(-22,6) scale(1,1)"><path fill="none" stroke="#000000" d="M 68 648 L 1195 648 L 1195 784 L 68 784 L 68 648" stroke-miterlimit="10"></path></g><g transform="translate(-22,6) scale(1,1)"><path fill="#ffffff" stroke="none" d="M 68 648 L 68 670 L 212 670 L 223 659 L 223 648 L 68 648"></path></g><g transform="translate(-22,6) scale(1,1)"><path fill="none" stroke="#000000" d="M 68 648 L 68 670 L 212 670 L 223 659 L 223 648 L 68 648 L 68 648" stroke-miterlimit="10"></path></g><g transform="translate(-22,6) scale(1,1)"><g><path fill="none" stroke="none"></path><text fill="#000000" stroke="none" font-family="Arial" font-size="13px" font-style="normal" font-weight="normal" text-decoration="none" x="100" y="665.5">Si aliment inconnu</text></g></g><g transform="translate(-22,6) scale(1,1)"><g><path fill="none" stroke="none"></path><text fill="#000000" stroke="none" font-family="Arial" font-size="13px" font-style="normal" font-weight="bold" text-decoration="none" x="73" y="665.5">seq</text></g></g><g transform="translate(-22,6) scale(1,1)"><path fill="none" stroke="#000000" d="M 89 112 L 308 112" stroke-miterlimit="10"></path></g><g transform="translate(-22,6) scale(1,1)"><path fill="#000000" stroke="none" d="M 297.83732514237585 116.20951775601598 L 308 112 L 297.83732514237585 107.79048224398402"></path></g><g transform="translate(-22,6) scale(1,1)"><path fill="none" stroke="#000000" d="M 297.83732514237585 116.20951775601598 L 308 112 L 297.83732514237585 107.79048224398402 L 297.83732514237585 116.20951775601598" stroke-miterlimit="10"></path></g><g transform="translate(-22,6) scale(1,1)"><g><path fill="none" stroke="none"></path><text fill="#000000" stroke="none" font-family="Arial" font-size="13px" font-style="normal" font-weight="normal" text-decoration="none" x="187" y="109">new</text></g></g><g transform="translate(-22,6) scale(1,1)"><path fill="none" stroke="#000000" d="M 89 132 L 308 132" stroke-miterlimit="10"></path></g><g transform="translate(-22,6) scale(1,1)"><path fill="#000000" stroke="none" d="M 297.83732514237585 136.209517756016 L 308 132 L 297.83732514237585 127.79048224398402"></path></g><g transform="translate(-22,6) scale(1,1)"><path fill="none" stroke="#000000" d="M 297.83732514237585 136.209517756016 L 308 132 L 297.83732514237585 127.79048224398402 L 297.83732514237585 136.209517756016" stroke-miterlimit="10"></path></g><g transform="translate(-22,6) scale(1,1)"><g><path fill="none" stroke="none"></path><text fill="#000000" stroke="none" font-family="Arial" font-size="13px" font-style="normal" font-weight="normal" text-decoration="none" x="135" y="129">DéclancheMenuPhoto</text></g></g><g transform="translate(-22,6) scale(1,1)"><path fill="none" stroke="#000000" d="M 308 140 L 180 140" stroke-miterlimit="10"></path></g><g transform="translate(-22,6) scale(1,1)"><path fill="#000000" stroke="none" d="M 190.16267485762415 135.790482243984 L 180 140 L 190.16267485762415 144.209517756016"></path></g><g transform="translate(-22,6) scale(1,1)"><path fill="none" stroke="#000000" d="M 190.16267485762415 135.790482243984 L 180 140 L 190.16267485762415 144.209517756016 L 190.16267485762415 135.790482243984" stroke-miterlimit="10"></path></g><g transform="translate(-22,6) scale(1,1)"><g><path fill="none" stroke="none"></path><text fill="#000000" stroke="none" font-family="Arial" font-size="13px" font-style="normal" font-weight="normal" text-decoration="none" x="197" y="157">DetecteAppareil</text></g></g><g transform="translate(-22,6) scale(1,1)"><path fill="none" stroke="#000000" d="M 180 180 L 308 180" stroke-miterlimit="10"></path></g><g transform="translate(-22,6) scale(1,1)"><path fill="#000000" stroke="none" d="M 297.83732514237585 184.209517756016 L 308 180 L 297.83732514237585 175.790482243984"></path></g><g transform="translate(-22,6) scale(1,1)"><path fill="none" stroke="#000000" d="M 297.83732514237585 184.209517756016 L 308 180 L 297.83732514237585 175.790482243984 L 297.83732514237585 184.209517756016" stroke-miterlimit="10"></path></g><g transform="translate(-22,6) scale(1,1)"><g><path fill="none" stroke="none"></path><text fill="#000000" stroke="none" font-family="Arial" font-size="13px" font-style="normal" font-weight="normal" text-decoration="none" x="209" y="200">EnvoieImage</text></g></g><g transform="translate(-22,6) scale(1,1)"><path fill="none" stroke="#000000" d="M 308 196 L 424 196" stroke-miterlimit="10"></path></g><g transform="translate(-22,6) scale(1,1)"><path fill="#000000" stroke="none" d="M 413.83732514237585 200.209517756016 L 424 196 L 413.83732514237585 191.790482243984"></path></g><g transform="translate(-22,6) scale(1,1)"><path fill="none" stroke="#000000" d="M 413.83732514237585 200.209517756016 L 424 196 L 413.83732514237585 191.790482243984 L 413.83732514237585 200.209517756016" stroke-miterlimit="10"></path></g><g transform="translate(-22,6) scale(1,1)"><g><path fill="none" stroke="none"></path><text fill="#000000" stroke="none" font-family="Arial" font-size="13px" font-style="normal" font-weight="normal" text-decoration="none" x="355" y="193">new</text></g></g><g transform="translate(-22,6) scale(1,1)"><path fill="none" stroke="#000000" d="M 424 208 L 534 208" stroke-miterlimit="10"></path></g><g transform="translate(-22,6) scale(1,1)"><path fill="#000000" stroke="none" d="M 523.8373251423759 212.209517756016 L 534 208 L 523.8373251423758 203.790482243984"></path></g><g transform="translate(-22,6) scale(1,1)"><path fill="none" stroke="#000000" d="M 523.8373251423759 212.209517756016 L 534 208 L 523.8373251423758 203.790482243984 L 523.8373251423759 212.209517756016" stroke-miterlimit="10"></path></g><g transform="translate(-22,6) scale(1,1)"><g><path fill="none" stroke="none"></path><text fill="#000000" stroke="none" font-family="Arial" font-size="13px" font-style="normal" font-weight="normal" text-decoration="none" x="468" y="205">new</text></g></g><g transform="translate(-22,6) scale(1,1)"><path fill="none" stroke="#000000" d="M 424 240 L 534 240" stroke-miterlimit="10"></path></g><g transform="translate(-22,6) scale(1,1)"><path fill="#000000" stroke="none" d="M 523.8373251423759 244.209517756016 L 534 240 L 523.8373251423758 235.790482243984"></path></g><g transform="translate(-22,6) scale(1,1)"><path fill="none" stroke="#000000" d="M 523.8373251423759 244.209517756016 L 534 240 L 523.8373251423758 235.790482243984 L 523.8373251423759 244.209517756016" stroke-miterlimit="10"></path></g><g transform="translate(-22,6) scale(1,1)"><g><path fill="none" stroke="none"></path><text fill="#000000" stroke="none" font-family="Arial" font-size="13px" font-style="normal" font-weight="normal" text-decoration="none" x="433" y="257">ChercherZone</text></g></g><g transform="translate(-22,6) scale(1,1)"><path fill="none" stroke="#000000" d="M 308 260 L 180 260" stroke-miterlimit="10"></path></g><g transform="translate(-22,6) scale(1,1)"><path fill="#000000" stroke="none" d="M 190.16267485762415 255.790482243984 L 180 260 L 190.16267485762415 264.209517756016"></path></g><g transform="translate(-22,6) scale(1,1)"><path fill="none" stroke="#000000" d="M 190.16267485762415 255.790482243984 L 180 260 L 190.16267485762415 264.209517756016 L 190.16267485762415 255.790482243984" stroke-miterlimit="10"></path></g><g transform="translate(-22,6) scale(1,1)"><g><path fill="none" stroke="none"></path><text fill="#000000" stroke="none" font-family="Arial" font-size="13px" font-style="normal" font-weight="normal" text-decoration="none" x="203" y="277">AfficherZones</text></g></g><g transform="translate(-22,6) scale(1,1)"><rect fill="#ffffff" stroke="none" x="96" y="224" width="531" height="220"></rect></g><g transform="translate(-22,6) scale(1,1)"><path fill="none" stroke="#000000" d="M 96 224 L 627 224 L 627 444 L 96 444 L 96 224 Z Z" stroke-miterlimit="10"></path></g><g transform="translate(-22,6) scale(1,1)"><path fill="none" stroke="#000000" d="M 96 224 L 96 246 L 121 246 L 132 235 L 132 224 L 96 224 L 96 224" stroke-miterlimit="10"></path></g><g transform="translate(-22,6) scale(1,1)"><g><path fill="none" stroke="none"></path><text fill="#000000" stroke="none" font-family="Arial" font-size="13px" font-style="normal" font-weight="normal" text-decoration="none" x="361.5" y="340.5"></text></g></g><g transform="translate(-22,6) scale(1,1)"><g><path fill="none" stroke="none"></path><text fill="#000000" stroke="none" font-family="Arial" font-size="13px" font-style="normal" font-weight="normal" text-decoration="none" x="101" y="241.5">ref</text></g></g><g transform="translate(-22,6) scale(1,1)"><path fill="none" stroke="#000000" d="M 308 304 L 424 304" stroke-miterlimit="10"></path></g><g transform="translate(-22,6) scale(1,1)"><path fill="#000000" stroke="none" d="M 413.83732514237585 308.209517756016 L 424 304 L 413.83732514237585 299.790482243984"></path></g><g transform="translate(-22,6) scale(1,1)"><path fill="none" stroke="#000000" d="M 413.83732514237585 308.209517756016 L 424 304 L 413.83732514237585 299.790482243984 L 413.83732514237585 308.209517756016" stroke-miterlimit="10"></path></g><g transform="translate(-22,6) scale(1,1)"><g><path fill="none" stroke="none"></path><text fill="#000000" stroke="none" font-family="Arial" font-size="13px" font-style="normal" font-weight="normal" text-decoration="none" x="333" y="301">ForcerZone</text></g></g><g transform="translate(-22,6) scale(1,1)"><path fill="none" stroke="#000000" d="M 424 324 L 454 324 L 454 344 L 424 344" stroke-miterlimit="10"></path></g><g transform="translate(-22,6) scale(1,1)"><path fill="#000000" stroke="none" d="M 434.16267485762415 339.790482243984 L 424 344 L 434.16267485762415 348.209517756016"></path></g><g transform="translate(-22,6) scale(1,1)"><path fill="none" stroke="#000000" d="M 434.16267485762415 339.790482243984 L 424 344 L 434.16267485762415 348.209517756016 L 434.16267485762415 339.790482243984" stroke-miterlimit="10"></path></g><g transform="translate(-22,6) scale(1,1)"><g><path fill="none" stroke="none"></path><text fill="#000000" stroke="none" font-family="Arial" font-size="13px" font-style="normal" font-weight="normal" text-decoration="none" x="435" y="321">AjouterZone</text></g></g><g transform="translate(-22,6) scale(1,1)"><path fill="none" stroke="#000000" d="M 308 401 L 424 401" stroke-miterlimit="10"></path></g><g transform="translate(-22,6) scale(1,1)"><path fill="#000000" stroke="none" d="M 413.83732514237585 405.209517756016 L 424 401 L 413.83732514237585 396.790482243984"></path></g><g transform="translate(-22,6) scale(1,1)"><path fill="none" stroke="#000000" d="M 413.83732514237585 405.209517756016 L 424 401 L 413.83732514237585 396.790482243984 L 413.83732514237585 405.209517756016" stroke-miterlimit="10"></path></g><g transform="translate(-22,6) scale(1,1)"><g><path fill="none" stroke="none"></path><text fill="#000000" stroke="none" font-family="Arial" font-size="13px" font-style="normal" font-weight="normal" text-decoration="none" x="321" y="393">SupprimerZones</text></g></g><g transform="translate(-22,6) scale(1,1)"><path fill="none" stroke="#000000" d="M 424 496 L 686 496" stroke-miterlimit="10"></path></g><g transform="translate(-22,6) scale(1,1)"><path fill="#000000" stroke="none" d="M 675.8373251423759 500.209517756016 L 686 496 L 675.8373251423758 491.790482243984"></path></g><g transform="translate(-22,6) scale(1,1)"><path fill="none" stroke="#000000" d="M 675.8373251423759 500.209517756016 L 686 496 L 675.8373251423758 491.790482243984 L 675.8373251423759 500.209517756016" stroke-miterlimit="10"></path></g><g transform="translate(-22,6) scale(1,1)"><g><path fill="none" stroke="none"></path><text fill="#000000" stroke="none" font-family="Arial" font-size="13px" font-style="normal" font-weight="normal" text-decoration="none" x="544" y="493">new</text></g></g><g transform="translate(-22,6) scale(1,1)"><path fill="none" stroke="#000000" d="M 424 504 L 686 504" stroke-miterlimit="10"></path></g><g transform="translate(-22,6) scale(1,1)"><path fill="#000000" stroke="none" d="M 675.8373251423759 508.209517756016 L 686 504 L 675.8373251423758 499.790482243984"></path></g><g transform="translate(-22,6) scale(1,1)"><path fill="none" stroke="#000000" d="M 675.8373251423759 508.209517756016 L 686 504 L 675.8373251423758 499.790482243984 L 675.8373251423759 508.209517756016" stroke-miterlimit="10"></path></g><g transform="translate(-22,6) scale(1,1)"><g><path fill="none" stroke="none"></path><text fill="#000000" stroke="none" font-family="Arial" font-size="13px" font-style="normal" font-weight="normal" text-decoration="none" x="508" y="520">EnvoyerZones</text></g></g><g transform="translate(-22,6) scale(1,1)"><path fill="none" stroke="#000000" d="M 686 508 L 716 508 L 716 528 L 686 528" stroke-miterlimit="10"></path></g><g transform="translate(-22,6) scale(1,1)"><path fill="#000000" stroke="none" d="M 696.1626748576241 523.790482243984 L 686 528 L 696.1626748576241 532.209517756016"></path></g><g transform="translate(-22,6) scale(1,1)"><path fill="none" stroke="#000000" d="M 696.1626748576241 523.790482243984 L 686 528 L 696.1626748576241 532.209517756016 L 696.1626748576241 523.790482243984" stroke-miterlimit="10"></path></g><g transform="translate(-22,6) scale(1,1)"><g><path fill="none" stroke="none"></path><text fill="#000000" stroke="none" font-family="Arial" font-size="13px" font-style="normal" font-weight="normal" text-decoration="none" x="731" y="525">IdentifieAliments</text></g></g><g transform="translate(-22,6) scale(1,1)"><path fill="none" stroke="#000000" d="M 686 577 L 823 577" stroke-miterlimit="10"></path></g><g transform="translate(-22,6) scale(1,1)"><path fill="#000000" stroke="none" d="M 812.8373251423759 581.209517756016 L 823 577 L 812.8373251423758 572.790482243984"></path></g><g transform="translate(-22,6) scale(1,1)"><path fill="none" stroke="#000000" d="M 812.8373251423759 581.209517756016 L 823 577 L 812.8373251423758 572.790482243984 L 812.8373251423759 581.209517756016" stroke-miterlimit="10"></path></g><g transform="translate(-22,6) scale(1,1)"><g><path fill="none" stroke="none"></path><text fill="#000000" stroke="none" font-family="Arial" font-size="13px" font-style="normal" font-weight="normal" text-decoration="none" x="723" y="573">TrouveAlimentsPhoto</text></g></g><g transform="translate(-22,6) scale(1,1)"><path fill="none" stroke="#000000" d="M 823 596 L 948 596" stroke-miterlimit="10"></path></g><g transform="translate(-22,6) scale(1,1)"><path fill="#000000" stroke="none" d="M 937.8373251423759 600.209517756016 L 948 596 L 937.8373251423758 591.790482243984"></path></g><g transform="translate(-22,6) scale(1,1)"><path fill="none" stroke="#000000" d="M 937.8373251423759 600.209517756016 L 948 596 L 937.8373251423758 591.790482243984 L 937.8373251423759 600.209517756016" stroke-miterlimit="10"></path></g><g transform="translate(-22,6) scale(1,1)"><g><path fill="none" stroke="none"></path><text fill="#000000" stroke="none" font-family="Arial" font-size="13px" font-style="normal" font-weight="normal" text-decoration="none" x="846" y="593">TrouveAliments</text></g></g><g transform="translate(-22,6) scale(1,1)"><path fill="none" stroke="#000000" d="M 948 608 L 978 608 L 978 628 L 948 628" stroke-miterlimit="10"></path></g><g transform="translate(-22,6) scale(1,1)"><path fill="#000000" stroke="none" d="M 958.1626748576241 623.790482243984 L 948 628 L 958.1626748576241 632.209517756016"></path></g><g transform="translate(-22,6) scale(1,1)"><path fill="none" stroke="#000000" d="M 958.1626748576241 623.790482243984 L 948 628 L 958.1626748576241 632.209517756016 L 958.1626748576241 623.790482243984" stroke-miterlimit="10"></path></g><g transform="translate(-22,6) scale(1,1)"><g><path fill="none" stroke="none"></path><text fill="#000000" stroke="none" font-family="Arial" font-size="13px" font-style="normal" font-weight="normal" text-decoration="none" x="966" y="605">RechercheBD</text></g></g><g transform="translate(-22,6) scale(1,1)"><path fill="none" stroke="#000000" d="M 948 677 L 1078 677" stroke-miterlimit="10"></path></g><g transform="translate(-22,6) scale(1,1)"><path fill="#000000" stroke="none" d="M 1067.837325142376 681.209517756016 L 1078 677 L 1067.837325142376 672.790482243984"></path></g><g transform="translate(-22,6) scale(1,1)"><path fill="none" stroke="#000000" d="M 1067.837325142376 681.209517756016 L 1078 677 L 1067.837325142376 672.790482243984 L 1067.837325142376 681.209517756016" stroke-miterlimit="10"></path></g><g transform="translate(-22,6) scale(1,1)"><g><path fill="none" stroke="none"></path><text fill="#000000" stroke="none" font-family="Arial" font-size="13px" font-style="normal" font-weight="normal" text-decoration="none" x="1002" y="674">new</text></g></g><g transform="translate(-22,6) scale(1,1)"><path fill="none" stroke="#000000" d="M 1078 684 L 1108 684 L 1108 704 L 1078 704" stroke-miterlimit="10"></path></g><g transform="translate(-22,6) scale(1,1)"><path fill="#000000" stroke="none" d="M 1088.162674857624 699.790482243984 L 1078 704 L 1088.162674857624 708.209517756016"></path></g><g transform="translate(-22,6) scale(1,1)"><path fill="none" stroke="#000000" d="M 1088.162674857624 699.790482243984 L 1078 704 L 1088.162674857624 708.209517756016 L 1088.162674857624 699.790482243984" stroke-miterlimit="10"></path></g><g transform="translate(-22,6) scale(1,1)"><g><path fill="none" stroke="none"></path><text fill="#000000" stroke="none" font-family="Arial" font-size="13px" font-style="normal" font-weight="normal" text-decoration="none" x="1086" y="677">RechercheCompromis</text></g></g><g transform="translate(-22,6) scale(1,1)"><path fill="none" stroke="#000000" d="M 1078 728 L 948 728" stroke-miterlimit="10"></path></g><g transform="translate(-22,6) scale(1,1)"><path fill="#000000" stroke="none" d="M 958.1626748576241 723.790482243984 L 948 728 L 958.1626748576241 732.209517756016"></path></g><g transform="translate(-22,6) scale(1,1)"><path fill="none" stroke="#000000" d="M 958.1626748576241 723.790482243984 L 948 728 L 958.1626748576241 732.209517756016 L 958.1626748576241 723.790482243984" stroke-miterlimit="10"></path></g><g transform="translate(-22,6) scale(1,1)"><g><path fill="none" stroke="none"></path><text fill="#000000" stroke="none" font-family="Arial" font-size="13px" font-style="normal" font-weight="normal" text-decoration="none" x="971" y="745">EnvoyerErreur</text></g></g><g transform="translate(-22,6) scale(1,1)"><path fill="none" stroke="#000000" d="M 948 748 L 89 748" stroke-miterlimit="10"></path></g><g transform="translate(-22,6) scale(1,1)"><path fill="#000000" stroke="none" d="M 99.16267485762415 743.790482243984 L 89 748 L 99.16267485762415 752.209517756016"></path></g><g transform="translate(-22,6) scale(1,1)"><path fill="none" stroke="#000000" d="M 99.16267485762415 743.790482243984 L 89 748 L 99.16267485762415 752.209517756016 L 99.16267485762415 743.790482243984" stroke-miterlimit="10"></path></g><g transform="translate(-22,6) scale(1,1)"><g><path fill="none" stroke="none"></path><text fill="#000000" stroke="none" font-family="Arial" font-size="13px" font-style="normal" font-weight="normal" text-decoration="none" x="477" y="765">GestionErreur</text></g></g><g transform="translate(-22,6) scale(1,1)"><path fill="none" stroke="#000000" d="M 686 832 L 1206 832" stroke-miterlimit="10"></path></g><g transform="translate(-22,6) scale(1,1)"><path fill="#000000" stroke="none" d="M 1195.837325142376 836.209517756016 L 1206 832 L 1195.837325142376 827.790482243984"></path></g><g transform="translate(-22,6) scale(1,1)"><path fill="none" stroke="#000000" d="M 1195.837325142376 836.209517756016 L 1206 832 L 1195.837325142376 827.790482243984 L 1195.837325142376 836.209517756016" stroke-miterlimit="10"></path></g><g transform="translate(-22,6) scale(1,1)"><g><path fill="none" stroke="none"></path><text fill="#000000" stroke="none" font-family="Arial" font-size="13px" font-style="normal" font-weight="normal" text-decoration="none" x="897" y="829">EnvoyerAliments</text></g></g></g></svg>