<svg version="1.1" xmlns="http://www.w3.org/2000/svg" xmlns:xlink="http://www.w3.org/1999/xlink" width="1000" height="964"><defs></defs><g><g transform="translate(-102,-54) scale(1,1)"><path fill="none" stroke="#000000" d="M 112 64 L 1092 64 L 1092 1008 L 112 1008 L 112 64" stroke-miterlimit="10"></path></g><g transform="translate(-102,-54) scale(1,1)"><path fill="#ffffff" stroke="none" d="M 112 64 L 112 86 L 299 86 L 310 75 L 310 64 L 112 64"></path></g><g transform="translate(-102,-54) scale(1,1)"><path fill="none" stroke="#000000" d="M 112 64 L 112 86 L 299 86 L 310 75 L 310 64 L 112 64 L 112 64" stroke-miterlimit="10"></path></g><g transform="translate(-102,-54) scale(1,1)"><g><path fill="none" stroke="none"></path><text fill="#000000" stroke="none" font-family="Arial" font-size="13px" font-style="normal" font-weight="normal" text-decoration="none" x="183" y="81.5">AjoutAlimentGlobal</text></g></g><g transform="translate(-102,-54) scale(1,1)"><g><path fill="none" stroke="none"></path><text fill="#000000" stroke="none" font-family="Arial" font-size="13px" font-style="normal" font-weight="bold" text-decoration="none" x="117" y="81.5">interaction</text></g></g><g transform="translate(-102,-54) scale(1,1)"><rect fill="#C0C0C0" stroke="none" x="207" y="47" width="85" height="39" opacity="0.2"></rect></g><g transform="translate(-102,-54) scale(1,1)"><rect fill="#ffffff" stroke="none" x="200" y="40" width="85" height="39"></rect></g><g transform="translate(-102,-54) scale(1,1)"><path fill="none" stroke="#000000" d="M 200 40 L 285 40 L 285 79 L 200 79 L 200 40 Z Z" stroke-miterlimit="10"></path></g><g transform="translate(-102,-54) scale(1,1)"><g><path fill="none" stroke="none"></path><text fill="#000000" stroke="none" font-family="Arial" font-size="13px" font-style="normal" font-weight="bold" text-decoration="none" x="213" y="59.5">Controleur</text></g></g><g transform="translate(-102,-54) scale(1,1)"><path fill="none" stroke="#000000" d="M 243.5 80 L 243.5 936" stroke-miterlimit="10" stroke-dasharray="3"></path></g><g transform="translate(-102,-54) scale(1,1)"><rect fill="#C0C0C0" stroke="none" x="303" y="47" width="142" height="39" opacity="0.2"></rect></g><g transform="translate(-102,-54) scale(1,1)"><rect fill="#ffffff" stroke="none" x="296" y="40" width="142" height="39"></rect></g><g transform="translate(-102,-54) scale(1,1)"><path fill="none" stroke="#000000" d="M 296 40 L 438 40 L 438 79 L 296 79 L 296 40 Z Z" stroke-miterlimit="10"></path></g><g transform="translate(-102,-54) scale(1,1)"><g><path fill="none" stroke="none"></path><text fill="#000000" stroke="none" font-family="Arial" font-size="13px" font-style="normal" font-weight="bold" text-decoration="none" x="310.5" y="59.5">SuperviseurAliment</text></g></g><g transform="translate(-102,-54) scale(1,1)"><path fill="none" stroke="#000000" d="M 368.5 80 L 368.5 936" stroke-miterlimit="10" stroke-dasharray="3"></path></g><g transform="translate(-102,-54) scale(1,1)"><rect fill="#C0C0C0" stroke="none" x="459" y="47" width="175" height="39" opacity="0.2"></rect></g><g transform="translate(-102,-54) scale(1,1)"><rect fill="#ffffff" stroke="none" x="452" y="40" width="175" height="39"></rect></g><g transform="translate(-102,-54) scale(1,1)"><path fill="none" stroke="#000000" d="M 452 40 L 627 40 L 627 79 L 452 79 L 452 40 Z Z" stroke-miterlimit="10"></path></g><g transform="translate(-102,-54) scale(1,1)"><g><path fill="none" stroke="none"></path><text fill="#000000" stroke="none" font-family="Arial" font-size="13px" font-style="normal" font-weight="bold" text-decoration="none" x="466.5" y="59.5">MoteurRechercheAliment</text></g></g><g transform="translate(-102,-54) scale(1,1)"><path fill="none" stroke="#000000" d="M 540.5 80 L 540.5 936" stroke-miterlimit="10" stroke-dasharray="3"></path></g><g transform="translate(-102,-54) scale(1,1)"><rect fill="#C0C0C0" stroke="none" x="651" y="47" width="80" height="39" opacity="0.2"></rect></g><g transform="translate(-102,-54) scale(1,1)"><rect fill="#ffffff" stroke="none" x="644" y="40" width="80" height="39"></rect></g><g transform="translate(-102,-54) scale(1,1)"><path fill="none" stroke="#000000" d="M 644 40 L 724 40 L 724 79 L 644 79 L 644 40 Z Z" stroke-miterlimit="10"></path></g><g transform="translate(-102,-54) scale(1,1)"><g><path fill="none" stroke="none"></path><text fill="#000000" stroke="none" font-family="Arial" font-size="13px" font-style="normal" font-weight="bold" text-decoration="none" x="655.5" y="59.5">Médiateur</text></g></g><g transform="translate(-102,-54) scale(1,1)"><path fill="none" stroke="#000000" d="M 685.5 80 L 685.5 936" stroke-miterlimit="10" stroke-dasharray="3"></path></g><g transform="translate(-102,-54) scale(1,1)"><rect fill="#C0C0C0" stroke="none" x="831" y="47" width="67" height="39" opacity="0.2"></rect></g><g transform="translate(-102,-54) scale(1,1)"><rect fill="#ffffff" stroke="none" x="824" y="40" width="67" height="39"></rect></g><g transform="translate(-102,-54) scale(1,1)"><path fill="none" stroke="#000000" d="M 824 40 L 891 40 L 891 79 L 824 79 L 824 40 Z Z" stroke-miterlimit="10"></path></g><g transform="translate(-102,-54) scale(1,1)"><g><path fill="none" stroke="none"></path><text fill="#000000" stroke="none" font-family="Arial" font-size="13px" font-style="normal" font-weight="bold" text-decoration="none" x="835.5" y="59.5">Aliment</text></g></g><g transform="translate(-102,-54) scale(1,1)"><path fill="none" stroke="#000000" d="M 858.5 80 L 858.5 936" stroke-miterlimit="10" stroke-dasharray="3"></path></g><g transform="translate(-102,-54) scale(1,1)"><rect fill="#C0C0C0" stroke="none" x="751" y="47" width="63" height="39" opacity="0.2"></rect></g><g transform="translate(-102,-54) scale(1,1)"><rect fill="#ffffff" stroke="none" x="744" y="40" width="63" height="39"></rect></g><g transform="translate(-102,-54) scale(1,1)"><path fill="none" stroke="#000000" d="M 744 40 L 807 40 L 807 79 L 744 79 L 744 40 Z Z" stroke-miterlimit="10"></path></g><g transform="translate(-102,-54) scale(1,1)"><g><path fill="none" stroke="none"></path><text fill="#000000" stroke="none" font-family="Arial" font-size="13px" font-style="normal" font-weight="bold" text-decoration="none" x="755.5" y="59.5">Épicier</text></g></g><g transform="translate(-102,-54) scale(1,1)"><path fill="none" stroke="#000000" d="M 776.5 80 L 776.5 936" stroke-miterlimit="10" stroke-dasharray="3"></path></g><g transform="translate(-102,-54) scale(1,1)"><rect fill="#C0C0C0" stroke="none" x="915" y="47" width="95" height="39" opacity="0.2"></rect></g><g transform="translate(-102,-54) scale(1,1)"><rect fill="#ffffff" stroke="none" x="908" y="40" width="95" height="39"></rect></g><g transform="translate(-102,-54) scale(1,1)"><path fill="none" stroke="#000000" d="M 908 40 L 1003 40 L 1003 79 L 908 79 L 908 40 Z Z" stroke-miterlimit="10"></path></g><g transform="translate(-102,-54) scale(1,1)"><g><path fill="none" stroke="none"></path><text fill="#000000" stroke="none" font-family="Arial" font-size="13px" font-style="normal" font-weight="bold" text-decoration="none" x="921" y="59.5">Nutritioniste</text></g></g><g transform="translate(-102,-54) scale(1,1)"><path fill="none" stroke="#000000" d="M 956.5 80 L 956.5 936" stroke-miterlimit="10" stroke-dasharray="3"></path></g><g transform="translate(-102,-54) scale(1,1)"><path fill="#ffffff" stroke="none" d="M 524 192 L 616 192 L 626 202 L 626 260 L 524 260 L 524 192"></path></g><g transform="translate(-102,-54) scale(1,1)"><path fill="none" stroke="#000000" d="M 524 192 L 616 192 L 626 202 L 626 260 L 524 260 L 524 192 L 524 192" stroke-miterlimit="10"></path></g><g transform="translate(-102,-54) scale(1,1)"><path fill="none" stroke="#000000" d="M 616 192 L 616 202 L 626 202 L 616 192" stroke-miterlimit="10"></path></g><g transform="translate(-102,-54) scale(1,1)"><g><path fill="none" stroke="none"></path><text fill="#000000" stroke="none" font-family="Arial" font-size="13px" font-style="normal" font-weight="normal" text-decoration="none" x="529" y="210">Identifie les</text></g></g><g transform="translate(-102,-54) scale(1,1)"><g><path fill="none" stroke="none"></path><text fill="#000000" stroke="none" font-family="Arial" font-size="13px" font-style="normal" font-weight="normal" text-decoration="none" x="529" y="225">aliments selon</text></g></g><g transform="translate(-102,-54) scale(1,1)"><g><path fill="none" stroke="none"></path><text fill="#000000" stroke="none" font-family="Arial" font-size="13px" font-style="normal" font-weight="normal" text-decoration="none" x="529" y="240">une technique</text></g></g><g transform="translate(-102,-54) scale(1,1)"><g><path fill="none" stroke="none"></path><text fill="#000000" stroke="none" font-family="Arial" font-size="13px" font-style="normal" font-weight="normal" text-decoration="none" x="529" y="255">choisie</text></g></g><g transform="translate(-102,-54) scale(1,1)"><path fill="none" stroke="#000000" d="M 243 196 L 273 196 L 273 216 L 243 216" stroke-miterlimit="10"></path></g><g transform="translate(-102,-54) scale(1,1)"><path fill="#000000" stroke="none" d="M 253.16267485762415 211.790482243984 L 243 216 L 253.16267485762415 220.209517756016"></path></g><g transform="translate(-102,-54) scale(1,1)"><path fill="none" stroke="#000000" d="M 253.16267485762415 211.790482243984 L 243 216 L 253.16267485762415 220.209517756016 L 253.16267485762415 211.790482243984" stroke-miterlimit="10"></path></g><g transform="translate(-102,-54) scale(1,1)"><g><path fill="none" stroke="none"></path><text fill="#000000" stroke="none" font-family="Arial" font-size="13px" font-style="normal" font-weight="normal" text-decoration="none" x="203" y="212">                  SelectionChoix</text></g></g><g transform="translate(-102,-54) scale(1,1)"><path fill="none" stroke="#000000" d="M 243 236 L 368 236" stroke-miterlimit="10"></path></g><g transform="translate(-102,-54) scale(1,1)"><path fill="#000000" stroke="none" d="M 357.83732514237585 240.209517756016 L 368 236 L 357.83732514237585 231.790482243984"></path></g><g transform="translate(-102,-54) scale(1,1)"><path fill="none" stroke="#000000" d="M 357.83732514237585 240.209517756016 L 368 236 L 357.83732514237585 231.790482243984 L 357.83732514237585 240.209517756016" stroke-miterlimit="10"></path></g><g transform="translate(-102,-54) scale(1,1)"><g><path fill="none" stroke="none"></path><text fill="#000000" stroke="none" font-family="Arial" font-size="13px" font-style="normal" font-weight="normal" text-decoration="none" x="294" y="233">new</text></g></g><g transform="translate(-102,-54) scale(1,1)"><path fill="none" stroke="#000000" d="M 368 248 L 398 248 L 398 268 L 368 268" stroke-miterlimit="10"></path></g><g transform="translate(-102,-54) scale(1,1)"><path fill="#000000" stroke="none" d="M 378.16267485762415 263.790482243984 L 368 268 L 378.16267485762415 272.209517756016"></path></g><g transform="translate(-102,-54) scale(1,1)"><path fill="none" stroke="#000000" d="M 378.16267485762415 263.790482243984 L 368 268 L 378.16267485762415 272.209517756016 L 378.16267485762415 263.790482243984" stroke-miterlimit="10"></path></g><g transform="translate(-102,-54) scale(1,1)"><g><path fill="none" stroke="none"></path><text fill="#000000" stroke="none" font-family="Arial" font-size="13px" font-style="normal" font-weight="normal" text-decoration="none" x="384" y="247">IdentificationAliment</text></g></g><g transform="translate(-102,-54) scale(1,1)"><path fill="none" stroke="#000000" d="M 368 285 L 540 285" stroke-miterlimit="10"></path></g><g transform="translate(-102,-54) scale(1,1)"><path fill="#000000" stroke="none" d="M 529.8373251423759 289.209517756016 L 540 285 L 529.8373251423758 280.790482243984"></path></g><g transform="translate(-102,-54) scale(1,1)"><path fill="none" stroke="#000000" d="M 529.8373251423759 289.209517756016 L 540 285 L 529.8373251423758 280.790482243984 L 529.8373251423759 289.209517756016" stroke-miterlimit="10"></path></g><g transform="translate(-102,-54) scale(1,1)"><g><path fill="none" stroke="none"></path><text fill="#000000" stroke="none" font-family="Arial" font-size="13px" font-style="normal" font-weight="normal" text-decoration="none" x="389" y="282">VérifieCorrespondance</text></g></g><g transform="translate(-102,-54) scale(1,1)"><path fill="none" stroke="#000000" d="M 540 304 L 570 304 L 570 324 L 540 324" stroke-miterlimit="10"></path></g><g transform="translate(-102,-54) scale(1,1)"><path fill="#000000" stroke="none" d="M 550.1626748576241 319.790482243984 L 540 324 L 550.1626748576241 328.209517756016"></path></g><g transform="translate(-102,-54) scale(1,1)"><path fill="none" stroke="#000000" d="M 550.1626748576241 319.790482243984 L 540 324 L 550.1626748576241 328.209517756016 L 550.1626748576241 319.790482243984" stroke-miterlimit="10"></path></g><g transform="translate(-102,-54) scale(1,1)"><g><path fill="none" stroke="none"></path><text fill="#000000" stroke="none" font-family="Arial" font-size="13px" font-style="normal" font-weight="normal" text-decoration="none" x="501" y="320">RechercheCorrespondance</text></g></g><g transform="translate(-102,-54) scale(1,1)"><path fill="none" stroke="#000000" d="M 540 384 L 685 384" stroke-miterlimit="10"></path></g><g transform="translate(-102,-54) scale(1,1)"><path fill="#000000" stroke="none" d="M 674.8373251423759 388.209517756016 L 685 384 L 674.8373251423758 379.790482243984"></path></g><g transform="translate(-102,-54) scale(1,1)"><path fill="none" stroke="#000000" d="M 674.8373251423759 388.209517756016 L 685 384 L 674.8373251423758 379.790482243984 L 674.8373251423759 388.209517756016" stroke-miterlimit="10"></path></g><g transform="translate(-102,-54) scale(1,1)"><g><path fill="none" stroke="none"></path><text fill="#000000" stroke="none" font-family="Arial" font-size="13px" font-style="normal" font-weight="normal" text-decoration="none" x="552" y="381">DemandeCompromis</text></g></g><g transform="translate(-102,-54) scale(1,1)"><path fill="none" stroke="#000000" d="M 685 392 L 715 392 L 715 412 L 685 412" stroke-miterlimit="10"></path></g><g transform="translate(-102,-54) scale(1,1)"><path fill="#000000" stroke="none" d="M 695.1626748576241 407.790482243984 L 685 412 L 695.1626748576241 416.209517756016"></path></g><g transform="translate(-102,-54) scale(1,1)"><path fill="none" stroke="#000000" d="M 695.1626748576241 407.790482243984 L 685 412 L 695.1626748576241 416.209517756016 L 695.1626748576241 407.790482243984" stroke-miterlimit="10"></path></g><g transform="translate(-102,-54) scale(1,1)"><g><path fill="none" stroke="none"></path><text fill="#000000" stroke="none" font-family="Arial" font-size="13px" font-style="normal" font-weight="normal" text-decoration="none" x="710" y="431">ChercheCompromis</text></g></g><g transform="translate(-102,-54) scale(1,1)"><path fill="none" stroke="#000000" d="M 685 439 L 540 439" stroke-miterlimit="10"></path></g><g transform="translate(-102,-54) scale(1,1)"><path fill="#000000" stroke="none" d="M 550.1626748576241 434.790482243984 L 540 439 L 550.1626748576241 443.209517756016"></path></g><g transform="translate(-102,-54) scale(1,1)"><path fill="none" stroke="#000000" d="M 550.1626748576241 434.790482243984 L 540 439 L 550.1626748576241 443.209517756016 L 550.1626748576241 434.790482243984" stroke-miterlimit="10"></path></g><g transform="translate(-102,-54) scale(1,1)"><g><path fill="none" stroke="none"></path><text fill="#000000" stroke="none" font-family="Arial" font-size="13px" font-style="normal" font-weight="normal" text-decoration="none" x="558" y="456">EnvoieCompromis</text></g></g><g transform="translate(-102,-54) scale(1,1)"><path fill="none" stroke="#000000" d="M 540 464 L 368 464" stroke-miterlimit="10"></path></g><g transform="translate(-102,-54) scale(1,1)"><path fill="#000000" stroke="none" d="M 378.16267485762415 459.790482243984 L 368 464 L 378.16267485762415 468.209517756016"></path></g><g transform="translate(-102,-54) scale(1,1)"><path fill="none" stroke="#000000" d="M 378.16267485762415 459.790482243984 L 368 464 L 378.16267485762415 468.209517756016 L 378.16267485762415 459.790482243984" stroke-miterlimit="10"></path></g><g transform="translate(-102,-54) scale(1,1)"><g><path fill="none" stroke="none"></path><text fill="#000000" stroke="none" font-family="Arial" font-size="13px" font-style="normal" font-weight="normal" text-decoration="none" x="406" y="481">EnvoieRésultats</text></g></g><g transform="translate(-102,-54) scale(1,1)"><path fill="none" stroke="#000000" d="M 368 484 L 243 484" stroke-miterlimit="10"></path></g><g transform="translate(-102,-54) scale(1,1)"><path fill="#000000" stroke="none" d="M 253.16267485762415 479.790482243984 L 243 484 L 253.16267485762415 488.209517756016"></path></g><g transform="translate(-102,-54) scale(1,1)"><path fill="none" stroke="#000000" d="M 253.16267485762415 479.790482243984 L 243 484 L 253.16267485762415 488.209517756016 L 253.16267485762415 479.790482243984" stroke-miterlimit="10"></path></g><g transform="translate(-102,-54) scale(1,1)"><g><path fill="none" stroke="none"></path><text fill="#000000" stroke="none" font-family="Arial" font-size="13px" font-style="normal" font-weight="normal" text-decoration="none" x="237" y="501">LanceAlerteCompromis</text></g></g><g transform="translate(-102,-54) scale(1,1)"><path fill="none" stroke="#000000" d="M 540 540 L 368 540" stroke-miterlimit="10"></path></g><g transform="translate(-102,-54) scale(1,1)"><path fill="#000000" stroke="none" d="M 378.16267485762415 535.790482243984 L 368 540 L 378.16267485762415 544.209517756016"></path></g><g transform="translate(-102,-54) scale(1,1)"><path fill="none" stroke="#000000" d="M 378.16267485762415 535.790482243984 L 368 540 L 378.16267485762415 544.209517756016 L 378.16267485762415 535.790482243984" stroke-miterlimit="10"></path></g><g transform="translate(-102,-54) scale(1,1)"><g><path fill="none" stroke="none"></path><text fill="#000000" stroke="none" font-family="Arial" font-size="13px" font-style="normal" font-weight="normal" text-decoration="none" x="406" y="557">EnvoieRésultats</text></g></g><g transform="translate(-102,-54) scale(1,1)"><path fill="none" stroke="#000000" d="M 368 576 L 776 576" stroke-miterlimit="10"></path></g><g transform="translate(-102,-54) scale(1,1)"><path fill="#000000" stroke="none" d="M 765.8373251423759 580.209517756016 L 776 576 L 765.8373251423758 571.790482243984"></path></g><g transform="translate(-102,-54) scale(1,1)"><path fill="none" stroke="#000000" d="M 765.8373251423759 580.209517756016 L 776 576 L 765.8373251423758 571.790482243984 L 765.8373251423759 580.209517756016" stroke-miterlimit="10"></path></g><g transform="translate(-102,-54) scale(1,1)"><g><path fill="none" stroke="none"></path><text fill="#000000" stroke="none" font-family="Arial" font-size="13px" font-style="normal" font-weight="normal" text-decoration="none" x="513" y="573">EnvoieListeAliments</text></g></g><g transform="translate(-102,-54) scale(1,1)"><path fill="none" stroke="#000000" d="M 776 596 L 858 596" stroke-miterlimit="10"></path></g><g transform="translate(-102,-54) scale(1,1)"><path fill="#000000" stroke="none" d="M 847.8373251423759 600.209517756016 L 858 596 L 847.8373251423758 591.790482243984"></path></g><g transform="translate(-102,-54) scale(1,1)"><path fill="none" stroke="#000000" d="M 847.8373251423759 600.209517756016 L 858 596 L 847.8373251423758 591.790482243984 L 847.8373251423759 600.209517756016" stroke-miterlimit="10"></path></g><g transform="translate(-102,-54) scale(1,1)"><g><path fill="none" stroke="none"></path><text fill="#000000" stroke="none" font-family="Arial" font-size="13px" font-style="normal" font-weight="normal" text-decoration="none" x="806" y="593">new</text></g></g><g transform="translate(-102,-54) scale(1,1)"><path fill="none" stroke="#000000" d="M 776 684 L 243 684" stroke-miterlimit="10"></path></g><g transform="translate(-102,-54) scale(1,1)"><path fill="#000000" stroke="none" d="M 253.16267485762415 679.790482243984 L 243 684 L 253.16267485762415 688.209517756016"></path></g><g transform="translate(-102,-54) scale(1,1)"><path fill="none" stroke="#000000" d="M 253.16267485762415 679.790482243984 L 243 684 L 253.16267485762415 688.209517756016 L 253.16267485762415 679.790482243984" stroke-miterlimit="10"></path></g><g transform="translate(-102,-54) scale(1,1)"><g><path fill="none" stroke="none"></path><text fill="#000000" stroke="none" font-family="Arial" font-size="13px" font-style="normal" font-weight="normal" text-decoration="none" x="423" y="701">LanceAlerteAlimentIncomplet</text></g></g><g transform="translate(-102,-54) scale(1,1)"><path fill="none" stroke="#000000" d="M 243 700 L 273 700 L 273 720 L 243 720" stroke-miterlimit="10"></path></g><g transform="translate(-102,-54) scale(1,1)"><path fill="#000000" stroke="none" d="M 253.16267485762415 715.790482243984 L 243 720 L 253.16267485762415 724.209517756016"></path></g><g transform="translate(-102,-54) scale(1,1)"><path fill="none" stroke="#000000" d="M 253.16267485762415 715.790482243984 L 243 720 L 253.16267485762415 724.209517756016 L 253.16267485762415 715.790482243984" stroke-miterlimit="10"></path></g><g transform="translate(-102,-54) scale(1,1)"><g><path fill="none" stroke="none"></path><text fill="#000000" stroke="none" font-family="Arial" font-size="13px" font-style="normal" font-weight="normal" text-decoration="none" x="255" y="717">     DemandeInfosAliment</text></g></g><g transform="translate(-102,-54) scale(1,1)"><path fill="none" stroke="#000000" d="M 243 742 L 776 742" stroke-miterlimit="10"></path></g><g transform="translate(-102,-54) scale(1,1)"><path fill="#000000" stroke="none" d="M 765.8373251423759 746.209517756016 L 776 742 L 765.8373251423758 737.790482243984"></path></g><g transform="translate(-102,-54) scale(1,1)"><path fill="none" stroke="#000000" d="M 765.8373251423759 746.209517756016 L 776 742 L 765.8373251423758 737.790482243984 L 765.8373251423759 746.209517756016" stroke-miterlimit="10"></path></g><g transform="translate(-102,-54) scale(1,1)"><g><path fill="none" stroke="none"></path><text fill="#000000" stroke="none" font-family="Arial" font-size="13px" font-style="normal" font-weight="normal" text-decoration="none" x="475" y="739">EnvoieInfos</text></g></g><g transform="translate(-102,-54) scale(1,1)"><path fill="none" stroke="#000000" d="M 776 760 L 858 760" stroke-miterlimit="10"></path></g><g transform="translate(-102,-54) scale(1,1)"><path fill="#000000" stroke="none" d="M 847.8373251423759 764.209517756016 L 858 760 L 847.8373251423758 755.790482243984"></path></g><g transform="translate(-102,-54) scale(1,1)"><path fill="none" stroke="#000000" d="M 847.8373251423759 764.209517756016 L 858 760 L 847.8373251423758 755.790482243984 L 847.8373251423759 764.209517756016" stroke-miterlimit="10"></path></g><g transform="translate(-102,-54) scale(1,1)"><g><path fill="none" stroke="none"></path><text fill="#000000" stroke="none" font-family="Arial" font-size="13px" font-style="normal" font-weight="normal" text-decoration="none" x="768" y="757">ComplèteAliment</text></g></g><g transform="translate(-102,-54) scale(1,1)"><path fill="none" stroke="#000000" d="M 776 824 L 243 824" stroke-miterlimit="10"></path></g><g transform="translate(-102,-54) scale(1,1)"><path fill="#000000" stroke="none" d="M 253.16267485762415 819.790482243984 L 243 824 L 253.16267485762415 828.209517756016"></path></g><g transform="translate(-102,-54) scale(1,1)"><path fill="none" stroke="#000000" d="M 253.16267485762415 819.790482243984 L 243 824 L 253.16267485762415 828.209517756016 L 253.16267485762415 819.790482243984" stroke-miterlimit="10"></path></g><g transform="translate(-102,-54) scale(1,1)"><g><path fill="none" stroke="none"></path><text fill="#000000" stroke="none" font-family="Arial" font-size="13px" font-style="normal" font-weight="normal" text-decoration="none" x="445" y="841">LanceAlerteValidation</text></g></g><g transform="translate(-102,-54) scale(1,1)"><path fill="none" stroke="#000000" d="M 243 844 L 273 844 L 273 864 L 243 864" stroke-miterlimit="10"></path></g><g transform="translate(-102,-54) scale(1,1)"><path fill="#000000" stroke="none" d="M 253.16267485762415 859.790482243984 L 243 864 L 253.16267485762415 868.209517756016"></path></g><g transform="translate(-102,-54) scale(1,1)"><path fill="none" stroke="#000000" d="M 253.16267485762415 859.790482243984 L 243 864 L 253.16267485762415 868.209517756016 L 253.16267485762415 859.790482243984" stroke-miterlimit="10"></path></g><g transform="translate(-102,-54) scale(1,1)"><g><path fill="none" stroke="none"></path><text fill="#000000" stroke="none" font-family="Arial" font-size="13px" font-style="normal" font-weight="normal" text-decoration="none" x="176" y="860">                         DemandeValidation</text></g></g><g transform="translate(-102,-54) scale(1,1)"><path fill="none" stroke="#000000" d="M 243 920 L 776 920" stroke-miterlimit="10"></path></g><g transform="translate(-102,-54) scale(1,1)"><path fill="#000000" stroke="none" d="M 765.8373251423759 924.209517756016 L 776 920 L 765.8373251423758 915.790482243984"></path></g><g transform="translate(-102,-54) scale(1,1)"><path fill="none" stroke="#000000" d="M 765.8373251423759 924.209517756016 L 776 920 L 765.8373251423758 915.790482243984 L 765.8373251423759 924.209517756016" stroke-miterlimit="10"></path></g><g transform="translate(-102,-54) scale(1,1)"><g><path fill="none" stroke="none"></path><text fill="#000000" stroke="none" font-family="Arial" font-size="13px" font-style="normal" font-weight="normal" text-decoration="none" x="455" y="917">ConfirmeValidation</text></g></g><g transform="translate(-102,-54) scale(1,1)"><path fill="none" stroke="#000000" d="M 776 936 L 956 936" stroke-miterlimit="10"></path></g><g transform="translate(-102,-54) scale(1,1)"><path fill="#000000" stroke="none" d="M 945.8373251423759 940.209517756016 L 956 936 L 945.8373251423758 931.790482243984"></path></g><g transform="translate(-102,-54) scale(1,1)"><path fill="none" stroke="#000000" d="M 945.8373251423759 940.209517756016 L 956 936 L 945.8373251423758 931.790482243984 L 945.8373251423759 940.209517756016" stroke-miterlimit="10"></path></g><g transform="translate(-102,-54) scale(1,1)"><g><path fill="none" stroke="none"></path><text fill="#000000" stroke="none" font-family="Arial" font-size="13px" font-style="normal" font-weight="normal" text-decoration="none" x="807" y="933">EnvoieListeAliments</text></g></g><g transform="translate(-102,-54) scale(1,1)"><path fill="none" stroke="#000000" d="M 776 936 L 956 936" stroke-miterlimit="10"></path></g><g transform="translate(-102,-54) scale(1,1)"><path fill="#000000" stroke="none" d="M 945.8373251423759 940.209517756016 L 956 936 L 945.8373251423758 931.790482243984"></path></g><g transform="translate(-102,-54) scale(1,1)"><path fill="none" stroke="#000000" d="M 945.8373251423759 940.209517756016 L 956 936 L 945.8373251423758 931.790482243984 L 945.8373251423759 940.209517756016" stroke-miterlimit="10"></path></g><g transform="translate(-102,-54) scale(1,1)"><g><path fill="none" stroke="none"></path><text fill="#000000" stroke="none" font-family="Arial" font-size="13px" font-style="normal" font-weight="normal" text-decoration="none" x="855" y="933">new</text></g></g><g transform="translate(-102,-54) scale(1,1)"><path fill="none" stroke="#000000" d="M 172 364 L 1040 364 L 1040 524 L 172 524 L 172 364" stroke-miterlimit="10"></path></g><g transform="translate(-102,-54) scale(1,1)"><path fill="#ffffff" stroke="none" d="M 172 364 L 172 386 L 384 386 L 395 375 L 395 364 L 172 364"></path></g><g transform="translate(-102,-54) scale(1,1)"><path fill="none" stroke="#000000" d="M 172 364 L 172 386 L 384 386 L 395 375 L 395 364 L 172 364 L 172 364" stroke-miterlimit="10"></path></g><g transform="translate(-102,-54) scale(1,1)"><g><path fill="none" stroke="none"></path><text fill="#000000" stroke="none" font-family="Arial" font-size="13px" font-style="normal" font-weight="normal" text-decoration="none" x="204" y="381.5">Si correspondance non établie</text></g></g><g transform="translate(-102,-54) scale(1,1)"><g><path fill="none" stroke="none"></path><text fill="#000000" stroke="none" font-family="Arial" font-size="13px" font-style="normal" font-weight="bold" text-decoration="none" x="177" y="381.5">seq</text></g></g><g transform="translate(-102,-54) scale(1,1)"><path fill="none" stroke="#000000" d="M 176 636 L 1040 636 L 1040 796 L 176 796 L 176 636" stroke-miterlimit="10"></path></g><g transform="translate(-102,-54) scale(1,1)"><path fill="#ffffff" stroke="none" d="M 176 636 L 176 658 L 377 658 L 388 647 L 388 636 L 176 636"></path></g><g transform="translate(-102,-54) scale(1,1)"><path fill="none" stroke="#000000" d="M 176 636 L 176 658 L 377 658 L 388 647 L 388 636 L 176 636 L 176 636" stroke-miterlimit="10"></path></g><g transform="translate(-102,-54) scale(1,1)"><g><path fill="none" stroke="none"></path><text fill="#000000" stroke="none" font-family="Arial" font-size="13px" font-style="normal" font-weight="normal" text-decoration="none" x="208" y="653.5">Si infos aliment incomplètes</text></g></g><g transform="translate(-102,-54) scale(1,1)"><g><path fill="none" stroke="none"></path><text fill="#000000" stroke="none" font-family="Arial" font-size="13px" font-style="normal" font-weight="bold" text-decoration="none" x="181" y="653.5">seq</text></g></g><g transform="translate(-102,-54) scale(1,1)"><path fill="none" stroke="#000000" d="M 140 152 L 1064 152 L 1064 896 L 140 896 L 140 152" stroke-miterlimit="10"></path></g><g transform="translate(-102,-54) scale(1,1)"><path fill="#ffffff" stroke="none" d="M 140 152 L 140 174 L 376 174 L 387 163 L 387 152 L 140 152"></path></g><g transform="translate(-102,-54) scale(1,1)"><path fill="none" stroke="#000000" d="M 140 152 L 140 174 L 376 174 L 387 163 L 387 152 L 140 152 L 140 152" stroke-miterlimit="10"></path></g><g transform="translate(-102,-54) scale(1,1)"><g><path fill="none" stroke="none"></path><text fill="#000000" stroke="none" font-family="Arial" font-size="13px" font-style="normal" font-weight="normal" text-decoration="none" x="172" y="169.5">Tant que ajout aliments non validé</text></g></g><g transform="translate(-102,-54) scale(1,1)"><g><path fill="none" stroke="none"></path><text fill="#000000" stroke="none" font-family="Arial" font-size="13px" font-style="normal" font-weight="bold" text-decoration="none" x="145" y="169.5">seq</text></g></g></g></svg>