<svg version="1.1" xmlns="http://www.w3.org/2000/svg" xmlns:xlink="http://www.w3.org/1999/xlink" width="798" height="460"><defs></defs><g><g transform="translate(-6,-154) scale(1,1)"><rect fill="#C0C0C0" stroke="none" x="163" y="171" width="516" height="431" opacity="0.2"></rect></g><g transform="translate(-6,-154) scale(1,1)"><rect fill="#d8f2ff" stroke="none" x="156" y="164" width="516" height="431"></rect></g><g transform="translate(-6,-154) scale(1,1)"><path fill="none" stroke="#000000" d="M 156 164 L 672 164 L 672 595 L 156 595 L 156 164 Z Z" stroke-miterlimit="10"></path></g><g transform="translate(-6,-154) scale(1,1)"><g><path fill="none" stroke="none"></path><text fill="#000000" stroke="none" font-family="Helvetica" font-size="13px" font-style="normal" font-weight="bold" text-decoration="none" x="343.5" y="183.5">Consulter une recherche</text></g></g><g transform="translate(-6,-154) scale(1,1)"><path fill="#C0C0C0" stroke="none" d="M 203 292 C 203 282.6111584 248.890808 275 305.5 275 C 362.109192 275 408 282.6111584 408 292 C 408 301.3888416 362.109192 309 305.5 309 C 248.890808 309 203 301.3888416 203 292 Z" opacity="0.2"></path></g><g transform="translate(-6,-154) scale(1,1)"><path fill="#0abaff" stroke="none" d="M 196 285 C 196 275.6111584 241.890808 268 298.5 268 C 355.109192 268 401 275.6111584 401 285 C 401 294.3888416 355.109192 302 298.5 302 C 241.890808 302 196 294.3888416 196 285 Z"></path></g><g transform="translate(-6,-154) scale(1,1)"><path fill="none" stroke="#000000" d="M 196 285 C 196 275.6111584 241.890808 268 298.5 268 C 355.109192 268 401 275.6111584 401 285 C 401 294.3888416 355.109192 302 298.5 302 C 241.890808 302 196 294.3888416 196 285 Z" stroke-miterlimit="10"></path></g><g transform="translate(-6,-154) scale(1,1)"><g><path fill="none" stroke="none"></path><text fill="#000000" stroke="none" font-family="Helvetica" font-size="13px" font-style="normal" font-weight="bold" text-decoration="none" x="233" y="292">Recherche de recettes</text></g></g><g transform="translate(-6,-154) scale(1,1)"><path fill="#C0C0C0" stroke="none" d="M 211 428 C 211 418.6111584 258.2339536 411 316.5 411 C 374.7660464 411 422 418.6111584 422 428 C 422 437.3888416 374.7660464 445 316.5 445 C 258.2339536 445 211 437.3888416 211 428 Z" opacity="0.2"></path></g><g transform="translate(-6,-154) scale(1,1)"><path fill="#0abaff" stroke="none" d="M 204 421 C 204 411.6111584 251.2339536 404 309.5 404 C 367.7660464 404 415 411.6111584 415 421 C 415 430.3888416 367.7660464 438 309.5 438 C 251.2339536 438 204 430.3888416 204 421 Z"></path></g><g transform="translate(-6,-154) scale(1,1)"><path fill="none" stroke="#000000" d="M 204 421 C 204 411.6111584 251.2339536 404 309.5 404 C 367.7660464 404 415 411.6111584 415 421 C 415 430.3888416 367.7660464 438 309.5 438 C 251.2339536 438 204 430.3888416 204 421 Z" stroke-miterlimit="10"></path></g><g transform="translate(-6,-154) scale(1,1)"><g><path fill="none" stroke="none"></path><text fill="#000000" stroke="none" font-family="Helvetica" font-size="13px" font-style="normal" font-weight="bold" text-decoration="none" x="244.5" y="428">Connection au compte</text></g></g><g transform="translate(-6,-154) scale(1,1)"><path fill="#C0C0C0" stroke="none" d="M 171 552 C 171 542.6111584 237.48570719999998 535 319.5 535 C 401.5142928 535 468 542.6111584 468 552 C 468 561.3888416 401.5142928 569 319.5 569 C 237.48570719999998 569 171 561.3888416 171 552 Z" opacity="0.2"></path></g><g transform="translate(-6,-154) scale(1,1)"><path fill="#0abaff" stroke="none" d="M 164 545 C 164 535.6111584 230.48570719999998 528 312.5 528 C 394.5142928 528 461 535.6111584 461 545 C 461 554.3888416 394.5142928 562 312.5 562 C 230.48570719999998 562 164 554.3888416 164 545 Z"></path></g><g transform="translate(-6,-154) scale(1,1)"><path fill="none" stroke="#000000" d="M 164 545 C 164 535.6111584 230.48570719999998 528 312.5 528 C 394.5142928 528 461 535.6111584 461 545 C 461 554.3888416 394.5142928 562 312.5 562 C 230.48570719999998 562 164 554.3888416 164 545 Z" stroke-miterlimit="10"></path></g><g transform="translate(-6,-154) scale(1,1)"><g><path fill="none" stroke="none"></path><text fill="#000000" stroke="none" font-family="Helvetica" font-size="13px" font-style="normal" font-weight="bold" text-decoration="none" x="228.5" y="552">Gérer recettes sauvegardées</text></g></g><g transform="translate(-6,-154) scale(1,1)"><path fill="#C0C0C0" stroke="none" d="M 359 216 C 359 206.6111584 417.6506912 199 490 199 C 562.3493088 199 621 206.6111584 621 216 C 621 225.3888416 562.3493088 233 490 233 C 417.6506912 233 359 225.3888416 359 216 Z" opacity="0.2"></path></g><g transform="translate(-6,-154) scale(1,1)"><path fill="#0abaff" stroke="none" d="M 352 209 C 352 199.6111584 410.6506912 192 483 192 C 555.3493088 192 614 199.6111584 614 209 C 614 218.3888416 555.3493088 226 483 226 C 410.6506912 226 352 218.3888416 352 209 Z"></path></g><g transform="translate(-6,-154) scale(1,1)"><path fill="none" stroke="#000000" d="M 352 209 C 352 199.6111584 410.6506912 192 483 192 C 555.3493088 192 614 199.6111584 614 209 C 614 218.3888416 555.3493088 226 483 226 C 410.6506912 226 352 218.3888416 352 209 Z" stroke-miterlimit="10"></path></g><g transform="translate(-6,-154) scale(1,1)"><g><path fill="none" stroke="none"></path><text fill="#000000" stroke="none" font-family="Helvetica" font-size="13px" font-style="normal" font-weight="bold" text-decoration="none" x="401.5" y="216">Consulter dernère recherche</text></g></g><g transform="translate(-6,-154) scale(1,1)"><path fill="#C0C0C0" stroke="none" d="M 375 388 C 375 378.6111584 438.3517008 371 516.5 371 C 594.6482992 371 658 378.6111584 658 388 C 658 397.3888416 594.6482992 405 516.5 405 C 438.3517008 405 375 397.3888416 375 388 Z" opacity="0.2"></path></g><g transform="translate(-6,-154) scale(1,1)"><path fill="#0abaff" stroke="none" d="M 368 381 C 368 371.6111584 431.3517008 364 509.5 364 C 587.6482992 364 651 371.6111584 651 381 C 651 390.3888416 587.6482992 398 509.5 398 C 431.3517008 398 368 390.3888416 368 381 Z"></path></g><g transform="translate(-6,-154) scale(1,1)"><path fill="none" stroke="#000000" d="M 368 381 C 368 371.6111584 431.3517008 364 509.5 364 C 587.6482992 364 651 371.6111584 651 381 C 651 390.3888416 587.6482992 398 509.5 398 C 431.3517008 398 368 390.3888416 368 381 Z" stroke-miterlimit="10"></path></g><g transform="translate(-6,-154) scale(1,1)"><g><path fill="none" stroke="none"></path><text fill="#000000" stroke="none" font-family="Helvetica" font-size="13px" font-style="normal" font-weight="bold" text-decoration="none" x="421" y="388">Lancer une nouvelle recherche</text></g></g><g transform="translate(-6,-154) scale(1,1)"><path fill="none" stroke="#000000" d="M 469 363 L 338 303" stroke-miterlimit="10" stroke-dasharray="3"></path></g><g transform="translate(-6,-154) scale(1,1)"><path fill="none" stroke="#000000" d="M 348.9925523925497 303.40471211626203 L 338 303 L 345.48673365748306 311.05908302115756" stroke-miterlimit="10"></path></g><g transform="translate(-6,-154) scale(1,1)"><g><path fill="none" stroke="none"></path><text fill="#000000" stroke="none" font-family="Arial" font-size="13px" font-style="normal" font-weight="normal" text-decoration="none" x="365" y="345">«extend»</text></g></g><g transform="translate(-6,-154) scale(1,1)"><path fill="none" stroke="#000000" d="M 439 227 L 342 267" stroke-miterlimit="10" stroke-dasharray="3"></path></g><g transform="translate(-6,-154) scale(1,1)"><path fill="none" stroke="#000000" d="M 349.79040496302656 259.23407503821653 L 342 267 L 352.9999863802084 267.01730997488244" stroke-miterlimit="10"></path></g><g transform="translate(-6,-154) scale(1,1)"><g><path fill="none" stroke="none"></path><text fill="#000000" stroke="none" font-family="Arial" font-size="13px" font-style="normal" font-weight="normal" text-decoration="none" x="351" y="245">«extend»</text></g></g><g transform="translate(-6,-154) scale(1,1)"><path fill="none" stroke="#000000" d="M 312 527 L 309 439" stroke-miterlimit="10" stroke-dasharray="3"></path></g><g transform="translate(-6,-154) scale(1,1)"><path fill="none" stroke="#000000" d="M 313.5533274330328 449.0133515511836 L 309 439 L 305.13917992061346 449.300197489107" stroke-miterlimit="10"></path></g><g transform="translate(-6,-154) scale(1,1)"><g><path fill="none" stroke="none"></path><text fill="#000000" stroke="none" font-family="Arial" font-size="13px" font-style="normal" font-weight="normal" text-decoration="none" x="253" y="490">«include»</text></g></g><g transform="translate(-6,-154) scale(1,1)"><path fill="none" stroke="#000000" d="M 299 303 L 308 403" stroke-miterlimit="10" stroke-dasharray="3"></path></g><g transform="translate(-6,-154) scale(1,1)"><path fill="none" stroke="#000000" d="M 302.89646912018924 393.255567099168 L 308 403 L 311.2816132898865 392.5009041238952" stroke-miterlimit="10"></path></g><g transform="translate(-6,-154) scale(1,1)"><g><path fill="none" stroke="none"></path><text fill="#000000" stroke="none" font-family="Arial" font-size="13px" font-style="normal" font-weight="normal" text-decoration="none" x="298" y="353">«include»</text></g></g><g transform="translate(-6,-154) scale(1,1)"><path fill="#C0C0C0" stroke="none" d="M 507 432 C 507 422.6111584 540.8024976 415 582.5 415 C 624.1975024 415 658 422.6111584 658 432 C 658 441.3888416 624.1975024 449 582.5 449 C 540.8024976 449 507 441.3888416 507 432 Z" opacity="0.2"></path></g><g transform="translate(-6,-154) scale(1,1)"><path fill="#0abaff" stroke="none" d="M 500 425 C 500 415.6111584 533.8024976 408 575.5 408 C 617.1975024 408 651 415.6111584 651 425 C 651 434.3888416 617.1975024 442 575.5 442 C 533.8024976 442 500 434.3888416 500 425 Z"></path></g><g transform="translate(-6,-154) scale(1,1)"><path fill="none" stroke="#000000" d="M 500 425 C 500 415.6111584 533.8024976 408 575.5 408 C 617.1975024 408 651 415.6111584 651 425 C 651 434.3888416 617.1975024 442 575.5 442 C 533.8024976 442 500 434.3888416 500 425 Z" stroke-miterlimit="10"></path></g><g transform="translate(-6,-154) scale(1,1)"><g><path fill="none" stroke="none"></path><text fill="#000000" stroke="none" font-family="Helvetica" font-size="13px" font-style="normal" font-weight="bold" text-decoration="none" x="530.5" y="432">Authentification</text></g></g><g transform="translate(-6,-154) scale(1,1)"><path fill="none" stroke="#000000" d="M 416 423 L 499 424" stroke-miterlimit="10"></path></g><g transform="translate(-6,-154) scale(1,1)"><path fill="none" stroke="#000000" d="M 488.787349262905 428.08677928473185 L 499 424 L 488.88877606446374 419.6683547553569" stroke-miterlimit="10"></path></g><g transform="translate(-6,-154) scale(1,1)"><path fill="#C0C0C0" stroke="none" d="M 503 552 C 503 542.6111584 538.1456432 535 581.5 535 C 624.8543568 535 660 542.6111584 660 552 C 660 561.3888416 624.8543568 569 581.5 569 C 538.1456432 569 503 561.3888416 503 552 Z" opacity="0.2"></path></g><g transform="translate(-6,-154) scale(1,1)"><path fill="#0abaff" stroke="none" d="M 496 545 C 496 535.6111584 531.1456432 528 574.5 528 C 617.8543568 528 653 535.6111584 653 545 C 653 554.3888416 617.8543568 562 574.5 562 C 531.1456432 562 496 554.3888416 496 545 Z"></path></g><g transform="translate(-6,-154) scale(1,1)"><path fill="none" stroke="#000000" d="M 496 545 C 496 535.6111584 531.1456432 528 574.5 528 C 617.8543568 528 653 535.6111584 653 545 C 653 554.3888416 617.8543568 562 574.5 562 C 531.1456432 562 496 554.3888416 496 545 Z" stroke-miterlimit="10"></path></g><g transform="translate(-6,-154) scale(1,1)"><g><path fill="none" stroke="none"></path><text fill="#000000" stroke="none" font-family="Helvetica" font-size="13px" font-style="normal" font-weight="bold" text-decoration="none" x="528" y="552">Synchronisation</text></g></g><g transform="translate(-6,-154) scale(1,1)"><path fill="none" stroke="#000000" d="M 575 443 L 574 527" stroke-miterlimit="10"></path></g><g transform="translate(-6,-154) scale(1,1)"><path fill="none" stroke="#000000" d="M 569.9117561580347 516.7879354541487 L 574 527 L 578.3301951464883 516.888154965916" stroke-miterlimit="10"></path></g><g transform="translate(-6,-154) scale(1,1)"><path fill="none" stroke="#000000" d="M 462 545 L 495 545" stroke-miterlimit="10"></path></g><g transform="translate(-6,-154) scale(1,1)"><path fill="none" stroke="#000000" d="M 484.83732514237585 549.209517756016 L 495 545 L 484.83732514237585 540.790482243984" stroke-miterlimit="10"></path></g><g transform="translate(-6,-154) scale(1,1)"><path fill="#0abaff" stroke="none" d="M 720.5163636363636 232.05 C 720.5163636363636 221.52897456000002 728.7917685876364 213 739 213 C 749.2082314123636 213 757.4836363636364 221.52897456000002 757.4836363636364 232.05 C 757.4836363636364 242.57102544 749.2082314123636 251.1 739 251.1 C 728.7917685876364 251.1 720.5163636363636 242.57102544 720.5163636363636 232.05 Z"></path></g><g transform="translate(-6,-154) scale(1,1)"><path fill="none" stroke="#000000" d="M 720.5163636363636 232.05 C 720.5163636363636 221.52897456000002 728.7917685876364 213 739 213 C 749.2082314123636 213 757.4836363636364 221.52897456000002 757.4836363636364 232.05 C 757.4836363636364 242.57102544 749.2082314123636 251.1 739 251.1 C 728.7917685876364 251.1 720.5163636363636 242.57102544 720.5163636363636 232.05 Z" stroke-miterlimit="10"></path></g><g transform="translate(-6,-154) scale(1,1)"><path fill="none" stroke="#000000" d="M 739 251.1 L 739 287.9" stroke-miterlimit="10"></path></g><g transform="translate(-6,-154) scale(1,1)"><path fill="none" stroke="#000000" d="M 719.4290909090909 264.9 L 758.5709090909091 264.9" stroke-miterlimit="10"></path></g><g transform="translate(-6,-154) scale(1,1)"><path fill="none" stroke="#000000" d="M 739 287.9 L 711.8181818181818 326" stroke-miterlimit="10"></path></g><g transform="translate(-6,-154) scale(1,1)"><path fill="none" stroke="#000000" d="M 739 287.9 L 766.1818181818182 326" stroke-miterlimit="10"></path></g><g transform="translate(-6,-154) scale(1,1)"><g><path fill="none" stroke="none"></path><text fill="#000000" stroke="none" font-family="Helvetica" font-size="13px" font-style="normal" font-weight="bold" text-decoration="none" x="690.5" y="346.5">BDD Partenaires</text></g></g><g transform="translate(-6,-154) scale(1,1)"><path fill="none" stroke="#000000" d="M 683 282 L 402 284" stroke-miterlimit="10"></path></g><g transform="translate(-6,-154) scale(1,1)"><path fill="#0abaff" stroke="none" d="M 723.5876363636364 474.09000000000003 C 723.5876363636364 462.44231356800003 732.7265618315637 453 744 453 C 755.2734381684363 453 764.4123636363636 462.44231356800003 764.4123636363636 474.09000000000003 C 764.4123636363636 485.73768643200003 755.2734381684363 495.18 744 495.18 C 732.7265618315637 495.18 723.5876363636364 485.73768643200003 723.5876363636364 474.09000000000003 Z"></path></g><g transform="translate(-6,-154) scale(1,1)"><path fill="none" stroke="#000000" d="M 723.5876363636364 474.09000000000003 C 723.5876363636364 462.44231356800003 732.7265618315637 453 744 453 C 755.2734381684363 453 764.4123636363636 462.44231356800003 764.4123636363636 474.09000000000003 C 764.4123636363636 485.73768643200003 755.2734381684363 495.18 744 495.18 C 732.7265618315637 495.18 723.5876363636364 485.73768643200003 723.5876363636364 474.09000000000003 Z" stroke-miterlimit="10"></path></g><g transform="translate(-6,-154) scale(1,1)"><path fill="none" stroke="#000000" d="M 744 495.18 L 744 535.8199999999999" stroke-miterlimit="10"></path></g><g transform="translate(-6,-154) scale(1,1)"><path fill="none" stroke="#000000" d="M 722.3869090909091 510.42 L 765.6130909090909 510.42" stroke-miterlimit="10"></path></g><g transform="translate(-6,-154) scale(1,1)"><path fill="none" stroke="#000000" d="M 744 535.8199999999999 L 713.9818181818182 578" stroke-miterlimit="10"></path></g><g transform="translate(-6,-154) scale(1,1)"><path fill="none" stroke="#000000" d="M 744 535.8199999999999 L 774.0181818181818 578" stroke-miterlimit="10"></path></g><g transform="translate(-6,-154) scale(1,1)"><g><path fill="none" stroke="none"></path><text fill="#000000" stroke="none" font-family="Helvetica" font-size="13px" font-style="normal" font-weight="bold" text-decoration="none" x="727.5" y="598.5">Cloud</text></g></g><g transform="translate(-6,-154) scale(1,1)"><path fill="none" stroke="#000000" d="M 699 533 L 654 537" stroke-miterlimit="10"></path></g><g transform="translate(-6,-154) scale(1,1)"><path fill="#0abaff" stroke="none" d="M 43.58763636363636 342.09000000000003 C 43.58763636363636 330.44231356800003 52.72656183156363 321 64 321 C 75.27343816843637 321 84.41236363636365 330.44231356800003 84.41236363636365 342.09000000000003 C 84.41236363636365 353.73768643200003 75.27343816843637 363.18 64 363.18 C 52.72656183156363 363.18 43.58763636363636 353.73768643200003 43.58763636363636 342.09000000000003 Z"></path></g><g transform="translate(-6,-154) scale(1,1)"><path fill="none" stroke="#000000" d="M 43.58763636363636 342.09000000000003 C 43.58763636363636 330.44231356800003 52.72656183156363 321 64 321 C 75.27343816843637 321 84.41236363636365 330.44231356800003 84.41236363636365 342.09000000000003 C 84.41236363636365 353.73768643200003 75.27343816843637 363.18 64 363.18 C 52.72656183156363 363.18 43.58763636363636 353.73768643200003 43.58763636363636 342.09000000000003 Z" stroke-miterlimit="10"></path></g><g transform="translate(-6,-154) scale(1,1)"><path fill="none" stroke="#000000" d="M 64 363.18 L 64 403.82" stroke-miterlimit="10"></path></g><g transform="translate(-6,-154) scale(1,1)"><path fill="none" stroke="#000000" d="M 42.386909090909086 378.42 L 85.61309090909091 378.42" stroke-miterlimit="10"></path></g><g transform="translate(-6,-154) scale(1,1)"><path fill="none" stroke="#000000" d="M 64 403.82 L 33.98181818181818 446" stroke-miterlimit="10"></path></g><g transform="translate(-6,-154) scale(1,1)"><path fill="none" stroke="#000000" d="M 64 403.82 L 94.01818181818183 446" stroke-miterlimit="10"></path></g><g transform="translate(-6,-154) scale(1,1)"><g><path fill="none" stroke="none"></path><text fill="#000000" stroke="none" font-family="Helvetica" font-size="13px" font-style="normal" font-weight="bold" text-decoration="none" x="35" y="466.5">Utilisateur</text></g></g><g transform="translate(-6,-154) scale(1,1)"><path fill="none" stroke="#000000" d="M 113 373 L 260 303" stroke-miterlimit="10"></path></g><g transform="translate(-6,-154) scale(1,1)"><path fill="none" stroke="#000000" d="M 113 401 L 203 410" stroke-miterlimit="10"></path></g><g transform="translate(-6,-154) scale(1,1)"><path fill="none" stroke="#000000" d="M 113 425 L 282 527" stroke-miterlimit="10"></path></g></g></svg>