<svg version="1.1" xmlns="http://www.w3.org/2000/svg" xmlns:xlink="http://www.w3.org/1999/xlink" width="728" height="459"><defs></defs><g><g transform="translate(-30,-182) scale(1,1)"><rect fill="#C0C0C0" stroke="none" x="183" y="199" width="480" height="439" opacity="0.2"></rect></g><g transform="translate(-30,-182) scale(1,1)"><rect fill="#d8f2ff" stroke="none" x="176" y="192" width="480" height="439"></rect></g><g transform="translate(-30,-182) scale(1,1)"><path fill="none" stroke="#000000" d="M 176 192 L 656 192 L 656 631 L 176 631 L 176 192 Z Z" stroke-miterlimit="10"></path></g><g transform="translate(-30,-182) scale(1,1)"><g><path fill="none" stroke="none"></path><text fill="#000000" stroke="none" font-family="Helvetica" font-size="13px" font-style="normal" font-weight="bold" text-decoration="none" x="329" y="211.5">Gestion des listes de recettes</text></g></g><g transform="translate(-30,-182) scale(1,1)"><path fill="#C0C0C0" stroke="none" d="M 259 344 C 259 334.6111584 280.71418719999997 327 307.5 327 C 334.28581280000003 327 356 334.6111584 356 344 C 356 353.3888416 334.28581280000003 361 307.5 361 C 280.71418719999997 361 259 353.3888416 259 344 Z" opacity="0.2"></path></g><g transform="translate(-30,-182) scale(1,1)"><path fill="#0abaff" stroke="none" d="M 252 337 C 252 327.6111584 273.71418719999997 320 300.5 320 C 327.28581280000003 320 349 327.6111584 349 337 C 349 346.3888416 327.28581280000003 354 300.5 354 C 273.71418719999997 354 252 346.3888416 252 337 Z"></path></g><g transform="translate(-30,-182) scale(1,1)"><path fill="none" stroke="#000000" d="M 252 337 C 252 327.6111584 273.71418719999997 320 300.5 320 C 327.28581280000003 320 349 327.6111584 349 337 C 349 346.3888416 327.28581280000003 354 300.5 354 C 273.71418719999997 354 252 346.3888416 252 337 Z" stroke-miterlimit="10"></path></g><g transform="translate(-30,-182) scale(1,1)"><g><path fill="none" stroke="none"></path><text fill="#000000" stroke="none" font-family="Helvetica" font-size="13px" font-style="normal" font-weight="bold" text-decoration="none" x="273" y="344">Consulter</text></g></g><g transform="translate(-30,-182) scale(1,1)"><path fill="#C0C0C0" stroke="none" d="M 267 268 C 267 258.6111584 288.71418719999997 251 315.5 251 C 342.28581280000003 251 364 258.6111584 364 268 C 364 277.3888416 342.28581280000003 285 315.5 285 C 288.71418719999997 285 267 277.3888416 267 268 Z" opacity="0.2"></path></g><g transform="translate(-30,-182) scale(1,1)"><path fill="#0abaff" stroke="none" d="M 260 261 C 260 251.6111584 281.71418719999997 244 308.5 244 C 335.28581280000003 244 357 251.6111584 357 261 C 357 270.3888416 335.28581280000003 278 308.5 278 C 281.71418719999997 278 260 270.3888416 260 261 Z"></path></g><g transform="translate(-30,-182) scale(1,1)"><path fill="none" stroke="#000000" d="M 260 261 C 260 251.6111584 281.71418719999997 244 308.5 244 C 335.28581280000003 244 357 251.6111584 357 261 C 357 270.3888416 335.28581280000003 278 308.5 278 C 281.71418719999997 278 260 270.3888416 260 261 Z" stroke-miterlimit="10"></path></g><g transform="translate(-30,-182) scale(1,1)"><g><path fill="none" stroke="none"></path><text fill="#000000" stroke="none" font-family="Helvetica" font-size="13px" font-style="normal" font-weight="bold" text-decoration="none" x="295.5" y="268">Trier</text></g></g><g transform="translate(-30,-182) scale(1,1)"><path fill="#0abaff" stroke="none" d="M 63.58763636363636 374.09000000000003 C 63.58763636363636 362.44231356800003 72.72656183156363 353 84 353 C 95.27343816843637 353 104.41236363636365 362.44231356800003 104.41236363636365 374.09000000000003 C 104.41236363636365 385.73768643200003 95.27343816843637 395.18 84 395.18 C 72.72656183156363 395.18 63.58763636363636 385.73768643200003 63.58763636363636 374.09000000000003 Z"></path></g><g transform="translate(-30,-182) scale(1,1)"><path fill="none" stroke="#000000" d="M 63.58763636363636 374.09000000000003 C 63.58763636363636 362.44231356800003 72.72656183156363 353 84 353 C 95.27343816843637 353 104.41236363636365 362.44231356800003 104.41236363636365 374.09000000000003 C 104.41236363636365 385.73768643200003 95.27343816843637 395.18 84 395.18 C 72.72656183156363 395.18 63.58763636363636 385.73768643200003 63.58763636363636 374.09000000000003 Z" stroke-miterlimit="10"></path></g><g transform="translate(-30,-182) scale(1,1)"><path fill="none" stroke="#000000" d="M 84 395.18 L 84 435.82" stroke-miterlimit="10"></path></g><g transform="translate(-30,-182) scale(1,1)"><path fill="none" stroke="#000000" d="M 62.386909090909086 410.42 L 105.61309090909091 410.42" stroke-miterlimit="10"></path></g><g transform="translate(-30,-182) scale(1,1)"><path fill="none" stroke="#000000" d="M 84 435.82 L 53.98181818181818 478" stroke-miterlimit="10"></path></g><g transform="translate(-30,-182) scale(1,1)"><path fill="none" stroke="#000000" d="M 84 435.82 L 114.01818181818183 478" stroke-miterlimit="10"></path></g><g transform="translate(-30,-182) scale(1,1)"><g><path fill="none" stroke="none"></path><text fill="#000000" stroke="none" font-family="Helvetica" font-size="13px" font-style="normal" font-weight="bold" text-decoration="none" x="55" y="498.5">Utilisateur</text></g></g><g transform="translate(-30,-182) scale(1,1)"><path fill="#C0C0C0" stroke="none" d="M 207 464 C 207 454.6111584 257.36796 447 319.5 447 C 381.63204 447 432 454.6111584 432 464 C 432 473.3888416 381.63204 481 319.5 481 C 257.36796 481 207 473.3888416 207 464 Z" opacity="0.2"></path></g><g transform="translate(-30,-182) scale(1,1)"><path fill="#0abaff" stroke="none" d="M 200 457 C 200 447.6111584 250.36795999999998 440 312.5 440 C 374.63204 440 425 447.6111584 425 457 C 425 466.3888416 374.63204 474 312.5 474 C 250.36795999999998 474 200 466.3888416 200 457 Z"></path></g><g transform="translate(-30,-182) scale(1,1)"><path fill="none" stroke="#000000" d="M 200 457 C 200 447.6111584 250.36795999999998 440 312.5 440 C 374.63204 440 425 447.6111584 425 457 C 425 466.3888416 374.63204 474 312.5 474 C 250.36795999999998 474 200 466.3888416 200 457 Z" stroke-miterlimit="10"></path></g><g transform="translate(-30,-182) scale(1,1)"><g><path fill="none" stroke="none"></path><text fill="#000000" stroke="none" font-family="Helvetica" font-size="13px" font-style="normal" font-weight="bold" text-decoration="none" x="241.5" y="464">Sauvegarder une recette</text></g></g><g transform="translate(-30,-182) scale(1,1)"><path fill="#C0C0C0" stroke="none" d="M 483 532 C 483 522.6111584 518.1456432 515 561.5 515 C 604.8543568 515 640 522.6111584 640 532 C 640 541.3888416 604.8543568 549 561.5 549 C 518.1456432 549 483 541.3888416 483 532 Z" opacity="0.2"></path></g><g transform="translate(-30,-182) scale(1,1)"><path fill="#0abaff" stroke="none" d="M 476 525 C 476 515.6111584 511.1456432 508 554.5 508 C 597.8543568 508 633 515.6111584 633 525 C 633 534.3888416 597.8543568 542 554.5 542 C 511.1456432 542 476 534.3888416 476 525 Z"></path></g><g transform="translate(-30,-182) scale(1,1)"><path fill="none" stroke="#000000" d="M 476 525 C 476 515.6111584 511.1456432 508 554.5 508 C 597.8543568 508 633 515.6111584 633 525 C 633 534.3888416 597.8543568 542 554.5 542 C 511.1456432 542 476 534.3888416 476 525 Z" stroke-miterlimit="10"></path></g><g transform="translate(-30,-182) scale(1,1)"><g><path fill="none" stroke="none"></path><text fill="#000000" stroke="none" font-family="Helvetica" font-size="13px" font-style="normal" font-weight="bold" text-decoration="none" x="508" y="532">Synchronisation</text></g></g><g transform="translate(-30,-182) scale(1,1)"><path fill="#C0C0C0" stroke="none" d="M 267 576 C 267 566.6111584 288.71418719999997 559 315.5 559 C 342.28581280000003 559 364 566.6111584 364 576 C 364 585.3888416 342.28581280000003 593 315.5 593 C 288.71418719999997 593 267 585.3888416 267 576 Z" opacity="0.2"></path></g><g transform="translate(-30,-182) scale(1,1)"><path fill="#0abaff" stroke="none" d="M 260 569 C 260 559.6111584 281.71418719999997 552 308.5 552 C 335.28581280000003 552 357 559.6111584 357 569 C 357 578.3888416 335.28581280000003 586 308.5 586 C 281.71418719999997 586 260 578.3888416 260 569 Z"></path></g><g transform="translate(-30,-182) scale(1,1)"><path fill="none" stroke="#000000" d="M 260 569 C 260 559.6111584 281.71418719999997 552 308.5 552 C 335.28581280000003 552 357 559.6111584 357 569 C 357 578.3888416 335.28581280000003 586 308.5 586 C 281.71418719999997 586 260 578.3888416 260 569 Z" stroke-miterlimit="10"></path></g><g transform="translate(-30,-182) scale(1,1)"><g><path fill="none" stroke="none"></path><text fill="#000000" stroke="none" font-family="Helvetica" font-size="13px" font-style="normal" font-weight="bold" text-decoration="none" x="293" y="576">Noter</text></g></g><g transform="translate(-30,-182) scale(1,1)"><path fill="none" stroke="#000000" d="M 358 560 L 475 539" stroke-miterlimit="10" stroke-dasharray="3"></path></g><g transform="translate(-30,-182) scale(1,1)"><path fill="none" stroke="#000000" d="M 465.7408422607802 544.9386865517761 L 475 539 L 464.25350124241953 536.652072306624" stroke-miterlimit="10"></path></g><g transform="translate(-30,-182) scale(1,1)"><g><path fill="none" stroke="none"></path><text fill="#000000" stroke="none" font-family="Arial" font-size="13px" font-style="normal" font-weight="normal" text-decoration="none" x="404" y="572">«include»</text></g></g><g transform="translate(-30,-182) scale(1,1)"><path fill="none" stroke="#000000" d="M 376 475 L 490 507" stroke-miterlimit="10" stroke-dasharray="3"></path></g><g transform="translate(-30,-182) scale(1,1)"><path fill="none" stroke="#000000" d="M 479.07784556452265 508.3063470012146 L 490 507 L 481.35314371036566 500.2005973566488" stroke-miterlimit="10"></path></g><g transform="translate(-30,-182) scale(1,1)"><g><path fill="none" stroke="none"></path><text fill="#000000" stroke="none" font-family="Arial" font-size="13px" font-style="normal" font-weight="normal" text-decoration="none" x="427" y="488">«include»</text></g></g><g transform="translate(-30,-182) scale(1,1)"><path fill="none" stroke="#000000" d="M 129 456 L 279 551" stroke-miterlimit="10"></path></g><g transform="translate(-30,-182) scale(1,1)"><path fill="none" stroke="#000000" d="M 129 434 L 199 443" stroke-miterlimit="10"></path></g><g transform="translate(-30,-182) scale(1,1)"><path fill="none" stroke="#000000" d="M 129 409 L 257 355" stroke-miterlimit="10"></path></g><g transform="translate(-30,-182) scale(1,1)"><path fill="none" stroke="#000000" d="M 129 394 L 284 279" stroke-miterlimit="10"></path></g><g transform="translate(-30,-182) scale(1,1)"><path fill="#0abaff" stroke="none" d="M 694.24 463.5153846153846 C 694.24 451.0804799261538 703.9822827520001 441 716 441 C 728.0177172479999 441 737.76 451.0804799261538 737.76 463.5153846153846 C 737.76 475.9502893046154 728.0177172479999 486.03076923076924 716 486.03076923076924 C 703.9822827520001 486.03076923076924 694.24 475.9502893046154 694.24 463.5153846153846 Z"></path></g><g transform="translate(-30,-182) scale(1,1)"><path fill="none" stroke="#000000" d="M 694.24 463.5153846153846 C 694.24 451.0804799261538 703.9822827520001 441 716 441 C 728.0177172479999 441 737.76 451.0804799261538 737.76 463.5153846153846 C 737.76 475.9502893046154 728.0177172479999 486.03076923076924 716 486.03076923076924 C 703.9822827520001 486.03076923076924 694.24 475.9502893046154 694.24 463.5153846153846 Z" stroke-miterlimit="10"></path></g><g transform="translate(-30,-182) scale(1,1)"><path fill="none" stroke="#000000" d="M 716 486.03076923076924 L 716 529.3538461538462" stroke-miterlimit="10"></path></g><g transform="translate(-30,-182) scale(1,1)"><path fill="none" stroke="#000000" d="M 692.96 502.27692307692314 L 739.04 502.27692307692314" stroke-miterlimit="10"></path></g><g transform="translate(-30,-182) scale(1,1)"><path fill="none" stroke="#000000" d="M 716 529.3538461538462 L 684 574.3846153846155" stroke-miterlimit="10"></path></g><g transform="translate(-30,-182) scale(1,1)"><path fill="none" stroke="#000000" d="M 716 529.3538461538462 L 748 574.3846153846155" stroke-miterlimit="10"></path></g><g transform="translate(-30,-182) scale(1,1)"><g><path fill="none" stroke="none"></path><text fill="#000000" stroke="none" font-family="Helvetica" font-size="13px" font-style="normal" font-weight="bold" text-decoration="none" x="699.5" y="594.8846153846155">Cloud</text></g></g><g transform="translate(-30,-182) scale(1,1)"><path fill="none" stroke="#000000" d="M 683 526 L 634 525" stroke-miterlimit="10"></path></g></g></svg>