<svg version="1.1" xmlns="http://www.w3.org/2000/svg" xmlns:xlink="http://www.w3.org/1999/xlink" width="1037" height="519"><defs></defs><g><g transform="translate(10,-94) scale(1,1)"><rect fill="#C0C0C0" stroke="none" x="135" y="111" width="764" height="499" opacity="0.2"></rect></g><g transform="translate(10,-94) scale(1,1)"><rect fill="#d8f2ff" stroke="none" x="128" y="104" width="764" height="499"></rect></g><g transform="translate(10,-94) scale(1,1)"><path fill="none" stroke="#000000" d="M 128 104 L 892 104 L 892 603 L 128 603 L 128 104 Z Z" stroke-miterlimit="10"></path></g><g transform="translate(10,-94) scale(1,1)"><g><path fill="none" stroke="none"></path><text fill="#000000" stroke="none" font-family="Helvetica" font-size="13px" font-style="normal" font-weight="bold" text-decoration="none" x="449.5" y="123.5">Gestion des recettes</text></g></g><g transform="translate(10,-94) scale(1,1)"><path fill="#C0C0C0" stroke="none" d="M 171 200 C 171 190.6111584 192.7141872 183 219.5 183 C 246.2858128 183 268 190.6111584 268 200 C 268 209.3888416 246.2858128 217 219.5 217 C 192.7141872 217 171 209.3888416 171 200 Z" opacity="0.2"></path></g><g transform="translate(10,-94) scale(1,1)"><path fill="#0abaff" stroke="none" d="M 164 193 C 164 183.6111584 185.7141872 176 212.5 176 C 239.2858128 176 261 183.6111584 261 193 C 261 202.3888416 239.2858128 210 212.5 210 C 185.7141872 210 164 202.3888416 164 193 Z"></path></g><g transform="translate(10,-94) scale(1,1)"><path fill="none" stroke="#000000" d="M 164 193 C 164 183.6111584 185.7141872 176 212.5 176 C 239.2858128 176 261 183.6111584 261 193 C 261 202.3888416 239.2858128 210 212.5 210 C 185.7141872 210 164 202.3888416 164 193 Z" stroke-miterlimit="10"></path></g><g transform="translate(10,-94) scale(1,1)"><g><path fill="none" stroke="none"></path><text fill="#000000" stroke="none" font-family="Helvetica" font-size="13px" font-style="normal" font-weight="bold" text-decoration="none" x="195.5" y="200">Écrire</text></g></g><g transform="translate(10,-94) scale(1,1)"><path fill="#C0C0C0" stroke="none" d="M 175 292 C 175 282.6111584 198.7289056 275 228 275 C 257.2710944 275 281 282.6111584 281 292 C 281 301.3888416 257.2710944 309 228 309 C 198.7289056 309 175 301.3888416 175 292 Z" opacity="0.2"></path></g><g transform="translate(10,-94) scale(1,1)"><path fill="#0abaff" stroke="none" d="M 168 285 C 168 275.6111584 191.7289056 268 221 268 C 250.2710944 268 274 275.6111584 274 285 C 274 294.3888416 250.2710944 302 221 302 C 191.7289056 302 168 294.3888416 168 285 Z"></path></g><g transform="translate(10,-94) scale(1,1)"><path fill="none" stroke="#000000" d="M 168 285 C 168 275.6111584 191.7289056 268 221 268 C 250.2710944 268 274 275.6111584 274 285 C 274 294.3888416 250.2710944 302 221 302 C 191.7289056 302 168 294.3888416 168 285 Z" stroke-miterlimit="10"></path></g><g transform="translate(10,-94) scale(1,1)"><g><path fill="none" stroke="none"></path><text fill="#000000" stroke="none" font-family="Helvetica" font-size="13px" font-style="normal" font-weight="bold" text-decoration="none" x="191.5" y="292">Supprimer</text></g></g><g transform="translate(10,-94) scale(1,1)"><path fill="#C0C0C0" stroke="none" d="M 267 252 C 267 242.6111584 329.0085552 235 405.5 235 C 481.9914448 235 544 242.6111584 544 252 C 544 261.3888416 481.9914448 269 405.5 269 C 329.0085552 269 267 261.3888416 267 252 Z" opacity="0.2"></path></g><g transform="translate(10,-94) scale(1,1)"><path fill="#0abaff" stroke="none" d="M 260 245 C 260 235.6111584 322.0085552 228 398.5 228 C 474.9914448 228 537 235.6111584 537 245 C 537 254.3888416 474.9914448 262 398.5 262 C 322.0085552 262 260 254.3888416 260 245 Z"></path></g><g transform="translate(10,-94) scale(1,1)"><path fill="none" stroke="#000000" d="M 260 245 C 260 235.6111584 322.0085552 228 398.5 228 C 474.9914448 228 537 235.6111584 537 245 C 537 254.3888416 474.9914448 262 398.5 262 C 322.0085552 262 260 254.3888416 260 245 Z" stroke-miterlimit="10"></path></g><g transform="translate(10,-94) scale(1,1)"><g><path fill="none" stroke="none"></path><text fill="#000000" stroke="none" font-family="Helvetica" font-size="13px" font-style="normal" font-weight="bold" text-decoration="none" x="309.5" y="252">MàJ des recettes personnelles</text></g></g><g transform="translate(10,-94) scale(1,1)"><path fill="#C0C0C0" stroke="none" d="M 187 372 C 187 362.6111584 212.5197664 355 244 355 C 275.4802336 355 301 362.6111584 301 372 C 301 381.3888416 275.4802336 389 244 389 C 212.5197664 389 187 381.3888416 187 372 Z" opacity="0.2"></path></g><g transform="translate(10,-94) scale(1,1)"><path fill="#0abaff" stroke="none" d="M 180 365 C 180 355.6111584 205.5197664 348 237 348 C 268.4802336 348 294 355.6111584 294 365 C 294 374.3888416 268.4802336 382 237 382 C 205.5197664 382 180 374.3888416 180 365 Z"></path></g><g transform="translate(10,-94) scale(1,1)"><path fill="none" stroke="#000000" d="M 180 365 C 180 355.6111584 205.5197664 348 237 348 C 268.4802336 348 294 355.6111584 294 365 C 294 374.3888416 268.4802336 382 237 382 C 205.5197664 382 180 374.3888416 180 365 Z" stroke-miterlimit="10"></path></g><g transform="translate(10,-94) scale(1,1)"><g><path fill="none" stroke="none"></path><text fill="#000000" stroke="none" font-family="Helvetica" font-size="13px" font-style="normal" font-weight="bold" text-decoration="none" x="203.5" y="372">Commenter</text></g></g><g transform="translate(10,-94) scale(1,1)"><path fill="#C0C0C0" stroke="none" d="M 159 468 C 159 458.6111584 180.7141872 451 207.5 451 C 234.2858128 451 256 458.6111584 256 468 C 256 477.3888416 234.2858128 485 207.5 485 C 180.7141872 485 159 477.3888416 159 468 Z" opacity="0.2"></path></g><g transform="translate(10,-94) scale(1,1)"><path fill="#0abaff" stroke="none" d="M 152 461 C 152 451.6111584 173.7141872 444 200.5 444 C 227.2858128 444 249 451.6111584 249 461 C 249 470.3888416 227.2858128 478 200.5 478 C 173.7141872 478 152 470.3888416 152 461 Z"></path></g><g transform="translate(10,-94) scale(1,1)"><path fill="none" stroke="#000000" d="M 152 461 C 152 451.6111584 173.7141872 444 200.5 444 C 227.2858128 444 249 451.6111584 249 461 C 249 470.3888416 227.2858128 478 200.5 478 C 173.7141872 478 152 470.3888416 152 461 Z" stroke-miterlimit="10"></path></g><g transform="translate(10,-94) scale(1,1)"><g><path fill="none" stroke="none"></path><text fill="#000000" stroke="none" font-family="Helvetica" font-size="13px" font-style="normal" font-weight="bold" text-decoration="none" x="185" y="468">Noter</text></g></g><g transform="translate(10,-94) scale(1,1)"><path fill="#C0C0C0" stroke="none" d="M 179 568 C 179 558.6111584 206.5344848 551 240.5 551 C 274.4655152 551 302 558.6111584 302 568 C 302 577.3888416 274.4655152 585 240.5 585 C 206.5344848 585 179 577.3888416 179 568 Z" opacity="0.2"></path></g><g transform="translate(10,-94) scale(1,1)"><path fill="#0abaff" stroke="none" d="M 172 561 C 172 551.6111584 199.5344848 544 233.5 544 C 267.4655152 544 295 551.6111584 295 561 C 295 570.3888416 267.4655152 578 233.5 578 C 199.5344848 578 172 570.3888416 172 561 Z"></path></g><g transform="translate(10,-94) scale(1,1)"><path fill="none" stroke="#000000" d="M 172 561 C 172 551.6111584 199.5344848 544 233.5 544 C 267.4655152 544 295 551.6111584 295 561 C 295 570.3888416 267.4655152 578 233.5 578 C 199.5344848 578 172 570.3888416 172 561 Z" stroke-miterlimit="10"></path></g><g transform="translate(10,-94) scale(1,1)"><g><path fill="none" stroke="none"></path><text fill="#000000" stroke="none" font-family="Helvetica" font-size="13px" font-style="normal" font-weight="bold" text-decoration="none" x="197" y="568">Sauvegarder</text></g></g><g transform="translate(10,-94) scale(1,1)"><path fill="#C0C0C0" stroke="none" d="M 279 424 C 279 414.6111584 343.2471312 407 422.5 407 C 501.7528688 407 566 414.6111584 566 424 C 566 433.3888416 501.7528688 441 422.5 441 C 343.2471312 441 279 433.3888416 279 424 Z" opacity="0.2"></path></g><g transform="translate(10,-94) scale(1,1)"><path fill="#0abaff" stroke="none" d="M 272 417 C 272 407.6111584 336.2471312 400 415.5 400 C 494.7528688 400 559 407.6111584 559 417 C 559 426.3888416 494.7528688 434 415.5 434 C 336.2471312 434 272 426.3888416 272 417 Z"></path></g><g transform="translate(10,-94) scale(1,1)"><path fill="none" stroke="#000000" d="M 272 417 C 272 407.6111584 336.2471312 400 415.5 400 C 494.7528688 400 559 407.6111584 559 417 C 559 426.3888416 494.7528688 434 415.5 434 C 336.2471312 434 272 426.3888416 272 417 Z" stroke-miterlimit="10"></path></g><g transform="translate(10,-94) scale(1,1)"><g><path fill="none" stroke="none"></path><text fill="#000000" stroke="none" font-family="Helvetica" font-size="13px" font-style="normal" font-weight="bold" text-decoration="none" x="322" y="424">MàJ des recettes à sauvegarder</text></g></g><g transform="translate(10,-94) scale(1,1)"><path fill="#C0C0C0" stroke="none" d="M 423 332 C 423 322.6111584 458.36950079999997 315 502 315 C 545.6304992 315 581 322.6111584 581 332 C 581 341.3888416 545.6304992 349 502 349 C 458.36950079999997 349 423 341.3888416 423 332 Z" opacity="0.2"></path></g><g transform="translate(10,-94) scale(1,1)"><path fill="#0abaff" stroke="none" d="M 416 325 C 416 315.6111584 451.36950079999997 308 495 308 C 538.6304992 308 574 315.6111584 574 325 C 574 334.3888416 538.6304992 342 495 342 C 451.36950079999997 342 416 334.3888416 416 325 Z"></path></g><g transform="translate(10,-94) scale(1,1)"><path fill="none" stroke="#000000" d="M 416 325 C 416 315.6111584 451.36950079999997 308 495 308 C 538.6304992 308 574 315.6111584 574 325 C 574 334.3888416 538.6304992 342 495 342 C 451.36950079999997 342 416 334.3888416 416 325 Z" stroke-miterlimit="10"></path></g><g transform="translate(10,-94) scale(1,1)"><g><path fill="none" stroke="none"></path><text fill="#000000" stroke="none" font-family="Helvetica" font-size="13px" font-style="normal" font-weight="bold" text-decoration="none" x="444.5" y="332">MàJ des recettes</text></g></g><g transform="translate(10,-94) scale(1,1)"><path fill="none" stroke="#000000" d="M 295 382 L 353 399" stroke-miterlimit="10"></path></g><g transform="translate(10,-94) scale(1,1)"><path fill="none" stroke="#000000" d="M 342.06359423285966 400.18111341388504 L 353 399 L 344.4316200159389 392.10196662455587" stroke-miterlimit="10"></path></g><g transform="translate(10,-94) scale(1,1)"><path fill="none" stroke="#000000" d="M 256 543 L 392 435" stroke-miterlimit="10"></path></g><g transform="translate(10,-94) scale(1,1)"><path fill="none" stroke="#000000" d="M 386.6593230050365 444.61650504265805 L 392 435 L 381.42367515375616 438.02346700771244" stroke-miterlimit="10"></path></g><g transform="translate(10,-94) scale(1,1)"><path fill="none" stroke="#000000" d="M 431 399 L 479 343" stroke-miterlimit="10" stroke-dasharray="3"></path></g><g transform="translate(10,-94) scale(1,1)"><path fill="none" stroke="#000000" d="M 475.58232302044945 353.4555958253679 L 479 343 L 469.19011472239123 347.97656014131803" stroke-miterlimit="10"></path></g><g transform="translate(10,-94) scale(1,1)"><g><path fill="none" stroke="none"></path><text fill="#000000" stroke="none" font-family="Arial" font-size="13px" font-style="normal" font-weight="normal" text-decoration="none" x="406" y="358">«extend»</text></g></g><g transform="translate(10,-94) scale(1,1)"><path fill="none" stroke="#000000" d="M 420 263 L 473 307" stroke-miterlimit="10" stroke-dasharray="3"></path></g><g transform="translate(10,-94) scale(1,1)"><path fill="none" stroke="#000000" d="M 462.4918854179523 303.74738137333065 L 473 307 L 467.8695896090804 297.26969223401727" stroke-miterlimit="10"></path></g><g transform="translate(10,-94) scale(1,1)"><g><path fill="none" stroke="none"></path><text fill="#000000" stroke="none" font-family="Arial" font-size="13px" font-style="normal" font-weight="normal" text-decoration="none" x="444" y="285">«extend»</text></g></g><g transform="translate(10,-94) scale(1,1)"><path fill="none" stroke="#000000" d="M 262 207 L 334 227" stroke-miterlimit="10"></path></g><g transform="translate(10,-94) scale(1,1)"><path fill="none" stroke="#000000" d="M 323.08142916803695 228.33596818353033 L 334 227 L 325.33473236182954 220.22407668587704" stroke-miterlimit="10"></path></g><g transform="translate(10,-94) scale(1,1)"><path fill="none" stroke="#000000" d="M 275 273 L 318 263" stroke-miterlimit="10"></path></g><g transform="translate(10,-94) scale(1,1)"><path fill="none" stroke="#000000" d="M 309.05498569023433 269.4020870814202 L 318 263 L 307.147960534735 261.201878912773" stroke-miterlimit="10"></path></g><g transform="translate(10,-94) scale(1,1)"><path fill="#C0C0C0" stroke="none" d="M 735 372 C 735 362.6111584 770.1456432 355 813.5 355 C 856.8543568 355 892 362.6111584 892 372 C 892 381.3888416 856.8543568 389 813.5 389 C 770.1456432 389 735 381.3888416 735 372 Z" opacity="0.2"></path></g><g transform="translate(10,-94) scale(1,1)"><path fill="#0abaff" stroke="none" d="M 728 365 C 728 355.6111584 763.1456432 348 806.5 348 C 849.8543568 348 885 355.6111584 885 365 C 885 374.3888416 849.8543568 382 806.5 382 C 763.1456432 382 728 374.3888416 728 365 Z"></path></g><g transform="translate(10,-94) scale(1,1)"><path fill="none" stroke="#000000" d="M 728 365 C 728 355.6111584 763.1456432 348 806.5 348 C 849.8543568 348 885 355.6111584 885 365 C 885 374.3888416 849.8543568 382 806.5 382 C 763.1456432 382 728 374.3888416 728 365 Z" stroke-miterlimit="10"></path></g><g transform="translate(10,-94) scale(1,1)"><g><path fill="none" stroke="none"></path><text fill="#000000" stroke="none" font-family="Helvetica" font-size="13px" font-style="normal" font-weight="bold" text-decoration="none" x="760" y="372">Synchronisation</text></g></g><g transform="translate(10,-94) scale(1,1)"><path fill="none" stroke="#000000" d="M 575 335 L 727 355" stroke-miterlimit="10" stroke-dasharray="3"></path></g><g transform="translate(10,-94) scale(1,1)"><path fill="none" stroke="#000000" d="M 716.3750217711846 357.84777766639183 L 727 355 L 717.473322945228 349.50068874366247" stroke-miterlimit="10"></path></g><g transform="translate(10,-94) scale(1,1)"><g><path fill="none" stroke="none"></path><text fill="#000000" stroke="none" font-family="Arial" font-size="13px" font-style="normal" font-weight="normal" text-decoration="none" x="627" y="322">«include»</text></g></g><g transform="translate(10,-94) scale(1,1)"><path fill="none" stroke="#000000" d="M 250 451 L 327 435" stroke-miterlimit="10"></path></g><g transform="translate(10,-94) scale(1,1)"><path fill="none" stroke="#000000" d="M 317.90627805036115 441.18904040240943 L 327 435 L 316.1934551056042 432.9460799807666" stroke-miterlimit="10"></path></g><g transform="translate(10,-94) scale(1,1)"><path fill="#C0C0C0" stroke="none" d="M 507 396 C 507 386.6111584 558.9349632 379 623 379 C 687.0650368 379 739 386.6111584 739 396 C 739 405.3888416 687.0650368 413 623 413 C 558.9349632 413 507 405.3888416 507 396 Z" opacity="0.2"></path></g><g transform="translate(10,-94) scale(1,1)"><path fill="#0abaff" stroke="none" d="M 500 389 C 500 379.6111584 551.9349632 372 616 372 C 680.0650368 372 732 379.6111584 732 389 C 732 398.3888416 680.0650368 406 616 406 C 551.9349632 406 500 398.3888416 500 389 Z"></path></g><g transform="translate(10,-94) scale(1,1)"><path fill="none" stroke="#000000" d="M 500 389 C 500 379.6111584 551.9349632 372 616 372 C 680.0650368 372 732 379.6111584 732 389 C 732 398.3888416 680.0650368 406 616 406 C 551.9349632 406 500 398.3888416 500 389 Z" stroke-miterlimit="10"></path></g><g transform="translate(10,-94) scale(1,1)"><g><path fill="none" stroke="none"></path><text fill="#000000" stroke="none" font-family="Helvetica" font-size="13px" font-style="normal" font-weight="bold" text-decoration="none" x="542.5" y="396">Lancer une alerte de MàJ</text></g></g><g transform="translate(10,-94) scale(1,1)"><path fill="none" stroke="#000000" d="M 529 343 L 582 371" stroke-miterlimit="10"></path></g><g transform="translate(10,-94) scale(1,1)"><path fill="none" stroke="#000000" d="M 571.0478758433721 369.9748285715026 L 582 371 L 574.9805844094205 362.5307730714822" stroke-miterlimit="10"></path></g><g transform="translate(10,-94) scale(1,1)"><path fill="#C0C0C0" stroke="none" d="M 487 524 C 487 514.6111584 511.4004784 507 541.5 507 C 571.5995216 507 596 514.6111584 596 524 C 596 533.3888416 571.5995216 541 541.5 541 C 511.4004784 541 487 533.3888416 487 524 Z" opacity="0.2"></path></g><g transform="translate(10,-94) scale(1,1)"><path fill="#0abaff" stroke="none" d="M 480 517 C 480 507.6111584 504.4004784 500 534.5 500 C 564.5995216 500 589 507.6111584 589 517 C 589 526.3888416 564.5995216 534 534.5 534 C 504.4004784 534 480 526.3888416 480 517 Z"></path></g><g transform="translate(10,-94) scale(1,1)"><path fill="none" stroke="#000000" d="M 480 517 C 480 507.6111584 504.4004784 500 534.5 500 C 564.5995216 500 589 507.6111584 589 517 C 589 526.3888416 564.5995216 534 534.5 534 C 504.4004784 534 480 526.3888416 480 517 Z" stroke-miterlimit="10"></path></g><g transform="translate(10,-94) scale(1,1)"><g><path fill="none" stroke="none"></path><text fill="#000000" stroke="none" font-family="Helvetica" font-size="13px" font-style="normal" font-weight="bold" text-decoration="none" x="503.5" y="524">Administer</text></g></g><g transform="translate(10,-94) scale(1,1)"><path fill="none" stroke="#000000" d="M 604 407 L 546 499" stroke-miterlimit="10"></path></g><g transform="translate(10,-94) scale(1,1)"><path fill="none" stroke="#000000" d="M 547.8588250411412 488.1581934408316 L 546 499 L 554.9807027299311 492.64807285332955" stroke-miterlimit="10"></path></g><g transform="translate(10,-94) scale(1,1)"><path fill="none" stroke="#000000" d="M 566 499 L 774 383" stroke-miterlimit="10" stroke-dasharray="3"></path></g><g transform="translate(10,-94) scale(1,1)"><path fill="none" stroke="#000000" d="M 767.1746096312105 391.6263576504592 L 774 383 L 763.0739641944035 384.2734761775638" stroke-miterlimit="10"></path></g><g transform="translate(10,-94) scale(1,1)"><g><path fill="none" stroke="none"></path><text fill="#000000" stroke="none" font-family="Arial" font-size="13px" font-style="normal" font-weight="normal" text-decoration="none" x="572" y="442">«include»</text></g></g><g transform="translate(10,-94) scale(1,1)"><path fill="#C0C0C0" stroke="none" d="M 695 484 C 695 474.6111584 716.7141872 467 743.5 467 C 770.2858128 467 792 474.6111584 792 484 C 792 493.3888416 770.2858128 501 743.5 501 C 716.7141872 501 695 493.3888416 695 484 Z" opacity="0.2"></path></g><g transform="translate(10,-94) scale(1,1)"><path fill="#0abaff" stroke="none" d="M 688 477 C 688 467.6111584 709.7141872 460 736.5 460 C 763.2858128 460 785 467.6111584 785 477 C 785 486.3888416 763.2858128 494 736.5 494 C 709.7141872 494 688 486.3888416 688 477 Z"></path></g><g transform="translate(10,-94) scale(1,1)"><path fill="none" stroke="#000000" d="M 688 477 C 688 467.6111584 709.7141872 460 736.5 460 C 763.2858128 460 785 467.6111584 785 477 C 785 486.3888416 763.2858128 494 736.5 494 C 709.7141872 494 688 486.3888416 688 477 Z" stroke-miterlimit="10"></path></g><g transform="translate(10,-94) scale(1,1)"><g><path fill="none" stroke="none"></path><text fill="#000000" stroke="none" font-family="Helvetica" font-size="13px" font-style="normal" font-weight="bold" text-decoration="none" x="716.5" y="484">Valider</text></g></g><g transform="translate(10,-94) scale(1,1)"><path fill="#C0C0C0" stroke="none" d="M 655 572 C 655 562.6111584 700.890808 555 757.5 555 C 814.109192 555 860 562.6111584 860 572 C 860 581.3888416 814.109192 589 757.5 589 C 700.890808 589 655 581.3888416 655 572 Z" opacity="0.2"></path></g><g transform="translate(10,-94) scale(1,1)"><path fill="#0abaff" stroke="none" d="M 648 565 C 648 555.6111584 693.890808 548 750.5 548 C 807.109192 548 853 555.6111584 853 565 C 853 574.3888416 807.109192 582 750.5 582 C 693.890808 582 648 574.3888416 648 565 Z"></path></g><g transform="translate(10,-94) scale(1,1)"><path fill="none" stroke="#000000" d="M 648 565 C 648 555.6111584 693.890808 548 750.5 548 C 807.109192 548 853 555.6111584 853 565 C 853 574.3888416 807.109192 582 750.5 582 C 693.890808 582 648 574.3888416 648 565 Z" stroke-miterlimit="10"></path></g><g transform="translate(10,-94) scale(1,1)"><g><path fill="none" stroke="none"></path><text fill="#000000" stroke="none" font-family="Helvetica" font-size="13px" font-style="normal" font-weight="bold" text-decoration="none" x="688.5" y="572">Supprimer du serveur</text></g></g><g transform="translate(10,-94) scale(1,1)"><path fill="none" stroke="#000000" d="M 687 487 L 590 506" stroke-miterlimit="10" stroke-dasharray="3"></path></g><g transform="translate(10,-94) scale(1,1)"><path fill="none" stroke="#000000" d="M 599.1639851059391 499.91548054665554 L 590 506 L 600.7823209768234 508.1775110453807" stroke-miterlimit="10"></path></g><g transform="translate(10,-94) scale(1,1)"><g><path fill="none" stroke="none"></path><text fill="#000000" stroke="none" font-family="Arial" font-size="13px" font-style="normal" font-weight="normal" text-decoration="none" x="582" y="505">«extend»</text></g></g><g transform="translate(10,-94) scale(1,1)"><path fill="none" stroke="#000000" d="M 669 547 L 590 529" stroke-miterlimit="10" stroke-dasharray="3"></path></g><g transform="translate(10,-94) scale(1,1)"><path fill="none" stroke="#000000" d="M 600.843887948615 527.1533559742383 L 590 529 L 598.9735612159465 535.362012189839" stroke-miterlimit="10"></path></g><g transform="translate(10,-94) scale(1,1)"><g><path fill="none" stroke="none"></path><text fill="#000000" stroke="none" font-family="Arial" font-size="13px" font-style="normal" font-weight="normal" text-decoration="none" x="542" y="541">«extend»</text></g></g><g transform="translate(10,-94) scale(1,1)"><path fill="#0abaff" stroke="none" d="M 17.516363636363636 344.05 C 17.516363636363636 333.52897456 25.791768587636362 325 36 325 C 46.20823141236364 325 54.483636363636364 333.52897456 54.483636363636364 344.05 C 54.483636363636364 354.57102544 46.20823141236364 363.1 36 363.1 C 25.791768587636362 363.1 17.516363636363636 354.57102544 17.516363636363636 344.05 Z"></path></g><g transform="translate(10,-94) scale(1,1)"><path fill="none" stroke="#000000" d="M 17.516363636363636 344.05 C 17.516363636363636 333.52897456 25.791768587636362 325 36 325 C 46.20823141236364 325 54.483636363636364 333.52897456 54.483636363636364 344.05 C 54.483636363636364 354.57102544 46.20823141236364 363.1 36 363.1 C 25.791768587636362 363.1 17.516363636363636 354.57102544 17.516363636363636 344.05 Z" stroke-miterlimit="10"></path></g><g transform="translate(10,-94) scale(1,1)"><path fill="none" stroke="#000000" d="M 36 363.1 L 36 399.9" stroke-miterlimit="10"></path></g><g transform="translate(10,-94) scale(1,1)"><path fill="none" stroke="#000000" d="M 16.42909090909091 376.9 L 55.57090909090909 376.9" stroke-miterlimit="10"></path></g><g transform="translate(10,-94) scale(1,1)"><path fill="none" stroke="#000000" d="M 36 399.9 L 8.81818181818182 438" stroke-miterlimit="10"></path></g><g transform="translate(10,-94) scale(1,1)"><path fill="none" stroke="#000000" d="M 36 399.9 L 63.18181818181818 438" stroke-miterlimit="10"></path></g><g transform="translate(10,-94) scale(1,1)"><g><path fill="none" stroke="none"></path><text fill="#000000" stroke="none" font-family="Helvetica" font-size="13px" font-style="normal" font-weight="bold" text-decoration="none" x="7" y="458.5">Utilisateur</text></g></g><g transform="translate(10,-94) scale(1,1)"><path fill="none" stroke="#000000" d="M 73 352 L 196 211" stroke-miterlimit="10"></path></g><g transform="translate(10,-94) scale(1,1)"><path fill="none" stroke="#000000" d="M 73 372 L 190 303" stroke-miterlimit="10"></path></g><g transform="translate(10,-94) scale(1,1)"><path fill="none" stroke="#000000" d="M 73 389 L 179 373" stroke-miterlimit="10"></path></g><g transform="translate(10,-94) scale(1,1)"><path fill="none" stroke="#000000" d="M 73 409 L 156 443" stroke-miterlimit="10"></path></g><g transform="translate(10,-94) scale(1,1)"><path fill="none" stroke="#000000" d="M 73 425 L 212 543" stroke-miterlimit="10"></path></g><g transform="translate(10,-94) scale(1,1)"><path fill="#0abaff" stroke="none" d="M 944.8018181818181 459.45 C 944.8018181818181 447.05120624 954.5164239941818 437 966.5 437 C 978.4835760058182 437 988.1981818181819 447.05120624 988.1981818181819 459.45 C 988.1981818181819 471.84879376 978.4835760058182 481.9 966.5 481.9 C 954.5164239941818 481.9 944.8018181818181 471.84879376 944.8018181818181 459.45 Z"></path></g><g transform="translate(10,-94) scale(1,1)"><path fill="none" stroke="#000000" d="M 944.8018181818181 459.45 C 944.8018181818181 447.05120624 954.5164239941818 437 966.5 437 C 978.4835760058182 437 988.1981818181819 447.05120624 988.1981818181819 459.45 C 988.1981818181819 471.84879376 978.4835760058182 481.9 966.5 481.9 C 954.5164239941818 481.9 944.8018181818181 471.84879376 944.8018181818181 459.45 Z" stroke-miterlimit="10"></path></g><g transform="translate(10,-94) scale(1,1)"><path fill="none" stroke="#000000" d="M 966.5 481.9 L 966.5 525.1" stroke-miterlimit="10"></path></g><g transform="translate(10,-94) scale(1,1)"><path fill="none" stroke="#000000" d="M 943.5254545454545 498.1 L 989.4745454545455 498.1" stroke-miterlimit="10"></path></g><g transform="translate(10,-94) scale(1,1)"><path fill="none" stroke="#000000" d="M 966.5 525.1 L 934.590909090909 570" stroke-miterlimit="10"></path></g><g transform="translate(10,-94) scale(1,1)"><path fill="none" stroke="#000000" d="M 966.5 525.1 L 998.409090909091 570" stroke-miterlimit="10"></path></g><g transform="translate(10,-94) scale(1,1)"><g><path fill="none" stroke="none"></path><text fill="#000000" stroke="none" font-family="Helvetica" font-size="13px" font-style="normal" font-weight="bold" text-decoration="none" x="924.5" y="590.5">Administrateur</text></g></g><g transform="translate(10,-94) scale(1,1)"><path fill="none" stroke="#000000" d="M 786 485 L 915 507" stroke-miterlimit="10"></path></g><g transform="translate(10,-94) scale(1,1)"><path fill="none" stroke="#000000" d="M 829 547 L 915 528" stroke-miterlimit="10"></path></g><g transform="translate(10,-94) scale(1,1)"><path fill="#0abaff" stroke="none" d="M 945.5876363636364 186.09 C 945.5876363636364 174.442313568 954.7265618315637 165 966 165 C 977.2734381684363 165 986.4123636363636 174.442313568 986.4123636363636 186.09 C 986.4123636363636 197.737686432 977.2734381684363 207.18 966 207.18 C 954.7265618315637 207.18 945.5876363636364 197.737686432 945.5876363636364 186.09 Z"></path></g><g transform="translate(10,-94) scale(1,1)"><path fill="none" stroke="#000000" d="M 945.5876363636364 186.09 C 945.5876363636364 174.442313568 954.7265618315637 165 966 165 C 977.2734381684363 165 986.4123636363636 174.442313568 986.4123636363636 186.09 C 986.4123636363636 197.737686432 977.2734381684363 207.18 966 207.18 C 954.7265618315637 207.18 945.5876363636364 197.737686432 945.5876363636364 186.09 Z" stroke-miterlimit="10"></path></g><g transform="translate(10,-94) scale(1,1)"><path fill="none" stroke="#000000" d="M 966 207.18 L 966 247.82" stroke-miterlimit="10"></path></g><g transform="translate(10,-94) scale(1,1)"><path fill="none" stroke="#000000" d="M 944.3869090909091 222.42000000000002 L 987.6130909090909 222.42000000000002" stroke-miterlimit="10"></path></g><g transform="translate(10,-94) scale(1,1)"><path fill="none" stroke="#000000" d="M 966 247.82 L 935.9818181818182 290" stroke-miterlimit="10"></path></g><g transform="translate(10,-94) scale(1,1)"><path fill="none" stroke="#000000" d="M 966 247.82 L 996.0181818181818 290" stroke-miterlimit="10"></path></g><g transform="translate(10,-94) scale(1,1)"><g><path fill="none" stroke="none"></path><text fill="#000000" stroke="none" font-family="Helvetica" font-size="13px" font-style="normal" font-weight="bold" text-decoration="none" x="949.5" y="310.5">Cloud</text></g></g><g transform="translate(10,-94) scale(1,1)"><path fill="none" stroke="#000000" d="M 829 347 L 927 270" stroke-miterlimit="10"></path></g></g></svg>