<svg version="1.1" xmlns="http://www.w3.org/2000/svg" xmlns:xlink="http://www.w3.org/1999/xlink" width="324" height="372"><defs></defs><g><g transform="translate(-214,-178) scale(1,1)"><rect fill="#C0C0C0" stroke="none" x="231" y="195" width="44.80000000000001" height="15" opacity="0.2"></rect></g><g transform="translate(-214,-178) scale(1,1)"><rect fill="#C0C0C0" stroke="none" x="231" y="209" width="112" height="54" opacity="0.2"></rect></g><g transform="translate(-214,-178) scale(1,1)"><rect fill="#0abaff" stroke="none" x="224" y="203" width="112" height="53"></rect></g><g transform="translate(-214,-178) scale(1,1)"><path fill="none" stroke="#000000" d="M 224 203 L 336 203 L 336 256 L 224 256 L 224 203 Z Z" stroke-miterlimit="10"></path></g><g transform="translate(-214,-178) scale(1,1)"><rect fill="#0abaff" stroke="none" x="224" y="188" width="44.80000000000001" height="15"></rect></g><g transform="translate(-214,-178) scale(1,1)"><path fill="none" stroke="#000000" d="M 224 188 L 268.8 188 L 268.8 203 L 224 203 L 224 188 Z Z" stroke-miterlimit="10"></path></g><g transform="translate(-214,-178) scale(1,1)"><rect fill="#0abaff" stroke="none" x="224" y="202" width="112" height="54"></rect></g><g transform="translate(-214,-178) scale(1,1)"><path fill="none" stroke="#000000" d="M 224 202 L 336 202 L 336 256 L 224 256 L 224 202 Z Z" stroke-miterlimit="10"></path></g><g transform="translate(-214,-178) scale(1,1)"><g><path fill="none" stroke="none"></path><text fill="#000000" stroke="none" font-family="Helvetica" font-size="13px" font-style="normal" font-weight="bold" text-decoration="none" x="263" y="222.5">Photo</text></g></g><g transform="translate(-214,-178) scale(1,1)"><rect fill="#C0C0C0" stroke="none" x="423" y="479" width="44.39999999999998" height="15" opacity="0.2"></rect></g><g transform="translate(-214,-178) scale(1,1)"><rect fill="#C0C0C0" stroke="none" x="423" y="493" width="111" height="54" opacity="0.2"></rect></g><g transform="translate(-214,-178) scale(1,1)"><rect fill="#0abaff" stroke="none" x="416" y="487" width="111" height="53"></rect></g><g transform="translate(-214,-178) scale(1,1)"><path fill="none" stroke="#000000" d="M 416 487 L 527 487 L 527 540 L 416 540 L 416 487 Z Z" stroke-miterlimit="10"></path></g><g transform="translate(-214,-178) scale(1,1)"><rect fill="#0abaff" stroke="none" x="416" y="472" width="44.39999999999998" height="15"></rect></g><g transform="translate(-214,-178) scale(1,1)"><path fill="none" stroke="#000000" d="M 416 472 L 460.4 472 L 460.4 487 L 416 487 L 416 472 Z Z" stroke-miterlimit="10"></path></g><g transform="translate(-214,-178) scale(1,1)"><rect fill="#0abaff" stroke="none" x="416" y="486" width="111" height="54"></rect></g><g transform="translate(-214,-178) scale(1,1)"><path fill="none" stroke="#000000" d="M 416 486 L 527 486 L 527 540 L 416 540 L 416 486 Z Z" stroke-miterlimit="10"></path></g><g transform="translate(-214,-178) scale(1,1)"><g><path fill="none" stroke="none"></path><text fill="#000000" stroke="none" font-family="Helvetica" font-size="13px" font-style="normal" font-weight="bold" text-decoration="none" x="425" y="506.5">Synchronisation</text></g></g><g transform="translate(-214,-178) scale(1,1)"><rect fill="#C0C0C0" stroke="none" x="231" y="479" width="44.80000000000001" height="15" opacity="0.2"></rect></g><g transform="translate(-214,-178) scale(1,1)"><rect fill="#C0C0C0" stroke="none" x="231" y="493" width="112" height="54" opacity="0.2"></rect></g><g transform="translate(-214,-178) scale(1,1)"><rect fill="#0abaff" stroke="none" x="224" y="487" width="112" height="53"></rect></g><g transform="translate(-214,-178) scale(1,1)"><path fill="none" stroke="#000000" d="M 224 487 L 336 487 L 336 540 L 224 540 L 224 487 Z Z" stroke-miterlimit="10"></path></g><g transform="translate(-214,-178) scale(1,1)"><rect fill="#0abaff" stroke="none" x="224" y="472" width="44.80000000000001" height="15"></rect></g><g transform="translate(-214,-178) scale(1,1)"><path fill="none" stroke="#000000" d="M 224 472 L 268.8 472 L 268.8 487 L 224 487 L 224 472 Z Z" stroke-miterlimit="10"></path></g><g transform="translate(-214,-178) scale(1,1)"><rect fill="#0abaff" stroke="none" x="224" y="486" width="112" height="54"></rect></g><g transform="translate(-214,-178) scale(1,1)"><path fill="none" stroke="#000000" d="M 224 486 L 336 486 L 336 540 L 224 540 L 224 486 Z Z" stroke-miterlimit="10"></path></g><g transform="translate(-214,-178) scale(1,1)"><g><path fill="none" stroke="none"></path><text fill="#000000" stroke="none" font-family="Helvetica" font-size="13px" font-style="normal" font-weight="bold" text-decoration="none" x="235" y="506.5">Authentification</text></g></g><g transform="translate(-214,-178) scale(1,1)"><rect fill="#C0C0C0" stroke="none" x="423" y="331" width="44.80000000000001" height="15" opacity="0.2"></rect></g><g transform="translate(-214,-178) scale(1,1)"><rect fill="#C0C0C0" stroke="none" x="423" y="345" width="112" height="54" opacity="0.2"></rect></g><g transform="translate(-214,-178) scale(1,1)"><rect fill="#0abaff" stroke="none" x="416" y="339" width="112" height="53"></rect></g><g transform="translate(-214,-178) scale(1,1)"><path fill="none" stroke="#000000" d="M 416 339 L 528 339 L 528 392 L 416 392 L 416 339 Z Z" stroke-miterlimit="10"></path></g><g transform="translate(-214,-178) scale(1,1)"><rect fill="#0abaff" stroke="none" x="416" y="324" width="44.80000000000001" height="15"></rect></g><g transform="translate(-214,-178) scale(1,1)"><path fill="none" stroke="#000000" d="M 416 324 L 460.8 324 L 460.8 339 L 416 339 L 416 324 Z Z" stroke-miterlimit="10"></path></g><g transform="translate(-214,-178) scale(1,1)"><rect fill="#0abaff" stroke="none" x="416" y="338" width="112" height="54"></rect></g><g transform="translate(-214,-178) scale(1,1)"><path fill="none" stroke="#000000" d="M 416 338 L 528 338 L 528 392 L 416 392 L 416 338 Z Z" stroke-miterlimit="10"></path></g><g transform="translate(-214,-178) scale(1,1)"><g><path fill="none" stroke="none"></path><text fill="#000000" stroke="none" font-family="Helvetica" font-size="13px" font-style="normal" font-weight="bold" text-decoration="none" x="449.5" y="358.5">Recette</text></g></g><g transform="translate(-214,-178) scale(1,1)"><rect fill="#C0C0C0" stroke="none" x="231" y="331" width="44.80000000000001" height="15" opacity="0.2"></rect></g><g transform="translate(-214,-178) scale(1,1)"><rect fill="#C0C0C0" stroke="none" x="231" y="345" width="112" height="54" opacity="0.2"></rect></g><g transform="translate(-214,-178) scale(1,1)"><rect fill="#0abaff" stroke="none" x="224" y="339" width="112" height="53"></rect></g><g transform="translate(-214,-178) scale(1,1)"><path fill="none" stroke="#000000" d="M 224 339 L 336 339 L 336 392 L 224 392 L 224 339 Z Z" stroke-miterlimit="10"></path></g><g transform="translate(-214,-178) scale(1,1)"><rect fill="#0abaff" stroke="none" x="224" y="324" width="44.80000000000001" height="15"></rect></g><g transform="translate(-214,-178) scale(1,1)"><path fill="none" stroke="#000000" d="M 224 324 L 268.8 324 L 268.8 339 L 224 339 L 224 324 Z Z" stroke-miterlimit="10"></path></g><g transform="translate(-214,-178) scale(1,1)"><rect fill="#0abaff" stroke="none" x="224" y="338" width="112" height="54"></rect></g><g transform="translate(-214,-178) scale(1,1)"><path fill="none" stroke="#000000" d="M 224 338 L 336 338 L 336 392 L 224 392 L 224 338 Z Z" stroke-miterlimit="10"></path></g><g transform="translate(-214,-178) scale(1,1)"><g><path fill="none" stroke="none"></path><text fill="#000000" stroke="none" font-family="Helvetica" font-size="13px" font-style="normal" font-weight="bold" text-decoration="none" x="258" y="358.5">Aliment</text></g></g><g transform="translate(-214,-178) scale(1,1)"><path fill="none" stroke="#000000" d="M 416 506 L 336 506" stroke-miterlimit="10" stroke-dasharray="3"></path></g><g transform="translate(-214,-178) scale(1,1)"><path fill="none" stroke="#000000" d="M 346.16267485762415 501.790482243984 L 336 506 L 346.16267485762415 510.209517756016" stroke-miterlimit="10"></path></g><g transform="translate(-214,-178) scale(1,1)"><path fill="none" stroke="#000000" d="M 472 472 L 472 392" stroke-miterlimit="10" stroke-dasharray="3"></path></g><g transform="translate(-214,-178) scale(1,1)"><path fill="none" stroke="#000000" d="M 476.209517756016 402.16267485762415 L 472 392 L 467.790482243984 402.16267485762415" stroke-miterlimit="10"></path></g><g transform="translate(-214,-178) scale(1,1)"><path fill="none" stroke="#000000" d="M 416 358 L 336 358" stroke-miterlimit="10" stroke-dasharray="3"></path></g><g transform="translate(-214,-178) scale(1,1)"><path fill="none" stroke="#000000" d="M 346.16267485762415 353.790482243984 L 336 358 L 346.16267485762415 362.209517756016" stroke-miterlimit="10"></path></g></g></svg>