<svg version="1.1" xmlns="http://www.w3.org/2000/svg" xmlns:xlink="http://www.w3.org/1999/xlink" width="786" height="531"><defs></defs><g><g transform="translate(-26,-94) scale(1,1)"><rect fill="#C0C0C0" stroke="none" x="159" y="111" width="519" height="511" opacity="0.2"></rect></g><g transform="translate(-26,-94) scale(1,1)"><rect fill="#d8f2ff" stroke="none" x="152" y="104" width="519" height="511"></rect></g><g transform="translate(-26,-94) scale(1,1)"><path fill="none" stroke="#000000" d="M 152 104 L 671 104 L 671 615 L 152 615 L 152 104 Z Z" stroke-miterlimit="10"></path></g><g transform="translate(-26,-94) scale(1,1)"><g><path fill="none" stroke="none"></path><text fill="#000000" stroke="none" font-family="Helvetica" font-size="13px" font-style="normal" font-weight="bold" text-decoration="none" x="346" y="123.5">Recherche de recettes</text></g></g><g transform="translate(-26,-94) scale(1,1)"><rect fill="#C0C0C0" stroke="none" x="215" y="211" width="371" height="272" opacity="0.2"></rect></g><g transform="translate(-26,-94) scale(1,1)"><rect fill="#d8f2ff" stroke="none" x="208" y="204" width="371" height="272"></rect></g><g transform="translate(-26,-94) scale(1,1)"><path fill="none" stroke="#000000" d="M 208 204 L 579 204 L 579 476 L 208 476 L 208 204 Z Z" stroke-miterlimit="10"></path></g><g transform="translate(-26,-94) scale(1,1)"><g><path fill="none" stroke="none"></path><text fill="#000000" stroke="none" font-family="Helvetica" font-size="13px" font-style="normal" font-weight="bold" text-decoration="none" x="340.5" y="223.5">Gérer les aliments</text></g></g><g transform="translate(-26,-94) scale(1,1)"><path fill="#C0C0C0" stroke="none" d="M 231 372 C 231 362.6111584 246.4461744 355 265.5 355 C 284.5538256 355 300 362.6111584 300 372 C 300 381.3888416 284.5538256 389 265.5 389 C 246.4461744 389 231 381.3888416 231 372 Z" opacity="0.2"></path></g><g transform="translate(-26,-94) scale(1,1)"><path fill="#0abaff" stroke="none" d="M 224 365 C 224 355.6111584 239.4461744 348 258.5 348 C 277.5538256 348 293 355.6111584 293 365 C 293 374.3888416 277.5538256 382 258.5 382 C 239.4461744 382 224 374.3888416 224 365 Z"></path></g><g transform="translate(-26,-94) scale(1,1)"><path fill="none" stroke="#000000" d="M 224 365 C 224 355.6111584 239.4461744 348 258.5 348 C 277.5538256 348 293 355.6111584 293 365 C 293 374.3888416 277.5538256 382 258.5 382 C 239.4461744 382 224 374.3888416 224 365 Z" stroke-miterlimit="10"></path></g><g transform="translate(-26,-94) scale(1,1)"><g><path fill="none" stroke="none"></path><text fill="#000000" stroke="none" font-family="Helvetica" font-size="13px" font-style="normal" font-weight="bold" text-decoration="none" x="242.5" y="372">Gérer</text></g></g><g transform="translate(-26,-94) scale(1,1)"><path fill="#C0C0C0" stroke="none" d="M 295 452 C 295 442.6111584 318.7289056 435 348 435 C 377.2710944 435 401 442.6111584 401 452 C 401 461.3888416 377.2710944 469 348 469 C 318.7289056 469 295 461.3888416 295 452 Z" opacity="0.2"></path></g><g transform="translate(-26,-94) scale(1,1)"><path fill="#0abaff" stroke="none" d="M 288 445 C 288 435.6111584 311.7289056 428 341 428 C 370.2710944 428 394 435.6111584 394 445 C 394 454.3888416 370.2710944 462 341 462 C 311.7289056 462 288 454.3888416 288 445 Z"></path></g><g transform="translate(-26,-94) scale(1,1)"><path fill="none" stroke="#000000" d="M 288 445 C 288 435.6111584 311.7289056 428 341 428 C 370.2710944 428 394 435.6111584 394 445 C 394 454.3888416 370.2710944 462 341 462 C 311.7289056 462 288 454.3888416 288 445 Z" stroke-miterlimit="10"></path></g><g transform="translate(-26,-94) scale(1,1)"><g><path fill="none" stroke="none"></path><text fill="#000000" stroke="none" font-family="Helvetica" font-size="13px" font-style="normal" font-weight="bold" text-decoration="none" x="311.5" y="452">Supprimer</text></g></g><g transform="translate(-26,-94) scale(1,1)"><path fill="#C0C0C0" stroke="none" d="M 315 304 C 315 294.6111584 336.71418719999997 287 363.5 287 C 390.28581280000003 287 412 294.6111584 412 304 C 412 313.3888416 390.28581280000003 321 363.5 321 C 336.71418719999997 321 315 313.3888416 315 304 Z" opacity="0.2"></path></g><g transform="translate(-26,-94) scale(1,1)"><path fill="#0abaff" stroke="none" d="M 308 297 C 308 287.6111584 329.71418719999997 280 356.5 280 C 383.28581280000003 280 405 287.6111584 405 297 C 405 306.3888416 383.28581280000003 314 356.5 314 C 329.71418719999997 314 308 306.3888416 308 297 Z"></path></g><g transform="translate(-26,-94) scale(1,1)"><path fill="none" stroke="#000000" d="M 308 297 C 308 287.6111584 329.71418719999997 280 356.5 280 C 383.28581280000003 280 405 287.6111584 405 297 C 405 306.3888416 383.28581280000003 314 356.5 314 C 329.71418719999997 314 308 306.3888416 308 297 Z" stroke-miterlimit="10"></path></g><g transform="translate(-26,-94) scale(1,1)"><g><path fill="none" stroke="none"></path><text fill="#000000" stroke="none" font-family="Helvetica" font-size="13px" font-style="normal" font-weight="bold" text-decoration="none" x="336" y="304">Ajouter</text></g></g><g transform="translate(-26,-94) scale(1,1)"><path fill="#C0C0C0" stroke="none" d="M 439 356 C 439 346.6111584 468.101488 339 504 339 C 539.898512 339 569 346.6111584 569 356 C 569 365.3888416 539.898512 373 504 373 C 468.101488 373 439 365.3888416 439 356 Z" opacity="0.2"></path></g><g transform="translate(-26,-94) scale(1,1)"><path fill="#0abaff" stroke="none" d="M 432 349 C 432 339.6111584 461.101488 332 497 332 C 532.898512 332 562 339.6111584 562 349 C 562 358.3888416 532.898512 366 497 366 C 461.101488 366 432 358.3888416 432 349 Z"></path></g><g transform="translate(-26,-94) scale(1,1)"><path fill="none" stroke="#000000" d="M 432 349 C 432 339.6111584 461.101488 332 497 332 C 532.898512 332 562 339.6111584 562 349 C 562 358.3888416 532.898512 366 497 366 C 461.101488 366 432 358.3888416 432 349 Z" stroke-miterlimit="10"></path></g><g transform="translate(-26,-94) scale(1,1)"><g><path fill="none" stroke="none"></path><text fill="#000000" stroke="none" font-family="Helvetica" font-size="13px" font-style="normal" font-weight="bold" text-decoration="none" x="459" y="356">Ajout manuel</text></g></g><g transform="translate(-26,-94) scale(1,1)"><path fill="#C0C0C0" stroke="none" d="M 439 256 C 439 246.6111584 469.6684912 239 507.5 239 C 545.3315088 239 576 246.6111584 576 256 C 576 265.3888416 545.3315088 273 507.5 273 C 469.6684912 273 439 265.3888416 439 256 Z" opacity="0.2"></path></g><g transform="translate(-26,-94) scale(1,1)"><path fill="#0abaff" stroke="none" d="M 432 249 C 432 239.6111584 462.6684912 232 500.5 232 C 538.3315088 232 569 239.6111584 569 249 C 569 258.3888416 538.3315088 266 500.5 266 C 462.6684912 266 432 258.3888416 432 249 Z"></path></g><g transform="translate(-26,-94) scale(1,1)"><path fill="none" stroke="#000000" d="M 432 249 C 432 239.6111584 462.6684912 232 500.5 232 C 538.3315088 232 569 239.6111584 569 249 C 569 258.3888416 538.3315088 266 500.5 266 C 462.6684912 266 432 258.3888416 432 249 Z" stroke-miterlimit="10"></path></g><g transform="translate(-26,-94) scale(1,1)"><g><path fill="none" stroke="none"></path><text fill="#000000" stroke="none" font-family="Helvetica" font-size="13px" font-style="normal" font-weight="bold" text-decoration="none" x="459" y="256">Ajout via scan</text></g></g><g transform="translate(-26,-94) scale(1,1)"><path fill="none" stroke="#000000" d="M 330 315 L 284 347" stroke-miterlimit="10" stroke-dasharray="3"></path></g><g transform="translate(-26,-94) scale(1,1)"><path fill="none" stroke="#000000" d="M 289.9386865517761 337.7408422607802 L 284 347 L 294.74649875758047 344.652072306624" stroke-miterlimit="10"></path></g><g transform="translate(-26,-94) scale(1,1)"><g><path fill="none" stroke="none"></path><text fill="#000000" stroke="none" font-family="Arial" font-size="13px" font-style="normal" font-weight="normal" text-decoration="none" x="221" y="320">«extend»</text></g></g><g transform="translate(-26,-94) scale(1,1)"><path fill="none" stroke="#000000" d="M 322 427 L 277 383" stroke-miterlimit="10" stroke-dasharray="3"></path></g><g transform="translate(-26,-94) scale(1,1)"><path fill="none" stroke="#000000" d="M 287.20932838334 387.09507191159423 L 277 383 L 281.3234322130852 393.11473844935483" stroke-miterlimit="10"></path></g><g transform="translate(-26,-94) scale(1,1)"><g><path fill="none" stroke="none"></path><text fill="#000000" stroke="none" font-family="Arial" font-size="13px" font-style="normal" font-weight="normal" text-decoration="none" x="206" y="400">«extend»</text></g></g><g transform="translate(-26,-94) scale(1,1)"><path fill="none" stroke="#000000" d="M 448 331 L 405 315" stroke-miterlimit="10" stroke-dasharray="3"></path></g><g transform="translate(-26,-94) scale(1,1)"><path fill="none" stroke="#000000" d="M 415.9926816946342 314.598815303813 L 405 315 L 413.05668018888315 322.489319350519" stroke-miterlimit="10"></path></g><g transform="translate(-26,-94) scale(1,1)"><g><path fill="none" stroke="none"></path><text fill="#000000" stroke="none" font-family="Arial" font-size="13px" font-style="normal" font-weight="normal" text-decoration="none" x="383" y="336">«extend»</text></g></g><g transform="translate(-26,-94) scale(1,1)"><path fill="none" stroke="#000000" d="M 446 267 L 406 280" stroke-miterlimit="10" stroke-dasharray="3"></path></g><g transform="translate(-26,-94) scale(1,1)"><path fill="none" stroke="#000000" d="M 414.3639467093938 272.8554639449142 L 406 280 L 416.9661533286782 280.8622535427124" stroke-miterlimit="10"></path></g><g transform="translate(-26,-94) scale(1,1)"><g><path fill="none" stroke="none"></path><text fill="#000000" stroke="none" font-family="Arial" font-size="13px" font-style="normal" font-weight="normal" text-decoration="none" x="380" y="268">«extend»</text></g></g><g transform="translate(-26,-94) scale(1,1)"><path fill="#C0C0C0" stroke="none" d="M 415 416 C 415 406.6111584 451.936504 399 497.5 399 C 543.063496 399 580 406.6111584 580 416 C 580 425.3888416 543.063496 433 497.5 433 C 451.936504 433 415 425.3888416 415 416 Z" opacity="0.2"></path></g><g transform="translate(-26,-94) scale(1,1)"><path fill="#0abaff" stroke="none" d="M 408 409 C 408 399.6111584 444.936504 392 490.5 392 C 536.063496 392 573 399.6111584 573 409 C 573 418.3888416 536.063496 426 490.5 426 C 444.936504 426 408 418.3888416 408 409 Z"></path></g><g transform="translate(-26,-94) scale(1,1)"><path fill="none" stroke="#000000" d="M 408 409 C 408 399.6111584 444.936504 392 490.5 392 C 536.063496 392 573 399.6111584 573 409 C 573 418.3888416 536.063496 426 490.5 426 C 444.936504 426 408 418.3888416 408 409 Z" stroke-miterlimit="10"></path></g><g transform="translate(-26,-94) scale(1,1)"><g><path fill="none" stroke="none"></path><text fill="#000000" stroke="none" font-family="Helvetica" font-size="13px" font-style="normal" font-weight="bold" text-decoration="none" x="439" y="416">MàJ des aliments</text></g></g><g transform="translate(-26,-94) scale(1,1)"><path fill="none" stroke="#000000" d="M 294 372 L 407 393" stroke-miterlimit="10" stroke-dasharray="3"></path></g><g transform="translate(-26,-94) scale(1,1)"><path fill="none" stroke="#000000" d="M 396.2392685414833 395.2818103509469 L 407 393 L 397.7775302426192 387.00449738769163" stroke-miterlimit="10"></path></g><g transform="translate(-26,-94) scale(1,1)"><g><path fill="none" stroke="none"></path><text fill="#000000" stroke="none" font-family="Arial" font-size="13px" font-style="normal" font-weight="normal" text-decoration="none" x="295" y="364">«include»</text></g></g><g transform="translate(-26,-94) scale(1,1)"><path fill="#C0C0C0" stroke="none" d="M 391 516 C 391 506.6111584 438.6816688 499 497.5 499 C 556.3183312 499 604 506.6111584 604 516 C 604 525.3888416 556.3183312 533 497.5 533 C 438.6816688 533 391 525.3888416 391 516 Z" opacity="0.2"></path></g><g transform="translate(-26,-94) scale(1,1)"><path fill="#0abaff" stroke="none" d="M 384 509 C 384 499.6111584 431.6816688 492 490.5 492 C 549.3183312 492 597 499.6111584 597 509 C 597 518.3888416 549.3183312 526 490.5 526 C 431.6816688 526 384 518.3888416 384 509 Z"></path></g><g transform="translate(-26,-94) scale(1,1)"><path fill="none" stroke="#000000" d="M 384 509 C 384 499.6111584 431.6816688 492 490.5 492 C 549.3183312 492 597 499.6111584 597 509 C 597 518.3888416 549.3183312 526 490.5 526 C 431.6816688 526 384 518.3888416 384 509 Z" stroke-miterlimit="10"></path></g><g transform="translate(-26,-94) scale(1,1)"><g><path fill="none" stroke="none"></path><text fill="#000000" stroke="none" font-family="Helvetica" font-size="13px" font-style="normal" font-weight="bold" text-decoration="none" x="423.5" y="516">Suggestion de recettes</text></g></g><g transform="translate(-26,-94) scale(1,1)"><path fill="none" stroke="#000000" d="M 490 427 L 490 491" stroke-miterlimit="10"></path></g><g transform="translate(-26,-94) scale(1,1)"><path fill="none" stroke="#000000" d="M 485.790482243984 480.83732514237585 L 490 491 L 494.209517756016 480.83732514237585" stroke-miterlimit="10"></path></g><g transform="translate(-26,-94) scale(1,1)"><path fill="#C0C0C0" stroke="none" d="M 163 168 C 163 158.6111584 201.5035072 151 249 151 C 296.4964928 151 335 158.6111584 335 168 C 335 177.3888416 296.4964928 185 249 185 C 201.5035072 185 163 177.3888416 163 168 Z" opacity="0.2"></path></g><g transform="translate(-26,-94) scale(1,1)"><path fill="#0abaff" stroke="none" d="M 156 161 C 156 151.6111584 194.5035072 144 242 144 C 289.4964928 144 328 151.6111584 328 161 C 328 170.3888416 289.4964928 178 242 178 C 194.5035072 178 156 170.3888416 156 161 Z"></path></g><g transform="translate(-26,-94) scale(1,1)"><path fill="none" stroke="#000000" d="M 156 161 C 156 151.6111584 194.5035072 144 242 144 C 289.4964928 144 328 151.6111584 328 161 C 328 170.3888416 289.4964928 178 242 178 C 194.5035072 178 156 170.3888416 156 161 Z" stroke-miterlimit="10"></path></g><g transform="translate(-26,-94) scale(1,1)"><g><path fill="none" stroke="none"></path><text fill="#000000" stroke="none" font-family="Helvetica" font-size="13px" font-style="normal" font-weight="bold" text-decoration="none" x="191.5" y="168">Fournir une photo</text></g></g><g transform="translate(-26,-94) scale(1,1)"><path fill="#C0C0C0" stroke="none" d="M 459 168 C 459 158.6111584 480.71418719999997 151 507.5 151 C 534.2858128 151 556 158.6111584 556 168 C 556 177.3888416 534.2858128 185 507.5 185 C 480.71418719999997 185 459 177.3888416 459 168 Z" opacity="0.2"></path></g><g transform="translate(-26,-94) scale(1,1)"><path fill="#0abaff" stroke="none" d="M 452 161 C 452 151.6111584 473.71418719999997 144 500.5 144 C 527.2858128 144 549 151.6111584 549 161 C 549 170.3888416 527.2858128 178 500.5 178 C 473.71418719999997 178 452 170.3888416 452 161 Z"></path></g><g transform="translate(-26,-94) scale(1,1)"><path fill="none" stroke="#000000" d="M 452 161 C 452 151.6111584 473.71418719999997 144 500.5 144 C 527.2858128 144 549 151.6111584 549 161 C 549 170.3888416 527.2858128 178 500.5 178 C 473.71418719999997 178 452 170.3888416 452 161 Z" stroke-miterlimit="10"></path></g><g transform="translate(-26,-94) scale(1,1)"><g><path fill="none" stroke="none"></path><text fill="#000000" stroke="none" font-family="Helvetica" font-size="13px" font-style="normal" font-weight="bold" text-decoration="none" x="477" y="168">Analyse</text></g></g><g transform="translate(-26,-94) scale(1,1)"><path fill="none" stroke="#000000" d="M 329 161 L 451 161" stroke-miterlimit="10" stroke-dasharray="3"></path></g><g transform="translate(-26,-94) scale(1,1)"><path fill="none" stroke="#000000" d="M 440.83732514237585 165.209517756016 L 451 161 L 440.83732514237585 156.790482243984" stroke-miterlimit="10"></path></g><g transform="translate(-26,-94) scale(1,1)"><g><path fill="none" stroke="none"></path><text fill="#000000" stroke="none" font-family="Arial" font-size="13px" font-style="normal" font-weight="normal" text-decoration="none" x="363" y="149">«include»</text></g></g><g transform="translate(-26,-94) scale(1,1)"><path fill="none" stroke="#000000" d="M 500 179 L 500 231" stroke-miterlimit="10"></path></g><g transform="translate(-26,-94) scale(1,1)"><path fill="none" stroke="#000000" d="M 495.790482243984 220.83732514237585 L 500 231 L 504.209517756016 220.83732514237585" stroke-miterlimit="10"></path></g><g transform="translate(-26,-94) scale(1,1)"><path fill="#C0C0C0" stroke="none" d="M 171 572 C 171 562.6111584 216.2192352 555 272 555 C 327.7807648 555 373 562.6111584 373 572 C 373 581.3888416 327.7807648 589 272 589 C 216.2192352 589 171 581.3888416 171 572 Z" opacity="0.2"></path></g><g transform="translate(-26,-94) scale(1,1)"><path fill="#0abaff" stroke="none" d="M 164 565 C 164 555.6111584 209.2192352 548 265 548 C 320.7807648 548 366 555.6111584 366 565 C 366 574.3888416 320.7807648 582 265 582 C 209.2192352 582 164 574.3888416 164 565 Z"></path></g><g transform="translate(-26,-94) scale(1,1)"><path fill="none" stroke="#000000" d="M 164 565 C 164 555.6111584 209.2192352 548 265 548 C 320.7807648 548 366 555.6111584 366 565 C 366 574.3888416 320.7807648 582 265 582 C 209.2192352 582 164 574.3888416 164 565 Z" stroke-miterlimit="10"></path></g><g transform="translate(-26,-94) scale(1,1)"><g><path fill="none" stroke="none"></path><text fill="#000000" stroke="none" font-family="Helvetica" font-size="13px" font-style="normal" font-weight="bold" text-decoration="none" x="201.5" y="572">Consulter les recettes</text></g></g><g transform="translate(-26,-94) scale(1,1)"><path fill="#0abaff" stroke="none" d="M 53.58763636363636 270.09000000000003 C 53.58763636363636 258.44231356800003 62.72656183156363 249 74 249 C 85.27343816843637 249 94.41236363636365 258.44231356800003 94.41236363636365 270.09000000000003 C 94.41236363636365 281.73768643200003 85.27343816843637 291.18 74 291.18 C 62.72656183156363 291.18 53.58763636363636 281.73768643200003 53.58763636363636 270.09000000000003 Z"></path></g><g transform="translate(-26,-94) scale(1,1)"><path fill="none" stroke="#000000" d="M 53.58763636363636 270.09000000000003 C 53.58763636363636 258.44231356800003 62.72656183156363 249 74 249 C 85.27343816843637 249 94.41236363636365 258.44231356800003 94.41236363636365 270.09000000000003 C 94.41236363636365 281.73768643200003 85.27343816843637 291.18 74 291.18 C 62.72656183156363 291.18 53.58763636363636 281.73768643200003 53.58763636363636 270.09000000000003 Z" stroke-miterlimit="10"></path></g><g transform="translate(-26,-94) scale(1,1)"><path fill="none" stroke="#000000" d="M 74 291.18 L 74 331.82" stroke-miterlimit="10"></path></g><g transform="translate(-26,-94) scale(1,1)"><path fill="none" stroke="#000000" d="M 52.386909090909086 306.42 L 95.61309090909091 306.42" stroke-miterlimit="10"></path></g><g transform="translate(-26,-94) scale(1,1)"><path fill="none" stroke="#000000" d="M 74 331.82 L 43.98181818181818 374" stroke-miterlimit="10"></path></g><g transform="translate(-26,-94) scale(1,1)"><path fill="none" stroke="#000000" d="M 74 331.82 L 104.01818181818183 374" stroke-miterlimit="10"></path></g><g transform="translate(-26,-94) scale(1,1)"><g><path fill="none" stroke="none"></path><text fill="#000000" stroke="none" font-family="Helvetica" font-size="13px" font-style="normal" font-weight="bold" text-decoration="none" x="45" y="394.5">Utilisateur</text></g></g><g transform="translate(-26,-94) scale(1,1)"><path fill="none" stroke="#000000" d="M 113 286 L 223 179" stroke-miterlimit="10"></path></g><g transform="translate(-26,-94) scale(1,1)"><path fill="none" stroke="#000000" d="M 113 373 L 251 547" stroke-miterlimit="10"></path></g><g transform="translate(-26,-94) scale(1,1)"><path fill="none" stroke="#000000" d="M 113 333 L 223 357" stroke-miterlimit="10"></path></g><g transform="translate(-26,-94) scale(1,1)"><path fill="#0abaff" stroke="none" d="M 726.1054545454546 474.6 C 726.1054545454546 462.67064832 735.4602601425455 453 747 453 C 758.5397398574545 453 767.8945454545454 462.67064832 767.8945454545454 474.6 C 767.8945454545454 486.52935168000005 758.5397398574545 496.2 747 496.2 C 735.4602601425455 496.2 726.1054545454546 486.52935168000005 726.1054545454546 474.6 Z"></path></g><g transform="translate(-26,-94) scale(1,1)"><path fill="none" stroke="#000000" d="M 726.1054545454546 474.6 C 726.1054545454546 462.67064832 735.4602601425455 453 747 453 C 758.5397398574545 453 767.8945454545454 462.67064832 767.8945454545454 474.6 C 767.8945454545454 486.52935168000005 758.5397398574545 496.2 747 496.2 C 735.4602601425455 496.2 726.1054545454546 486.52935168000005 726.1054545454546 474.6 Z" stroke-miterlimit="10"></path></g><g transform="translate(-26,-94) scale(1,1)"><path fill="none" stroke="#000000" d="M 747 496.2 L 747 537.8" stroke-miterlimit="10"></path></g><g transform="translate(-26,-94) scale(1,1)"><path fill="none" stroke="#000000" d="M 724.8763636363636 511.8 L 769.1236363636364 511.8" stroke-miterlimit="10"></path></g><g transform="translate(-26,-94) scale(1,1)"><path fill="none" stroke="#000000" d="M 747 537.8 L 716.2727272727273 581" stroke-miterlimit="10"></path></g><g transform="translate(-26,-94) scale(1,1)"><path fill="none" stroke="#000000" d="M 747 537.8 L 777.7272727272727 581" stroke-miterlimit="10"></path></g><g transform="translate(-26,-94) scale(1,1)"><g><path fill="none" stroke="none"></path><text fill="#000000" stroke="none" font-family="Helvetica" font-size="13px" font-style="normal" font-weight="bold" text-decoration="none" x="698.5" y="601.5">BDD Partenaires</text></g></g><g transform="translate(-26,-94) scale(1,1)"><path fill="none" stroke="#000000" d="M 691 525 L 598 517" stroke-miterlimit="10"></path></g><g transform="translate(-26,-94) scale(1,1)"><path fill="none" stroke="#000000" d="M 691 533 L 367 557" stroke-miterlimit="10"></path></g></g></svg>