<svg version="1.1" xmlns="http://www.w3.org/2000/svg" xmlns:xlink="http://www.w3.org/1999/xlink" width="744" height="372"><defs></defs><g><g transform="translate(-38,-178) scale(1,1)"><rect fill="#C0C0C0" stroke="none" x="191" y="195" width="483" height="352" opacity="0.2"></rect></g><g transform="translate(-38,-178) scale(1,1)"><rect fill="#d8f2ff" stroke="none" x="184" y="188" width="483" height="352"></rect></g><g transform="translate(-38,-178) scale(1,1)"><path fill="none" stroke="#000000" d="M 184 188 L 667 188 L 667 540 L 184 540 L 184 188 Z Z" stroke-miterlimit="10"></path></g><g transform="translate(-38,-178) scale(1,1)"><g><path fill="none" stroke="none"></path><text fill="#000000" stroke="none" font-family="Helvetica" font-size="13px" font-style="normal" font-weight="bold" text-decoration="none" x="374" y="207.5">Écrire une recette</text></g></g><g transform="translate(-38,-178) scale(1,1)"><path fill="#C0C0C0" stroke="none" d="M 211 364 C 211 354.6111584 258.6816688 347 317.5 347 C 376.3183312 347 424 354.6111584 424 364 C 424 373.3888416 376.3183312 381 317.5 381 C 258.6816688 381 211 373.3888416 211 364 Z" opacity="0.2"></path></g><g transform="translate(-38,-178) scale(1,1)"><path fill="#0abaff" stroke="none" d="M 204 357 C 204 347.6111584 251.6816688 340 310.5 340 C 369.3183312 340 417 347.6111584 417 357 C 417 366.3888416 369.3183312 374 310.5 374 C 251.6816688 374 204 366.3888416 204 357 Z"></path></g><g transform="translate(-38,-178) scale(1,1)"><path fill="none" stroke="#000000" d="M 204 357 C 204 347.6111584 251.6816688 340 310.5 340 C 369.3183312 340 417 347.6111584 417 357 C 417 366.3888416 369.3183312 374 310.5 374 C 251.6816688 374 204 366.3888416 204 357 Z" stroke-miterlimit="10"></path></g><g transform="translate(-38,-178) scale(1,1)"><g><path fill="none" stroke="none"></path><text fill="#000000" stroke="none" font-family="Helvetica" font-size="13px" font-style="normal" font-weight="bold" text-decoration="none" x="245.5" y="364">Écrire les informations</text></g></g><g transform="translate(-38,-178) scale(1,1)"><path fill="#C0C0C0" stroke="none" d="M 435 256 C 435 246.6111584 451.78932 239 472.5 239 C 493.21068 239 510 246.6111584 510 256 C 510 265.3888416 493.21068 273 472.5 273 C 451.78932 273 435 265.3888416 435 256 Z" opacity="0.2"></path></g><g transform="translate(-38,-178) scale(1,1)"><path fill="#0abaff" stroke="none" d="M 428 249 C 428 239.6111584 444.78932 232 465.5 232 C 486.21068 232 503 239.6111584 503 249 C 503 258.3888416 486.21068 266 465.5 266 C 444.78932 266 428 258.3888416 428 249 Z"></path></g><g transform="translate(-38,-178) scale(1,1)"><path fill="none" stroke="#000000" d="M 428 249 C 428 239.6111584 444.78932 232 465.5 232 C 486.21068 232 503 239.6111584 503 249 C 503 258.3888416 486.21068 266 465.5 266 C 444.78932 266 428 258.3888416 428 249 Z" stroke-miterlimit="10"></path></g><g transform="translate(-38,-178) scale(1,1)"><g><path fill="none" stroke="none"></path><text fill="#000000" stroke="none" font-family="Helvetica" font-size="13px" font-style="normal" font-weight="bold" text-decoration="none" x="445.5" y="256">Valider</text></g></g><g transform="translate(-38,-178) scale(1,1)"><path fill="#C0C0C0" stroke="none" d="M 479 336 C 479 326.6111584 521.0852288 319 573 319 C 624.9147712 319 667 326.6111584 667 336 C 667 345.3888416 624.9147712 353 573 353 C 521.0852288 353 479 345.3888416 479 336 Z" opacity="0.2"></path></g><g transform="translate(-38,-178) scale(1,1)"><path fill="#0abaff" stroke="none" d="M 472 329 C 472 319.6111584 514.0852288 312 566 312 C 617.9147712 312 660 319.6111584 660 329 C 660 338.3888416 617.9147712 346 566 346 C 514.0852288 346 472 338.3888416 472 329 Z"></path></g><g transform="translate(-38,-178) scale(1,1)"><path fill="none" stroke="#000000" d="M 472 329 C 472 319.6111584 514.0852288 312 566 312 C 617.9147712 312 660 319.6111584 660 329 C 660 338.3888416 617.9147712 346 566 346 C 514.0852288 346 472 338.3888416 472 329 Z" stroke-miterlimit="10"></path></g><g transform="translate(-38,-178) scale(1,1)"><g><path fill="none" stroke="none"></path><text fill="#000000" stroke="none" font-family="Helvetica" font-size="13px" font-style="normal" font-weight="bold" text-decoration="none" x="508" y="336">Aliments et quantité</text></g></g><g transform="translate(-38,-178) scale(1,1)"><path fill="#C0C0C0" stroke="none" d="M 515 388 C 515 378.6111584 538.0573328 371 566.5 371 C 594.9426672 371 618 378.6111584 618 388 C 618 397.3888416 594.9426672 405 566.5 405 C 538.0573328 405 515 397.3888416 515 388 Z" opacity="0.2"></path></g><g transform="translate(-38,-178) scale(1,1)"><path fill="#0abaff" stroke="none" d="M 508 381 C 508 371.6111584 531.0573328 364 559.5 364 C 587.9426672 364 611 371.6111584 611 381 C 611 390.3888416 587.9426672 398 559.5 398 C 531.0573328 398 508 390.3888416 508 381 Z"></path></g><g transform="translate(-38,-178) scale(1,1)"><path fill="none" stroke="#000000" d="M 508 381 C 508 371.6111584 531.0573328 364 559.5 364 C 587.9426672 364 611 371.6111584 611 381 C 611 390.3888416 587.9426672 398 559.5 398 C 531.0573328 398 508 390.3888416 508 381 Z" stroke-miterlimit="10"></path></g><g transform="translate(-38,-178) scale(1,1)"><g><path fill="none" stroke="none"></path><text fill="#000000" stroke="none" font-family="Helvetica" font-size="13px" font-style="normal" font-weight="bold" text-decoration="none" x="530" y="388">Procédure</text></g></g><g transform="translate(-38,-178) scale(1,1)"><path fill="#C0C0C0" stroke="none" d="M 483 436 C 483 426.6111584 508.5197664 419 540 419 C 571.4802336 419 597 426.6111584 597 436 C 597 445.3888416 571.4802336 453 540 453 C 508.5197664 453 483 445.3888416 483 436 Z" opacity="0.2"></path></g><g transform="translate(-38,-178) scale(1,1)"><path fill="#0abaff" stroke="none" d="M 476 429 C 476 419.6111584 501.5197664 412 533 412 C 564.4802336 412 590 419.6111584 590 429 C 590 438.3888416 564.4802336 446 533 446 C 501.5197664 446 476 438.3888416 476 429 Z"></path></g><g transform="translate(-38,-178) scale(1,1)"><path fill="none" stroke="#000000" d="M 476 429 C 476 419.6111584 501.5197664 412 533 412 C 564.4802336 412 590 419.6111584 590 429 C 590 438.3888416 564.4802336 446 533 446 C 501.5197664 446 476 438.3888416 476 429 Z" stroke-miterlimit="10"></path></g><g transform="translate(-38,-178) scale(1,1)"><g><path fill="none" stroke="none"></path><text fill="#000000" stroke="none" font-family="Helvetica" font-size="13px" font-style="normal" font-weight="bold" text-decoration="none" x="500" y="436">Préparation</text></g></g><g transform="translate(-38,-178) scale(1,1)"><path fill="#C0C0C0" stroke="none" d="M 399 484 C 399 474.6111584 424.2959088 467 455.5 467 C 486.7040912 467 512 474.6111584 512 484 C 512 493.3888416 486.7040912 501 455.5 501 C 424.2959088 501 399 493.3888416 399 484 Z" opacity="0.2"></path></g><g transform="translate(-38,-178) scale(1,1)"><path fill="#0abaff" stroke="none" d="M 392 477 C 392 467.6111584 417.2959088 460 448.5 460 C 479.7040912 460 505 467.6111584 505 477 C 505 486.3888416 479.7040912 494 448.5 494 C 417.2959088 494 392 486.3888416 392 477 Z"></path></g><g transform="translate(-38,-178) scale(1,1)"><path fill="none" stroke="#000000" d="M 392 477 C 392 467.6111584 417.2959088 460 448.5 460 C 479.7040912 460 505 467.6111584 505 477 C 505 486.3888416 479.7040912 494 448.5 494 C 417.2959088 494 392 486.3888416 392 477 Z" stroke-miterlimit="10"></path></g><g transform="translate(-38,-178) scale(1,1)"><g><path fill="none" stroke="none"></path><text fill="#000000" stroke="none" font-family="Helvetica" font-size="13px" font-style="normal" font-weight="bold" text-decoration="none" x="416" y="484">Description</text></g></g><g transform="translate(-38,-178) scale(1,1)"><path fill="none" stroke="#000000" d="M 336 339 L 439 267" stroke-miterlimit="10" stroke-dasharray="3"></path></g><g transform="translate(-38,-178) scale(1,1)"><path fill="none" stroke="#000000" d="M 433.08236628640503 276.2726269865516 L 439 267 L 428.25886365093487 269.37233849414287" stroke-miterlimit="10"></path></g><g transform="translate(-38,-178) scale(1,1)"><g><path fill="none" stroke="none"></path><text fill="#000000" stroke="none" font-family="Arial" font-size="13px" font-style="normal" font-weight="normal" text-decoration="none" x="327" y="271">«include»</text></g></g><g transform="translate(-38,-178) scale(1,1)"><path fill="none" stroke="#000000" d="M 471 339 L 418 345" stroke-miterlimit="10" stroke-dasharray="3"></path></g><g transform="translate(-38,-178) scale(1,1)"><path fill="none" stroke="#000000" d="M 427.6246475311162 339.6740108992057 L 418 345 L 428.5716965454799 348.0396105260853" stroke-miterlimit="10"></path></g><g transform="translate(-38,-178) scale(1,1)"><g><path fill="none" stroke="none"></path><text fill="#000000" stroke="none" font-family="Arial" font-size="13px" font-style="normal" font-weight="normal" text-decoration="none" x="414" y="331">«extend»</text></g></g><g transform="translate(-38,-178) scale(1,1)"><path fill="none" stroke="#000000" d="M 507 376 L 418 367" stroke-miterlimit="10" stroke-dasharray="3"></path></g><g transform="translate(-38,-178) scale(1,1)"><path fill="none" stroke="#000000" d="M 428.53462996463804 363.8343134223126 L 418 367 L 427.68758673148056 372.21062983909263" stroke-miterlimit="10"></path></g><g transform="translate(-38,-178) scale(1,1)"><g><path fill="none" stroke="none"></path><text fill="#000000" stroke="none" font-family="Arial" font-size="13px" font-style="normal" font-weight="normal" text-decoration="none" x="433" y="364">«extend»</text></g></g><g transform="translate(-38,-178) scale(1,1)"><path fill="none" stroke="#000000" d="M 477 411 L 366 375" stroke-miterlimit="10" stroke-dasharray="3"></path></g><g transform="translate(-38,-178) scale(1,1)"><path fill="none" stroke="#000000" d="M 376.9656242303319 374.1310435919116 L 366 375 L 374.36831222192603 382.1394222844964" stroke-miterlimit="10"></path></g><g transform="translate(-38,-178) scale(1,1)"><g><path fill="none" stroke="none"></path><text fill="#000000" stroke="none" font-family="Arial" font-size="13px" font-style="normal" font-weight="normal" text-decoration="none" x="385" y="413">«extend»</text></g></g><g transform="translate(-38,-178) scale(1,1)"><path fill="none" stroke="#000000" d="M 427 459 L 331 375" stroke-miterlimit="10" stroke-dasharray="3"></path></g><g transform="translate(-38,-178) scale(1,1)"><path fill="none" stroke="#000000" d="M 341.4201790929724 378.5241832628826 L 331 375 L 335.8762054144906 384.86015318114744" stroke-miterlimit="10"></path></g><g transform="translate(-38,-178) scale(1,1)"><g><path fill="none" stroke="none"></path><text fill="#000000" stroke="none" font-family="Arial" font-size="13px" font-style="normal" font-weight="normal" text-decoration="none" x="334" y="435">«extend»</text></g></g><g transform="translate(-38,-178) scale(1,1)"><path fill="#C0C0C0" stroke="none" d="M 199 520 C 199 510.6111584 234.3695008 503 278 503 C 321.63049920000003 503 357 510.6111584 357 520 C 357 529.3888416 321.63049920000003 537 278 537 C 234.3695008 537 199 529.3888416 199 520 Z" opacity="0.2"></path></g><g transform="translate(-38,-178) scale(1,1)"><path fill="#0abaff" stroke="none" d="M 192 513 C 192 503.6111584 227.3695008 496 271 496 C 314.63049920000003 496 350 503.6111584 350 513 C 350 522.3888416 314.63049920000003 530 271 530 C 227.3695008 530 192 522.3888416 192 513 Z"></path></g><g transform="translate(-38,-178) scale(1,1)"><path fill="none" stroke="#000000" d="M 192 513 C 192 503.6111584 227.3695008 496 271 496 C 314.63049920000003 496 350 503.6111584 350 513 C 350 522.3888416 314.63049920000003 530 271 530 C 227.3695008 530 192 522.3888416 192 513 Z" stroke-miterlimit="10"></path></g><g transform="translate(-38,-178) scale(1,1)"><g><path fill="none" stroke="none"></path><text fill="#000000" stroke="none" font-family="Helvetica" font-size="13px" font-style="normal" font-weight="bold" text-decoration="none" x="220.5" y="520">MàJ des recettes</text></g></g><g transform="translate(-38,-178) scale(1,1)"><path fill="none" stroke="#000000" d="M 306 375 L 276 495" stroke-miterlimit="10"></path></g><g transform="translate(-38,-178) scale(1,1)"><path fill="none" stroke="#000000" d="M 274.38097861840737 484.1197991854035 L 276 495 L 282.5486427788624 486.1617152255173" stroke-miterlimit="10"></path></g><g transform="translate(-38,-178) scale(1,1)"><path fill="#0abaff" stroke="none" d="M 64.23054545454545 405.40999999999997 C 64.23054545454545 394.13786723199996 73.08163075025455 385 84 385 C 94.91836924974545 385 103.76945454545454 394.13786723199996 103.76945454545454 405.40999999999997 C 103.76945454545454 416.682132768 94.91836924974545 425.82 84 425.82 C 73.08163075025455 425.82 64.23054545454545 416.682132768 64.23054545454545 405.40999999999997 Z"></path></g><g transform="translate(-38,-178) scale(1,1)"><path fill="none" stroke="#000000" d="M 64.23054545454545 405.40999999999997 C 64.23054545454545 394.13786723199996 73.08163075025455 385 84 385 C 94.91836924974545 385 103.76945454545454 394.13786723199996 103.76945454545454 405.40999999999997 C 103.76945454545454 416.682132768 94.91836924974545 425.82 84 425.82 C 73.08163075025455 425.82 64.23054545454545 416.682132768 64.23054545454545 405.40999999999997 Z" stroke-miterlimit="10"></path></g><g transform="translate(-38,-178) scale(1,1)"><path fill="none" stroke="#000000" d="M 84 425.82 L 84 465.18" stroke-miterlimit="10"></path></g><g transform="translate(-38,-178) scale(1,1)"><path fill="none" stroke="#000000" d="M 63.06763636363637 440.58 L 104.93236363636363 440.58" stroke-miterlimit="10"></path></g><g transform="translate(-38,-178) scale(1,1)"><path fill="none" stroke="#000000" d="M 84 465.18 L 54.92727272727273 506" stroke-miterlimit="10"></path></g><g transform="translate(-38,-178) scale(1,1)"><path fill="none" stroke="#000000" d="M 84 465.18 L 113.07272727272726 506" stroke-miterlimit="10"></path></g><g transform="translate(-38,-178) scale(1,1)"><g><path fill="none" stroke="none"></path><text fill="#000000" stroke="none" font-family="Helvetica" font-size="13px" font-style="normal" font-weight="bold" text-decoration="none" x="55" y="526.5">Utilisateur</text></g></g><g transform="translate(-38,-178) scale(1,1)"><path fill="none" stroke="#000000" d="M 121 441 L 270 375" stroke-miterlimit="10"></path></g><g transform="translate(-38,-178) scale(1,1)"><path fill="#0abaff" stroke="none" d="M 716.2305454545454 217.41 C 716.2305454545454 206.137867232 725.0816307502546 197 736 197 C 746.9183692497454 197 755.7694545454546 206.137867232 755.7694545454546 217.41 C 755.7694545454546 228.682132768 746.9183692497454 237.82 736 237.82 C 725.0816307502546 237.82 716.2305454545454 228.682132768 716.2305454545454 217.41 Z"></path></g><g transform="translate(-38,-178) scale(1,1)"><path fill="none" stroke="#000000" d="M 716.2305454545454 217.41 C 716.2305454545454 206.137867232 725.0816307502546 197 736 197 C 746.9183692497454 197 755.7694545454546 206.137867232 755.7694545454546 217.41 C 755.7694545454546 228.682132768 746.9183692497454 237.82 736 237.82 C 725.0816307502546 237.82 716.2305454545454 228.682132768 716.2305454545454 217.41 Z" stroke-miterlimit="10"></path></g><g transform="translate(-38,-178) scale(1,1)"><path fill="none" stroke="#000000" d="M 736 237.82 L 736 277.18" stroke-miterlimit="10"></path></g><g transform="translate(-38,-178) scale(1,1)"><path fill="none" stroke="#000000" d="M 715.0676363636364 252.57999999999998 L 756.9323636363636 252.57999999999998" stroke-miterlimit="10"></path></g><g transform="translate(-38,-178) scale(1,1)"><path fill="none" stroke="#000000" d="M 736 277.18 L 706.9272727272728 318" stroke-miterlimit="10"></path></g><g transform="translate(-38,-178) scale(1,1)"><path fill="none" stroke="#000000" d="M 736 277.18 L 765.0727272727272 318" stroke-miterlimit="10"></path></g><g transform="translate(-38,-178) scale(1,1)"><g><path fill="none" stroke="none"></path><text fill="#000000" stroke="none" font-family="Helvetica" font-size="13px" font-style="normal" font-weight="bold" text-decoration="none" x="707" y="338.5">Validateur</text></g></g><g transform="translate(-38,-178) scale(1,1)"><path fill="none" stroke="#000000" d="M 699 267 L 504 252" stroke-miterlimit="10"></path></g></g></svg>